%TF.GenerationSoftware,KiCad,Pcbnew,7.0.1*%
%TF.CreationDate,2023-05-11T16:25:53+02:00*%
%TF.ProjectId,Generic_Buck_Converter,47656e65-7269-4635-9f42-75636b5f436f,rev?*%
%TF.SameCoordinates,Original*%
%TF.FileFunction,Drillmap*%
%TF.FilePolarity,Positive*%
%FSLAX45Y45*%
G04 Gerber Fmt 4.5, Leading zero omitted, Abs format (unit mm)*
G04 Created by KiCad (PCBNEW 7.0.1) date 2023-05-11 16:25:53*
%MOMM*%
%LPD*%
G01*
G04 APERTURE LIST*
%ADD10C,0.100000*%
%ADD11C,0.200000*%
G04 APERTURE END LIST*
D10*
X10000000Y-10000000D02*
X11780000Y-10000000D01*
X11780000Y-12705000D01*
X10000000Y-12705000D01*
X10000000Y-10000000D01*
D11*
X10242619Y-13022524D02*
X10242619Y-12822524D01*
X10242619Y-12822524D02*
X10290238Y-12822524D01*
X10290238Y-12822524D02*
X10318810Y-12832048D01*
X10318810Y-12832048D02*
X10337857Y-12851095D01*
X10337857Y-12851095D02*
X10347381Y-12870143D01*
X10347381Y-12870143D02*
X10356905Y-12908238D01*
X10356905Y-12908238D02*
X10356905Y-12936809D01*
X10356905Y-12936809D02*
X10347381Y-12974905D01*
X10347381Y-12974905D02*
X10337857Y-12993952D01*
X10337857Y-12993952D02*
X10318810Y-13013000D01*
X10318810Y-13013000D02*
X10290238Y-13022524D01*
X10290238Y-13022524D02*
X10242619Y-13022524D01*
X10442619Y-13022524D02*
X10442619Y-12889190D01*
X10442619Y-12927286D02*
X10452143Y-12908238D01*
X10452143Y-12908238D02*
X10461667Y-12898714D01*
X10461667Y-12898714D02*
X10480714Y-12889190D01*
X10480714Y-12889190D02*
X10499762Y-12889190D01*
X10566429Y-13022524D02*
X10566429Y-12889190D01*
X10566429Y-12822524D02*
X10556905Y-12832048D01*
X10556905Y-12832048D02*
X10566429Y-12841571D01*
X10566429Y-12841571D02*
X10575952Y-12832048D01*
X10575952Y-12832048D02*
X10566429Y-12822524D01*
X10566429Y-12822524D02*
X10566429Y-12841571D01*
X10690238Y-13022524D02*
X10671190Y-13013000D01*
X10671190Y-13013000D02*
X10661667Y-12993952D01*
X10661667Y-12993952D02*
X10661667Y-12822524D01*
X10795000Y-13022524D02*
X10775952Y-13013000D01*
X10775952Y-13013000D02*
X10766429Y-12993952D01*
X10766429Y-12993952D02*
X10766429Y-12822524D01*
X11023571Y-13022524D02*
X11023571Y-12822524D01*
X11023571Y-12822524D02*
X11090238Y-12965381D01*
X11090238Y-12965381D02*
X11156905Y-12822524D01*
X11156905Y-12822524D02*
X11156905Y-13022524D01*
X11337857Y-13022524D02*
X11337857Y-12917762D01*
X11337857Y-12917762D02*
X11328333Y-12898714D01*
X11328333Y-12898714D02*
X11309286Y-12889190D01*
X11309286Y-12889190D02*
X11271190Y-12889190D01*
X11271190Y-12889190D02*
X11252143Y-12898714D01*
X11337857Y-13013000D02*
X11318809Y-13022524D01*
X11318809Y-13022524D02*
X11271190Y-13022524D01*
X11271190Y-13022524D02*
X11252143Y-13013000D01*
X11252143Y-13013000D02*
X11242619Y-12993952D01*
X11242619Y-12993952D02*
X11242619Y-12974905D01*
X11242619Y-12974905D02*
X11252143Y-12955857D01*
X11252143Y-12955857D02*
X11271190Y-12946333D01*
X11271190Y-12946333D02*
X11318809Y-12946333D01*
X11318809Y-12946333D02*
X11337857Y-12936809D01*
X11433095Y-12889190D02*
X11433095Y-13089190D01*
X11433095Y-12898714D02*
X11452143Y-12889190D01*
X11452143Y-12889190D02*
X11490238Y-12889190D01*
X11490238Y-12889190D02*
X11509286Y-12898714D01*
X11509286Y-12898714D02*
X11518809Y-12908238D01*
X11518809Y-12908238D02*
X11528333Y-12927286D01*
X11528333Y-12927286D02*
X11528333Y-12984428D01*
X11528333Y-12984428D02*
X11518809Y-13003476D01*
X11518809Y-13003476D02*
X11509286Y-13013000D01*
X11509286Y-13013000D02*
X11490238Y-13022524D01*
X11490238Y-13022524D02*
X11452143Y-13022524D01*
X11452143Y-13022524D02*
X11433095Y-13013000D01*
X11614048Y-13003476D02*
X11623571Y-13013000D01*
X11623571Y-13013000D02*
X11614048Y-13022524D01*
X11614048Y-13022524D02*
X11604524Y-13013000D01*
X11604524Y-13013000D02*
X11614048Y-13003476D01*
X11614048Y-13003476D02*
X11614048Y-13022524D01*
X11614048Y-12898714D02*
X11623571Y-12908238D01*
X11623571Y-12908238D02*
X11614048Y-12917762D01*
X11614048Y-12917762D02*
X11604524Y-12908238D01*
X11604524Y-12908238D02*
X11614048Y-12898714D01*
X11614048Y-12898714D02*
X11614048Y-12917762D01*
M02*
