%TF.GenerationSoftware,KiCad,Pcbnew,7.0.1*%
%TF.CreationDate,2023-05-11T16:23:10+02:00*%
%TF.ProjectId,Generic_Buck_Converter,47656e65-7269-4635-9f42-75636b5f436f,rev?*%
%TF.SameCoordinates,Original*%
%TF.FileFunction,Legend,Top*%
%TF.FilePolarity,Positive*%
%FSLAX46Y46*%
G04 Gerber Fmt 4.6, Leading zero omitted, Abs format (unit mm)*
G04 Created by KiCad (PCBNEW 7.0.1) date 2023-05-11 16:23:10*
%MOMM*%
%LPD*%
G01*
G04 APERTURE LIST*
G04 Aperture macros list*
%AMRoundRect*
0 Rectangle with rounded corners*
0 $1 Rounding radius*
0 $2 $3 $4 $5 $6 $7 $8 $9 X,Y pos of 4 corners*
0 Add a 4 corners polygon primitive as box body*
4,1,4,$2,$3,$4,$5,$6,$7,$8,$9,$2,$3,0*
0 Add four circle primitives for the rounded corners*
1,1,$1+$1,$2,$3*
1,1,$1+$1,$4,$5*
1,1,$1+$1,$6,$7*
1,1,$1+$1,$8,$9*
0 Add four rect primitives between the rounded corners*
20,1,$1+$1,$2,$3,$4,$5,0*
20,1,$1+$1,$4,$5,$6,$7,0*
20,1,$1+$1,$6,$7,$8,$9,0*
20,1,$1+$1,$8,$9,$2,$3,0*%
G04 Aperture macros list end*
%ADD10C,0.150000*%
%ADD11C,0.120000*%
%ADD12RoundRect,0.135000X0.135000X0.185000X-0.135000X0.185000X-0.135000X-0.185000X0.135000X-0.185000X0*%
%ADD13RoundRect,0.250000X-0.325000X-1.100000X0.325000X-1.100000X0.325000X1.100000X-0.325000X1.100000X0*%
%ADD14RoundRect,0.250000X0.325000X1.100000X-0.325000X1.100000X-0.325000X-1.100000X0.325000X-1.100000X0*%
%ADD15R,1.430000X5.500000*%
%ADD16RoundRect,0.135000X-0.185000X0.135000X-0.185000X-0.135000X0.185000X-0.135000X0.185000X0.135000X0*%
%ADD17RoundRect,0.140000X0.170000X-0.140000X0.170000X0.140000X-0.170000X0.140000X-0.170000X-0.140000X0*%
%ADD18RoundRect,0.135000X0.185000X-0.135000X0.185000X0.135000X-0.185000X0.135000X-0.185000X-0.135000X0*%
%ADD19RoundRect,0.140000X-0.170000X0.140000X-0.170000X-0.140000X0.170000X-0.140000X0.170000X0.140000X0*%
%ADD20RoundRect,0.140000X0.140000X0.170000X-0.140000X0.170000X-0.140000X-0.170000X0.140000X-0.170000X0*%
%ADD21RoundRect,0.062500X-0.062500X0.300000X-0.062500X-0.300000X0.062500X-0.300000X0.062500X0.300000X0*%
%ADD22RoundRect,0.062500X-0.300000X0.062500X-0.300000X-0.062500X0.300000X-0.062500X0.300000X0.062500X0*%
%ADD23R,2.900000X2.900000*%
%ADD24R,1.700000X1.700000*%
%ADD25O,1.700000X1.700000*%
G04 APERTURE END LIST*
D10*
X102323333Y-108932619D02*
X101990000Y-108456428D01*
X101751905Y-108932619D02*
X101751905Y-107932619D01*
X101751905Y-107932619D02*
X102132857Y-107932619D01*
X102132857Y-107932619D02*
X102228095Y-107980238D01*
X102228095Y-107980238D02*
X102275714Y-108027857D01*
X102275714Y-108027857D02*
X102323333Y-108123095D01*
X102323333Y-108123095D02*
X102323333Y-108265952D01*
X102323333Y-108265952D02*
X102275714Y-108361190D01*
X102275714Y-108361190D02*
X102228095Y-108408809D01*
X102228095Y-108408809D02*
X102132857Y-108456428D01*
X102132857Y-108456428D02*
X101751905Y-108456428D01*
X103180476Y-108265952D02*
X103180476Y-108932619D01*
X102942381Y-107885000D02*
X102704286Y-108599285D01*
X102704286Y-108599285D02*
X103323333Y-108599285D01*
X114783333Y-117667380D02*
X114735714Y-117715000D01*
X114735714Y-117715000D02*
X114592857Y-117762619D01*
X114592857Y-117762619D02*
X114497619Y-117762619D01*
X114497619Y-117762619D02*
X114354762Y-117715000D01*
X114354762Y-117715000D02*
X114259524Y-117619761D01*
X114259524Y-117619761D02*
X114211905Y-117524523D01*
X114211905Y-117524523D02*
X114164286Y-117334047D01*
X114164286Y-117334047D02*
X114164286Y-117191190D01*
X114164286Y-117191190D02*
X114211905Y-117000714D01*
X114211905Y-117000714D02*
X114259524Y-116905476D01*
X114259524Y-116905476D02*
X114354762Y-116810238D01*
X114354762Y-116810238D02*
X114497619Y-116762619D01*
X114497619Y-116762619D02*
X114592857Y-116762619D01*
X114592857Y-116762619D02*
X114735714Y-116810238D01*
X114735714Y-116810238D02*
X114783333Y-116857857D01*
X115259524Y-117762619D02*
X115450000Y-117762619D01*
X115450000Y-117762619D02*
X115545238Y-117715000D01*
X115545238Y-117715000D02*
X115592857Y-117667380D01*
X115592857Y-117667380D02*
X115688095Y-117524523D01*
X115688095Y-117524523D02*
X115735714Y-117334047D01*
X115735714Y-117334047D02*
X115735714Y-116953095D01*
X115735714Y-116953095D02*
X115688095Y-116857857D01*
X115688095Y-116857857D02*
X115640476Y-116810238D01*
X115640476Y-116810238D02*
X115545238Y-116762619D01*
X115545238Y-116762619D02*
X115354762Y-116762619D01*
X115354762Y-116762619D02*
X115259524Y-116810238D01*
X115259524Y-116810238D02*
X115211905Y-116857857D01*
X115211905Y-116857857D02*
X115164286Y-116953095D01*
X115164286Y-116953095D02*
X115164286Y-117191190D01*
X115164286Y-117191190D02*
X115211905Y-117286428D01*
X115211905Y-117286428D02*
X115259524Y-117334047D01*
X115259524Y-117334047D02*
X115354762Y-117381666D01*
X115354762Y-117381666D02*
X115545238Y-117381666D01*
X115545238Y-117381666D02*
X115640476Y-117334047D01*
X115640476Y-117334047D02*
X115688095Y-117286428D01*
X115688095Y-117286428D02*
X115735714Y-117191190D01*
X110183333Y-122267380D02*
X110135714Y-122315000D01*
X110135714Y-122315000D02*
X109992857Y-122362619D01*
X109992857Y-122362619D02*
X109897619Y-122362619D01*
X109897619Y-122362619D02*
X109754762Y-122315000D01*
X109754762Y-122315000D02*
X109659524Y-122219761D01*
X109659524Y-122219761D02*
X109611905Y-122124523D01*
X109611905Y-122124523D02*
X109564286Y-121934047D01*
X109564286Y-121934047D02*
X109564286Y-121791190D01*
X109564286Y-121791190D02*
X109611905Y-121600714D01*
X109611905Y-121600714D02*
X109659524Y-121505476D01*
X109659524Y-121505476D02*
X109754762Y-121410238D01*
X109754762Y-121410238D02*
X109897619Y-121362619D01*
X109897619Y-121362619D02*
X109992857Y-121362619D01*
X109992857Y-121362619D02*
X110135714Y-121410238D01*
X110135714Y-121410238D02*
X110183333Y-121457857D01*
X111040476Y-121695952D02*
X111040476Y-122362619D01*
X110802381Y-121315000D02*
X110564286Y-122029285D01*
X110564286Y-122029285D02*
X111183333Y-122029285D01*
X102323333Y-109882619D02*
X101990000Y-109406428D01*
X101751905Y-109882619D02*
X101751905Y-108882619D01*
X101751905Y-108882619D02*
X102132857Y-108882619D01*
X102132857Y-108882619D02*
X102228095Y-108930238D01*
X102228095Y-108930238D02*
X102275714Y-108977857D01*
X102275714Y-108977857D02*
X102323333Y-109073095D01*
X102323333Y-109073095D02*
X102323333Y-109215952D01*
X102323333Y-109215952D02*
X102275714Y-109311190D01*
X102275714Y-109311190D02*
X102228095Y-109358809D01*
X102228095Y-109358809D02*
X102132857Y-109406428D01*
X102132857Y-109406428D02*
X101751905Y-109406428D01*
X103180476Y-108882619D02*
X102990000Y-108882619D01*
X102990000Y-108882619D02*
X102894762Y-108930238D01*
X102894762Y-108930238D02*
X102847143Y-108977857D01*
X102847143Y-108977857D02*
X102751905Y-109120714D01*
X102751905Y-109120714D02*
X102704286Y-109311190D01*
X102704286Y-109311190D02*
X102704286Y-109692142D01*
X102704286Y-109692142D02*
X102751905Y-109787380D01*
X102751905Y-109787380D02*
X102799524Y-109835000D01*
X102799524Y-109835000D02*
X102894762Y-109882619D01*
X102894762Y-109882619D02*
X103085238Y-109882619D01*
X103085238Y-109882619D02*
X103180476Y-109835000D01*
X103180476Y-109835000D02*
X103228095Y-109787380D01*
X103228095Y-109787380D02*
X103275714Y-109692142D01*
X103275714Y-109692142D02*
X103275714Y-109454047D01*
X103275714Y-109454047D02*
X103228095Y-109358809D01*
X103228095Y-109358809D02*
X103180476Y-109311190D01*
X103180476Y-109311190D02*
X103085238Y-109263571D01*
X103085238Y-109263571D02*
X102894762Y-109263571D01*
X102894762Y-109263571D02*
X102799524Y-109311190D01*
X102799524Y-109311190D02*
X102751905Y-109358809D01*
X102751905Y-109358809D02*
X102704286Y-109454047D01*
X110183333Y-108567380D02*
X110135714Y-108615000D01*
X110135714Y-108615000D02*
X109992857Y-108662619D01*
X109992857Y-108662619D02*
X109897619Y-108662619D01*
X109897619Y-108662619D02*
X109754762Y-108615000D01*
X109754762Y-108615000D02*
X109659524Y-108519761D01*
X109659524Y-108519761D02*
X109611905Y-108424523D01*
X109611905Y-108424523D02*
X109564286Y-108234047D01*
X109564286Y-108234047D02*
X109564286Y-108091190D01*
X109564286Y-108091190D02*
X109611905Y-107900714D01*
X109611905Y-107900714D02*
X109659524Y-107805476D01*
X109659524Y-107805476D02*
X109754762Y-107710238D01*
X109754762Y-107710238D02*
X109897619Y-107662619D01*
X109897619Y-107662619D02*
X109992857Y-107662619D01*
X109992857Y-107662619D02*
X110135714Y-107710238D01*
X110135714Y-107710238D02*
X110183333Y-107757857D01*
X110754762Y-108091190D02*
X110659524Y-108043571D01*
X110659524Y-108043571D02*
X110611905Y-107995952D01*
X110611905Y-107995952D02*
X110564286Y-107900714D01*
X110564286Y-107900714D02*
X110564286Y-107853095D01*
X110564286Y-107853095D02*
X110611905Y-107757857D01*
X110611905Y-107757857D02*
X110659524Y-107710238D01*
X110659524Y-107710238D02*
X110754762Y-107662619D01*
X110754762Y-107662619D02*
X110945238Y-107662619D01*
X110945238Y-107662619D02*
X111040476Y-107710238D01*
X111040476Y-107710238D02*
X111088095Y-107757857D01*
X111088095Y-107757857D02*
X111135714Y-107853095D01*
X111135714Y-107853095D02*
X111135714Y-107900714D01*
X111135714Y-107900714D02*
X111088095Y-107995952D01*
X111088095Y-107995952D02*
X111040476Y-108043571D01*
X111040476Y-108043571D02*
X110945238Y-108091190D01*
X110945238Y-108091190D02*
X110754762Y-108091190D01*
X110754762Y-108091190D02*
X110659524Y-108138809D01*
X110659524Y-108138809D02*
X110611905Y-108186428D01*
X110611905Y-108186428D02*
X110564286Y-108281666D01*
X110564286Y-108281666D02*
X110564286Y-108472142D01*
X110564286Y-108472142D02*
X110611905Y-108567380D01*
X110611905Y-108567380D02*
X110659524Y-108615000D01*
X110659524Y-108615000D02*
X110754762Y-108662619D01*
X110754762Y-108662619D02*
X110945238Y-108662619D01*
X110945238Y-108662619D02*
X111040476Y-108615000D01*
X111040476Y-108615000D02*
X111088095Y-108567380D01*
X111088095Y-108567380D02*
X111135714Y-108472142D01*
X111135714Y-108472142D02*
X111135714Y-108281666D01*
X111135714Y-108281666D02*
X111088095Y-108186428D01*
X111088095Y-108186428D02*
X111040476Y-108138809D01*
X111040476Y-108138809D02*
X110945238Y-108091190D01*
X112283333Y-107232619D02*
X111807143Y-107232619D01*
X111807143Y-107232619D02*
X111807143Y-106232619D01*
X113140476Y-107232619D02*
X112569048Y-107232619D01*
X112854762Y-107232619D02*
X112854762Y-106232619D01*
X112854762Y-106232619D02*
X112759524Y-106375476D01*
X112759524Y-106375476D02*
X112664286Y-106470714D01*
X112664286Y-106470714D02*
X112569048Y-106518333D01*
X103832619Y-109816666D02*
X103356428Y-110149999D01*
X103832619Y-110388094D02*
X102832619Y-110388094D01*
X102832619Y-110388094D02*
X102832619Y-110007142D01*
X102832619Y-110007142D02*
X102880238Y-109911904D01*
X102880238Y-109911904D02*
X102927857Y-109864285D01*
X102927857Y-109864285D02*
X103023095Y-109816666D01*
X103023095Y-109816666D02*
X103165952Y-109816666D01*
X103165952Y-109816666D02*
X103261190Y-109864285D01*
X103261190Y-109864285D02*
X103308809Y-109911904D01*
X103308809Y-109911904D02*
X103356428Y-110007142D01*
X103356428Y-110007142D02*
X103356428Y-110388094D01*
X102832619Y-108911904D02*
X102832619Y-109388094D01*
X102832619Y-109388094D02*
X103308809Y-109435713D01*
X103308809Y-109435713D02*
X103261190Y-109388094D01*
X103261190Y-109388094D02*
X103213571Y-109292856D01*
X103213571Y-109292856D02*
X103213571Y-109054761D01*
X103213571Y-109054761D02*
X103261190Y-108959523D01*
X103261190Y-108959523D02*
X103308809Y-108911904D01*
X103308809Y-108911904D02*
X103404047Y-108864285D01*
X103404047Y-108864285D02*
X103642142Y-108864285D01*
X103642142Y-108864285D02*
X103737380Y-108911904D01*
X103737380Y-108911904D02*
X103785000Y-108959523D01*
X103785000Y-108959523D02*
X103832619Y-109054761D01*
X103832619Y-109054761D02*
X103832619Y-109292856D01*
X103832619Y-109292856D02*
X103785000Y-109388094D01*
X103785000Y-109388094D02*
X103737380Y-109435713D01*
X114307142Y-114467380D02*
X114259523Y-114515000D01*
X114259523Y-114515000D02*
X114116666Y-114562619D01*
X114116666Y-114562619D02*
X114021428Y-114562619D01*
X114021428Y-114562619D02*
X113878571Y-114515000D01*
X113878571Y-114515000D02*
X113783333Y-114419761D01*
X113783333Y-114419761D02*
X113735714Y-114324523D01*
X113735714Y-114324523D02*
X113688095Y-114134047D01*
X113688095Y-114134047D02*
X113688095Y-113991190D01*
X113688095Y-113991190D02*
X113735714Y-113800714D01*
X113735714Y-113800714D02*
X113783333Y-113705476D01*
X113783333Y-113705476D02*
X113878571Y-113610238D01*
X113878571Y-113610238D02*
X114021428Y-113562619D01*
X114021428Y-113562619D02*
X114116666Y-113562619D01*
X114116666Y-113562619D02*
X114259523Y-113610238D01*
X114259523Y-113610238D02*
X114307142Y-113657857D01*
X115259523Y-114562619D02*
X114688095Y-114562619D01*
X114973809Y-114562619D02*
X114973809Y-113562619D01*
X114973809Y-113562619D02*
X114878571Y-113705476D01*
X114878571Y-113705476D02*
X114783333Y-113800714D01*
X114783333Y-113800714D02*
X114688095Y-113848333D01*
X115878571Y-113562619D02*
X115973809Y-113562619D01*
X115973809Y-113562619D02*
X116069047Y-113610238D01*
X116069047Y-113610238D02*
X116116666Y-113657857D01*
X116116666Y-113657857D02*
X116164285Y-113753095D01*
X116164285Y-113753095D02*
X116211904Y-113943571D01*
X116211904Y-113943571D02*
X116211904Y-114181666D01*
X116211904Y-114181666D02*
X116164285Y-114372142D01*
X116164285Y-114372142D02*
X116116666Y-114467380D01*
X116116666Y-114467380D02*
X116069047Y-114515000D01*
X116069047Y-114515000D02*
X115973809Y-114562619D01*
X115973809Y-114562619D02*
X115878571Y-114562619D01*
X115878571Y-114562619D02*
X115783333Y-114515000D01*
X115783333Y-114515000D02*
X115735714Y-114467380D01*
X115735714Y-114467380D02*
X115688095Y-114372142D01*
X115688095Y-114372142D02*
X115640476Y-114181666D01*
X115640476Y-114181666D02*
X115640476Y-113943571D01*
X115640476Y-113943571D02*
X115688095Y-113753095D01*
X115688095Y-113753095D02*
X115735714Y-113657857D01*
X115735714Y-113657857D02*
X115783333Y-113610238D01*
X115783333Y-113610238D02*
X115878571Y-113562619D01*
X105583333Y-114167380D02*
X105535714Y-114215000D01*
X105535714Y-114215000D02*
X105392857Y-114262619D01*
X105392857Y-114262619D02*
X105297619Y-114262619D01*
X105297619Y-114262619D02*
X105154762Y-114215000D01*
X105154762Y-114215000D02*
X105059524Y-114119761D01*
X105059524Y-114119761D02*
X105011905Y-114024523D01*
X105011905Y-114024523D02*
X104964286Y-113834047D01*
X104964286Y-113834047D02*
X104964286Y-113691190D01*
X104964286Y-113691190D02*
X105011905Y-113500714D01*
X105011905Y-113500714D02*
X105059524Y-113405476D01*
X105059524Y-113405476D02*
X105154762Y-113310238D01*
X105154762Y-113310238D02*
X105297619Y-113262619D01*
X105297619Y-113262619D02*
X105392857Y-113262619D01*
X105392857Y-113262619D02*
X105535714Y-113310238D01*
X105535714Y-113310238D02*
X105583333Y-113357857D01*
X106535714Y-114262619D02*
X105964286Y-114262619D01*
X106250000Y-114262619D02*
X106250000Y-113262619D01*
X106250000Y-113262619D02*
X106154762Y-113405476D01*
X106154762Y-113405476D02*
X106059524Y-113500714D01*
X106059524Y-113500714D02*
X105964286Y-113548333D01*
X100457380Y-109816666D02*
X100505000Y-109864285D01*
X100505000Y-109864285D02*
X100552619Y-110007142D01*
X100552619Y-110007142D02*
X100552619Y-110102380D01*
X100552619Y-110102380D02*
X100505000Y-110245237D01*
X100505000Y-110245237D02*
X100409761Y-110340475D01*
X100409761Y-110340475D02*
X100314523Y-110388094D01*
X100314523Y-110388094D02*
X100124047Y-110435713D01*
X100124047Y-110435713D02*
X99981190Y-110435713D01*
X99981190Y-110435713D02*
X99790714Y-110388094D01*
X99790714Y-110388094D02*
X99695476Y-110340475D01*
X99695476Y-110340475D02*
X99600238Y-110245237D01*
X99600238Y-110245237D02*
X99552619Y-110102380D01*
X99552619Y-110102380D02*
X99552619Y-110007142D01*
X99552619Y-110007142D02*
X99600238Y-109864285D01*
X99600238Y-109864285D02*
X99647857Y-109816666D01*
X99552619Y-109483332D02*
X99552619Y-108864285D01*
X99552619Y-108864285D02*
X99933571Y-109197618D01*
X99933571Y-109197618D02*
X99933571Y-109054761D01*
X99933571Y-109054761D02*
X99981190Y-108959523D01*
X99981190Y-108959523D02*
X100028809Y-108911904D01*
X100028809Y-108911904D02*
X100124047Y-108864285D01*
X100124047Y-108864285D02*
X100362142Y-108864285D01*
X100362142Y-108864285D02*
X100457380Y-108911904D01*
X100457380Y-108911904D02*
X100505000Y-108959523D01*
X100505000Y-108959523D02*
X100552619Y-109054761D01*
X100552619Y-109054761D02*
X100552619Y-109340475D01*
X100552619Y-109340475D02*
X100505000Y-109435713D01*
X100505000Y-109435713D02*
X100457380Y-109483332D01*
X105583333Y-105467380D02*
X105535714Y-105515000D01*
X105535714Y-105515000D02*
X105392857Y-105562619D01*
X105392857Y-105562619D02*
X105297619Y-105562619D01*
X105297619Y-105562619D02*
X105154762Y-105515000D01*
X105154762Y-105515000D02*
X105059524Y-105419761D01*
X105059524Y-105419761D02*
X105011905Y-105324523D01*
X105011905Y-105324523D02*
X104964286Y-105134047D01*
X104964286Y-105134047D02*
X104964286Y-104991190D01*
X104964286Y-104991190D02*
X105011905Y-104800714D01*
X105011905Y-104800714D02*
X105059524Y-104705476D01*
X105059524Y-104705476D02*
X105154762Y-104610238D01*
X105154762Y-104610238D02*
X105297619Y-104562619D01*
X105297619Y-104562619D02*
X105392857Y-104562619D01*
X105392857Y-104562619D02*
X105535714Y-104610238D01*
X105535714Y-104610238D02*
X105583333Y-104657857D01*
X105964286Y-104657857D02*
X106011905Y-104610238D01*
X106011905Y-104610238D02*
X106107143Y-104562619D01*
X106107143Y-104562619D02*
X106345238Y-104562619D01*
X106345238Y-104562619D02*
X106440476Y-104610238D01*
X106440476Y-104610238D02*
X106488095Y-104657857D01*
X106488095Y-104657857D02*
X106535714Y-104753095D01*
X106535714Y-104753095D02*
X106535714Y-104848333D01*
X106535714Y-104848333D02*
X106488095Y-104991190D01*
X106488095Y-104991190D02*
X105916667Y-105562619D01*
X105916667Y-105562619D02*
X106535714Y-105562619D01*
X101242619Y-113006666D02*
X100766428Y-113339999D01*
X101242619Y-113578094D02*
X100242619Y-113578094D01*
X100242619Y-113578094D02*
X100242619Y-113197142D01*
X100242619Y-113197142D02*
X100290238Y-113101904D01*
X100290238Y-113101904D02*
X100337857Y-113054285D01*
X100337857Y-113054285D02*
X100433095Y-113006666D01*
X100433095Y-113006666D02*
X100575952Y-113006666D01*
X100575952Y-113006666D02*
X100671190Y-113054285D01*
X100671190Y-113054285D02*
X100718809Y-113101904D01*
X100718809Y-113101904D02*
X100766428Y-113197142D01*
X100766428Y-113197142D02*
X100766428Y-113578094D01*
X101242619Y-112054285D02*
X101242619Y-112625713D01*
X101242619Y-112339999D02*
X100242619Y-112339999D01*
X100242619Y-112339999D02*
X100385476Y-112435237D01*
X100385476Y-112435237D02*
X100480714Y-112530475D01*
X100480714Y-112530475D02*
X100528333Y-112625713D01*
X109977380Y-110616666D02*
X110025000Y-110664285D01*
X110025000Y-110664285D02*
X110072619Y-110807142D01*
X110072619Y-110807142D02*
X110072619Y-110902380D01*
X110072619Y-110902380D02*
X110025000Y-111045237D01*
X110025000Y-111045237D02*
X109929761Y-111140475D01*
X109929761Y-111140475D02*
X109834523Y-111188094D01*
X109834523Y-111188094D02*
X109644047Y-111235713D01*
X109644047Y-111235713D02*
X109501190Y-111235713D01*
X109501190Y-111235713D02*
X109310714Y-111188094D01*
X109310714Y-111188094D02*
X109215476Y-111140475D01*
X109215476Y-111140475D02*
X109120238Y-111045237D01*
X109120238Y-111045237D02*
X109072619Y-110902380D01*
X109072619Y-110902380D02*
X109072619Y-110807142D01*
X109072619Y-110807142D02*
X109120238Y-110664285D01*
X109120238Y-110664285D02*
X109167857Y-110616666D01*
X109072619Y-109711904D02*
X109072619Y-110188094D01*
X109072619Y-110188094D02*
X109548809Y-110235713D01*
X109548809Y-110235713D02*
X109501190Y-110188094D01*
X109501190Y-110188094D02*
X109453571Y-110092856D01*
X109453571Y-110092856D02*
X109453571Y-109854761D01*
X109453571Y-109854761D02*
X109501190Y-109759523D01*
X109501190Y-109759523D02*
X109548809Y-109711904D01*
X109548809Y-109711904D02*
X109644047Y-109664285D01*
X109644047Y-109664285D02*
X109882142Y-109664285D01*
X109882142Y-109664285D02*
X109977380Y-109711904D01*
X109977380Y-109711904D02*
X110025000Y-109759523D01*
X110025000Y-109759523D02*
X110072619Y-109854761D01*
X110072619Y-109854761D02*
X110072619Y-110092856D01*
X110072619Y-110092856D02*
X110025000Y-110188094D01*
X110025000Y-110188094D02*
X109977380Y-110235713D01*
X101583333Y-113077380D02*
X101535714Y-113125000D01*
X101535714Y-113125000D02*
X101392857Y-113172619D01*
X101392857Y-113172619D02*
X101297619Y-113172619D01*
X101297619Y-113172619D02*
X101154762Y-113125000D01*
X101154762Y-113125000D02*
X101059524Y-113029761D01*
X101059524Y-113029761D02*
X101011905Y-112934523D01*
X101011905Y-112934523D02*
X100964286Y-112744047D01*
X100964286Y-112744047D02*
X100964286Y-112601190D01*
X100964286Y-112601190D02*
X101011905Y-112410714D01*
X101011905Y-112410714D02*
X101059524Y-112315476D01*
X101059524Y-112315476D02*
X101154762Y-112220238D01*
X101154762Y-112220238D02*
X101297619Y-112172619D01*
X101297619Y-112172619D02*
X101392857Y-112172619D01*
X101392857Y-112172619D02*
X101535714Y-112220238D01*
X101535714Y-112220238D02*
X101583333Y-112267857D01*
X102440476Y-112172619D02*
X102250000Y-112172619D01*
X102250000Y-112172619D02*
X102154762Y-112220238D01*
X102154762Y-112220238D02*
X102107143Y-112267857D01*
X102107143Y-112267857D02*
X102011905Y-112410714D01*
X102011905Y-112410714D02*
X101964286Y-112601190D01*
X101964286Y-112601190D02*
X101964286Y-112982142D01*
X101964286Y-112982142D02*
X102011905Y-113077380D01*
X102011905Y-113077380D02*
X102059524Y-113125000D01*
X102059524Y-113125000D02*
X102154762Y-113172619D01*
X102154762Y-113172619D02*
X102345238Y-113172619D01*
X102345238Y-113172619D02*
X102440476Y-113125000D01*
X102440476Y-113125000D02*
X102488095Y-113077380D01*
X102488095Y-113077380D02*
X102535714Y-112982142D01*
X102535714Y-112982142D02*
X102535714Y-112744047D01*
X102535714Y-112744047D02*
X102488095Y-112648809D01*
X102488095Y-112648809D02*
X102440476Y-112601190D01*
X102440476Y-112601190D02*
X102345238Y-112553571D01*
X102345238Y-112553571D02*
X102154762Y-112553571D01*
X102154762Y-112553571D02*
X102059524Y-112601190D01*
X102059524Y-112601190D02*
X102011905Y-112648809D01*
X102011905Y-112648809D02*
X101964286Y-112744047D01*
X110183333Y-119067380D02*
X110135714Y-119115000D01*
X110135714Y-119115000D02*
X109992857Y-119162619D01*
X109992857Y-119162619D02*
X109897619Y-119162619D01*
X109897619Y-119162619D02*
X109754762Y-119115000D01*
X109754762Y-119115000D02*
X109659524Y-119019761D01*
X109659524Y-119019761D02*
X109611905Y-118924523D01*
X109611905Y-118924523D02*
X109564286Y-118734047D01*
X109564286Y-118734047D02*
X109564286Y-118591190D01*
X109564286Y-118591190D02*
X109611905Y-118400714D01*
X109611905Y-118400714D02*
X109659524Y-118305476D01*
X109659524Y-118305476D02*
X109754762Y-118210238D01*
X109754762Y-118210238D02*
X109897619Y-118162619D01*
X109897619Y-118162619D02*
X109992857Y-118162619D01*
X109992857Y-118162619D02*
X110135714Y-118210238D01*
X110135714Y-118210238D02*
X110183333Y-118257857D01*
X110516667Y-118162619D02*
X111183333Y-118162619D01*
X111183333Y-118162619D02*
X110754762Y-119162619D01*
X105012619Y-115626666D02*
X104536428Y-115959999D01*
X105012619Y-116198094D02*
X104012619Y-116198094D01*
X104012619Y-116198094D02*
X104012619Y-115817142D01*
X104012619Y-115817142D02*
X104060238Y-115721904D01*
X104060238Y-115721904D02*
X104107857Y-115674285D01*
X104107857Y-115674285D02*
X104203095Y-115626666D01*
X104203095Y-115626666D02*
X104345952Y-115626666D01*
X104345952Y-115626666D02*
X104441190Y-115674285D01*
X104441190Y-115674285D02*
X104488809Y-115721904D01*
X104488809Y-115721904D02*
X104536428Y-115817142D01*
X104536428Y-115817142D02*
X104536428Y-116198094D01*
X104012619Y-115293332D02*
X104012619Y-114674285D01*
X104012619Y-114674285D02*
X104393571Y-115007618D01*
X104393571Y-115007618D02*
X104393571Y-114864761D01*
X104393571Y-114864761D02*
X104441190Y-114769523D01*
X104441190Y-114769523D02*
X104488809Y-114721904D01*
X104488809Y-114721904D02*
X104584047Y-114674285D01*
X104584047Y-114674285D02*
X104822142Y-114674285D01*
X104822142Y-114674285D02*
X104917380Y-114721904D01*
X104917380Y-114721904D02*
X104965000Y-114769523D01*
X104965000Y-114769523D02*
X105012619Y-114864761D01*
X105012619Y-114864761D02*
X105012619Y-115150475D01*
X105012619Y-115150475D02*
X104965000Y-115245713D01*
X104965000Y-115245713D02*
X104917380Y-115293332D01*
X113457619Y-113163689D02*
X112457619Y-113163689D01*
X113362380Y-112116071D02*
X113410000Y-112163690D01*
X113410000Y-112163690D02*
X113457619Y-112306547D01*
X113457619Y-112306547D02*
X113457619Y-112401785D01*
X113457619Y-112401785D02*
X113410000Y-112544642D01*
X113410000Y-112544642D02*
X113314761Y-112639880D01*
X113314761Y-112639880D02*
X113219523Y-112687499D01*
X113219523Y-112687499D02*
X113029047Y-112735118D01*
X113029047Y-112735118D02*
X112886190Y-112735118D01*
X112886190Y-112735118D02*
X112695714Y-112687499D01*
X112695714Y-112687499D02*
X112600476Y-112639880D01*
X112600476Y-112639880D02*
X112505238Y-112544642D01*
X112505238Y-112544642D02*
X112457619Y-112401785D01*
X112457619Y-112401785D02*
X112457619Y-112306547D01*
X112457619Y-112306547D02*
X112505238Y-112163690D01*
X112505238Y-112163690D02*
X112552857Y-112116071D01*
X113457619Y-111163690D02*
X113457619Y-111735118D01*
X113457619Y-111449404D02*
X112457619Y-111449404D01*
X112457619Y-111449404D02*
X112600476Y-111544642D01*
X112600476Y-111544642D02*
X112695714Y-111639880D01*
X112695714Y-111639880D02*
X112743333Y-111735118D01*
X115707619Y-127743333D02*
X116421904Y-127743333D01*
X116421904Y-127743333D02*
X116564761Y-127790952D01*
X116564761Y-127790952D02*
X116660000Y-127886190D01*
X116660000Y-127886190D02*
X116707619Y-128029047D01*
X116707619Y-128029047D02*
X116707619Y-128124285D01*
X116707619Y-126743333D02*
X116707619Y-127314761D01*
X116707619Y-127029047D02*
X115707619Y-127029047D01*
X115707619Y-127029047D02*
X115850476Y-127124285D01*
X115850476Y-127124285D02*
X115945714Y-127219523D01*
X115945714Y-127219523D02*
X115993333Y-127314761D01*
X102882619Y-113116666D02*
X102406428Y-113449999D01*
X102882619Y-113688094D02*
X101882619Y-113688094D01*
X101882619Y-113688094D02*
X101882619Y-113307142D01*
X101882619Y-113307142D02*
X101930238Y-113211904D01*
X101930238Y-113211904D02*
X101977857Y-113164285D01*
X101977857Y-113164285D02*
X102073095Y-113116666D01*
X102073095Y-113116666D02*
X102215952Y-113116666D01*
X102215952Y-113116666D02*
X102311190Y-113164285D01*
X102311190Y-113164285D02*
X102358809Y-113211904D01*
X102358809Y-113211904D02*
X102406428Y-113307142D01*
X102406428Y-113307142D02*
X102406428Y-113688094D01*
X101977857Y-112735713D02*
X101930238Y-112688094D01*
X101930238Y-112688094D02*
X101882619Y-112592856D01*
X101882619Y-112592856D02*
X101882619Y-112354761D01*
X101882619Y-112354761D02*
X101930238Y-112259523D01*
X101930238Y-112259523D02*
X101977857Y-112211904D01*
X101977857Y-112211904D02*
X102073095Y-112164285D01*
X102073095Y-112164285D02*
X102168333Y-112164285D01*
X102168333Y-112164285D02*
X102311190Y-112211904D01*
X102311190Y-112211904D02*
X102882619Y-112783332D01*
X102882619Y-112783332D02*
X102882619Y-112164285D01*
X109707142Y-105367380D02*
X109659523Y-105415000D01*
X109659523Y-105415000D02*
X109516666Y-105462619D01*
X109516666Y-105462619D02*
X109421428Y-105462619D01*
X109421428Y-105462619D02*
X109278571Y-105415000D01*
X109278571Y-105415000D02*
X109183333Y-105319761D01*
X109183333Y-105319761D02*
X109135714Y-105224523D01*
X109135714Y-105224523D02*
X109088095Y-105034047D01*
X109088095Y-105034047D02*
X109088095Y-104891190D01*
X109088095Y-104891190D02*
X109135714Y-104700714D01*
X109135714Y-104700714D02*
X109183333Y-104605476D01*
X109183333Y-104605476D02*
X109278571Y-104510238D01*
X109278571Y-104510238D02*
X109421428Y-104462619D01*
X109421428Y-104462619D02*
X109516666Y-104462619D01*
X109516666Y-104462619D02*
X109659523Y-104510238D01*
X109659523Y-104510238D02*
X109707142Y-104557857D01*
X110659523Y-105462619D02*
X110088095Y-105462619D01*
X110373809Y-105462619D02*
X110373809Y-104462619D01*
X110373809Y-104462619D02*
X110278571Y-104605476D01*
X110278571Y-104605476D02*
X110183333Y-104700714D01*
X110183333Y-104700714D02*
X110088095Y-104748333D01*
X111611904Y-105462619D02*
X111040476Y-105462619D01*
X111326190Y-105462619D02*
X111326190Y-104462619D01*
X111326190Y-104462619D02*
X111230952Y-104605476D01*
X111230952Y-104605476D02*
X111135714Y-104700714D01*
X111135714Y-104700714D02*
X111040476Y-104748333D01*
D11*
X102643641Y-107680000D02*
X102336359Y-107680000D01*
X102643641Y-106920000D02*
X102336359Y-106920000D01*
X114238748Y-118240000D02*
X115661252Y-118240000D01*
X114238748Y-120960000D02*
X115661252Y-120960000D01*
X111061252Y-120960000D02*
X109638748Y-120960000D01*
X111061252Y-118240000D02*
X109638748Y-118240000D01*
X102643641Y-108630000D02*
X102336359Y-108630000D01*
X102643641Y-107870000D02*
X102336359Y-107870000D01*
X111061252Y-107260000D02*
X109638748Y-107260000D01*
X111061252Y-104540000D02*
X109638748Y-104540000D01*
X108910000Y-107510000D02*
X108910000Y-108140000D01*
X108910000Y-107510000D02*
X115990000Y-107510000D01*
X108910000Y-114790000D02*
X108910000Y-114160000D01*
X108910000Y-114790000D02*
X115990000Y-114790000D01*
X115990000Y-107510000D02*
X115990000Y-108140000D01*
X115990000Y-114790000D02*
X115990000Y-114160000D01*
X102580000Y-109496359D02*
X102580000Y-109803641D01*
X101820000Y-109496359D02*
X101820000Y-109803641D01*
X114238748Y-115040000D02*
X115661252Y-115040000D01*
X114238748Y-117760000D02*
X115661252Y-117760000D01*
X105038748Y-114740000D02*
X106461252Y-114740000D01*
X105038748Y-117460000D02*
X106461252Y-117460000D01*
X100890000Y-109757836D02*
X100890000Y-109542164D01*
X101610000Y-109757836D02*
X101610000Y-109542164D01*
X105038748Y-106040000D02*
X106461252Y-106040000D01*
X105038748Y-108760000D02*
X106461252Y-108760000D01*
X101820000Y-113103641D02*
X101820000Y-112796359D01*
X102580000Y-113103641D02*
X102580000Y-112796359D01*
X108810000Y-110342164D02*
X108810000Y-110557836D01*
X108090000Y-110342164D02*
X108090000Y-110557836D01*
X101857836Y-111910000D02*
X101642164Y-111910000D01*
X101857836Y-111190000D02*
X101642164Y-111190000D01*
X111061252Y-117760000D02*
X109638748Y-117760000D01*
X111061252Y-115040000D02*
X109638748Y-115040000D01*
X103330000Y-115296359D02*
X103330000Y-115603641D01*
X102570000Y-115296359D02*
X102570000Y-115603641D01*
X103215000Y-109765000D02*
X103940000Y-109765000D01*
X107435000Y-110490000D02*
X107435000Y-109765000D01*
X103215000Y-110490000D02*
X103215000Y-109765000D01*
X107435000Y-113260000D02*
X107435000Y-113985000D01*
X103215000Y-113260000D02*
X103215000Y-113985000D01*
X107435000Y-113985000D02*
X106710000Y-113985000D01*
X103215000Y-113985000D02*
X103940000Y-113985000D01*
X115245000Y-121755000D02*
X115245000Y-123025000D01*
X113975000Y-121755000D02*
X115245000Y-121755000D01*
X111815000Y-124067929D02*
X111815000Y-124465000D01*
X111055000Y-124067929D02*
X111055000Y-124465000D01*
X109275000Y-124067929D02*
X109275000Y-124465000D01*
X108515000Y-124067929D02*
X108515000Y-124465000D01*
X106735000Y-124067929D02*
X106735000Y-124465000D01*
X105975000Y-124067929D02*
X105975000Y-124465000D01*
X104195000Y-124067929D02*
X104195000Y-124465000D01*
X103435000Y-124067929D02*
X103435000Y-124465000D01*
X114355000Y-124135000D02*
X114355000Y-124465000D01*
X113595000Y-124135000D02*
X113595000Y-124465000D01*
X115305000Y-124465000D02*
X102485000Y-124465000D01*
X112705000Y-124465000D02*
X112705000Y-127125000D01*
X110165000Y-124465000D02*
X110165000Y-127125000D01*
X107625000Y-124465000D02*
X107625000Y-127125000D01*
X105085000Y-124465000D02*
X105085000Y-127125000D01*
X102485000Y-124465000D02*
X102485000Y-127125000D01*
X115305000Y-127125000D02*
X115305000Y-124465000D01*
X114355000Y-127125000D02*
X114355000Y-133125000D01*
X114295000Y-127125000D02*
X114295000Y-133125000D01*
X114175000Y-127125000D02*
X114175000Y-133125000D01*
X114055000Y-127125000D02*
X114055000Y-133125000D01*
X113935000Y-127125000D02*
X113935000Y-133125000D01*
X113815000Y-127125000D02*
X113815000Y-133125000D01*
X113695000Y-127125000D02*
X113695000Y-133125000D01*
X111815000Y-127125000D02*
X111815000Y-133125000D01*
X109275000Y-127125000D02*
X109275000Y-133125000D01*
X106735000Y-127125000D02*
X106735000Y-133125000D01*
X104195000Y-127125000D02*
X104195000Y-133125000D01*
X102485000Y-127125000D02*
X115305000Y-127125000D01*
X114355000Y-133125000D02*
X113595000Y-133125000D01*
X113595000Y-133125000D02*
X113595000Y-127125000D01*
X111815000Y-133125000D02*
X111055000Y-133125000D01*
X111055000Y-133125000D02*
X111055000Y-127125000D01*
X109275000Y-133125000D02*
X108515000Y-133125000D01*
X108515000Y-133125000D02*
X108515000Y-127125000D01*
X106735000Y-133125000D02*
X105975000Y-133125000D01*
X105975000Y-133125000D02*
X105975000Y-127125000D01*
X104195000Y-133125000D02*
X103435000Y-133125000D01*
X103435000Y-133125000D02*
X103435000Y-127125000D01*
X101630000Y-112796359D02*
X101630000Y-113103641D01*
X100870000Y-112796359D02*
X100870000Y-113103641D01*
X111061252Y-104060000D02*
X109638748Y-104060000D01*
X111061252Y-101340000D02*
X109638748Y-101340000D01*
%LPC*%
D12*
X103000000Y-107300000D03*
X101980000Y-107300000D03*
D13*
X113475000Y-119600000D03*
X116425000Y-119600000D03*
D14*
X111825000Y-119600000D03*
X108875000Y-119600000D03*
D12*
X103000000Y-108250000D03*
X101980000Y-108250000D03*
D14*
X111825000Y-105900000D03*
X108875000Y-105900000D03*
D15*
X110430000Y-111150000D03*
X114470000Y-111150000D03*
D16*
X102200000Y-109140000D03*
X102200000Y-110160000D03*
D13*
X113475000Y-116400000D03*
X116425000Y-116400000D03*
X104275000Y-116100000D03*
X107225000Y-116100000D03*
D17*
X101250000Y-110130000D03*
X101250000Y-109170000D03*
D13*
X104275000Y-107400000D03*
X107225000Y-107400000D03*
D18*
X102200000Y-113460000D03*
X102200000Y-112440000D03*
D19*
X108450000Y-109970000D03*
X108450000Y-110930000D03*
D20*
X102230000Y-111550000D03*
X101270000Y-111550000D03*
D14*
X111825000Y-116400000D03*
X108875000Y-116400000D03*
D16*
X102950000Y-114940000D03*
X102950000Y-115960000D03*
D21*
X106325000Y-109862500D03*
X105825000Y-109862500D03*
X105325000Y-109862500D03*
X104825000Y-109862500D03*
X104325000Y-109862500D03*
D22*
X103312500Y-110875000D03*
X103312500Y-111375000D03*
X103312500Y-111875000D03*
X103312500Y-112375000D03*
X103312500Y-112875000D03*
D21*
X104325000Y-113887500D03*
X104825000Y-113887500D03*
X105325000Y-113887500D03*
X105825000Y-113887500D03*
X106325000Y-113887500D03*
D22*
X107337500Y-112875000D03*
X107337500Y-112375000D03*
X107337500Y-111875000D03*
X107337500Y-111375000D03*
X107337500Y-110875000D03*
D23*
X105325000Y-111875000D03*
D24*
X113975000Y-123025000D03*
D25*
X111435000Y-123025000D03*
X108895000Y-123025000D03*
X106355000Y-123025000D03*
X103815000Y-123025000D03*
D16*
X101250000Y-112440000D03*
X101250000Y-113460000D03*
D14*
X111825000Y-102700000D03*
X108875000Y-102700000D03*
M02*
