M48
; DRILL file {KiCad 7.0.1} date Thu May 11 16:25:51 2023
; FORMAT={-:-/ absolute / metric / decimal}
; #@! TF.CreationDate,2023-05-11T16:25:51+02:00
; #@! TF.GenerationSoftware,Kicad,Pcbnew,7.0.1
; #@! TF.FileFunction,Plated,1,4,PTH
FMAT,2
METRIC
; #@! TA.AperFunction,Plated,PTH,ViaDrill
T1C0.250
; #@! TA.AperFunction,Plated,PTH,ComponentDrill
T2C0.250
; #@! TA.AperFunction,Plated,PTH,ComponentDrill
T3C1.000
%
G90
G05
T1
X101.25Y-114.25
X102.0Y-102.0
X102.0Y-106.0
X102.2Y-114.25
X102.35Y-116.6
X104.0Y-126.0
X104.15Y-105.55
X104.95Y-105.55
X105.0Y-120.0
X105.4Y-106.2
X106.95Y-109.35
X107.0Y-102.0
X107.55Y-118.1
X107.55Y-120.0
X109.0Y-126.0
X111.7Y-114.25
X112.6Y-113.6
X115.0Y-126.0
X117.0Y-102.0
X117.0Y-106.0
T2
X104.175Y-110.725
X104.175Y-111.875
X104.175Y-113.025
X105.325Y-110.725
X105.325Y-111.875
X105.325Y-113.025
X106.475Y-110.725
X106.475Y-111.875
X106.475Y-113.025
T3
X103.815Y-123.025
X106.355Y-123.025
X108.895Y-123.025
X111.435Y-123.025
X113.975Y-123.025
T0
M30
