%TF.GenerationSoftware,KiCad,Pcbnew,7.0.1*%
%TF.CreationDate,2023-05-11T16:23:10+02:00*%
%TF.ProjectId,Generic_Buck_Converter,47656e65-7269-4635-9f42-75636b5f436f,rev?*%
%TF.SameCoordinates,Original*%
%TF.FileFunction,Copper,L2,Inr*%
%TF.FilePolarity,Positive*%
%FSLAX46Y46*%
G04 Gerber Fmt 4.6, Leading zero omitted, Abs format (unit mm)*
G04 Created by KiCad (PCBNEW 7.0.1) date 2023-05-11 16:23:10*
%MOMM*%
%LPD*%
G01*
G04 APERTURE LIST*
%TA.AperFunction,ComponentPad*%
%ADD10C,0.550000*%
%TD*%
%TA.AperFunction,ComponentPad*%
%ADD11R,1.700000X1.700000*%
%TD*%
%TA.AperFunction,ComponentPad*%
%ADD12O,1.700000X1.700000*%
%TD*%
%TA.AperFunction,ViaPad*%
%ADD13C,0.550000*%
%TD*%
G04 APERTURE END LIST*
D10*
X106475000Y-110725000D03*
X105325000Y-110725000D03*
X104175000Y-110725000D03*
X106475000Y-111875000D03*
X105325000Y-111875000D03*
X104175000Y-111875000D03*
X106475000Y-113025000D03*
X105325000Y-113025000D03*
X104175000Y-113025000D03*
D11*
X113975000Y-123025000D03*
D12*
X111435000Y-123025000D03*
X108895000Y-123025000D03*
X106355000Y-123025000D03*
X103815000Y-123025000D03*
D13*
X105400000Y-106200000D03*
X104950000Y-105550000D03*
X104150000Y-105550000D03*
X105000000Y-120000000D03*
X107550000Y-120000000D03*
X117000000Y-102000000D03*
X111700000Y-114250000D03*
X109000000Y-126000000D03*
X107550000Y-118100000D03*
X102000000Y-106000000D03*
X107000000Y-102000000D03*
X101250000Y-114250000D03*
X106950000Y-109350000D03*
X102350000Y-116600000D03*
X104000000Y-126000000D03*
X115000000Y-126000000D03*
X102000000Y-102000000D03*
X117000000Y-106000000D03*
X112600000Y-113600000D03*
X102200000Y-114250000D03*
%TA.AperFunction,Conductor*%
G36*
X117562500Y-100210414D02*
G01*
X117589586Y-100237500D01*
X117599500Y-100274500D01*
X117599500Y-126775500D01*
X117589586Y-126812500D01*
X117562500Y-126839586D01*
X117525500Y-126849500D01*
X100274500Y-126849500D01*
X100237500Y-126839586D01*
X100210414Y-126812500D01*
X100200500Y-126775500D01*
X100200500Y-123025000D01*
X102759417Y-123025000D01*
X102779700Y-123230933D01*
X102839768Y-123428955D01*
X102888541Y-123520201D01*
X102937315Y-123611450D01*
X103068590Y-123771410D01*
X103228550Y-123902685D01*
X103411046Y-124000232D01*
X103609066Y-124060300D01*
X103815000Y-124080583D01*
X104020934Y-124060300D01*
X104218954Y-124000232D01*
X104401450Y-123902685D01*
X104561410Y-123771410D01*
X104692685Y-123611450D01*
X104790232Y-123428954D01*
X104850300Y-123230934D01*
X104870583Y-123025000D01*
X110379417Y-123025000D01*
X110399700Y-123230933D01*
X110459768Y-123428955D01*
X110508541Y-123520201D01*
X110557315Y-123611450D01*
X110688590Y-123771410D01*
X110848550Y-123902685D01*
X111031046Y-124000232D01*
X111229066Y-124060300D01*
X111435000Y-124080583D01*
X111640934Y-124060300D01*
X111838954Y-124000232D01*
X112021450Y-123902685D01*
X112031121Y-123894748D01*
X112924500Y-123894748D01*
X112936132Y-123953229D01*
X112936132Y-123953230D01*
X112936133Y-123953231D01*
X112980448Y-124019552D01*
X113046769Y-124063867D01*
X113105252Y-124075500D01*
X114844748Y-124075500D01*
X114903231Y-124063867D01*
X114969552Y-124019552D01*
X115013867Y-123953231D01*
X115025500Y-123894748D01*
X115025500Y-122155252D01*
X115013867Y-122096769D01*
X114969552Y-122030448D01*
X114903231Y-121986133D01*
X114903230Y-121986132D01*
X114903229Y-121986132D01*
X114844748Y-121974500D01*
X113105252Y-121974500D01*
X113046770Y-121986132D01*
X112980448Y-122030448D01*
X112936132Y-122096770D01*
X112924500Y-122155252D01*
X112924500Y-123894748D01*
X112031121Y-123894748D01*
X112181410Y-123771410D01*
X112312685Y-123611450D01*
X112410232Y-123428954D01*
X112470300Y-123230934D01*
X112490583Y-123025000D01*
X112470300Y-122819066D01*
X112410232Y-122621046D01*
X112312685Y-122438550D01*
X112181410Y-122278590D01*
X112021450Y-122147315D01*
X111926886Y-122096769D01*
X111838955Y-122049768D01*
X111739944Y-122019734D01*
X111640934Y-121989700D01*
X111435000Y-121969417D01*
X111229066Y-121989700D01*
X111031044Y-122049768D01*
X110848550Y-122147315D01*
X110688590Y-122278590D01*
X110557315Y-122438550D01*
X110459768Y-122621044D01*
X110399700Y-122819066D01*
X110379417Y-123025000D01*
X104870583Y-123025000D01*
X104850300Y-122819066D01*
X104790232Y-122621046D01*
X104692685Y-122438550D01*
X104561410Y-122278590D01*
X104401450Y-122147315D01*
X104306886Y-122096769D01*
X104218955Y-122049768D01*
X104119944Y-122019734D01*
X104020934Y-121989700D01*
X103815000Y-121969417D01*
X103609066Y-121989700D01*
X103411044Y-122049768D01*
X103228550Y-122147315D01*
X103068590Y-122278590D01*
X102937315Y-122438550D01*
X102839768Y-122621044D01*
X102779700Y-122819066D01*
X102759417Y-123025000D01*
X100200500Y-123025000D01*
X100200500Y-120000000D01*
X104519610Y-120000000D01*
X104539068Y-120135341D01*
X104595870Y-120259719D01*
X104685410Y-120363055D01*
X104742924Y-120400016D01*
X104800439Y-120436978D01*
X104844170Y-120449818D01*
X104931631Y-120475500D01*
X104931633Y-120475500D01*
X105068367Y-120475500D01*
X105068369Y-120475500D01*
X105133964Y-120456238D01*
X105199561Y-120436978D01*
X105314589Y-120363055D01*
X105404130Y-120259718D01*
X105460931Y-120135342D01*
X105480390Y-120000000D01*
X105460931Y-119864658D01*
X105404130Y-119740282D01*
X105404129Y-119740281D01*
X105404129Y-119740280D01*
X105314589Y-119636944D01*
X105199559Y-119563021D01*
X105068369Y-119524500D01*
X105068367Y-119524500D01*
X104931633Y-119524500D01*
X104931631Y-119524500D01*
X104800440Y-119563021D01*
X104685410Y-119636944D01*
X104595870Y-119740280D01*
X104539068Y-119864658D01*
X104519610Y-120000000D01*
X100200500Y-120000000D01*
X100200500Y-114250000D01*
X101719610Y-114250000D01*
X101739068Y-114385341D01*
X101795870Y-114509719D01*
X101885410Y-114613055D01*
X101942924Y-114650016D01*
X102000439Y-114686978D01*
X102044170Y-114699818D01*
X102131631Y-114725500D01*
X102131633Y-114725500D01*
X102268367Y-114725500D01*
X102268369Y-114725500D01*
X102333963Y-114706239D01*
X102399561Y-114686978D01*
X102514589Y-114613055D01*
X102604130Y-114509718D01*
X102660931Y-114385342D01*
X102680390Y-114250000D01*
X102660931Y-114114658D01*
X102604130Y-113990282D01*
X102604129Y-113990281D01*
X102604129Y-113990280D01*
X102514589Y-113886944D01*
X102399559Y-113813021D01*
X102268369Y-113774500D01*
X102268367Y-113774500D01*
X102131633Y-113774500D01*
X102131631Y-113774500D01*
X102000440Y-113813021D01*
X101885410Y-113886944D01*
X101795870Y-113990280D01*
X101739068Y-114114658D01*
X101719610Y-114250000D01*
X100200500Y-114250000D01*
X100200500Y-113600000D01*
X112119610Y-113600000D01*
X112139068Y-113735341D01*
X112195870Y-113859719D01*
X112285410Y-113963055D01*
X112342924Y-114000016D01*
X112400439Y-114036978D01*
X112444170Y-114049818D01*
X112531631Y-114075500D01*
X112531633Y-114075500D01*
X112668367Y-114075500D01*
X112668369Y-114075500D01*
X112733964Y-114056238D01*
X112799561Y-114036978D01*
X112914589Y-113963055D01*
X113004130Y-113859718D01*
X113060931Y-113735342D01*
X113080390Y-113600000D01*
X113060931Y-113464658D01*
X113004130Y-113340282D01*
X113004129Y-113340281D01*
X113004129Y-113340280D01*
X112914589Y-113236944D01*
X112799559Y-113163021D01*
X112668369Y-113124500D01*
X112668367Y-113124500D01*
X112531633Y-113124500D01*
X112531631Y-113124500D01*
X112400440Y-113163021D01*
X112285410Y-113236944D01*
X112195870Y-113340280D01*
X112139068Y-113464658D01*
X112119610Y-113600000D01*
X100200500Y-113600000D01*
X100200500Y-105550000D01*
X103669610Y-105550000D01*
X103689068Y-105685341D01*
X103745870Y-105809719D01*
X103835410Y-105913055D01*
X103892925Y-105950016D01*
X103950439Y-105986978D01*
X103994170Y-105999818D01*
X104081631Y-106025500D01*
X104081633Y-106025500D01*
X104218367Y-106025500D01*
X104218369Y-106025500D01*
X104283963Y-106006239D01*
X104349561Y-105986978D01*
X104464589Y-105913055D01*
X104494074Y-105879026D01*
X104529150Y-105856484D01*
X104570847Y-105856483D01*
X104605924Y-105879026D01*
X104635410Y-105913054D01*
X104635411Y-105913055D01*
X104750439Y-105986978D01*
X104880621Y-106025203D01*
X104910838Y-106042649D01*
X104929702Y-106072002D01*
X104933019Y-106106736D01*
X104919610Y-106199999D01*
X104939068Y-106335341D01*
X104995870Y-106459719D01*
X105085410Y-106563055D01*
X105142924Y-106600016D01*
X105200439Y-106636978D01*
X105244170Y-106649818D01*
X105331631Y-106675500D01*
X105331633Y-106675500D01*
X105468367Y-106675500D01*
X105468369Y-106675500D01*
X105533964Y-106656238D01*
X105599561Y-106636978D01*
X105714589Y-106563055D01*
X105804130Y-106459718D01*
X105860931Y-106335342D01*
X105880390Y-106200000D01*
X105860931Y-106064658D01*
X105804130Y-105940282D01*
X105804129Y-105940281D01*
X105804129Y-105940280D01*
X105714589Y-105836944D01*
X105599559Y-105763020D01*
X105469379Y-105724796D01*
X105439161Y-105707350D01*
X105420297Y-105677997D01*
X105416980Y-105643266D01*
X105430390Y-105550000D01*
X105410931Y-105414658D01*
X105354130Y-105290282D01*
X105354129Y-105290281D01*
X105354129Y-105290280D01*
X105264589Y-105186944D01*
X105149559Y-105113021D01*
X105018369Y-105074500D01*
X105018367Y-105074500D01*
X104881633Y-105074500D01*
X104881631Y-105074500D01*
X104750440Y-105113021D01*
X104635410Y-105186945D01*
X104605925Y-105220972D01*
X104570848Y-105243515D01*
X104529152Y-105243515D01*
X104494075Y-105220972D01*
X104464589Y-105186945D01*
X104349559Y-105113021D01*
X104218369Y-105074500D01*
X104218367Y-105074500D01*
X104081633Y-105074500D01*
X104081631Y-105074500D01*
X103950440Y-105113021D01*
X103835410Y-105186944D01*
X103745870Y-105290280D01*
X103689068Y-105414658D01*
X103669610Y-105550000D01*
X100200500Y-105550000D01*
X100200500Y-100274500D01*
X100210414Y-100237500D01*
X100237500Y-100210414D01*
X100274500Y-100200500D01*
X117525500Y-100200500D01*
X117562500Y-100210414D01*
G37*
%TD.AperFunction*%
M02*
