%TF.GenerationSoftware,KiCad,Pcbnew,7.0.1*%
%TF.CreationDate,2023-05-11T16:23:10+02:00*%
%TF.ProjectId,Generic_Buck_Converter,47656e65-7269-4635-9f42-75636b5f436f,rev?*%
%TF.SameCoordinates,Original*%
%TF.FileFunction,Copper,L1,Top*%
%TF.FilePolarity,Positive*%
%FSLAX46Y46*%
G04 Gerber Fmt 4.6, Leading zero omitted, Abs format (unit mm)*
G04 Created by KiCad (PCBNEW 7.0.1) date 2023-05-11 16:23:10*
%MOMM*%
%LPD*%
G01*
G04 APERTURE LIST*
G04 Aperture macros list*
%AMRoundRect*
0 Rectangle with rounded corners*
0 $1 Rounding radius*
0 $2 $3 $4 $5 $6 $7 $8 $9 X,Y pos of 4 corners*
0 Add a 4 corners polygon primitive as box body*
4,1,4,$2,$3,$4,$5,$6,$7,$8,$9,$2,$3,0*
0 Add four circle primitives for the rounded corners*
1,1,$1+$1,$2,$3*
1,1,$1+$1,$4,$5*
1,1,$1+$1,$6,$7*
1,1,$1+$1,$8,$9*
0 Add four rect primitives between the rounded corners*
20,1,$1+$1,$2,$3,$4,$5,0*
20,1,$1+$1,$4,$5,$6,$7,0*
20,1,$1+$1,$6,$7,$8,$9,0*
20,1,$1+$1,$8,$9,$2,$3,0*%
G04 Aperture macros list end*
%TA.AperFunction,SMDPad,CuDef*%
%ADD10RoundRect,0.135000X0.135000X0.185000X-0.135000X0.185000X-0.135000X-0.185000X0.135000X-0.185000X0*%
%TD*%
%TA.AperFunction,SMDPad,CuDef*%
%ADD11RoundRect,0.250000X-0.325000X-1.100000X0.325000X-1.100000X0.325000X1.100000X-0.325000X1.100000X0*%
%TD*%
%TA.AperFunction,SMDPad,CuDef*%
%ADD12RoundRect,0.250000X0.325000X1.100000X-0.325000X1.100000X-0.325000X-1.100000X0.325000X-1.100000X0*%
%TD*%
%TA.AperFunction,SMDPad,CuDef*%
%ADD13R,1.430000X5.500000*%
%TD*%
%TA.AperFunction,SMDPad,CuDef*%
%ADD14RoundRect,0.135000X-0.185000X0.135000X-0.185000X-0.135000X0.185000X-0.135000X0.185000X0.135000X0*%
%TD*%
%TA.AperFunction,SMDPad,CuDef*%
%ADD15RoundRect,0.140000X0.170000X-0.140000X0.170000X0.140000X-0.170000X0.140000X-0.170000X-0.140000X0*%
%TD*%
%TA.AperFunction,SMDPad,CuDef*%
%ADD16RoundRect,0.135000X0.185000X-0.135000X0.185000X0.135000X-0.185000X0.135000X-0.185000X-0.135000X0*%
%TD*%
%TA.AperFunction,SMDPad,CuDef*%
%ADD17RoundRect,0.140000X-0.170000X0.140000X-0.170000X-0.140000X0.170000X-0.140000X0.170000X0.140000X0*%
%TD*%
%TA.AperFunction,SMDPad,CuDef*%
%ADD18RoundRect,0.140000X0.140000X0.170000X-0.140000X0.170000X-0.140000X-0.170000X0.140000X-0.170000X0*%
%TD*%
%TA.AperFunction,SMDPad,CuDef*%
%ADD19RoundRect,0.062500X-0.062500X0.300000X-0.062500X-0.300000X0.062500X-0.300000X0.062500X0.300000X0*%
%TD*%
%TA.AperFunction,SMDPad,CuDef*%
%ADD20RoundRect,0.062500X-0.300000X0.062500X-0.300000X-0.062500X0.300000X-0.062500X0.300000X0.062500X0*%
%TD*%
%TA.AperFunction,ComponentPad*%
%ADD21C,0.550000*%
%TD*%
%TA.AperFunction,SMDPad,CuDef*%
%ADD22R,2.900000X2.900000*%
%TD*%
%TA.AperFunction,ComponentPad*%
%ADD23R,1.700000X1.700000*%
%TD*%
%TA.AperFunction,ComponentPad*%
%ADD24O,1.700000X1.700000*%
%TD*%
%TA.AperFunction,ViaPad*%
%ADD25C,0.550000*%
%TD*%
%TA.AperFunction,Conductor*%
%ADD26C,0.300000*%
%TD*%
%TA.AperFunction,Conductor*%
%ADD27C,0.250000*%
%TD*%
G04 APERTURE END LIST*
D10*
X103000000Y-107300000D03*
X101980000Y-107300000D03*
D11*
X113475000Y-119600000D03*
X116425000Y-119600000D03*
D12*
X111825000Y-119600000D03*
X108875000Y-119600000D03*
D10*
X103000000Y-108250000D03*
X101980000Y-108250000D03*
D12*
X111825000Y-105900000D03*
X108875000Y-105900000D03*
D13*
X110430000Y-111150000D03*
X114470000Y-111150000D03*
D14*
X102200000Y-109140000D03*
X102200000Y-110160000D03*
D11*
X113475000Y-116400000D03*
X116425000Y-116400000D03*
X104275000Y-116100000D03*
X107225000Y-116100000D03*
D15*
X101250000Y-110130000D03*
X101250000Y-109170000D03*
D11*
X104275000Y-107400000D03*
X107225000Y-107400000D03*
D16*
X102200000Y-113460000D03*
X102200000Y-112440000D03*
D17*
X108450000Y-109970000D03*
X108450000Y-110930000D03*
D18*
X102230000Y-111550000D03*
X101270000Y-111550000D03*
D12*
X111825000Y-116400000D03*
X108875000Y-116400000D03*
D14*
X102950000Y-114940000D03*
X102950000Y-115960000D03*
D19*
X106325000Y-109862500D03*
X105825000Y-109862500D03*
X105325000Y-109862500D03*
X104825000Y-109862500D03*
X104325000Y-109862500D03*
D20*
X103312500Y-110875000D03*
X103312500Y-111375000D03*
X103312500Y-111875000D03*
X103312500Y-112375000D03*
X103312500Y-112875000D03*
D19*
X104325000Y-113887500D03*
X104825000Y-113887500D03*
X105325000Y-113887500D03*
X105825000Y-113887500D03*
X106325000Y-113887500D03*
D20*
X107337500Y-112875000D03*
X107337500Y-112375000D03*
X107337500Y-111875000D03*
X107337500Y-111375000D03*
X107337500Y-110875000D03*
D21*
X106475000Y-110725000D03*
X105325000Y-110725000D03*
X104175000Y-110725000D03*
X106475000Y-111875000D03*
X105325000Y-111875000D03*
D22*
X105325000Y-111875000D03*
D21*
X104175000Y-111875000D03*
X106475000Y-113025000D03*
X105325000Y-113025000D03*
X104175000Y-113025000D03*
D23*
X113975000Y-123025000D03*
D24*
X111435000Y-123025000D03*
X108895000Y-123025000D03*
X106355000Y-123025000D03*
X103815000Y-123025000D03*
D14*
X101250000Y-112440000D03*
X101250000Y-113460000D03*
D12*
X111825000Y-102700000D03*
X108875000Y-102700000D03*
D25*
X105400000Y-106200000D03*
X104950000Y-105550000D03*
X104150000Y-105550000D03*
X105000000Y-120000000D03*
X107550000Y-120000000D03*
X117000000Y-102000000D03*
X111700000Y-114250000D03*
X109000000Y-126000000D03*
X107550000Y-118100000D03*
X102000000Y-106000000D03*
X107000000Y-102000000D03*
X101250000Y-114250000D03*
X106950000Y-109350000D03*
X102350000Y-116600000D03*
X104000000Y-126000000D03*
X115000000Y-126000000D03*
X102000000Y-102000000D03*
X117000000Y-106000000D03*
X112600000Y-113600000D03*
X102200000Y-114250000D03*
D26*
X103000000Y-107300000D02*
X104175000Y-107300000D01*
X104175000Y-107300000D02*
X104275000Y-107400000D01*
D27*
X104325000Y-112875000D02*
X105325000Y-111875000D01*
X101250000Y-113460000D02*
X101250000Y-114250000D01*
X103312500Y-111375000D02*
X104825000Y-111375000D01*
X104825000Y-113887500D02*
X104825000Y-112375000D01*
X106325000Y-109862500D02*
X106325000Y-110875000D01*
X104825000Y-111375000D02*
X105325000Y-111875000D01*
X106325000Y-110875000D02*
X105325000Y-111875000D01*
X104825000Y-112375000D02*
X105325000Y-111875000D01*
X106325000Y-112875000D02*
X105325000Y-111875000D01*
X104325000Y-113887500D02*
X104325000Y-112875000D01*
X106325000Y-113887500D02*
X106325000Y-112875000D01*
X102170000Y-110130000D02*
X102200000Y-110160000D01*
X101250000Y-110130000D02*
X102170000Y-110130000D01*
X103312500Y-110875000D02*
X103175000Y-110875000D01*
X103175000Y-110875000D02*
X102460000Y-110160000D01*
X102460000Y-110160000D02*
X102200000Y-110160000D01*
X102200000Y-113460000D02*
X102200000Y-114250000D01*
D26*
X108427035Y-109950000D02*
X108450000Y-109950000D01*
X107337500Y-110875000D02*
X107502035Y-110875000D01*
X107502035Y-110875000D02*
X108427035Y-109950000D01*
D27*
X102555000Y-111875000D02*
X103312500Y-111875000D01*
X102230000Y-111550000D02*
X102555000Y-111875000D01*
X102200000Y-109140000D02*
X102922500Y-109862500D01*
X102922500Y-109862500D02*
X104325000Y-109862500D01*
X102265000Y-112375000D02*
X103312500Y-112375000D01*
X101250000Y-112440000D02*
X102200000Y-112440000D01*
X102200000Y-112440000D02*
X102265000Y-112375000D01*
X102950000Y-113237500D02*
X103312500Y-112875000D01*
X102950000Y-114940000D02*
X102950000Y-113237500D01*
X104825000Y-109451992D02*
X104825000Y-109862500D01*
X101980000Y-107300000D02*
X102000538Y-107300000D01*
X103000000Y-108250000D02*
X103000000Y-108363173D01*
X102000538Y-107300000D02*
X102950538Y-108250000D01*
X103811827Y-109175000D02*
X104548008Y-109175000D01*
X102950538Y-108250000D02*
X103000000Y-108250000D01*
X103000000Y-108363173D02*
X103811827Y-109175000D01*
X104548008Y-109175000D02*
X104825000Y-109451992D01*
%TA.AperFunction,Conductor*%
G36*
X105597667Y-105105633D02*
G01*
X105621674Y-105121674D01*
X105928326Y-105428326D01*
X105944367Y-105452333D01*
X105950000Y-105480652D01*
X105950000Y-110126000D01*
X105940086Y-110163000D01*
X105913000Y-110190086D01*
X105876000Y-110200000D01*
X105274000Y-110200000D01*
X105237000Y-110190086D01*
X105209914Y-110163000D01*
X105200000Y-110126000D01*
X105200000Y-109300000D01*
X104650000Y-108750000D01*
X103877805Y-108750000D01*
X103849486Y-108744367D01*
X103825479Y-108728326D01*
X103721674Y-108624521D01*
X103705633Y-108600514D01*
X103700000Y-108572195D01*
X103700000Y-105480652D01*
X103705633Y-105452333D01*
X103721674Y-105428326D01*
X104028326Y-105121674D01*
X104052333Y-105105633D01*
X104080652Y-105100000D01*
X105569348Y-105100000D01*
X105597667Y-105105633D01*
G37*
%TD.AperFunction*%
%TA.AperFunction,Conductor*%
G36*
X105913000Y-113559914D02*
G01*
X105940086Y-113587000D01*
X105950000Y-113624000D01*
X105950000Y-121215596D01*
X105944692Y-121243118D01*
X105929528Y-121266691D01*
X104900000Y-122345243D01*
X104900000Y-123819348D01*
X104894367Y-123847667D01*
X104878326Y-123871674D01*
X104871674Y-123878326D01*
X104847667Y-123894367D01*
X104819348Y-123900000D01*
X102830652Y-123900000D01*
X102802333Y-123894367D01*
X102778326Y-123878326D01*
X102771674Y-123871674D01*
X102755633Y-123847667D01*
X102750000Y-123819348D01*
X102750000Y-118554647D01*
X102754783Y-118528476D01*
X102768512Y-118505687D01*
X103700000Y-117450000D01*
X103700000Y-114830652D01*
X103705633Y-114802333D01*
X103721674Y-114778326D01*
X103728326Y-114771674D01*
X103752333Y-114755633D01*
X103780652Y-114750000D01*
X105650000Y-114750000D01*
X105700000Y-114700000D01*
X105700000Y-113624000D01*
X105709914Y-113587000D01*
X105737000Y-113559914D01*
X105774000Y-113550000D01*
X105876000Y-113550000D01*
X105913000Y-113559914D01*
G37*
%TD.AperFunction*%
%TA.AperFunction,Conductor*%
G36*
X111197667Y-108355633D02*
G01*
X111221674Y-108371674D01*
X111228326Y-108378326D01*
X111244367Y-108402333D01*
X111250000Y-108430652D01*
X111250000Y-113869348D01*
X111244367Y-113897667D01*
X111228326Y-113921674D01*
X111221674Y-113928326D01*
X111197667Y-113944367D01*
X111169348Y-113950000D01*
X108983908Y-113950000D01*
X108953082Y-113943274D01*
X108927860Y-113924318D01*
X108906896Y-113900000D01*
X108516419Y-113447047D01*
X107899260Y-112731141D01*
X107894506Y-112721397D01*
X107893419Y-112722124D01*
X107827111Y-112622887D01*
X107785536Y-112595107D01*
X107770601Y-112581897D01*
X107762043Y-112571970D01*
X107700000Y-112500000D01*
X107699999Y-112500000D01*
X107074000Y-112500000D01*
X107037000Y-112490086D01*
X107009914Y-112463000D01*
X107000000Y-112426000D01*
X107000000Y-112324000D01*
X107009914Y-112287000D01*
X107037000Y-112259914D01*
X107074000Y-112250000D01*
X107700000Y-112250000D01*
X107700000Y-112000000D01*
X107074000Y-112000000D01*
X107037000Y-111990086D01*
X107009914Y-111963000D01*
X107000000Y-111926000D01*
X107000000Y-111824000D01*
X107009914Y-111787000D01*
X107037000Y-111759914D01*
X107074000Y-111750000D01*
X107700000Y-111750000D01*
X107700000Y-111500000D01*
X107074000Y-111500000D01*
X107037000Y-111490086D01*
X107009914Y-111463000D01*
X107000000Y-111426000D01*
X107000000Y-111324074D01*
X107009926Y-111287053D01*
X107037043Y-111259964D01*
X107074074Y-111250074D01*
X107690207Y-111250687D01*
X107690207Y-111250686D01*
X107690208Y-111250687D01*
X107779520Y-111160683D01*
X107790901Y-111151306D01*
X107827112Y-111127112D01*
X107852580Y-111088995D01*
X107861566Y-111078003D01*
X108251911Y-110684639D01*
X108275894Y-110668492D01*
X108304232Y-110662766D01*
X108553588Y-110662100D01*
X108950000Y-110320789D01*
X108950000Y-110224410D01*
X108953006Y-110210847D01*
X108952485Y-110210779D01*
X108953971Y-110199488D01*
X108953972Y-110199487D01*
X108960500Y-110149901D01*
X108960499Y-109790100D01*
X108953972Y-109740513D01*
X108952486Y-109729220D01*
X108953006Y-109729151D01*
X108950000Y-109715589D01*
X108950000Y-109130652D01*
X108955633Y-109102333D01*
X108971674Y-109078326D01*
X109678326Y-108371674D01*
X109702333Y-108355633D01*
X109730652Y-108350000D01*
X111169348Y-108350000D01*
X111197667Y-108355633D01*
G37*
%TD.AperFunction*%
%TA.AperFunction,Conductor*%
G36*
X115897667Y-100955633D02*
G01*
X115921674Y-100971674D01*
X115928326Y-100978326D01*
X115944367Y-101002333D01*
X115950000Y-101030652D01*
X115950000Y-113968026D01*
X115943930Y-113997377D01*
X115926717Y-114021913D01*
X115100000Y-114799999D01*
X115100000Y-124069348D01*
X115094367Y-124097667D01*
X115078326Y-124121674D01*
X115071674Y-124128326D01*
X115047667Y-124144367D01*
X115019348Y-124150000D01*
X110380652Y-124150000D01*
X110352333Y-124144367D01*
X110328326Y-124128326D01*
X110321674Y-124121674D01*
X110305633Y-124097667D01*
X110300000Y-124069348D01*
X110300000Y-114880550D01*
X110305599Y-114852315D01*
X110321547Y-114828351D01*
X110328322Y-114821544D01*
X110352350Y-114805421D01*
X110380726Y-114799746D01*
X112200000Y-114798715D01*
X112250000Y-114750000D01*
X112250000Y-107650000D01*
X112200000Y-107600000D01*
X112199999Y-107600000D01*
X110932354Y-107603649D01*
X110902693Y-107597537D01*
X110877964Y-107580056D01*
X110869823Y-107571306D01*
X110855134Y-107547981D01*
X110850000Y-107520899D01*
X110850000Y-101030652D01*
X110855633Y-101002333D01*
X110871674Y-100978326D01*
X110878326Y-100971674D01*
X110902333Y-100955633D01*
X110930652Y-100950000D01*
X115869348Y-100950000D01*
X115897667Y-100955633D01*
G37*
%TD.AperFunction*%
%TA.AperFunction,Conductor*%
G36*
X117562500Y-100210414D02*
G01*
X117589586Y-100237500D01*
X117599500Y-100274500D01*
X117599500Y-126775500D01*
X117589586Y-126812500D01*
X117562500Y-126839586D01*
X117525500Y-126849500D01*
X100274500Y-126849500D01*
X100237500Y-126839586D01*
X100210414Y-126812500D01*
X100200500Y-126775500D01*
X100200500Y-112614316D01*
X100729500Y-112614316D01*
X100735932Y-112663173D01*
X100785935Y-112770404D01*
X100869596Y-112854065D01*
X100976827Y-112904068D01*
X101025684Y-112910500D01*
X101474315Y-112910500D01*
X101474316Y-112910500D01*
X101523173Y-112904068D01*
X101630404Y-112854065D01*
X101672673Y-112811795D01*
X101705847Y-112792642D01*
X101744153Y-112792642D01*
X101777326Y-112811795D01*
X101819593Y-112854063D01*
X101819594Y-112854063D01*
X101819596Y-112854065D01*
X101881504Y-112882933D01*
X101912641Y-112910240D01*
X101924230Y-112950000D01*
X101912641Y-112989760D01*
X101881504Y-113017066D01*
X101856835Y-113028570D01*
X101819595Y-113045935D01*
X101735935Y-113129595D01*
X101735934Y-113129596D01*
X101735935Y-113129596D01*
X101685932Y-113236827D01*
X101679500Y-113285684D01*
X101679500Y-113634316D01*
X101685932Y-113683173D01*
X101735935Y-113790404D01*
X101812119Y-113866588D01*
X101830795Y-113898065D01*
X101832102Y-113934642D01*
X101815721Y-113967371D01*
X101795870Y-113990281D01*
X101739068Y-114114658D01*
X101719610Y-114250000D01*
X101739068Y-114385341D01*
X101795870Y-114509719D01*
X101885410Y-114613055D01*
X101928629Y-114640829D01*
X102000439Y-114686978D01*
X102044170Y-114699818D01*
X102131631Y-114725500D01*
X102131633Y-114725500D01*
X102268366Y-114725500D01*
X102268367Y-114725500D01*
X102334652Y-114706037D01*
X102379703Y-114707110D01*
X102415779Y-114734116D01*
X102429500Y-114777040D01*
X102429500Y-115114316D01*
X102435932Y-115163173D01*
X102485935Y-115270404D01*
X102569596Y-115354065D01*
X102676827Y-115404068D01*
X102725684Y-115410500D01*
X103174315Y-115410500D01*
X103174316Y-115410500D01*
X103223173Y-115404068D01*
X103330404Y-115354065D01*
X103368174Y-115316294D01*
X103406063Y-115296043D01*
X103448819Y-115300254D01*
X103482029Y-115327509D01*
X103494500Y-115368621D01*
X103494500Y-117344319D01*
X103489717Y-117370490D01*
X103475988Y-117393279D01*
X102614419Y-118369725D01*
X102592489Y-118399640D01*
X102578756Y-118422435D01*
X102552630Y-118491530D01*
X102547848Y-118517699D01*
X102547848Y-118517702D01*
X102544500Y-118554647D01*
X102544500Y-123819348D01*
X102548449Y-123859439D01*
X102548450Y-123859444D01*
X102554082Y-123887758D01*
X102584766Y-123961838D01*
X102600804Y-123985842D01*
X102626361Y-124016981D01*
X102633018Y-124023638D01*
X102664157Y-124049195D01*
X102688161Y-124065233D01*
X102688162Y-124065233D01*
X102688163Y-124065234D01*
X102762242Y-124095918D01*
X102790561Y-124101551D01*
X102830652Y-124105500D01*
X104819344Y-124105500D01*
X104819348Y-124105500D01*
X104859439Y-124101551D01*
X104887758Y-124095918D01*
X104951905Y-124069348D01*
X110094500Y-124069348D01*
X110098449Y-124109439D01*
X110098450Y-124109444D01*
X110104082Y-124137758D01*
X110134766Y-124211838D01*
X110150804Y-124235842D01*
X110176361Y-124266981D01*
X110183018Y-124273638D01*
X110214157Y-124299195D01*
X110238161Y-124315233D01*
X110238162Y-124315233D01*
X110238163Y-124315234D01*
X110312242Y-124345918D01*
X110340561Y-124351551D01*
X110380652Y-124355500D01*
X115019344Y-124355500D01*
X115019348Y-124355500D01*
X115059439Y-124351551D01*
X115087758Y-124345918D01*
X115161837Y-124315234D01*
X115169839Y-124309887D01*
X115185842Y-124299195D01*
X115199446Y-124288028D01*
X115216984Y-124273636D01*
X115223636Y-124266984D01*
X115249193Y-124235844D01*
X115249195Y-124235842D01*
X115265233Y-124211838D01*
X115265234Y-124211837D01*
X115295918Y-124137758D01*
X115301551Y-124109439D01*
X115305500Y-124069348D01*
X115305500Y-114920763D01*
X115311570Y-114891412D01*
X115328783Y-114866876D01*
X115618453Y-114594245D01*
X116067559Y-114171558D01*
X116094947Y-114139933D01*
X116112160Y-114115397D01*
X116145172Y-114038995D01*
X116151242Y-114009644D01*
X116155500Y-113968026D01*
X116155500Y-101030652D01*
X116151551Y-100990561D01*
X116145918Y-100962242D01*
X116115234Y-100888163D01*
X116115233Y-100888161D01*
X116099195Y-100864157D01*
X116073638Y-100833018D01*
X116066981Y-100826361D01*
X116035842Y-100800804D01*
X116011838Y-100784766D01*
X115937758Y-100754082D01*
X115909444Y-100748450D01*
X115909439Y-100748449D01*
X115869348Y-100744500D01*
X110930652Y-100744500D01*
X110890561Y-100748449D01*
X110890556Y-100748449D01*
X110890555Y-100748450D01*
X110862241Y-100754082D01*
X110788161Y-100784766D01*
X110764157Y-100800804D01*
X110733018Y-100826361D01*
X110726361Y-100833018D01*
X110700804Y-100864157D01*
X110684766Y-100888161D01*
X110654082Y-100962241D01*
X110654082Y-100962242D01*
X110648449Y-100990561D01*
X110644500Y-101030652D01*
X110644500Y-107520899D01*
X110648096Y-107559174D01*
X110653230Y-107586256D01*
X110681243Y-107657490D01*
X110695932Y-107680815D01*
X110719371Y-107711286D01*
X110727512Y-107720036D01*
X110743426Y-107733948D01*
X110759340Y-107747862D01*
X110782261Y-107764064D01*
X110784070Y-107765343D01*
X110861219Y-107798808D01*
X110890880Y-107804920D01*
X110922360Y-107808084D01*
X110932944Y-107809148D01*
X110932945Y-107809147D01*
X110932946Y-107809148D01*
X110949651Y-107809099D01*
X111970287Y-107806162D01*
X112007377Y-107816005D01*
X112034550Y-107843101D01*
X112044500Y-107880162D01*
X112044500Y-114519345D01*
X112034593Y-114556333D01*
X112007524Y-114583417D01*
X111970542Y-114593344D01*
X111846410Y-114593415D01*
X110380609Y-114594245D01*
X110340426Y-114598235D01*
X110317725Y-114602775D01*
X110312049Y-114603911D01*
X110290067Y-114613055D01*
X110237846Y-114634777D01*
X110213814Y-114650903D01*
X110182669Y-114676576D01*
X110175895Y-114683381D01*
X110150469Y-114714497D01*
X110134520Y-114738462D01*
X110104024Y-114812342D01*
X110098424Y-114840579D01*
X110095843Y-114866876D01*
X110094500Y-114880550D01*
X110094500Y-124069348D01*
X104951905Y-124069348D01*
X104961837Y-124065234D01*
X104969839Y-124059886D01*
X104985842Y-124049195D01*
X104999446Y-124038028D01*
X105016984Y-124023636D01*
X105023636Y-124016984D01*
X105049193Y-123985844D01*
X105049195Y-123985842D01*
X105065233Y-123961838D01*
X105065234Y-123961837D01*
X105095918Y-123887758D01*
X105101551Y-123859439D01*
X105105500Y-123819348D01*
X105105500Y-122457226D01*
X105110808Y-122429704D01*
X105125972Y-122406131D01*
X106078173Y-121408589D01*
X106078177Y-121408584D01*
X106102357Y-121377868D01*
X106117521Y-121354295D01*
X106146473Y-121282034D01*
X106151781Y-121254512D01*
X106155500Y-121215596D01*
X106155500Y-113624000D01*
X106151132Y-113590819D01*
X106150499Y-113581161D01*
X106150499Y-113561599D01*
X106135240Y-113484883D01*
X106077112Y-113397888D01*
X106042347Y-113374659D01*
X105990117Y-113339760D01*
X105913400Y-113324500D01*
X105736598Y-113324500D01*
X105659881Y-113339759D01*
X105616110Y-113369006D01*
X105574999Y-113381477D01*
X105533888Y-113369006D01*
X105490117Y-113339760D01*
X105490112Y-113339759D01*
X105413400Y-113324500D01*
X105236598Y-113324500D01*
X105159883Y-113339759D01*
X105072888Y-113397887D01*
X105014760Y-113484883D01*
X104999500Y-113561599D01*
X104999500Y-114213401D01*
X105014759Y-114290116D01*
X105014760Y-114290117D01*
X105072888Y-114377112D01*
X105120569Y-114408971D01*
X105149131Y-114445570D01*
X105150271Y-114491981D01*
X105123539Y-114529937D01*
X105079457Y-114544500D01*
X103780652Y-114544500D01*
X103740561Y-114548449D01*
X103740556Y-114548449D01*
X103740555Y-114548450D01*
X103712241Y-114554082D01*
X103638161Y-114584766D01*
X103614157Y-114600804D01*
X103583018Y-114626361D01*
X103576365Y-114633014D01*
X103554415Y-114659759D01*
X103512703Y-114685172D01*
X103464243Y-114679060D01*
X103430148Y-114644086D01*
X103414065Y-114609596D01*
X103330404Y-114525935D01*
X103318224Y-114520255D01*
X103287089Y-114492950D01*
X103275500Y-114453190D01*
X103275500Y-113402978D01*
X103281133Y-113374659D01*
X103297174Y-113350652D01*
X103425653Y-113222173D01*
X103449660Y-113206132D01*
X103477979Y-113200499D01*
X103638401Y-113200499D01*
X103676758Y-113192869D01*
X103715117Y-113185240D01*
X103802112Y-113127112D01*
X103860240Y-113040117D01*
X103875500Y-112963401D01*
X106774500Y-112963401D01*
X106789759Y-113040116D01*
X106837846Y-113112084D01*
X106847888Y-113127112D01*
X106934883Y-113185240D01*
X107011599Y-113200500D01*
X107663400Y-113200499D01*
X107663401Y-113200499D01*
X107701758Y-113192869D01*
X107740117Y-113185240D01*
X107827112Y-113127112D01*
X107835143Y-113115091D01*
X107870046Y-113087159D01*
X107914667Y-113084424D01*
X107952720Y-113107886D01*
X108772207Y-114058493D01*
X108781284Y-114066981D01*
X108804395Y-114088594D01*
X108829617Y-114107550D01*
X108909274Y-114144050D01*
X108940100Y-114150776D01*
X108958874Y-114152800D01*
X108983904Y-114155500D01*
X108983908Y-114155500D01*
X111169344Y-114155500D01*
X111169348Y-114155500D01*
X111209439Y-114151551D01*
X111237758Y-114145918D01*
X111311837Y-114115234D01*
X111323337Y-114107550D01*
X111335842Y-114099195D01*
X111349446Y-114088028D01*
X111366984Y-114073636D01*
X111373636Y-114066984D01*
X111388029Y-114049446D01*
X111399195Y-114035842D01*
X111415233Y-114011838D01*
X111415234Y-114011837D01*
X111445918Y-113937758D01*
X111451551Y-113909439D01*
X111455500Y-113869348D01*
X111455500Y-108430652D01*
X111451551Y-108390561D01*
X111445918Y-108362242D01*
X111415234Y-108288163D01*
X111415233Y-108288161D01*
X111399195Y-108264157D01*
X111373638Y-108233018D01*
X111366981Y-108226361D01*
X111335842Y-108200804D01*
X111311838Y-108184766D01*
X111237758Y-108154082D01*
X111209444Y-108148450D01*
X111209439Y-108148449D01*
X111169348Y-108144500D01*
X109730652Y-108144500D01*
X109690561Y-108148449D01*
X109690556Y-108148449D01*
X109690555Y-108148450D01*
X109662241Y-108154082D01*
X109588161Y-108184766D01*
X109564157Y-108200804D01*
X109533018Y-108226361D01*
X108826361Y-108933018D01*
X108800804Y-108964157D01*
X108784766Y-108988161D01*
X108754082Y-109062241D01*
X108748450Y-109090555D01*
X108744500Y-109130656D01*
X108744500Y-109416257D01*
X108732911Y-109456018D01*
X108701773Y-109483324D01*
X108664751Y-109489022D01*
X108664751Y-109489500D01*
X108661644Y-109489500D01*
X108660840Y-109489623D01*
X108659901Y-109489500D01*
X108659897Y-109489500D01*
X108240098Y-109489500D01*
X108190514Y-109496027D01*
X108081684Y-109546776D01*
X107996776Y-109631684D01*
X107946028Y-109740514D01*
X107939500Y-109790100D01*
X107939500Y-109911200D01*
X107933867Y-109939519D01*
X107917826Y-109963526D01*
X107378527Y-110502826D01*
X107354520Y-110518867D01*
X107326201Y-110524500D01*
X107308460Y-110524500D01*
X107250899Y-110534105D01*
X107222118Y-110538908D01*
X107219024Y-110540583D01*
X107183807Y-110549500D01*
X107011598Y-110549500D01*
X106934883Y-110564759D01*
X106847888Y-110622887D01*
X106789760Y-110709883D01*
X106774500Y-110786599D01*
X106774500Y-110963401D01*
X106789759Y-111040116D01*
X106819006Y-111083888D01*
X106831477Y-111125000D01*
X106819007Y-111166111D01*
X106789760Y-111209883D01*
X106774500Y-111286599D01*
X106774500Y-111463401D01*
X106789759Y-111540116D01*
X106819006Y-111583888D01*
X106831477Y-111625000D01*
X106819007Y-111666111D01*
X106789760Y-111709883D01*
X106774500Y-111786599D01*
X106774500Y-111963401D01*
X106789759Y-112040116D01*
X106819006Y-112083888D01*
X106831477Y-112125000D01*
X106819007Y-112166111D01*
X106789760Y-112209883D01*
X106774500Y-112286599D01*
X106774500Y-112463401D01*
X106789759Y-112540116D01*
X106819006Y-112583888D01*
X106831477Y-112625000D01*
X106819007Y-112666111D01*
X106789760Y-112709883D01*
X106774500Y-112786599D01*
X106774500Y-112963401D01*
X103875500Y-112963401D01*
X103875499Y-112786600D01*
X103871302Y-112765500D01*
X103860240Y-112709883D01*
X103830993Y-112666111D01*
X103818522Y-112624999D01*
X103830993Y-112583888D01*
X103860240Y-112540117D01*
X103875500Y-112463401D01*
X103875499Y-112286600D01*
X103860240Y-112209883D01*
X103830993Y-112166111D01*
X103818522Y-112124999D01*
X103830993Y-112083888D01*
X103860240Y-112040117D01*
X103875500Y-111963401D01*
X103875499Y-111786600D01*
X103870188Y-111759900D01*
X103860240Y-111709883D01*
X103802112Y-111622888D01*
X103743744Y-111583888D01*
X103715117Y-111564760D01*
X103638401Y-111549500D01*
X102784499Y-111549500D01*
X102747499Y-111539586D01*
X102720413Y-111512500D01*
X102710499Y-111475500D01*
X102710499Y-111340099D01*
X102703972Y-111290514D01*
X102703972Y-111290513D01*
X102653224Y-111181684D01*
X102568316Y-111096776D01*
X102459487Y-111046028D01*
X102409900Y-111039500D01*
X102050098Y-111039500D01*
X102000514Y-111046027D01*
X101919322Y-111083888D01*
X101891684Y-111096776D01*
X101806776Y-111181684D01*
X101757854Y-111286599D01*
X101756028Y-111290514D01*
X101749500Y-111340099D01*
X101749500Y-111759901D01*
X101756027Y-111809485D01*
X101756028Y-111809487D01*
X101806776Y-111918316D01*
X101806778Y-111918318D01*
X101814670Y-111926211D01*
X101833822Y-111959383D01*
X101833821Y-111997688D01*
X101814670Y-112030860D01*
X101777327Y-112068204D01*
X101744153Y-112087357D01*
X101705848Y-112087358D01*
X101672674Y-112068205D01*
X101630404Y-112025935D01*
X101523173Y-111975932D01*
X101474316Y-111969500D01*
X101025684Y-111969500D01*
X100976827Y-111975932D01*
X100923211Y-112000933D01*
X100869595Y-112025935D01*
X100785935Y-112109595D01*
X100785934Y-112109596D01*
X100785935Y-112109596D01*
X100735932Y-112216827D01*
X100729500Y-112265684D01*
X100729500Y-112614316D01*
X100200500Y-112614316D01*
X100200500Y-110309901D01*
X100739500Y-110309901D01*
X100746027Y-110359485D01*
X100746028Y-110359487D01*
X100796776Y-110468316D01*
X100881684Y-110553224D01*
X100990513Y-110603972D01*
X101040099Y-110610500D01*
X101459900Y-110610499D01*
X101459901Y-110610499D01*
X101476428Y-110608323D01*
X101509487Y-110603972D01*
X101618316Y-110553224D01*
X101656211Y-110515328D01*
X101689382Y-110496177D01*
X101727688Y-110496177D01*
X101760858Y-110515327D01*
X101819596Y-110574065D01*
X101926827Y-110624068D01*
X101975684Y-110630500D01*
X102424312Y-110630500D01*
X102424316Y-110630500D01*
X102428658Y-110629928D01*
X102462103Y-110633222D01*
X102490643Y-110650969D01*
X102727826Y-110888152D01*
X102743867Y-110912158D01*
X102749500Y-110940476D01*
X102749500Y-110963401D01*
X102764759Y-111040116D01*
X102821476Y-111125000D01*
X102822888Y-111127112D01*
X102909883Y-111185240D01*
X102986599Y-111200500D01*
X103122400Y-111200499D01*
X103141558Y-111203021D01*
X103146193Y-111204264D01*
X103146193Y-111204263D01*
X103146194Y-111204264D01*
X103171802Y-111202023D01*
X103185995Y-111200781D01*
X103192444Y-111200500D01*
X103352981Y-111200500D01*
X103352987Y-111200499D01*
X103638401Y-111200499D01*
X103676758Y-111192869D01*
X103715117Y-111185240D01*
X103802112Y-111127112D01*
X103860240Y-111040117D01*
X103875500Y-110963401D01*
X103875499Y-110786600D01*
X103860240Y-110709883D01*
X103802112Y-110622888D01*
X103715117Y-110564760D01*
X103638401Y-110549500D01*
X103340478Y-110549500D01*
X103312159Y-110543867D01*
X103288152Y-110527826D01*
X103074652Y-110314326D01*
X103054400Y-110276437D01*
X103058611Y-110233681D01*
X103085866Y-110200471D01*
X103126978Y-110188000D01*
X103938690Y-110188000D01*
X103985635Y-110204797D01*
X104011268Y-110247564D01*
X104014759Y-110265116D01*
X104044683Y-110309901D01*
X104072888Y-110352112D01*
X104159883Y-110410240D01*
X104236599Y-110425500D01*
X104413400Y-110425499D01*
X104413401Y-110425499D01*
X104451758Y-110417869D01*
X104490117Y-110410240D01*
X104533888Y-110380992D01*
X104575000Y-110368522D01*
X104616111Y-110380992D01*
X104659883Y-110410240D01*
X104736599Y-110425500D01*
X104913400Y-110425499D01*
X104913401Y-110425499D01*
X104951758Y-110417869D01*
X104990117Y-110410240D01*
X105033888Y-110380992D01*
X105075000Y-110368522D01*
X105116111Y-110380992D01*
X105159883Y-110410240D01*
X105236599Y-110425500D01*
X105413400Y-110425499D01*
X105413401Y-110425499D01*
X105504554Y-110407369D01*
X105505062Y-110409927D01*
X105519659Y-110405500D01*
X105630342Y-110405500D01*
X105644938Y-110409925D01*
X105645447Y-110407368D01*
X105659881Y-110410239D01*
X105659883Y-110410240D01*
X105736599Y-110425500D01*
X105913400Y-110425499D01*
X105913401Y-110425499D01*
X105951758Y-110417869D01*
X105990117Y-110410240D01*
X106077112Y-110352112D01*
X106135240Y-110265117D01*
X106150500Y-110188401D01*
X106150499Y-110168831D01*
X106151132Y-110159172D01*
X106155500Y-110125998D01*
X106155500Y-105480656D01*
X106155500Y-105480652D01*
X106151551Y-105440561D01*
X106145918Y-105412242D01*
X106115234Y-105338163D01*
X106115233Y-105338161D01*
X106099195Y-105314157D01*
X106073638Y-105283018D01*
X105766981Y-104976361D01*
X105735842Y-104950804D01*
X105711838Y-104934766D01*
X105637758Y-104904082D01*
X105609444Y-104898450D01*
X105609439Y-104898449D01*
X105569348Y-104894500D01*
X104080652Y-104894500D01*
X104040561Y-104898449D01*
X104040556Y-104898449D01*
X104040555Y-104898450D01*
X104012241Y-104904082D01*
X103938161Y-104934766D01*
X103914157Y-104950804D01*
X103883018Y-104976361D01*
X103576361Y-105283018D01*
X103550804Y-105314157D01*
X103534766Y-105338161D01*
X103504082Y-105412241D01*
X103498450Y-105440555D01*
X103494500Y-105480656D01*
X103494500Y-106821379D01*
X103482029Y-106862491D01*
X103448819Y-106889746D01*
X103406063Y-106893957D01*
X103368174Y-106873705D01*
X103330404Y-106835935D01*
X103223173Y-106785932D01*
X103174316Y-106779500D01*
X102825684Y-106779500D01*
X102776827Y-106785932D01*
X102723211Y-106810933D01*
X102669595Y-106835935D01*
X102585935Y-106919595D01*
X102557067Y-106981504D01*
X102529760Y-107012641D01*
X102490000Y-107024230D01*
X102450240Y-107012641D01*
X102422933Y-106981504D01*
X102394065Y-106919596D01*
X102310404Y-106835935D01*
X102203173Y-106785932D01*
X102154316Y-106779500D01*
X101805684Y-106779500D01*
X101756827Y-106785932D01*
X101703211Y-106810933D01*
X101649595Y-106835935D01*
X101565935Y-106919595D01*
X101565934Y-106919596D01*
X101565935Y-106919596D01*
X101515932Y-107026827D01*
X101509500Y-107075684D01*
X101509500Y-107524316D01*
X101515932Y-107573173D01*
X101565935Y-107680404D01*
X101649596Y-107764065D01*
X101756827Y-107814068D01*
X101805684Y-107820500D01*
X102030060Y-107820500D01*
X102058379Y-107826133D01*
X102082386Y-107842174D01*
X102507826Y-108267614D01*
X102523867Y-108291621D01*
X102529500Y-108319940D01*
X102529500Y-108474315D01*
X102535932Y-108523173D01*
X102558924Y-108572480D01*
X102565501Y-108611006D01*
X102551534Y-108647510D01*
X102520920Y-108671807D01*
X102482199Y-108677120D01*
X102424316Y-108669500D01*
X101975684Y-108669500D01*
X101926827Y-108675932D01*
X101873211Y-108700933D01*
X101819595Y-108725935D01*
X101735935Y-108809595D01*
X101735934Y-108809596D01*
X101735935Y-108809596D01*
X101685932Y-108916827D01*
X101679500Y-108965684D01*
X101679500Y-109314316D01*
X101685932Y-109363173D01*
X101735935Y-109470404D01*
X101819596Y-109554065D01*
X101881504Y-109582933D01*
X101912641Y-109610240D01*
X101924230Y-109650000D01*
X101912641Y-109689760D01*
X101881504Y-109717066D01*
X101863435Y-109725492D01*
X101819594Y-109745935D01*
X101790860Y-109774670D01*
X101757687Y-109793822D01*
X101719382Y-109793822D01*
X101686209Y-109774669D01*
X101657475Y-109745935D01*
X101618316Y-109706776D01*
X101509487Y-109656028D01*
X101459900Y-109649500D01*
X101040098Y-109649500D01*
X100990514Y-109656027D01*
X100881684Y-109706776D01*
X100796776Y-109791684D01*
X100746028Y-109900514D01*
X100739500Y-109950099D01*
X100739500Y-110309901D01*
X100200500Y-110309901D01*
X100200500Y-100274500D01*
X100210414Y-100237500D01*
X100237500Y-100210414D01*
X100274500Y-100200500D01*
X117525500Y-100200500D01*
X117562500Y-100210414D01*
G37*
%TD.AperFunction*%
M02*
