%TF.GenerationSoftware,KiCad,Pcbnew,7.0.1*%
%TF.CreationDate,2023-05-11T16:23:10+02:00*%
%TF.ProjectId,Generic_Buck_Converter,47656e65-7269-4635-9f42-75636b5f436f,rev?*%
%TF.SameCoordinates,Original*%
%TF.FileFunction,Legend,Bot*%
%TF.FilePolarity,Positive*%
%FSLAX46Y46*%
G04 Gerber Fmt 4.6, Leading zero omitted, Abs format (unit mm)*
G04 Created by KiCad (PCBNEW 7.0.1) date 2023-05-11 16:23:10*
%MOMM*%
%LPD*%
G01*
G04 APERTURE LIST*
%ADD10C,0.150000*%
%ADD11R,1.700000X1.700000*%
%ADD12O,1.700000X1.700000*%
G04 APERTURE END LIST*
D10*
X108130952Y-100452095D02*
X108130952Y-101023523D01*
X108130952Y-101023523D02*
X108169047Y-101137809D01*
X108169047Y-101137809D02*
X108245238Y-101214000D01*
X108245238Y-101214000D02*
X108359523Y-101252095D01*
X108359523Y-101252095D02*
X108435714Y-101252095D01*
X107369047Y-101252095D02*
X107749999Y-101252095D01*
X107749999Y-101252095D02*
X107749999Y-100452095D01*
X106645237Y-101175904D02*
X106683333Y-101214000D01*
X106683333Y-101214000D02*
X106797618Y-101252095D01*
X106797618Y-101252095D02*
X106873809Y-101252095D01*
X106873809Y-101252095D02*
X106988095Y-101214000D01*
X106988095Y-101214000D02*
X107064285Y-101137809D01*
X107064285Y-101137809D02*
X107102380Y-101061619D01*
X107102380Y-101061619D02*
X107140476Y-100909238D01*
X107140476Y-100909238D02*
X107140476Y-100794952D01*
X107140476Y-100794952D02*
X107102380Y-100642571D01*
X107102380Y-100642571D02*
X107064285Y-100566380D01*
X107064285Y-100566380D02*
X106988095Y-100490190D01*
X106988095Y-100490190D02*
X106873809Y-100452095D01*
X106873809Y-100452095D02*
X106797618Y-100452095D01*
X106797618Y-100452095D02*
X106683333Y-100490190D01*
X106683333Y-100490190D02*
X106645237Y-100528285D01*
X106073809Y-100452095D02*
X106073809Y-101023523D01*
X106073809Y-101023523D02*
X106111904Y-101137809D01*
X106111904Y-101137809D02*
X106188095Y-101214000D01*
X106188095Y-101214000D02*
X106302380Y-101252095D01*
X106302380Y-101252095D02*
X106378571Y-101252095D01*
X105311904Y-101252095D02*
X105692856Y-101252095D01*
X105692856Y-101252095D02*
X105692856Y-100452095D01*
X104588094Y-101175904D02*
X104626190Y-101214000D01*
X104626190Y-101214000D02*
X104740475Y-101252095D01*
X104740475Y-101252095D02*
X104816666Y-101252095D01*
X104816666Y-101252095D02*
X104930952Y-101214000D01*
X104930952Y-101214000D02*
X105007142Y-101137809D01*
X105007142Y-101137809D02*
X105045237Y-101061619D01*
X105045237Y-101061619D02*
X105083333Y-100909238D01*
X105083333Y-100909238D02*
X105083333Y-100794952D01*
X105083333Y-100794952D02*
X105045237Y-100642571D01*
X105045237Y-100642571D02*
X105007142Y-100566380D01*
X105007142Y-100566380D02*
X104930952Y-100490190D01*
X104930952Y-100490190D02*
X104816666Y-100452095D01*
X104816666Y-100452095D02*
X104740475Y-100452095D01*
X104740475Y-100452095D02*
X104626190Y-100490190D01*
X104626190Y-100490190D02*
X104588094Y-100528285D01*
X104016666Y-100452095D02*
X104016666Y-101023523D01*
X104016666Y-101023523D02*
X104054761Y-101137809D01*
X104054761Y-101137809D02*
X104130952Y-101214000D01*
X104130952Y-101214000D02*
X104245237Y-101252095D01*
X104245237Y-101252095D02*
X104321428Y-101252095D01*
X103254761Y-101252095D02*
X103635713Y-101252095D01*
X103635713Y-101252095D02*
X103635713Y-100452095D01*
X102530951Y-101175904D02*
X102569047Y-101214000D01*
X102569047Y-101214000D02*
X102683332Y-101252095D01*
X102683332Y-101252095D02*
X102759523Y-101252095D01*
X102759523Y-101252095D02*
X102873809Y-101214000D01*
X102873809Y-101214000D02*
X102949999Y-101137809D01*
X102949999Y-101137809D02*
X102988094Y-101061619D01*
X102988094Y-101061619D02*
X103026190Y-100909238D01*
X103026190Y-100909238D02*
X103026190Y-100794952D01*
X103026190Y-100794952D02*
X102988094Y-100642571D01*
X102988094Y-100642571D02*
X102949999Y-100566380D01*
X102949999Y-100566380D02*
X102873809Y-100490190D01*
X102873809Y-100490190D02*
X102759523Y-100452095D01*
X102759523Y-100452095D02*
X102683332Y-100452095D01*
X102683332Y-100452095D02*
X102569047Y-100490190D01*
X102569047Y-100490190D02*
X102530951Y-100528285D01*
X101959523Y-100452095D02*
X101959523Y-101023523D01*
X101959523Y-101023523D02*
X101997618Y-101137809D01*
X101997618Y-101137809D02*
X102073809Y-101214000D01*
X102073809Y-101214000D02*
X102188094Y-101252095D01*
X102188094Y-101252095D02*
X102264285Y-101252095D01*
X101197618Y-101252095D02*
X101578570Y-101252095D01*
X101578570Y-101252095D02*
X101578570Y-100452095D01*
X100473808Y-101175904D02*
X100511904Y-101214000D01*
X100511904Y-101214000D02*
X100626189Y-101252095D01*
X100626189Y-101252095D02*
X100702380Y-101252095D01*
X100702380Y-101252095D02*
X100816666Y-101214000D01*
X100816666Y-101214000D02*
X100892856Y-101137809D01*
X100892856Y-101137809D02*
X100930951Y-101061619D01*
X100930951Y-101061619D02*
X100969047Y-100909238D01*
X100969047Y-100909238D02*
X100969047Y-100794952D01*
X100969047Y-100794952D02*
X100930951Y-100642571D01*
X100930951Y-100642571D02*
X100892856Y-100566380D01*
X100892856Y-100566380D02*
X100816666Y-100490190D01*
X100816666Y-100490190D02*
X100702380Y-100452095D01*
X100702380Y-100452095D02*
X100626189Y-100452095D01*
X100626189Y-100452095D02*
X100511904Y-100490190D01*
X100511904Y-100490190D02*
X100473808Y-100528285D01*
%LPC*%
D11*
X113975000Y-123025000D03*
D12*
X111435000Y-123025000D03*
X108895000Y-123025000D03*
X106355000Y-123025000D03*
X103815000Y-123025000D03*
M02*
