%TF.GenerationSoftware,KiCad,Pcbnew,7.0.1*%
%TF.CreationDate,2023-05-11T16:23:10+02:00*%
%TF.ProjectId,Generic_Buck_Converter,47656e65-7269-4635-9f42-75636b5f436f,rev?*%
%TF.SameCoordinates,Original*%
%TF.FileFunction,Paste,Top*%
%TF.FilePolarity,Positive*%
%FSLAX46Y46*%
G04 Gerber Fmt 4.6, Leading zero omitted, Abs format (unit mm)*
G04 Created by KiCad (PCBNEW 7.0.1) date 2023-05-11 16:23:10*
%MOMM*%
%LPD*%
G01*
G04 APERTURE LIST*
G04 Aperture macros list*
%AMRoundRect*
0 Rectangle with rounded corners*
0 $1 Rounding radius*
0 $2 $3 $4 $5 $6 $7 $8 $9 X,Y pos of 4 corners*
0 Add a 4 corners polygon primitive as box body*
4,1,4,$2,$3,$4,$5,$6,$7,$8,$9,$2,$3,0*
0 Add four circle primitives for the rounded corners*
1,1,$1+$1,$2,$3*
1,1,$1+$1,$4,$5*
1,1,$1+$1,$6,$7*
1,1,$1+$1,$8,$9*
0 Add four rect primitives between the rounded corners*
20,1,$1+$1,$2,$3,$4,$5,0*
20,1,$1+$1,$4,$5,$6,$7,0*
20,1,$1+$1,$6,$7,$8,$9,0*
20,1,$1+$1,$8,$9,$2,$3,0*%
G04 Aperture macros list end*
%ADD10RoundRect,0.135000X0.135000X0.185000X-0.135000X0.185000X-0.135000X-0.185000X0.135000X-0.185000X0*%
%ADD11RoundRect,0.250000X-0.325000X-1.100000X0.325000X-1.100000X0.325000X1.100000X-0.325000X1.100000X0*%
%ADD12RoundRect,0.250000X0.325000X1.100000X-0.325000X1.100000X-0.325000X-1.100000X0.325000X-1.100000X0*%
%ADD13R,1.430000X5.500000*%
%ADD14RoundRect,0.135000X-0.185000X0.135000X-0.185000X-0.135000X0.185000X-0.135000X0.185000X0.135000X0*%
%ADD15RoundRect,0.140000X0.170000X-0.140000X0.170000X0.140000X-0.170000X0.140000X-0.170000X-0.140000X0*%
%ADD16RoundRect,0.135000X0.185000X-0.135000X0.185000X0.135000X-0.185000X0.135000X-0.185000X-0.135000X0*%
%ADD17RoundRect,0.140000X-0.170000X0.140000X-0.170000X-0.140000X0.170000X-0.140000X0.170000X0.140000X0*%
%ADD18RoundRect,0.140000X0.140000X0.170000X-0.140000X0.170000X-0.140000X-0.170000X0.140000X-0.170000X0*%
%ADD19RoundRect,0.250000X0.380000X-0.380000X0.380000X0.380000X-0.380000X0.380000X-0.380000X-0.380000X0*%
%ADD20RoundRect,0.250000X-0.380000X0.380000X-0.380000X-0.380000X0.380000X-0.380000X0.380000X0.380000X0*%
%ADD21RoundRect,0.062500X-0.062500X0.300000X-0.062500X-0.300000X0.062500X-0.300000X0.062500X0.300000X0*%
%ADD22RoundRect,0.062500X-0.300000X0.062500X-0.300000X-0.062500X0.300000X-0.062500X0.300000X0.062500X0*%
G04 APERTURE END LIST*
D10*
X103000000Y-107300000D03*
X101980000Y-107300000D03*
D11*
X113475000Y-119600000D03*
X116425000Y-119600000D03*
D12*
X111825000Y-119600000D03*
X108875000Y-119600000D03*
D10*
X103000000Y-108250000D03*
X101980000Y-108250000D03*
D12*
X111825000Y-105900000D03*
X108875000Y-105900000D03*
D13*
X110430000Y-111150000D03*
X114470000Y-111150000D03*
D14*
X102200000Y-109140000D03*
X102200000Y-110160000D03*
D11*
X113475000Y-116400000D03*
X116425000Y-116400000D03*
X104275000Y-116100000D03*
X107225000Y-116100000D03*
D15*
X101250000Y-110130000D03*
X101250000Y-109170000D03*
D11*
X104275000Y-107400000D03*
X107225000Y-107400000D03*
D16*
X102200000Y-113460000D03*
X102200000Y-112440000D03*
D17*
X108450000Y-109970000D03*
X108450000Y-110930000D03*
D18*
X102230000Y-111550000D03*
X101270000Y-111550000D03*
D12*
X111825000Y-116400000D03*
X108875000Y-116400000D03*
D14*
X102950000Y-114940000D03*
X102950000Y-115960000D03*
D19*
X106050000Y-111150000D03*
D20*
X104600000Y-111150000D03*
X106050000Y-112600000D03*
X104600000Y-112600000D03*
D21*
X106325000Y-109862500D03*
X105825000Y-109862500D03*
X105325000Y-109862500D03*
X104825000Y-109862500D03*
X104325000Y-109862500D03*
D22*
X103312500Y-110875000D03*
X103312500Y-111375000D03*
X103312500Y-111875000D03*
X103312500Y-112375000D03*
X103312500Y-112875000D03*
D21*
X104325000Y-113887500D03*
X104825000Y-113887500D03*
X105325000Y-113887500D03*
X105825000Y-113887500D03*
X106325000Y-113887500D03*
D22*
X107337500Y-112875000D03*
X107337500Y-112375000D03*
X107337500Y-111875000D03*
X107337500Y-111375000D03*
X107337500Y-110875000D03*
D14*
X101250000Y-112440000D03*
X101250000Y-113460000D03*
D12*
X111825000Y-102700000D03*
X108875000Y-102700000D03*
M02*
