%TF.GenerationSoftware,KiCad,Pcbnew,7.0.1*%
%TF.CreationDate,2023-06-27T00:25:03+02:00*%
%TF.ProjectId,Main board,4d61696e-2062-46f6-9172-642e6b696361,rev?*%
%TF.SameCoordinates,Original*%
%TF.FileFunction,Drillmap*%
%TF.FilePolarity,Positive*%
%FSLAX45Y45*%
G04 Gerber Fmt 4.5, Leading zero omitted, Abs format (unit mm)*
G04 Created by KiCad (PCBNEW 7.0.1) date 2023-06-27 00:25:03*
%MOMM*%
%LPD*%
G01*
G04 APERTURE LIST*
%ADD10C,0.100000*%
%ADD11C,0.200000*%
G04 APERTURE END LIST*
D10*
X23500000Y-18500000D02*
G75*
G03*
X24000000Y-18000000I0J500000D01*
G01*
X5000000Y-18000000D02*
G75*
G03*
X5500000Y-18500000I500000J0D01*
G01*
X5000000Y-18000000D02*
X5000000Y-5500000D01*
X5500000Y-5000000D02*
G75*
G03*
X5000000Y-5500000I0J-500000D01*
G01*
X23500000Y-18500000D02*
X5500000Y-18500000D01*
X5500000Y-5000000D02*
X23500000Y-5000000D01*
X24000000Y-5500000D02*
X24000000Y-18000000D01*
X24000000Y-5500000D02*
G75*
G03*
X23500000Y-5000000I-500000J0D01*
G01*
D11*
X5242619Y-18817524D02*
X5242619Y-18617524D01*
X5242619Y-18617524D02*
X5290238Y-18617524D01*
X5290238Y-18617524D02*
X5318810Y-18627048D01*
X5318810Y-18627048D02*
X5337857Y-18646095D01*
X5337857Y-18646095D02*
X5347381Y-18665143D01*
X5347381Y-18665143D02*
X5356905Y-18703238D01*
X5356905Y-18703238D02*
X5356905Y-18731810D01*
X5356905Y-18731810D02*
X5347381Y-18769905D01*
X5347381Y-18769905D02*
X5337857Y-18788952D01*
X5337857Y-18788952D02*
X5318810Y-18808000D01*
X5318810Y-18808000D02*
X5290238Y-18817524D01*
X5290238Y-18817524D02*
X5242619Y-18817524D01*
X5442619Y-18817524D02*
X5442619Y-18684190D01*
X5442619Y-18722286D02*
X5452143Y-18703238D01*
X5452143Y-18703238D02*
X5461667Y-18693714D01*
X5461667Y-18693714D02*
X5480714Y-18684190D01*
X5480714Y-18684190D02*
X5499762Y-18684190D01*
X5566429Y-18817524D02*
X5566429Y-18684190D01*
X5566429Y-18617524D02*
X5556905Y-18627048D01*
X5556905Y-18627048D02*
X5566429Y-18636571D01*
X5566429Y-18636571D02*
X5575952Y-18627048D01*
X5575952Y-18627048D02*
X5566429Y-18617524D01*
X5566429Y-18617524D02*
X5566429Y-18636571D01*
X5690238Y-18817524D02*
X5671190Y-18808000D01*
X5671190Y-18808000D02*
X5661667Y-18788952D01*
X5661667Y-18788952D02*
X5661667Y-18617524D01*
X5795000Y-18817524D02*
X5775952Y-18808000D01*
X5775952Y-18808000D02*
X5766428Y-18788952D01*
X5766428Y-18788952D02*
X5766428Y-18617524D01*
X6023571Y-18817524D02*
X6023571Y-18617524D01*
X6023571Y-18617524D02*
X6090238Y-18760381D01*
X6090238Y-18760381D02*
X6156905Y-18617524D01*
X6156905Y-18617524D02*
X6156905Y-18817524D01*
X6337857Y-18817524D02*
X6337857Y-18712762D01*
X6337857Y-18712762D02*
X6328333Y-18693714D01*
X6328333Y-18693714D02*
X6309286Y-18684190D01*
X6309286Y-18684190D02*
X6271190Y-18684190D01*
X6271190Y-18684190D02*
X6252143Y-18693714D01*
X6337857Y-18808000D02*
X6318809Y-18817524D01*
X6318809Y-18817524D02*
X6271190Y-18817524D01*
X6271190Y-18817524D02*
X6252143Y-18808000D01*
X6252143Y-18808000D02*
X6242619Y-18788952D01*
X6242619Y-18788952D02*
X6242619Y-18769905D01*
X6242619Y-18769905D02*
X6252143Y-18750857D01*
X6252143Y-18750857D02*
X6271190Y-18741333D01*
X6271190Y-18741333D02*
X6318809Y-18741333D01*
X6318809Y-18741333D02*
X6337857Y-18731810D01*
X6433095Y-18684190D02*
X6433095Y-18884190D01*
X6433095Y-18693714D02*
X6452143Y-18684190D01*
X6452143Y-18684190D02*
X6490238Y-18684190D01*
X6490238Y-18684190D02*
X6509286Y-18693714D01*
X6509286Y-18693714D02*
X6518809Y-18703238D01*
X6518809Y-18703238D02*
X6528333Y-18722286D01*
X6528333Y-18722286D02*
X6528333Y-18779429D01*
X6528333Y-18779429D02*
X6518809Y-18798476D01*
X6518809Y-18798476D02*
X6509286Y-18808000D01*
X6509286Y-18808000D02*
X6490238Y-18817524D01*
X6490238Y-18817524D02*
X6452143Y-18817524D01*
X6452143Y-18817524D02*
X6433095Y-18808000D01*
X6614048Y-18798476D02*
X6623571Y-18808000D01*
X6623571Y-18808000D02*
X6614048Y-18817524D01*
X6614048Y-18817524D02*
X6604524Y-18808000D01*
X6604524Y-18808000D02*
X6614048Y-18798476D01*
X6614048Y-18798476D02*
X6614048Y-18817524D01*
X6614048Y-18693714D02*
X6623571Y-18703238D01*
X6623571Y-18703238D02*
X6614048Y-18712762D01*
X6614048Y-18712762D02*
X6604524Y-18703238D01*
X6604524Y-18703238D02*
X6614048Y-18693714D01*
X6614048Y-18693714D02*
X6614048Y-18712762D01*
M02*
