M48
; DRILL file {KiCad 7.0.1} date Tue Jun 27 00:24:34 2023
; FORMAT={-:-/ absolute / metric / decimal}
; #@! TF.CreationDate,2023-06-27T00:24:34+02:00
; #@! TF.GenerationSoftware,Kicad,Pcbnew,7.0.1
; #@! TF.FileFunction,Plated,1,4,PTH
FMAT,2
METRIC
; #@! TA.AperFunction,Plated,PTH,ViaDrill
T1C0.250
; #@! TA.AperFunction,Plated,PTH,ComponentDrill
T2C0.500
; #@! TA.AperFunction,Plated,PTH,ComponentDrill
T3C0.750
; #@! TA.AperFunction,Plated,PTH,ComponentDrill
T4C0.800
; #@! TA.AperFunction,Plated,PTH,ComponentDrill
T5C0.950
; #@! TA.AperFunction,Plated,PTH,ComponentDrill
T6C1.000
; #@! TA.AperFunction,Plated,PTH,ComponentDrill
T7C1.200
; #@! TA.AperFunction,Plated,PTH,ComponentDrill
T8C3.500
%
G90
G05
T1
X51.075Y-67.875
X54.475Y-64.587
X55.0Y-170.0
X55.925Y-73.455
X55.95Y-76.65
X56.375Y-77.225
X56.95Y-79.15
X58.025Y-64.575
X58.1Y-75.25
X58.849Y-104.217
X60.0Y-90.0
X60.0Y-100.0
X61.425Y-64.587
X61.7Y-65.712
X61.7Y-65.712
X61.85Y-71.375
X62.525Y-77.9
X62.55Y-76.575
X65.0Y-160.0
X65.475Y-67.375
X66.125Y-77.125
X69.025Y-104.225
X69.6Y-64.438
X70.0Y-95.0
X72.125Y-81.2
X72.15Y-104.75
X73.016Y-101.924
X73.275Y-64.4
X75.0Y-85.0
X76.675Y-65.175
X76.825Y-64.438
X76.875Y-101.35
X77.025Y-83.05
X77.325Y-101.725
X77.425Y-83.45
X80.075Y-63.1
X80.1Y-64.95
X82.1Y-72.55
X82.1Y-76.975
X84.425Y-64.462
X84.625Y-176.975
X85.0Y-155.0
X85.0Y-165.0
X85.975Y-105.875
X86.45Y-109.3
X86.5Y-111.525
X86.575Y-105.875
X87.175Y-105.875
X87.9Y-64.513
X88.3Y-77.225
X88.3Y-161.875
X89.425Y-80.225
X90.0Y-175.0
X90.075Y-68.175
X90.775Y-107.075
X91.087Y-155.6
X91.3Y-64.362
X91.3Y-65.15
X91.388Y-160.575
X91.525Y-159.275
X91.6Y-157.975
X91.675Y-89.075
X91.825Y-79.125
X93.25Y-91.75
X93.825Y-78.875
X93.875Y-91.75
X93.975Y-77.475
X94.525Y-91.75
X94.7Y-107.025
X94.762Y-160.575
X94.775Y-159.25
X94.914Y-80.353
X94.947Y-79.573
X94.975Y-76.2
X94.975Y-78.175
X94.975Y-78.875
X95.0Y-76.9
X95.0Y-125.0
X95.0Y-135.0
X95.0Y-145.0
X95.56Y-91.584
X95.725Y-64.05
X95.8Y-70.975
X96.487Y-155.1
X96.525Y-90.9
X97.15Y-90.9
X97.325Y-77.55
X97.8Y-90.9
X98.425Y-76.85
X98.6Y-162.85
X99.4Y-64.35
X100.0Y-180.0
X100.1Y-161.875
X101.025Y-90.225
X102.891Y-155.6
X103.225Y-159.275
X103.35Y-158.05
X103.375Y-64.3
X103.541Y-160.575
X104.45Y-79.275
X105.0Y-125.0
X105.0Y-135.0
X105.0Y-145.0
X105.227Y-83.487
X105.25Y-92.9
X106.525Y-64.325
X106.55Y-65.3
X106.578Y-159.275
X106.587Y-160.575
X108.291Y-155.1
X108.65Y-83.537
X110.0Y-115.0
X110.475Y-162.175
X111.9Y-156.675
X111.9Y-161.9
X112.1Y-83.5
X112.178Y-84.383
X113.025Y-95.125
X113.575Y-95.15
X113.65Y-65.025
X114.05Y-78.925
X114.7Y-155.55
X114.995Y-160.55
X115.0Y-145.0
X115.0Y-159.225
X115.325Y-84.675
X116.3Y-160.75
X118.153Y-69.406
X118.395Y-160.55
X118.4Y-159.25
X119.694Y-71.335
X120.0Y-120.0
X120.0Y-135.0
X120.1Y-155.05
X120.71Y-56.0
X120.925Y-92.025
X121.487Y-72.45
X121.624Y-91.996
X121.825Y-162.125
X122.139Y-155.45
X122.425Y-92.025
X122.714Y-155.975
X122.728Y-92.656
X123.6Y-56.05
X123.75Y-161.9
X123.8Y-156.7
X123.85Y-92.025
X124.24Y-92.676
X125.0Y-105.0
X125.0Y-115.0
X126.6Y-155.605
X126.695Y-82.225
X126.773Y-83.275
X126.925Y-159.275
X126.925Y-160.575
X127.15Y-78.125
X127.45Y-82.75
X127.45Y-83.45
X127.5Y-84.4
X129.708Y-90.608
X129.75Y-80.175
X130.0Y-60.0
X130.0Y-130.0
X130.133Y-90.183
X130.312Y-159.25
X130.325Y-160.575
X130.546Y-89.771
X130.725Y-69.375
X131.75Y-98.75
X132.0Y-82.4
X132.0Y-155.105
X132.4Y-98.75
X132.725Y-81.025
X133.05Y-98.75
X134.425Y-69.315
X135.0Y-132.25
X135.625Y-99.0
X136.0Y-120.25
X136.6Y-81.725
X137.35Y-145.575
X137.525Y-146.325
X137.575Y-147.85
X137.675Y-69.34
X137.754Y-70.336
X137.875Y-148.65
X138.117Y-76.22
X142.5Y-55.0
X145.0Y-65.0
X145.0Y-95.0
X150.0Y-60.0
X150.0Y-150.0
X156.0Y-180.5
X160.0Y-95.0
X160.0Y-100.0
X160.0Y-145.0
X165.0Y-60.0
X165.0Y-155.0
X166.25Y-150.75
X169.75Y-147.75
X170.0Y-75.0
X170.0Y-85.0
X170.0Y-165.0
X172.75Y-179.5
X172.775Y-62.6
X174.75Y-182.5
X175.4Y-60.825
X175.775Y-91.995
X176.4Y-96.35
X176.475Y-99.675
X177.025Y-94.0
X178.075Y-62.5
X178.525Y-81.605
X178.893Y-91.44
X179.475Y-79.705
X179.591Y-91.391
X179.8Y-107.5
X179.8Y-112.475
X179.825Y-63.825
X179.829Y-106.801
X179.896Y-70.642
X179.925Y-108.8
X180.0Y-120.0
X180.0Y-150.0
X180.135Y-90.52
X180.225Y-70.025
X180.425Y-77.78
X180.875Y-106.9
X181.3Y-83.35
X181.45Y-76.65
X181.932Y-105.157
X183.7Y-69.025
X183.763Y-92.16
X184.5Y-66.975
X185.05Y-69.45
X185.05Y-70.15
X185.375Y-65.22
X185.7Y-80.325
X186.275Y-80.325
X186.85Y-97.725
X187.125Y-91.6
X187.325Y-99.6
X187.325Y-100.775
X187.55Y-79.194
X188.656Y-83.195
X189.2Y-82.575
X189.225Y-64.475
X189.3Y-94.925
X189.725Y-101.475
X190.0Y-180.0
X190.15Y-62.575
X190.6Y-101.675
X191.25Y-101.95
X191.45Y-83.864
X191.45Y-106.725
X191.625Y-112.275
X191.825Y-108.575
X191.9Y-93.0
X191.9Y-94.275
X191.9Y-97.525
X191.9Y-100.125
X192.075Y-102.175
X192.3Y-81.939
X192.4Y-92.275
X192.4Y-93.625
X192.725Y-106.675
X192.75Y-154.75
X192.769Y-60.825
X193.325Y-80.039
X193.6Y-104.75
X193.925Y-129.55
X194.1Y-85.625
X194.625Y-124.725
X195.475Y-62.575
X195.85Y-125.175
X196.475Y-125.025
X196.5Y-93.625
X196.5Y-100.125
X196.6Y-78.625
X197.025Y-125.175
X197.475Y-83.825
X197.825Y-91.675
X197.925Y-124.775
X199.097Y-96.9
X199.1Y-96.25
X199.172Y-97.596
X199.425Y-93.575
X199.775Y-103.75
X200.0Y-140.0
X200.75Y-108.8
X200.75Y-151.25
X200.95Y-100.425
X201.075Y-99.5
X201.45Y-87.725
X201.45Y-108.775
X201.9Y-113.8
X202.0Y-117.4
X202.0Y-117.975
X202.0Y-118.6
X202.75Y-102.375
X202.85Y-113.825
X202.95Y-108.775
X202.95Y-110.1
X203.675Y-83.275
X203.725Y-108.675
X203.91Y-90.366
X204.025Y-115.2
X204.025Y-115.9
X204.55Y-81.715
X204.775Y-66.725
X205.0Y-180.0
X205.5Y-79.815
X206.175Y-109.025
X206.45Y-77.89
X207.2Y-127.025
X207.204Y-127.969
X207.281Y-88.704
X207.35Y-76.35
X207.475Y-121.55
X207.75Y-146.75
X207.79Y-89.563
X208.473Y-120.858
X208.488Y-119.492
X208.725Y-120.15
X208.75Y-121.5
X209.175Y-120.818
X209.179Y-122.119
X209.2Y-119.55
X209.768Y-99.0
X210.825Y-113.225
X210.936Y-90.347
X211.725Y-105.2
X211.779Y-124.719
X211.779Y-127.319
X212.0Y-107.05
X213.525Y-103.675
X214.351Y-111.589
X214.55Y-101.775
X214.812Y-112.425
X214.875Y-90.275
X215.0Y-150.0
X215.235Y-66.249
X215.4Y-99.85
X216.379Y-120.819
X216.379Y-127.319
X218.003Y-113.235
X218.246Y-91.594
X218.275Y-84.25
X218.45Y-90.925
X218.625Y-98.425
X218.974Y-124.019
X218.975Y-123.4
X218.979Y-124.719
X219.304Y-120.769
X219.868Y-65.875
X220.0Y-180.0
X220.954Y-126.694
X220.954Y-127.969
X221.95Y-98.125
X222.7Y-91.66
X225.875Y-104.535
X226.475Y-102.475
X226.6Y-96.33
X227.45Y-94.405
X228.25Y-137.1
X228.475Y-92.505
X228.8Y-137.1
X229.25Y-113.95
X229.291Y-102.826
X229.35Y-137.1
X229.8Y-103.685
X230.0Y-113.95
X230.0Y-145.0
X230.1Y-71.85
X230.1Y-78.025
X230.225Y-115.23
X230.884Y-118.875
X231.125Y-113.33
X231.625Y-91.1
X232.0Y-111.405
X232.946Y-104.47
X233.85Y-75.16
X234.3Y-124.92
X234.5Y-136.9
X234.6Y-80.675
X234.65Y-69.05
X235.0Y-160.0
X235.15Y-128.62
X235.15Y-136.9
X235.2Y-123.02
X235.75Y-136.9
X236.075Y-121.095
X237.025Y-104.05
X237.25Y-156.525
T2
X52.375Y-55.0
X52.375Y-180.0
X53.144Y-53.144
X53.144Y-56.856
X53.144Y-178.144
X53.144Y-181.856
X55.0Y-52.375
X55.0Y-57.625
X55.0Y-177.375
X55.0Y-182.625
X56.856Y-53.144
X56.856Y-56.856
X56.856Y-178.144
X56.856Y-181.856
X57.625Y-55.0
X57.625Y-180.0
X112.375Y-125.0
X113.144Y-123.144
X113.144Y-126.856
X115.0Y-122.375
X115.0Y-127.625
X116.856Y-123.144
X116.856Y-126.856
X117.625Y-125.0
X132.375Y-180.0
X133.144Y-178.144
X133.144Y-181.856
X135.0Y-177.375
X135.0Y-182.625
X136.856Y-178.144
X136.856Y-181.856
X137.625Y-180.0
X154.375Y-54.0
X155.144Y-52.144
X155.144Y-55.856
X157.0Y-51.375
X157.0Y-56.625
X158.856Y-52.144
X158.856Y-55.856
X159.625Y-54.0
X212.375Y-140.0
X213.144Y-138.144
X213.144Y-141.856
X215.0Y-137.375
X215.0Y-142.625
X216.856Y-138.144
X216.856Y-141.856
X217.625Y-140.0
X232.375Y-55.0
X232.375Y-180.0
X233.144Y-53.144
X233.144Y-56.856
X233.144Y-178.144
X233.144Y-181.856
X235.0Y-52.375
X235.0Y-57.625
X235.0Y-177.375
X235.0Y-182.625
X236.856Y-53.144
X236.856Y-56.856
X236.856Y-178.144
X236.856Y-181.856
X237.625Y-55.0
X237.625Y-180.0
T3
X64.45Y-172.0
X64.45Y-174.0
X64.45Y-176.0
X64.45Y-178.0
X64.45Y-180.0
X64.45Y-182.0
X74.0Y-53.0
X76.0Y-53.0
X78.0Y-53.0
X83.0Y-53.0
X85.0Y-53.0
X87.0Y-53.0
X92.0Y-53.0
X94.0Y-53.0
X96.0Y-53.0
X101.0Y-53.0
X103.0Y-53.0
X105.0Y-53.0
X110.0Y-53.0
X112.0Y-53.0
X117.0Y-53.0
X119.0Y-53.0
X121.0Y-53.0
X126.0Y-53.0
X128.0Y-53.0
X133.0Y-53.0
X135.0Y-53.0
X137.0Y-53.0
X175.0Y-52.975
X177.0Y-52.975
X179.0Y-52.975
X189.075Y-52.975
X191.075Y-52.975
X193.075Y-52.975
X198.0Y-52.975
X200.0Y-52.975
X205.0Y-52.975
X207.0Y-52.975
X213.0Y-52.975
X215.0Y-52.975
X220.0Y-52.975
X222.0Y-52.975
T4
X52.35Y-69.287
X53.412Y-73.98
X53.412Y-75.98
X53.412Y-79.5
X53.412Y-81.5
X54.35Y-69.287
X61.65Y-69.337
X63.65Y-69.337
X67.3Y-69.138
X68.412Y-79.5
X68.412Y-81.5
X68.513Y-73.98
X68.513Y-75.98
X69.3Y-69.138
X76.6Y-69.212
X78.6Y-69.212
X82.13Y-69.138
X84.13Y-69.138
X85.587Y-78.805
X85.587Y-80.805
X85.612Y-73.33
X85.612Y-75.33
X91.48Y-69.037
X93.48Y-69.037
X96.99Y-69.078
X98.99Y-69.078
X100.725Y-78.28
X100.725Y-80.28
X100.825Y-72.805
X100.825Y-74.805
X102.88Y-88.312
X104.88Y-88.312
X106.325Y-69.1
X108.325Y-69.1
X112.225Y-88.312
X114.037Y-67.15
X114.037Y-69.15
X114.112Y-72.675
X114.112Y-74.675
X114.225Y-88.312
X123.85Y-78.5
X123.85Y-80.5
X123.875Y-83.97
X123.875Y-85.97
X128.5Y-74.1
X130.5Y-74.1
X137.85Y-74.09
X139.025Y-78.575
X139.025Y-80.575
X139.075Y-84.045
X139.075Y-86.045
X139.85Y-74.09
X175.595Y-74.245
X176.093Y-87.32
X177.595Y-74.245
X178.093Y-87.32
X181.1Y-74.27
X183.1Y-74.27
X185.0Y-97.15
X185.0Y-99.15
X186.992Y-87.345
X188.17Y-76.459
X188.992Y-87.345
X190.17Y-76.459
X193.67Y-76.484
X195.67Y-76.484
X201.353Y-74.345
X201.725Y-94.8
X201.725Y-96.8
X203.258Y-85.425
X203.353Y-74.345
X205.258Y-85.425
X205.604Y-123.319
X205.604Y-125.319
X206.886Y-74.367
X208.886Y-74.367
X209.712Y-107.63
X209.712Y-109.63
X210.863Y-96.325
X212.863Y-96.325
X215.158Y-85.6
X215.158Y-87.6
X216.368Y-96.325
X218.368Y-96.325
X219.875Y-73.67
X219.875Y-75.67
X222.412Y-107.595
X222.412Y-109.595
X222.554Y-118.719
X222.554Y-120.719
X223.4Y-88.96
X224.625Y-98.835
X224.625Y-100.835
X224.675Y-66.05
X224.675Y-68.59
X224.675Y-71.13
X224.675Y-73.67
X224.675Y-76.21
X224.675Y-78.75
X224.675Y-81.29
X224.675Y-83.83
X225.4Y-88.96
X228.9Y-88.96
X230.9Y-88.96
X232.295Y-66.05
X232.295Y-68.59
X232.295Y-71.13
X232.295Y-73.67
X232.295Y-76.21
X232.295Y-78.75
X232.295Y-81.29
X232.295Y-83.83
X236.9Y-77.24
X236.9Y-79.24
X237.05Y-71.705
X237.05Y-73.705
X237.35Y-98.86
X237.35Y-100.86
T5
X79.0Y-172.0
X79.0Y-174.5
X79.0Y-177.0
X79.0Y-179.5
X79.0Y-182.0
X102.0Y-172.0
X102.0Y-174.5
X102.0Y-177.0
X102.0Y-179.5
X102.0Y-182.0
X109.8Y-172.0
X109.8Y-174.5
X109.8Y-177.0
X109.8Y-179.5
X109.8Y-182.0
X117.6Y-172.0
X117.6Y-174.5
X117.6Y-177.0
X117.6Y-179.5
X117.6Y-182.0
X125.4Y-172.0
X125.4Y-174.5
X125.4Y-177.0
X125.4Y-179.5
X125.4Y-182.0
T6
X59.14Y-109.74
X59.14Y-112.28
X59.14Y-114.82
X59.14Y-117.36
X59.14Y-119.9
X59.14Y-122.44
X59.14Y-124.98
X59.14Y-127.52
X59.14Y-130.06
X59.14Y-132.6
X59.14Y-135.14
X59.14Y-137.68
X59.14Y-140.22
X59.14Y-142.76
X59.14Y-145.3
X59.14Y-147.84
X59.14Y-150.38
X59.14Y-152.92
X59.14Y-155.46
X59.14Y-158.0
X61.68Y-109.74
X61.68Y-112.28
X61.68Y-114.82
X61.68Y-117.36
X61.68Y-119.9
X61.68Y-122.44
X61.68Y-124.98
X61.68Y-127.52
X61.68Y-130.06
X61.68Y-132.6
X61.68Y-135.14
X61.68Y-137.68
X61.68Y-140.22
X61.68Y-142.76
X61.68Y-145.3
X61.68Y-147.84
X61.68Y-150.38
X61.68Y-152.92
X61.68Y-155.46
X61.68Y-158.0
X79.46Y-109.74
X79.46Y-112.28
X79.46Y-114.82
X79.46Y-117.36
X79.46Y-119.9
X79.46Y-122.44
X79.46Y-124.98
X79.46Y-127.52
X79.46Y-130.06
X79.46Y-132.6
X79.46Y-135.14
X79.46Y-137.68
X79.46Y-140.22
X79.46Y-142.76
X79.46Y-145.3
X79.46Y-147.84
X79.46Y-150.38
X79.46Y-152.92
X79.46Y-155.46
X79.46Y-158.0
X82.0Y-109.74
X82.0Y-112.28
X82.0Y-114.82
X82.0Y-117.36
X82.0Y-119.9
X82.0Y-122.44
X82.0Y-124.98
X82.0Y-127.52
X82.0Y-130.06
X82.0Y-132.6
X82.0Y-135.14
X82.0Y-137.68
X82.0Y-140.22
X82.0Y-142.76
X82.0Y-145.3
X82.0Y-147.84
X82.0Y-150.38
X82.0Y-152.92
X82.0Y-155.46
X82.0Y-158.0
X151.0Y-72.65
X151.0Y-75.19
X151.0Y-77.73
X151.0Y-80.27
X151.0Y-82.81
X151.0Y-85.35
X151.0Y-115.65
X151.0Y-118.19
X151.0Y-120.73
X151.0Y-123.27
X151.0Y-125.81
X151.0Y-128.35
X163.0Y-72.65
X163.0Y-75.19
X163.0Y-77.73
X163.0Y-80.27
X163.0Y-82.81
X163.0Y-85.35
X163.0Y-115.65
X163.0Y-118.19
X163.0Y-120.73
X163.0Y-123.27
X163.0Y-125.81
X163.0Y-128.35
X164.0Y-162.92
X164.0Y-165.46
X164.0Y-168.0
X164.0Y-170.54
X164.0Y-173.08
X179.0Y-162.92
X179.0Y-165.46
X179.0Y-168.0
X179.0Y-170.54
X179.0Y-173.08
X182.0Y-138.19
X182.0Y-140.73
X182.0Y-143.27
X182.0Y-145.81
X195.0Y-162.92
X195.0Y-165.46
X195.0Y-168.0
X195.0Y-170.54
X195.0Y-173.08
X199.19Y-58.895
X199.19Y-61.435
X199.19Y-63.975
X199.19Y-66.515
X199.19Y-69.055
X206.81Y-58.895
X206.81Y-61.435
X206.81Y-63.975
X206.81Y-66.515
X206.81Y-69.055
X211.0Y-162.92
X211.0Y-165.46
X211.0Y-168.0
X211.0Y-170.54
X211.0Y-173.08
X213.69Y-58.895
X213.69Y-61.435
X213.69Y-63.975
X213.69Y-66.515
X213.69Y-69.055
X221.31Y-58.895
X221.31Y-61.435
X221.31Y-63.975
X221.31Y-66.515
X221.31Y-69.055
X227.0Y-162.92
X227.0Y-165.46
X227.0Y-168.0
X227.0Y-170.54
X227.0Y-173.08
T7
X148.357Y-160.112
X148.357Y-163.922
X148.357Y-176.112
X148.357Y-179.922
T8
X55.0Y-55.0
X55.0Y-180.0
X115.0Y-125.0
X135.0Y-180.0
X157.0Y-54.0
X215.0Y-140.0
X235.0Y-55.0
X235.0Y-180.0
T0
M30
