%TF.GenerationSoftware,KiCad,Pcbnew,7.0.1*%
%TF.CreationDate,2023-06-27T00:25:03+02:00*%
%TF.ProjectId,Main board,4d61696e-2062-46f6-9172-642e6b696361,rev?*%
%TF.SameCoordinates,Original*%
%TF.FileFunction,Drillmap*%
%TF.FilePolarity,Positive*%
%FSLAX45Y45*%
G04 Gerber Fmt 4.5, Leading zero omitted, Abs format (unit mm)*
G04 Created by KiCad (PCBNEW 7.0.1) date 2023-06-27 00:25:03*
%MOMM*%
%LPD*%
G01*
G04 APERTURE LIST*
%ADD10C,0.100000*%
%ADD11C,0.200000*%
%ADD12C,0.025000*%
%ADD13C,0.050000*%
%ADD14C,0.075000*%
%ADD15C,0.080000*%
%ADD16C,0.095000*%
%ADD17C,0.120000*%
%ADD18C,0.350000*%
G04 APERTURE END LIST*
D10*
X23500000Y-18500000D02*
G75*
G03*
X24000000Y-18000000I0J500000D01*
G01*
X5000000Y-18000000D02*
G75*
G03*
X5500000Y-18500000I500000J0D01*
G01*
X5000000Y-18000000D02*
X5000000Y-5500000D01*
X5500000Y-5000000D02*
G75*
G03*
X5000000Y-5500000I0J-500000D01*
G01*
X23500000Y-18500000D02*
X5500000Y-18500000D01*
X5500000Y-5000000D02*
X23500000Y-5000000D01*
X24000000Y-5500000D02*
X24000000Y-18000000D01*
X24000000Y-5500000D02*
G75*
G03*
X23500000Y-5000000I-500000J0D01*
G01*
D11*
D12*
X5095000Y-6775000D02*
X5120000Y-6800000D01*
X5120000Y-6775000D02*
X5095000Y-6800000D01*
X5435000Y-6446250D02*
X5460000Y-6471250D01*
X5460000Y-6446250D02*
X5435000Y-6471250D01*
X5487500Y-16987500D02*
X5512500Y-17012500D01*
X5512500Y-16987500D02*
X5487500Y-17012500D01*
X5580000Y-7332961D02*
X5605000Y-7357961D01*
X5605000Y-7332961D02*
X5580000Y-7357961D01*
X5582500Y-7652500D02*
X5607500Y-7677500D01*
X5607500Y-7652500D02*
X5582500Y-7677500D01*
X5625000Y-7710000D02*
X5650000Y-7735000D01*
X5650000Y-7710000D02*
X5625000Y-7735000D01*
X5682500Y-7902500D02*
X5707500Y-7927500D01*
X5707500Y-7902500D02*
X5682500Y-7927500D01*
X5790000Y-6445000D02*
X5815000Y-6470000D01*
X5815000Y-6445000D02*
X5790000Y-6470000D01*
X5797500Y-7512500D02*
X5822500Y-7537500D01*
X5822500Y-7512500D02*
X5797500Y-7537500D01*
X5872450Y-10409162D02*
X5897450Y-10434162D01*
X5897450Y-10409162D02*
X5872450Y-10434162D01*
X5987500Y-8987500D02*
X6012500Y-9012500D01*
X6012500Y-8987500D02*
X5987500Y-9012500D01*
X5987500Y-9987500D02*
X6012500Y-10012500D01*
X6012500Y-9987500D02*
X5987500Y-10012500D01*
X6130000Y-6446250D02*
X6155000Y-6471250D01*
X6155000Y-6446250D02*
X6130000Y-6471250D01*
X6157500Y-6558750D02*
X6182500Y-6583750D01*
X6182500Y-6558750D02*
X6157500Y-6583750D01*
X6157500Y-6558750D02*
X6182500Y-6583750D01*
X6182500Y-6558750D02*
X6157500Y-6583750D01*
X6172500Y-7125000D02*
X6197500Y-7150000D01*
X6197500Y-7125000D02*
X6172500Y-7150000D01*
X6240000Y-7777500D02*
X6265000Y-7802500D01*
X6265000Y-7777500D02*
X6240000Y-7802500D01*
X6242500Y-7645000D02*
X6267500Y-7670000D01*
X6267500Y-7645000D02*
X6242500Y-7670000D01*
X6487500Y-15987500D02*
X6512500Y-16012500D01*
X6512500Y-15987500D02*
X6487500Y-16012500D01*
X6535000Y-6725000D02*
X6560000Y-6750000D01*
X6560000Y-6725000D02*
X6535000Y-6750000D01*
X6600000Y-7700000D02*
X6625000Y-7725000D01*
X6625000Y-7700000D02*
X6600000Y-7725000D01*
X6890000Y-10410000D02*
X6915000Y-10435000D01*
X6915000Y-10410000D02*
X6890000Y-10435000D01*
X6947500Y-6431250D02*
X6972500Y-6456250D01*
X6972500Y-6431250D02*
X6947500Y-6456250D01*
X6987500Y-9487500D02*
X7012500Y-9512500D01*
X7012500Y-9487500D02*
X6987500Y-9512500D01*
X7200000Y-8107500D02*
X7225000Y-8132500D01*
X7225000Y-8107500D02*
X7200000Y-8132500D01*
X7202500Y-10462500D02*
X7227500Y-10487500D01*
X7227500Y-10462500D02*
X7202500Y-10487500D01*
X7289126Y-10179950D02*
X7314126Y-10204950D01*
X7314126Y-10179950D02*
X7289126Y-10204950D01*
X7315000Y-6427500D02*
X7340000Y-6452500D01*
X7340000Y-6427500D02*
X7315000Y-6452500D01*
X7487500Y-8487500D02*
X7512500Y-8512500D01*
X7512500Y-8487500D02*
X7487500Y-8512500D01*
X7655000Y-6505000D02*
X7680000Y-6530000D01*
X7680000Y-6505000D02*
X7655000Y-6530000D01*
X7670000Y-6431250D02*
X7695000Y-6456250D01*
X7695000Y-6431250D02*
X7670000Y-6456250D01*
X7675000Y-10122500D02*
X7700000Y-10147500D01*
X7700000Y-10122500D02*
X7675000Y-10147500D01*
X7690000Y-8292500D02*
X7715000Y-8317500D01*
X7715000Y-8292500D02*
X7690000Y-8317500D01*
X7720000Y-10160000D02*
X7745000Y-10185000D01*
X7745000Y-10160000D02*
X7720000Y-10185000D01*
X7730000Y-8332500D02*
X7755000Y-8357500D01*
X7755000Y-8332500D02*
X7730000Y-8357500D01*
X7995000Y-6297500D02*
X8020000Y-6322500D01*
X8020000Y-6297500D02*
X7995000Y-6322500D01*
X7997500Y-6482500D02*
X8022500Y-6507500D01*
X8022500Y-6482500D02*
X7997500Y-6507500D01*
X8197500Y-7242500D02*
X8222500Y-7267500D01*
X8222500Y-7242500D02*
X8197500Y-7267500D01*
X8197500Y-7685000D02*
X8222500Y-7710000D01*
X8222500Y-7685000D02*
X8197500Y-7710000D01*
X8430000Y-6433750D02*
X8455000Y-6458750D01*
X8455000Y-6433750D02*
X8430000Y-6458750D01*
X8450000Y-17685000D02*
X8475000Y-17710000D01*
X8475000Y-17685000D02*
X8450000Y-17710000D01*
X8487500Y-15487500D02*
X8512500Y-15512500D01*
X8512500Y-15487500D02*
X8487500Y-15512500D01*
X8487500Y-16487500D02*
X8512500Y-16512500D01*
X8512500Y-16487500D02*
X8487500Y-16512500D01*
X8585000Y-10575000D02*
X8610000Y-10600000D01*
X8610000Y-10575000D02*
X8585000Y-10600000D01*
X8632500Y-10917500D02*
X8657500Y-10942500D01*
X8657500Y-10917500D02*
X8632500Y-10942500D01*
X8637500Y-11140000D02*
X8662500Y-11165000D01*
X8662500Y-11140000D02*
X8637500Y-11165000D01*
X8645000Y-10575000D02*
X8670000Y-10600000D01*
X8670000Y-10575000D02*
X8645000Y-10600000D01*
X8705000Y-10575000D02*
X8730000Y-10600000D01*
X8730000Y-10575000D02*
X8705000Y-10600000D01*
X8777500Y-6438750D02*
X8802500Y-6463750D01*
X8802500Y-6438750D02*
X8777500Y-6463750D01*
X8817500Y-7710000D02*
X8842500Y-7735000D01*
X8842500Y-7710000D02*
X8817500Y-7735000D01*
X8817500Y-16175000D02*
X8842500Y-16200000D01*
X8842500Y-16175000D02*
X8817500Y-16200000D01*
X8930000Y-8010000D02*
X8955000Y-8035000D01*
X8955000Y-8010000D02*
X8930000Y-8035000D01*
X8987500Y-17487500D02*
X9012500Y-17512500D01*
X9012500Y-17487500D02*
X8987500Y-17512500D01*
X8995000Y-6805000D02*
X9020000Y-6830000D01*
X9020000Y-6805000D02*
X8995000Y-6830000D01*
X9065000Y-10695000D02*
X9090000Y-10720000D01*
X9090000Y-10695000D02*
X9065000Y-10720000D01*
X9096250Y-15547511D02*
X9121250Y-15572511D01*
X9121250Y-15547511D02*
X9096250Y-15572511D01*
X9117500Y-6423750D02*
X9142500Y-6448750D01*
X9142500Y-6423750D02*
X9117500Y-6448750D01*
X9117500Y-6502500D02*
X9142500Y-6527500D01*
X9142500Y-6502500D02*
X9117500Y-6527500D01*
X9126250Y-16045000D02*
X9151250Y-16070000D01*
X9151250Y-16045000D02*
X9126250Y-16070000D01*
X9140000Y-15915000D02*
X9165000Y-15940000D01*
X9165000Y-15915000D02*
X9140000Y-15940000D01*
X9147500Y-15785000D02*
X9172500Y-15810000D01*
X9172500Y-15785000D02*
X9147500Y-15810000D01*
X9155000Y-8895000D02*
X9180000Y-8920000D01*
X9180000Y-8895000D02*
X9155000Y-8920000D01*
X9170000Y-7900000D02*
X9195000Y-7925000D01*
X9195000Y-7900000D02*
X9170000Y-7925000D01*
X9312500Y-9162500D02*
X9337500Y-9187500D01*
X9337500Y-9162500D02*
X9312500Y-9187500D01*
X9370000Y-7875000D02*
X9395000Y-7900000D01*
X9395000Y-7875000D02*
X9370000Y-7900000D01*
X9375000Y-9162500D02*
X9400000Y-9187500D01*
X9400000Y-9162500D02*
X9375000Y-9187500D01*
X9385000Y-7735000D02*
X9410000Y-7760000D01*
X9410000Y-7735000D02*
X9385000Y-7760000D01*
X9440000Y-9162500D02*
X9465000Y-9187500D01*
X9465000Y-9162500D02*
X9440000Y-9187500D01*
X9457500Y-10690000D02*
X9482500Y-10715000D01*
X9482500Y-10690000D02*
X9457500Y-10715000D01*
X9463750Y-16045011D02*
X9488750Y-16070011D01*
X9488750Y-16045011D02*
X9463750Y-16070011D01*
X9465000Y-15912500D02*
X9490000Y-15937500D01*
X9490000Y-15912500D02*
X9465000Y-15937500D01*
X9478856Y-8022820D02*
X9503856Y-8047820D01*
X9503856Y-8022820D02*
X9478856Y-8047820D01*
X9482213Y-7944845D02*
X9507213Y-7969845D01*
X9507213Y-7944845D02*
X9482213Y-7969845D01*
X9485000Y-7607500D02*
X9510000Y-7632500D01*
X9510000Y-7607500D02*
X9485000Y-7632500D01*
X9485000Y-7805000D02*
X9510000Y-7830000D01*
X9510000Y-7805000D02*
X9485000Y-7830000D01*
X9485000Y-7874950D02*
X9510000Y-7899950D01*
X9510000Y-7874950D02*
X9485000Y-7899950D01*
X9487500Y-7677500D02*
X9512500Y-7702500D01*
X9512500Y-7677500D02*
X9487500Y-7702500D01*
X9487500Y-12487500D02*
X9512500Y-12512500D01*
X9512500Y-12487500D02*
X9487500Y-12512500D01*
X9487500Y-13487500D02*
X9512500Y-13512500D01*
X9512500Y-13487500D02*
X9487500Y-13512500D01*
X9487500Y-14487500D02*
X9512500Y-14512500D01*
X9512500Y-14487500D02*
X9487500Y-14512500D01*
X9543457Y-9145950D02*
X9568457Y-9170950D01*
X9568457Y-9145950D02*
X9543457Y-9170950D01*
X9560000Y-6392500D02*
X9585000Y-6417500D01*
X9585000Y-6392500D02*
X9560000Y-6417500D01*
X9567500Y-7085000D02*
X9592500Y-7110000D01*
X9592500Y-7085000D02*
X9567500Y-7110000D01*
X9636250Y-15497511D02*
X9661250Y-15522511D01*
X9661250Y-15497511D02*
X9636250Y-15522511D01*
X9640000Y-9077500D02*
X9665000Y-9102500D01*
X9665000Y-9077500D02*
X9640000Y-9102500D01*
X9702500Y-9077500D02*
X9727500Y-9102500D01*
X9727500Y-9077500D02*
X9702500Y-9102500D01*
X9720000Y-7742500D02*
X9745000Y-7767500D01*
X9745000Y-7742500D02*
X9720000Y-7767500D01*
X9767500Y-9077500D02*
X9792500Y-9102500D01*
X9792500Y-9077500D02*
X9767500Y-9102500D01*
X9830000Y-7672500D02*
X9855000Y-7697500D01*
X9855000Y-7672500D02*
X9830000Y-7697500D01*
X9847500Y-16272500D02*
X9872500Y-16297500D01*
X9872500Y-16272500D02*
X9847500Y-16297500D01*
X9927500Y-6422500D02*
X9952500Y-6447500D01*
X9952500Y-6422500D02*
X9927500Y-6447500D01*
X9987500Y-17987500D02*
X10012500Y-18012500D01*
X10012500Y-17987500D02*
X9987500Y-18012500D01*
X9997500Y-16175000D02*
X10022500Y-16200000D01*
X10022500Y-16175000D02*
X9997500Y-16200000D01*
X10090000Y-9010000D02*
X10115000Y-9035000D01*
X10115000Y-9010000D02*
X10090000Y-9035000D01*
X10276569Y-15547511D02*
X10301569Y-15572511D01*
X10301569Y-15547511D02*
X10276569Y-15572511D01*
X10310000Y-15915000D02*
X10335000Y-15940000D01*
X10335000Y-15915000D02*
X10310000Y-15940000D01*
X10322500Y-15792500D02*
X10347500Y-15817500D01*
X10347500Y-15792500D02*
X10322500Y-15817500D01*
X10325000Y-6417500D02*
X10350000Y-6442500D01*
X10350000Y-6417500D02*
X10325000Y-6442500D01*
X10341569Y-16045011D02*
X10366569Y-16070011D01*
X10366569Y-16045011D02*
X10341569Y-16070011D01*
X10432500Y-7915000D02*
X10457500Y-7940000D01*
X10457500Y-7915000D02*
X10432500Y-7940000D01*
X10487500Y-12487500D02*
X10512500Y-12512500D01*
X10512500Y-12487500D02*
X10487500Y-12512500D01*
X10487500Y-13487500D02*
X10512500Y-13512500D01*
X10512500Y-13487500D02*
X10487500Y-13512500D01*
X10487500Y-14487500D02*
X10512500Y-14512500D01*
X10512500Y-14487500D02*
X10487500Y-14512500D01*
X10510218Y-8336250D02*
X10535218Y-8361250D01*
X10535218Y-8336250D02*
X10510218Y-8361250D01*
X10512500Y-9277500D02*
X10537500Y-9302500D01*
X10537500Y-9277500D02*
X10512500Y-9302500D01*
X10640000Y-6420000D02*
X10665000Y-6445000D01*
X10665000Y-6420000D02*
X10640000Y-6445000D01*
X10642500Y-6517500D02*
X10667500Y-6542500D01*
X10667500Y-6517500D02*
X10642500Y-6542500D01*
X10645319Y-15915011D02*
X10670319Y-15940011D01*
X10670319Y-15915011D02*
X10645319Y-15940011D01*
X10646250Y-16045000D02*
X10671250Y-16070000D01*
X10671250Y-16045000D02*
X10646250Y-16070000D01*
X10816569Y-15497511D02*
X10841569Y-15522511D01*
X10841569Y-15497511D02*
X10816569Y-15522511D01*
X10852500Y-8341250D02*
X10877500Y-8366250D01*
X10877500Y-8341250D02*
X10852500Y-8366250D01*
X10987500Y-11487500D02*
X11012500Y-11512500D01*
X11012500Y-11487500D02*
X10987500Y-11512500D01*
X11035000Y-16205000D02*
X11060000Y-16230000D01*
X11060000Y-16205000D02*
X11035000Y-16230000D01*
X11177500Y-15655000D02*
X11202500Y-15680000D01*
X11202500Y-15655000D02*
X11177500Y-15680000D01*
X11177500Y-16177500D02*
X11202500Y-16202500D01*
X11202500Y-16177500D02*
X11177500Y-16202500D01*
X11197500Y-8337500D02*
X11222500Y-8362500D01*
X11222500Y-8337500D02*
X11197500Y-8362500D01*
X11205254Y-8425849D02*
X11230254Y-8450849D01*
X11230254Y-8425849D02*
X11205254Y-8450849D01*
X11290000Y-9500000D02*
X11315000Y-9525000D01*
X11315000Y-9500000D02*
X11290000Y-9525000D01*
X11345000Y-9502500D02*
X11370000Y-9527500D01*
X11370000Y-9502500D02*
X11345000Y-9527500D01*
X11352500Y-6490000D02*
X11377500Y-6515000D01*
X11377500Y-6490000D02*
X11352500Y-6515000D01*
X11392500Y-7880000D02*
X11417500Y-7905000D01*
X11417500Y-7880000D02*
X11392500Y-7905000D01*
X11457500Y-15542500D02*
X11482500Y-15567500D01*
X11482500Y-15542500D02*
X11457500Y-15567500D01*
X11487000Y-16042500D02*
X11512000Y-16067500D01*
X11512000Y-16042500D02*
X11487000Y-16067500D01*
X11487500Y-14487500D02*
X11512500Y-14512500D01*
X11512500Y-14487500D02*
X11487500Y-14512500D01*
X11487500Y-15910000D02*
X11512500Y-15935000D01*
X11512500Y-15910000D02*
X11487500Y-15935000D01*
X11520000Y-8455000D02*
X11545000Y-8480000D01*
X11545000Y-8455000D02*
X11520000Y-8480000D01*
X11617500Y-16062500D02*
X11642500Y-16087500D01*
X11642500Y-16062500D02*
X11617500Y-16087500D01*
X11802800Y-6928125D02*
X11827800Y-6953125D01*
X11827800Y-6928125D02*
X11802800Y-6953125D01*
X11827000Y-16042500D02*
X11852000Y-16067500D01*
X11852000Y-16042500D02*
X11827000Y-16067500D01*
X11827500Y-15912500D02*
X11852500Y-15937500D01*
X11852500Y-15912500D02*
X11827500Y-15937500D01*
X11956893Y-7121045D02*
X11981893Y-7146045D01*
X11981893Y-7121045D02*
X11956893Y-7146045D01*
X11987500Y-11987500D02*
X12012500Y-12012500D01*
X12012500Y-11987500D02*
X11987500Y-12012500D01*
X11987500Y-13487500D02*
X12012500Y-13512500D01*
X12012500Y-13487500D02*
X11987500Y-13512500D01*
X11997530Y-15492470D02*
X12022530Y-15517470D01*
X12022530Y-15492470D02*
X11997530Y-15517470D01*
X12058500Y-5587500D02*
X12083500Y-5612500D01*
X12083500Y-5587500D02*
X12058500Y-5612500D01*
X12080000Y-9190000D02*
X12105000Y-9215000D01*
X12105000Y-9190000D02*
X12080000Y-9215000D01*
X12136250Y-7232500D02*
X12161250Y-7257500D01*
X12161250Y-7232500D02*
X12136250Y-7257500D01*
X12149890Y-9187088D02*
X12174890Y-9212088D01*
X12174890Y-9187088D02*
X12149890Y-9212088D01*
X12170000Y-16200000D02*
X12195000Y-16225000D01*
X12195000Y-16200000D02*
X12170000Y-16225000D01*
X12201425Y-15532500D02*
X12226425Y-15557500D01*
X12226425Y-15532500D02*
X12201425Y-15557500D01*
X12230000Y-9190000D02*
X12255000Y-9215000D01*
X12255000Y-9190000D02*
X12230000Y-9215000D01*
X12258875Y-15585000D02*
X12283875Y-15610000D01*
X12283875Y-15585000D02*
X12258875Y-15610000D01*
X12260270Y-9253062D02*
X12285270Y-9278062D01*
X12285270Y-9253062D02*
X12260270Y-9278062D01*
X12347500Y-5592500D02*
X12372500Y-5617500D01*
X12372500Y-5592500D02*
X12347500Y-5617500D01*
X12362500Y-16177500D02*
X12387500Y-16202500D01*
X12387500Y-16177500D02*
X12362500Y-16202500D01*
X12367500Y-15657500D02*
X12392500Y-15682500D01*
X12392500Y-15657500D02*
X12367500Y-15682500D01*
X12372500Y-9190000D02*
X12397500Y-9215000D01*
X12397500Y-9190000D02*
X12372500Y-9215000D01*
X12411486Y-9255087D02*
X12436486Y-9280087D01*
X12436486Y-9255087D02*
X12411486Y-9280087D01*
X12487500Y-10487500D02*
X12512500Y-10512500D01*
X12512500Y-10487500D02*
X12487500Y-10512500D01*
X12487500Y-11487500D02*
X12512500Y-11512500D01*
X12512500Y-11487500D02*
X12487500Y-11512500D01*
X12647500Y-15548000D02*
X12672500Y-15573000D01*
X12672500Y-15548000D02*
X12647500Y-15573000D01*
X12656985Y-8210050D02*
X12681985Y-8235050D01*
X12681985Y-8210050D02*
X12656985Y-8235050D01*
X12664787Y-8314950D02*
X12689787Y-8339950D01*
X12689787Y-8314950D02*
X12664787Y-8339950D01*
X12680000Y-15915000D02*
X12705000Y-15940000D01*
X12705000Y-15915000D02*
X12680000Y-15940000D01*
X12680000Y-16045000D02*
X12705000Y-16070000D01*
X12705000Y-16045000D02*
X12680000Y-16070000D01*
X12702500Y-7800000D02*
X12727500Y-7825000D01*
X12727500Y-7800000D02*
X12702500Y-7825000D01*
X12732500Y-8262500D02*
X12757500Y-8287500D01*
X12757500Y-8262500D02*
X12732500Y-8287500D01*
X12732500Y-8332500D02*
X12757500Y-8357500D01*
X12757500Y-8332500D02*
X12732500Y-8357500D01*
X12737500Y-8427500D02*
X12762500Y-8452500D01*
X12762500Y-8427500D02*
X12737500Y-8452500D01*
X12958338Y-9048338D02*
X12983338Y-9073338D01*
X12983338Y-9048338D02*
X12958338Y-9073338D01*
X12962500Y-8005000D02*
X12987500Y-8030000D01*
X12987500Y-8005000D02*
X12962500Y-8030000D01*
X12987500Y-5987500D02*
X13012500Y-6012500D01*
X13012500Y-5987500D02*
X12987500Y-6012500D01*
X12987500Y-12987500D02*
X13012500Y-13012500D01*
X13012500Y-12987500D02*
X12987500Y-13012500D01*
X13000838Y-9005838D02*
X13025838Y-9030838D01*
X13025838Y-9005838D02*
X13000838Y-9030838D01*
X13018750Y-15912500D02*
X13043750Y-15937500D01*
X13043750Y-15912500D02*
X13018750Y-15937500D01*
X13020000Y-16045000D02*
X13045000Y-16070000D01*
X13045000Y-16045000D02*
X13020000Y-16070000D01*
X13042088Y-8964588D02*
X13067088Y-8989588D01*
X13067088Y-8964588D02*
X13042088Y-8989588D01*
X13060000Y-6925000D02*
X13085000Y-6950000D01*
X13085000Y-6925000D02*
X13060000Y-6950000D01*
X13162500Y-9862500D02*
X13187500Y-9887500D01*
X13187500Y-9862500D02*
X13162500Y-9887500D01*
X13187500Y-8227500D02*
X13212500Y-8252500D01*
X13212500Y-8227500D02*
X13187500Y-8252500D01*
X13187530Y-15497970D02*
X13212530Y-15522970D01*
X13212530Y-15497970D02*
X13187530Y-15522970D01*
X13227500Y-9862500D02*
X13252500Y-9887500D01*
X13252500Y-9862500D02*
X13227500Y-9887500D01*
X13260000Y-8090000D02*
X13285000Y-8115000D01*
X13285000Y-8090000D02*
X13260000Y-8115000D01*
X13292500Y-9862500D02*
X13317500Y-9887500D01*
X13317500Y-9862500D02*
X13292500Y-9887500D01*
X13430000Y-6919000D02*
X13455000Y-6944000D01*
X13455000Y-6919000D02*
X13430000Y-6944000D01*
X13487500Y-13212500D02*
X13512500Y-13237500D01*
X13512500Y-13212500D02*
X13487500Y-13237500D01*
X13550000Y-9887500D02*
X13575000Y-9912500D01*
X13575000Y-9887500D02*
X13550000Y-9912500D01*
X13587500Y-12012500D02*
X13612500Y-12037500D01*
X13612500Y-12012500D02*
X13587500Y-12037500D01*
X13647500Y-8160000D02*
X13672500Y-8185000D01*
X13672500Y-8160000D02*
X13647500Y-8185000D01*
X13722500Y-14545000D02*
X13747500Y-14570000D01*
X13747500Y-14545000D02*
X13722500Y-14570000D01*
X13740000Y-14620000D02*
X13765000Y-14645000D01*
X13765000Y-14620000D02*
X13740000Y-14645000D01*
X13745000Y-14772500D02*
X13770000Y-14797500D01*
X13770000Y-14772500D02*
X13745000Y-14797500D01*
X13755000Y-6921500D02*
X13780000Y-6946500D01*
X13780000Y-6921500D02*
X13755000Y-6946500D01*
X13762866Y-7021140D02*
X13787866Y-7046140D01*
X13787866Y-7021140D02*
X13762866Y-7046140D01*
X13775000Y-14852500D02*
X13800000Y-14877500D01*
X13800000Y-14852500D02*
X13775000Y-14877500D01*
X13799235Y-7609502D02*
X13824235Y-7634502D01*
X13824235Y-7609502D02*
X13799235Y-7634502D01*
X14237500Y-5487500D02*
X14262500Y-5512500D01*
X14262500Y-5487500D02*
X14237500Y-5512500D01*
X14487500Y-6487500D02*
X14512500Y-6512500D01*
X14512500Y-6487500D02*
X14487500Y-6512500D01*
X14487500Y-9487500D02*
X14512500Y-9512500D01*
X14512500Y-9487500D02*
X14487500Y-9512500D01*
X14987500Y-5987500D02*
X15012500Y-6012500D01*
X15012500Y-5987500D02*
X14987500Y-6012500D01*
X14987500Y-14987500D02*
X15012500Y-15012500D01*
X15012500Y-14987500D02*
X14987500Y-15012500D01*
X15587500Y-18037500D02*
X15612500Y-18062500D01*
X15612500Y-18037500D02*
X15587500Y-18062500D01*
X15987500Y-9487500D02*
X16012500Y-9512500D01*
X16012500Y-9487500D02*
X15987500Y-9512500D01*
X15987500Y-9987500D02*
X16012500Y-10012500D01*
X16012500Y-9987500D02*
X15987500Y-10012500D01*
X15987500Y-14487500D02*
X16012500Y-14512500D01*
X16012500Y-14487500D02*
X15987500Y-14512500D01*
X16487500Y-5987500D02*
X16512500Y-6012500D01*
X16512500Y-5987500D02*
X16487500Y-6012500D01*
X16487500Y-15487500D02*
X16512500Y-15512500D01*
X16512500Y-15487500D02*
X16487500Y-15512500D01*
X16612500Y-15062500D02*
X16637500Y-15087500D01*
X16637500Y-15062500D02*
X16612500Y-15087500D01*
X16962500Y-14762500D02*
X16987500Y-14787500D01*
X16987500Y-14762500D02*
X16962500Y-14787500D01*
X16987500Y-7487500D02*
X17012500Y-7512500D01*
X17012500Y-7487500D02*
X16987500Y-7512500D01*
X16987500Y-8487500D02*
X17012500Y-8512500D01*
X17012500Y-8487500D02*
X16987500Y-8512500D01*
X16987500Y-16487500D02*
X17012500Y-16512500D01*
X17012500Y-16487500D02*
X16987500Y-16512500D01*
X17262500Y-17937500D02*
X17287500Y-17962500D01*
X17287500Y-17937500D02*
X17262500Y-17962500D01*
X17265000Y-6247500D02*
X17290000Y-6272500D01*
X17290000Y-6247500D02*
X17265000Y-6272500D01*
X17462500Y-18237500D02*
X17487500Y-18262500D01*
X17487500Y-18237500D02*
X17462500Y-18262500D01*
X17527500Y-6070000D02*
X17552500Y-6095000D01*
X17552500Y-6070000D02*
X17527500Y-6095000D01*
X17565000Y-9187050D02*
X17590000Y-9212050D01*
X17590000Y-9187050D02*
X17565000Y-9212050D01*
X17627500Y-9622500D02*
X17652500Y-9647500D01*
X17652500Y-9622500D02*
X17627500Y-9647500D01*
X17635000Y-9955000D02*
X17660000Y-9980000D01*
X17660000Y-9955000D02*
X17635000Y-9980000D01*
X17690000Y-9387500D02*
X17715000Y-9412500D01*
X17715000Y-9387500D02*
X17690000Y-9412500D01*
X17795000Y-6237550D02*
X17820000Y-6262550D01*
X17820000Y-6237550D02*
X17795000Y-6262550D01*
X17840000Y-8148000D02*
X17865000Y-8173000D01*
X17865000Y-8148000D02*
X17840000Y-8173000D01*
X17876800Y-9131461D02*
X17901800Y-9156461D01*
X17901800Y-9131461D02*
X17876800Y-9156461D01*
X17935000Y-7958000D02*
X17960000Y-7983000D01*
X17960000Y-7958000D02*
X17935000Y-7983000D01*
X17946583Y-9126631D02*
X17971583Y-9151631D01*
X17971583Y-9126631D02*
X17946583Y-9151631D01*
X17967500Y-10737500D02*
X17992500Y-10762500D01*
X17992500Y-10737500D02*
X17967500Y-10762500D01*
X17967500Y-11235000D02*
X17992500Y-11260000D01*
X17992500Y-11235000D02*
X17967500Y-11260000D01*
X17970000Y-6370000D02*
X17995000Y-6395000D01*
X17995000Y-6370000D02*
X17970000Y-6395000D01*
X17970412Y-10667610D02*
X17995412Y-10692610D01*
X17995412Y-10667610D02*
X17970412Y-10692610D01*
X17977082Y-7051721D02*
X18002082Y-7076721D01*
X18002082Y-7051721D02*
X17977082Y-7076721D01*
X17980000Y-10867500D02*
X18005000Y-10892500D01*
X18005000Y-10867500D02*
X17980000Y-10892500D01*
X17987500Y-11987500D02*
X18012500Y-12012500D01*
X18012500Y-11987500D02*
X17987500Y-12012500D01*
X17987500Y-14987500D02*
X18012500Y-15012500D01*
X18012500Y-14987500D02*
X17987500Y-15012500D01*
X18001030Y-9039537D02*
X18026030Y-9064537D01*
X18026030Y-9039537D02*
X18001030Y-9064537D01*
X18010000Y-6990000D02*
X18035000Y-7015000D01*
X18035000Y-6990000D02*
X18010000Y-7015000D01*
X18030000Y-7765500D02*
X18055000Y-7790500D01*
X18055000Y-7765500D02*
X18030000Y-7790500D01*
X18075000Y-10677500D02*
X18100000Y-10702500D01*
X18100000Y-10677500D02*
X18075000Y-10702500D01*
X18117500Y-8322500D02*
X18142500Y-8347500D01*
X18142500Y-8322500D02*
X18117500Y-8347500D01*
X18132500Y-7652500D02*
X18157500Y-7677500D01*
X18157500Y-7652500D02*
X18132500Y-7677500D01*
X18180693Y-10503193D02*
X18205693Y-10528193D01*
X18205693Y-10503193D02*
X18180693Y-10528193D01*
X18357500Y-6890000D02*
X18382500Y-6915000D01*
X18382500Y-6890000D02*
X18357500Y-6915000D01*
X18363817Y-9203500D02*
X18388817Y-9228500D01*
X18388817Y-9203500D02*
X18363817Y-9228500D01*
X18437500Y-6685000D02*
X18462500Y-6710000D01*
X18462500Y-6685000D02*
X18437500Y-6710000D01*
X18492500Y-6932500D02*
X18517500Y-6957500D01*
X18517500Y-6932500D02*
X18492500Y-6957500D01*
X18492500Y-7002450D02*
X18517500Y-7027450D01*
X18517500Y-7002450D02*
X18492500Y-7027450D01*
X18525000Y-6509500D02*
X18550000Y-6534500D01*
X18550000Y-6509500D02*
X18525000Y-6534500D01*
X18557500Y-8020000D02*
X18582500Y-8045000D01*
X18582500Y-8020000D02*
X18557500Y-8045000D01*
X18615000Y-8020000D02*
X18640000Y-8045000D01*
X18640000Y-8020000D02*
X18615000Y-8045000D01*
X18672500Y-9760000D02*
X18697500Y-9785000D01*
X18697500Y-9760000D02*
X18672500Y-9785000D01*
X18700000Y-9147500D02*
X18725000Y-9172500D01*
X18725000Y-9147500D02*
X18700000Y-9172500D01*
X18720000Y-9947500D02*
X18745000Y-9972500D01*
X18745000Y-9947500D02*
X18720000Y-9972500D01*
X18720000Y-10065000D02*
X18745000Y-10090000D01*
X18745000Y-10065000D02*
X18720000Y-10090000D01*
X18742500Y-7906860D02*
X18767500Y-7931860D01*
X18767500Y-7906860D02*
X18742500Y-7931860D01*
X18853109Y-8307023D02*
X18878109Y-8332023D01*
X18878109Y-8307023D02*
X18853109Y-8332023D01*
X18907500Y-8245000D02*
X18932500Y-8270000D01*
X18932500Y-8245000D02*
X18907500Y-8270000D01*
X18910000Y-6435000D02*
X18935000Y-6460000D01*
X18935000Y-6435000D02*
X18910000Y-6460000D01*
X18917500Y-9480000D02*
X18942500Y-9505000D01*
X18942500Y-9480000D02*
X18917500Y-9505000D01*
X18960000Y-10135000D02*
X18985000Y-10160000D01*
X18985000Y-10135000D02*
X18960000Y-10160000D01*
X18987500Y-17987500D02*
X19012500Y-18012500D01*
X19012500Y-17987500D02*
X18987500Y-18012500D01*
X19002500Y-6245000D02*
X19027500Y-6270000D01*
X19027500Y-6245000D02*
X19002500Y-6270000D01*
X19047500Y-10155000D02*
X19072500Y-10180000D01*
X19072500Y-10155000D02*
X19047500Y-10180000D01*
X19112500Y-10182500D02*
X19137500Y-10207500D01*
X19137500Y-10182500D02*
X19112500Y-10207500D01*
X19132500Y-8373860D02*
X19157500Y-8398860D01*
X19157500Y-8373860D02*
X19132500Y-8398860D01*
X19132500Y-10660000D02*
X19157500Y-10685000D01*
X19157500Y-10660000D02*
X19132500Y-10685000D01*
X19150000Y-11215000D02*
X19175000Y-11240000D01*
X19175000Y-11215000D02*
X19150000Y-11240000D01*
X19170000Y-10845000D02*
X19195000Y-10870000D01*
X19195000Y-10845000D02*
X19170000Y-10870000D01*
X19177500Y-9287500D02*
X19202500Y-9312500D01*
X19202500Y-9287500D02*
X19177500Y-9312500D01*
X19177500Y-9415000D02*
X19202500Y-9440000D01*
X19202500Y-9415000D02*
X19177500Y-9440000D01*
X19177500Y-9740000D02*
X19202500Y-9765000D01*
X19202500Y-9740000D02*
X19177500Y-9765000D01*
X19177500Y-10000000D02*
X19202500Y-10025000D01*
X19202500Y-10000000D02*
X19177500Y-10025000D01*
X19195000Y-10205000D02*
X19220000Y-10230000D01*
X19220000Y-10205000D02*
X19195000Y-10230000D01*
X19217500Y-8181360D02*
X19242500Y-8206360D01*
X19242500Y-8181360D02*
X19217500Y-8206360D01*
X19227500Y-9215000D02*
X19252500Y-9240000D01*
X19252500Y-9215000D02*
X19227500Y-9240000D01*
X19227500Y-9350000D02*
X19252500Y-9375000D01*
X19252500Y-9350000D02*
X19227500Y-9375000D01*
X19260000Y-10655000D02*
X19285000Y-10680000D01*
X19285000Y-10655000D02*
X19260000Y-10680000D01*
X19262500Y-15462500D02*
X19287500Y-15487500D01*
X19287500Y-15462500D02*
X19262500Y-15487500D01*
X19264375Y-6070000D02*
X19289375Y-6095000D01*
X19289375Y-6070000D02*
X19264375Y-6095000D01*
X19320000Y-7991360D02*
X19345000Y-8016360D01*
X19345000Y-7991360D02*
X19320000Y-8016360D01*
X19347500Y-10462500D02*
X19372500Y-10487500D01*
X19372500Y-10462500D02*
X19347500Y-10487500D01*
X19380000Y-12942500D02*
X19405000Y-12967500D01*
X19405000Y-12942500D02*
X19380000Y-12967500D01*
X19397500Y-8550000D02*
X19422500Y-8575000D01*
X19422500Y-8550000D02*
X19397500Y-8575000D01*
X19450000Y-12460000D02*
X19475000Y-12485000D01*
X19475000Y-12460000D02*
X19450000Y-12485000D01*
X19535000Y-6245000D02*
X19560000Y-6270000D01*
X19560000Y-6245000D02*
X19535000Y-6270000D01*
X19572500Y-12505000D02*
X19597500Y-12530000D01*
X19597500Y-12505000D02*
X19572500Y-12530000D01*
X19635000Y-12490000D02*
X19660000Y-12515000D01*
X19660000Y-12490000D02*
X19635000Y-12515000D01*
X19637500Y-9350000D02*
X19662500Y-9375000D01*
X19662500Y-9350000D02*
X19637500Y-9375000D01*
X19637500Y-10000000D02*
X19662500Y-10025000D01*
X19662500Y-10000000D02*
X19637500Y-10025000D01*
X19647500Y-7850000D02*
X19672500Y-7875000D01*
X19672500Y-7850000D02*
X19647500Y-7875000D01*
X19690000Y-12505000D02*
X19715000Y-12530000D01*
X19715000Y-12505000D02*
X19690000Y-12530000D01*
X19735000Y-8370000D02*
X19760000Y-8395000D01*
X19760000Y-8370000D02*
X19735000Y-8395000D01*
X19770000Y-9155000D02*
X19795000Y-9180000D01*
X19795000Y-9155000D02*
X19770000Y-9180000D01*
X19780000Y-12465000D02*
X19805000Y-12490000D01*
X19805000Y-12465000D02*
X19780000Y-12490000D01*
X19897235Y-9677528D02*
X19922235Y-9702528D01*
X19922235Y-9677528D02*
X19897235Y-9702528D01*
X19897500Y-9612500D02*
X19922500Y-9637500D01*
X19922500Y-9612500D02*
X19897500Y-9637500D01*
X19904698Y-9747079D02*
X19929698Y-9772079D01*
X19929698Y-9747079D02*
X19904698Y-9772079D01*
X19930000Y-9345000D02*
X19955000Y-9370000D01*
X19955000Y-9345000D02*
X19930000Y-9370000D01*
X19964989Y-10362500D02*
X19989989Y-10387500D01*
X19989989Y-10362500D02*
X19964989Y-10387500D01*
X19987500Y-13987500D02*
X20012500Y-14012500D01*
X20012500Y-13987500D02*
X19987500Y-14012500D01*
X20062500Y-10867500D02*
X20087500Y-10892500D01*
X20087500Y-10867500D02*
X20062500Y-10892500D01*
X20062500Y-15112500D02*
X20087500Y-15137500D01*
X20087500Y-15112500D02*
X20062500Y-15137500D01*
X20082500Y-10030000D02*
X20107500Y-10055000D01*
X20107500Y-10030000D02*
X20082500Y-10055000D01*
X20095000Y-9937500D02*
X20120000Y-9962500D01*
X20120000Y-9937500D02*
X20095000Y-9962500D01*
X20132500Y-8760000D02*
X20157500Y-8785000D01*
X20157500Y-8760000D02*
X20132500Y-8785000D01*
X20132500Y-10865000D02*
X20157500Y-10890000D01*
X20157500Y-10865000D02*
X20132500Y-10890000D01*
X20177489Y-11367500D02*
X20202489Y-11392500D01*
X20202489Y-11367500D02*
X20177489Y-11392500D01*
X20187500Y-11727500D02*
X20212500Y-11752500D01*
X20212500Y-11727500D02*
X20187500Y-11752500D01*
X20187500Y-11785000D02*
X20212500Y-11810000D01*
X20212500Y-11785000D02*
X20187500Y-11810000D01*
X20187500Y-11847500D02*
X20212500Y-11872500D01*
X20212500Y-11847500D02*
X20187500Y-11872500D01*
X20262500Y-10225000D02*
X20287500Y-10250000D01*
X20287500Y-10225000D02*
X20262500Y-10250000D01*
X20272489Y-11370000D02*
X20297489Y-11395000D01*
X20297489Y-11370000D02*
X20272489Y-11395000D01*
X20282500Y-10865000D02*
X20307500Y-10890000D01*
X20307500Y-10865000D02*
X20282500Y-10890000D01*
X20282500Y-10997500D02*
X20307500Y-11022500D01*
X20307500Y-10997500D02*
X20282500Y-11022500D01*
X20355000Y-8315000D02*
X20380000Y-8340000D01*
X20380000Y-8315000D02*
X20355000Y-8340000D01*
X20360000Y-10855000D02*
X20385000Y-10880000D01*
X20385000Y-10855000D02*
X20360000Y-10880000D01*
X20378472Y-9024136D02*
X20403472Y-9049136D01*
X20403472Y-9024136D02*
X20378472Y-9049136D01*
X20390000Y-11507500D02*
X20415000Y-11532500D01*
X20415000Y-11507500D02*
X20390000Y-11532500D01*
X20390000Y-11577450D02*
X20415000Y-11602450D01*
X20415000Y-11577450D02*
X20390000Y-11602450D01*
X20442500Y-8159000D02*
X20467500Y-8184000D01*
X20467500Y-8159000D02*
X20442500Y-8184000D01*
X20465000Y-6660000D02*
X20490000Y-6685000D01*
X20490000Y-6660000D02*
X20465000Y-6685000D01*
X20487500Y-17987500D02*
X20512500Y-18012500D01*
X20512500Y-17987500D02*
X20487500Y-18012500D01*
X20537500Y-7969000D02*
X20562500Y-7994000D01*
X20562500Y-7969000D02*
X20537500Y-7994000D01*
X20604989Y-10890000D02*
X20629989Y-10915000D01*
X20629989Y-10890000D02*
X20604989Y-10915000D01*
X20632500Y-7776500D02*
X20657500Y-7801500D01*
X20657500Y-7776500D02*
X20632500Y-7801500D01*
X20707500Y-12690000D02*
X20732500Y-12715000D01*
X20732500Y-12690000D02*
X20707500Y-12715000D01*
X20707901Y-12784390D02*
X20732901Y-12809390D01*
X20732901Y-12784390D02*
X20707901Y-12809390D01*
X20715618Y-8857879D02*
X20740618Y-8882879D01*
X20740618Y-8857879D02*
X20715618Y-8882879D01*
X20722500Y-7622500D02*
X20747500Y-7647500D01*
X20747500Y-7622500D02*
X20722500Y-7647500D01*
X20735000Y-12142500D02*
X20760000Y-12167500D01*
X20760000Y-12142500D02*
X20735000Y-12167500D01*
X20762500Y-14662500D02*
X20787500Y-14687500D01*
X20787500Y-14662500D02*
X20762500Y-14687500D01*
X20766500Y-8943761D02*
X20791500Y-8968761D01*
X20791500Y-8943761D02*
X20766500Y-8968761D01*
X20834825Y-12073257D02*
X20859825Y-12098257D01*
X20859825Y-12073257D02*
X20834825Y-12098257D01*
X20836307Y-11936685D02*
X20861307Y-11961685D01*
X20861307Y-11936685D02*
X20836307Y-11961685D01*
X20860000Y-12002500D02*
X20885000Y-12027500D01*
X20885000Y-12002500D02*
X20860000Y-12027500D01*
X20862500Y-12137500D02*
X20887500Y-12162500D01*
X20887500Y-12137500D02*
X20862500Y-12162500D01*
X20905000Y-12069329D02*
X20930000Y-12094329D01*
X20930000Y-12069329D02*
X20905000Y-12094329D01*
X20905401Y-12199390D02*
X20930401Y-12224390D01*
X20930401Y-12199390D02*
X20905401Y-12224390D01*
X20907500Y-11942500D02*
X20932500Y-11967500D01*
X20932500Y-11942500D02*
X20907500Y-11967500D01*
X20964261Y-9887511D02*
X20989261Y-9912511D01*
X20989261Y-9887511D02*
X20964261Y-9912511D01*
X21070000Y-11310000D02*
X21095000Y-11335000D01*
X21095000Y-11310000D02*
X21070000Y-11335000D01*
X21081067Y-9022250D02*
X21106067Y-9047250D01*
X21106067Y-9022250D02*
X21081067Y-9047250D01*
X21160000Y-10507500D02*
X21185000Y-10532500D01*
X21185000Y-10507500D02*
X21160000Y-10532500D01*
X21165401Y-12459390D02*
X21190401Y-12484390D01*
X21190401Y-12459390D02*
X21165401Y-12484390D01*
X21165401Y-12719390D02*
X21190401Y-12744390D01*
X21190401Y-12719390D02*
X21165401Y-12744390D01*
X21187500Y-10692500D02*
X21212500Y-10717500D01*
X21212500Y-10692500D02*
X21187500Y-10717500D01*
X21340000Y-10355000D02*
X21365000Y-10380000D01*
X21365000Y-10355000D02*
X21340000Y-10380000D01*
X21422612Y-11146362D02*
X21447612Y-11171362D01*
X21447612Y-11146362D02*
X21422612Y-11171362D01*
X21442500Y-10165000D02*
X21467500Y-10190000D01*
X21467500Y-10165000D02*
X21442500Y-10190000D01*
X21468750Y-11230000D02*
X21493750Y-11255000D01*
X21493750Y-11230000D02*
X21468750Y-11255000D01*
X21475000Y-9015000D02*
X21500000Y-9040000D01*
X21500000Y-9015000D02*
X21475000Y-9040000D01*
X21487500Y-14987500D02*
X21512500Y-15012500D01*
X21512500Y-14987500D02*
X21487500Y-15012500D01*
X21511037Y-6612450D02*
X21536037Y-6637450D01*
X21536037Y-6612450D02*
X21511037Y-6637450D01*
X21527500Y-9972500D02*
X21552500Y-9997500D01*
X21552500Y-9972500D02*
X21527500Y-9997500D01*
X21625401Y-12069390D02*
X21650401Y-12094390D01*
X21650401Y-12069390D02*
X21625401Y-12094390D01*
X21625401Y-12719390D02*
X21650401Y-12744390D01*
X21650401Y-12719390D02*
X21625401Y-12744390D01*
X21787806Y-11310989D02*
X21812806Y-11335989D01*
X21812806Y-11310989D02*
X21787806Y-11335989D01*
X21812133Y-9146920D02*
X21837133Y-9171920D01*
X21837133Y-9146920D02*
X21812133Y-9171920D01*
X21815000Y-8412500D02*
X21840000Y-8437500D01*
X21840000Y-8412500D02*
X21815000Y-8437500D01*
X21832500Y-9080000D02*
X21857500Y-9105000D01*
X21857500Y-9080000D02*
X21832500Y-9105000D01*
X21850000Y-9830000D02*
X21875000Y-9855000D01*
X21875000Y-9830000D02*
X21850000Y-9855000D01*
X21884913Y-12389441D02*
X21909913Y-12414441D01*
X21909913Y-12389441D02*
X21884913Y-12414441D01*
X21885000Y-12327500D02*
X21910000Y-12352500D01*
X21910000Y-12327500D02*
X21885000Y-12352500D01*
X21885401Y-12459390D02*
X21910401Y-12484390D01*
X21910401Y-12459390D02*
X21885401Y-12484390D01*
X21917901Y-12064390D02*
X21942901Y-12089390D01*
X21942901Y-12064390D02*
X21917901Y-12089390D01*
X21974300Y-6575046D02*
X21999300Y-6600046D01*
X21999300Y-6575046D02*
X21974300Y-6600046D01*
X21987500Y-17987500D02*
X22012500Y-18012500D01*
X22012500Y-17987500D02*
X21987500Y-18012500D01*
X22082901Y-12656890D02*
X22107901Y-12681890D01*
X22107901Y-12656890D02*
X22082901Y-12681890D01*
X22082901Y-12784390D02*
X22107901Y-12809390D01*
X22107901Y-12784390D02*
X22082901Y-12809390D01*
X22182500Y-9800000D02*
X22207500Y-9825000D01*
X22207500Y-9800000D02*
X22182500Y-9825000D01*
X22257500Y-9153511D02*
X22282500Y-9178511D01*
X22282500Y-9153511D02*
X22257500Y-9178511D01*
X22575000Y-10441011D02*
X22600000Y-10466011D01*
X22600000Y-10441011D02*
X22575000Y-10466011D01*
X22635000Y-10235000D02*
X22660000Y-10260000D01*
X22660000Y-10235000D02*
X22635000Y-10260000D01*
X22647500Y-9620511D02*
X22672500Y-9645511D01*
X22672500Y-9620511D02*
X22647500Y-9645511D01*
X22732500Y-9428011D02*
X22757500Y-9453011D01*
X22757500Y-9428011D02*
X22732500Y-9453011D01*
X22812500Y-13697500D02*
X22837500Y-13722500D01*
X22837500Y-13697500D02*
X22812500Y-13722500D01*
X22835000Y-9238011D02*
X22860000Y-9263011D01*
X22860000Y-9238011D02*
X22835000Y-9263011D01*
X22867500Y-13697500D02*
X22892500Y-13722500D01*
X22892500Y-13697500D02*
X22867500Y-13722500D01*
X22912500Y-11382500D02*
X22937500Y-11407500D01*
X22937500Y-11382500D02*
X22912500Y-11407500D01*
X22916618Y-10270129D02*
X22941618Y-10295129D01*
X22941618Y-10270129D02*
X22916618Y-10295129D01*
X22922500Y-13697500D02*
X22947500Y-13722500D01*
X22947500Y-13697500D02*
X22922500Y-13722500D01*
X22967500Y-10356011D02*
X22992500Y-10381011D01*
X22992500Y-10356011D02*
X22967500Y-10381011D01*
X22987500Y-11382500D02*
X23012500Y-11407500D01*
X23012500Y-11382500D02*
X22987500Y-11407500D01*
X22987500Y-14487500D02*
X23012500Y-14512500D01*
X23012500Y-14487500D02*
X22987500Y-14512500D01*
X22997500Y-7172500D02*
X23022500Y-7197500D01*
X23022500Y-7172500D02*
X22997500Y-7197500D01*
X22997500Y-7790000D02*
X23022500Y-7815000D01*
X23022500Y-7790000D02*
X22997500Y-7815000D01*
X23010000Y-11510500D02*
X23035000Y-11535500D01*
X23035000Y-11510500D02*
X23010000Y-11535500D01*
X23075931Y-11874989D02*
X23100931Y-11899989D01*
X23100931Y-11874989D02*
X23075931Y-11899989D01*
X23100000Y-11320500D02*
X23125000Y-11345500D01*
X23125000Y-11320500D02*
X23100000Y-11345500D01*
X23150000Y-9097500D02*
X23175000Y-9122500D01*
X23175000Y-9097500D02*
X23150000Y-9122500D01*
X23187500Y-11128000D02*
X23212500Y-11153000D01*
X23212500Y-11128000D02*
X23187500Y-11153000D01*
X23282067Y-10434500D02*
X23307067Y-10459500D01*
X23307067Y-10434500D02*
X23282067Y-10459500D01*
X23372489Y-7503500D02*
X23397489Y-7528500D01*
X23397489Y-7503500D02*
X23372489Y-7528500D01*
X23417500Y-12479500D02*
X23442500Y-12504500D01*
X23442500Y-12479500D02*
X23417500Y-12504500D01*
X23437500Y-13677500D02*
X23462500Y-13702500D01*
X23462500Y-13677500D02*
X23437500Y-13702500D01*
X23447500Y-8055000D02*
X23472500Y-8080000D01*
X23472500Y-8055000D02*
X23447500Y-8080000D01*
X23452500Y-6892500D02*
X23477500Y-6917500D01*
X23477500Y-6892500D02*
X23452500Y-6917500D01*
X23487500Y-15987500D02*
X23512500Y-16012500D01*
X23512500Y-15987500D02*
X23487500Y-16012500D01*
X23502500Y-12849489D02*
X23527500Y-12874489D01*
X23527500Y-12849489D02*
X23502500Y-12874489D01*
X23502500Y-13677500D02*
X23527500Y-13702500D01*
X23527500Y-13677500D02*
X23502500Y-13702500D01*
X23507500Y-12289500D02*
X23532500Y-12314500D01*
X23532500Y-12289500D02*
X23507500Y-12314500D01*
X23562500Y-13677500D02*
X23587500Y-13702500D01*
X23587500Y-13677500D02*
X23562500Y-13702500D01*
X23595000Y-12097000D02*
X23620000Y-12122000D01*
X23620000Y-12097000D02*
X23595000Y-12122000D01*
X23690000Y-10392500D02*
X23715000Y-10417500D01*
X23715000Y-10392500D02*
X23690000Y-10417500D01*
X23712500Y-15640000D02*
X23737500Y-15665000D01*
X23737500Y-15640000D02*
X23712500Y-15665000D01*
D13*
X5262500Y-5500000D02*
G75*
G03*
X5262500Y-5500000I-25000J0D01*
G01*
X5262500Y-18000000D02*
G75*
G03*
X5262500Y-18000000I-25000J0D01*
G01*
X5339385Y-5314385D02*
G75*
G03*
X5339385Y-5314385I-25000J0D01*
G01*
X5339385Y-5685615D02*
G75*
G03*
X5339385Y-5685615I-25000J0D01*
G01*
X5339385Y-17814385D02*
G75*
G03*
X5339385Y-17814385I-25000J0D01*
G01*
X5339385Y-18185616D02*
G75*
G03*
X5339385Y-18185616I-25000J0D01*
G01*
X5525000Y-5237500D02*
G75*
G03*
X5525000Y-5237500I-25000J0D01*
G01*
X5525000Y-5762500D02*
G75*
G03*
X5525000Y-5762500I-25000J0D01*
G01*
X5525000Y-17737500D02*
G75*
G03*
X5525000Y-17737500I-25000J0D01*
G01*
X5525000Y-18262500D02*
G75*
G03*
X5525000Y-18262500I-25000J0D01*
G01*
X5710615Y-5314385D02*
G75*
G03*
X5710615Y-5314385I-25000J0D01*
G01*
X5710615Y-5685615D02*
G75*
G03*
X5710615Y-5685615I-25000J0D01*
G01*
X5710615Y-17814385D02*
G75*
G03*
X5710615Y-17814385I-25000J0D01*
G01*
X5710615Y-18185616D02*
G75*
G03*
X5710615Y-18185616I-25000J0D01*
G01*
X5787500Y-5500000D02*
G75*
G03*
X5787500Y-5500000I-25000J0D01*
G01*
X5787500Y-18000000D02*
G75*
G03*
X5787500Y-18000000I-25000J0D01*
G01*
X11262500Y-12500000D02*
G75*
G03*
X11262500Y-12500000I-25000J0D01*
G01*
X11339384Y-12314384D02*
G75*
G03*
X11339384Y-12314384I-25000J0D01*
G01*
X11339384Y-12685615D02*
G75*
G03*
X11339384Y-12685615I-25000J0D01*
G01*
X11525000Y-12237500D02*
G75*
G03*
X11525000Y-12237500I-25000J0D01*
G01*
X11525000Y-12762500D02*
G75*
G03*
X11525000Y-12762500I-25000J0D01*
G01*
X11710615Y-12314384D02*
G75*
G03*
X11710615Y-12314384I-25000J0D01*
G01*
X11710615Y-12685615D02*
G75*
G03*
X11710615Y-12685615I-25000J0D01*
G01*
X11787500Y-12500000D02*
G75*
G03*
X11787500Y-12500000I-25000J0D01*
G01*
X13262500Y-18000000D02*
G75*
G03*
X13262500Y-18000000I-25000J0D01*
G01*
X13339384Y-17814385D02*
G75*
G03*
X13339384Y-17814385I-25000J0D01*
G01*
X13339384Y-18185616D02*
G75*
G03*
X13339384Y-18185616I-25000J0D01*
G01*
X13525000Y-17737500D02*
G75*
G03*
X13525000Y-17737500I-25000J0D01*
G01*
X13525000Y-18262500D02*
G75*
G03*
X13525000Y-18262500I-25000J0D01*
G01*
X13710615Y-17814385D02*
G75*
G03*
X13710615Y-17814385I-25000J0D01*
G01*
X13710615Y-18185616D02*
G75*
G03*
X13710615Y-18185616I-25000J0D01*
G01*
X13787500Y-18000000D02*
G75*
G03*
X13787500Y-18000000I-25000J0D01*
G01*
X15462500Y-5400000D02*
G75*
G03*
X15462500Y-5400000I-25000J0D01*
G01*
X15539384Y-5214385D02*
G75*
G03*
X15539384Y-5214385I-25000J0D01*
G01*
X15539384Y-5585616D02*
G75*
G03*
X15539384Y-5585616I-25000J0D01*
G01*
X15725000Y-5137500D02*
G75*
G03*
X15725000Y-5137500I-25000J0D01*
G01*
X15725000Y-5662500D02*
G75*
G03*
X15725000Y-5662500I-25000J0D01*
G01*
X15910615Y-5214385D02*
G75*
G03*
X15910615Y-5214385I-25000J0D01*
G01*
X15910615Y-5585616D02*
G75*
G03*
X15910615Y-5585616I-25000J0D01*
G01*
X15987500Y-5400000D02*
G75*
G03*
X15987500Y-5400000I-25000J0D01*
G01*
X21262500Y-14000000D02*
G75*
G03*
X21262500Y-14000000I-25000J0D01*
G01*
X21339385Y-13814384D02*
G75*
G03*
X21339385Y-13814384I-25000J0D01*
G01*
X21339385Y-14185615D02*
G75*
G03*
X21339385Y-14185615I-25000J0D01*
G01*
X21525000Y-13737500D02*
G75*
G03*
X21525000Y-13737500I-25000J0D01*
G01*
X21525000Y-14262500D02*
G75*
G03*
X21525000Y-14262500I-25000J0D01*
G01*
X21710616Y-13814384D02*
G75*
G03*
X21710616Y-13814384I-25000J0D01*
G01*
X21710616Y-14185615D02*
G75*
G03*
X21710616Y-14185615I-25000J0D01*
G01*
X21787500Y-14000000D02*
G75*
G03*
X21787500Y-14000000I-25000J0D01*
G01*
X23262500Y-5500000D02*
G75*
G03*
X23262500Y-5500000I-25000J0D01*
G01*
X23262500Y-18000000D02*
G75*
G03*
X23262500Y-18000000I-25000J0D01*
G01*
X23339384Y-5314385D02*
G75*
G03*
X23339384Y-5314385I-25000J0D01*
G01*
X23339384Y-5685615D02*
G75*
G03*
X23339384Y-5685615I-25000J0D01*
G01*
X23339384Y-17814385D02*
G75*
G03*
X23339384Y-17814385I-25000J0D01*
G01*
X23339384Y-18185616D02*
G75*
G03*
X23339384Y-18185616I-25000J0D01*
G01*
X23525000Y-5237500D02*
G75*
G03*
X23525000Y-5237500I-25000J0D01*
G01*
X23525000Y-5762500D02*
G75*
G03*
X23525000Y-5762500I-25000J0D01*
G01*
X23525000Y-17737500D02*
G75*
G03*
X23525000Y-17737500I-25000J0D01*
G01*
X23525000Y-18262500D02*
G75*
G03*
X23525000Y-18262500I-25000J0D01*
G01*
X23710615Y-5314385D02*
G75*
G03*
X23710615Y-5314385I-25000J0D01*
G01*
X23710615Y-5685615D02*
G75*
G03*
X23710615Y-5685615I-25000J0D01*
G01*
X23710615Y-17814385D02*
G75*
G03*
X23710615Y-17814385I-25000J0D01*
G01*
X23710615Y-18185616D02*
G75*
G03*
X23710615Y-18185616I-25000J0D01*
G01*
X23787500Y-5500000D02*
G75*
G03*
X23787500Y-5500000I-25000J0D01*
G01*
X23787500Y-18000000D02*
G75*
G03*
X23787500Y-18000000I-25000J0D01*
G01*
D14*
X6445000Y-17162500D02*
X6445000Y-17237500D01*
X6407500Y-17200000D02*
X6482500Y-17200000D01*
X6445000Y-17362500D02*
X6445000Y-17437500D01*
X6407500Y-17400000D02*
X6482500Y-17400000D01*
X6445000Y-17562500D02*
X6445000Y-17637500D01*
X6407500Y-17600000D02*
X6482500Y-17600000D01*
X6445000Y-17762500D02*
X6445000Y-17837500D01*
X6407500Y-17800000D02*
X6482500Y-17800000D01*
X6445000Y-17962500D02*
X6445000Y-18037500D01*
X6407500Y-18000000D02*
X6482500Y-18000000D01*
X6445000Y-18162500D02*
X6445000Y-18237500D01*
X6407500Y-18200000D02*
X6482500Y-18200000D01*
X7400000Y-5262500D02*
X7400000Y-5337500D01*
X7362500Y-5300000D02*
X7437500Y-5300000D01*
X7600000Y-5262500D02*
X7600000Y-5337500D01*
X7562500Y-5300000D02*
X7637500Y-5300000D01*
X7800000Y-5262500D02*
X7800000Y-5337500D01*
X7762500Y-5300000D02*
X7837500Y-5300000D01*
X8300000Y-5262500D02*
X8300000Y-5337500D01*
X8262500Y-5300000D02*
X8337500Y-5300000D01*
X8500000Y-5262500D02*
X8500000Y-5337500D01*
X8462500Y-5300000D02*
X8537500Y-5300000D01*
X8700000Y-5262500D02*
X8700000Y-5337500D01*
X8662500Y-5300000D02*
X8737500Y-5300000D01*
X9200000Y-5262500D02*
X9200000Y-5337500D01*
X9162500Y-5300000D02*
X9237500Y-5300000D01*
X9400000Y-5262500D02*
X9400000Y-5337500D01*
X9362500Y-5300000D02*
X9437500Y-5300000D01*
X9600000Y-5262500D02*
X9600000Y-5337500D01*
X9562500Y-5300000D02*
X9637500Y-5300000D01*
X10100000Y-5262500D02*
X10100000Y-5337500D01*
X10062500Y-5300000D02*
X10137500Y-5300000D01*
X10300000Y-5262500D02*
X10300000Y-5337500D01*
X10262500Y-5300000D02*
X10337500Y-5300000D01*
X10500000Y-5262500D02*
X10500000Y-5337500D01*
X10462500Y-5300000D02*
X10537500Y-5300000D01*
X11000000Y-5262500D02*
X11000000Y-5337500D01*
X10962500Y-5300000D02*
X11037500Y-5300000D01*
X11200000Y-5262500D02*
X11200000Y-5337500D01*
X11162500Y-5300000D02*
X11237500Y-5300000D01*
X11700000Y-5262500D02*
X11700000Y-5337500D01*
X11662500Y-5300000D02*
X11737500Y-5300000D01*
X11900000Y-5262500D02*
X11900000Y-5337500D01*
X11862500Y-5300000D02*
X11937500Y-5300000D01*
X12100000Y-5262500D02*
X12100000Y-5337500D01*
X12062500Y-5300000D02*
X12137500Y-5300000D01*
X12600000Y-5262500D02*
X12600000Y-5337500D01*
X12562500Y-5300000D02*
X12637500Y-5300000D01*
X12800000Y-5262500D02*
X12800000Y-5337500D01*
X12762500Y-5300000D02*
X12837500Y-5300000D01*
X13300000Y-5262500D02*
X13300000Y-5337500D01*
X13262500Y-5300000D02*
X13337500Y-5300000D01*
X13500000Y-5262500D02*
X13500000Y-5337500D01*
X13462500Y-5300000D02*
X13537500Y-5300000D01*
X13700000Y-5262500D02*
X13700000Y-5337500D01*
X13662500Y-5300000D02*
X13737500Y-5300000D01*
X17500000Y-5260000D02*
X17500000Y-5335000D01*
X17462500Y-5297500D02*
X17537500Y-5297500D01*
X17700000Y-5260000D02*
X17700000Y-5335000D01*
X17662500Y-5297500D02*
X17737500Y-5297500D01*
X17900000Y-5260000D02*
X17900000Y-5335000D01*
X17862500Y-5297500D02*
X17937500Y-5297500D01*
X18907500Y-5260000D02*
X18907500Y-5335000D01*
X18870000Y-5297500D02*
X18945000Y-5297500D01*
X19107500Y-5260000D02*
X19107500Y-5335000D01*
X19070000Y-5297500D02*
X19145000Y-5297500D01*
X19307500Y-5260000D02*
X19307500Y-5335000D01*
X19270000Y-5297500D02*
X19345000Y-5297500D01*
X19800000Y-5260000D02*
X19800000Y-5335000D01*
X19762500Y-5297500D02*
X19837500Y-5297500D01*
X20000000Y-5260000D02*
X20000000Y-5335000D01*
X19962500Y-5297500D02*
X20037500Y-5297500D01*
X20500000Y-5260000D02*
X20500000Y-5335000D01*
X20462500Y-5297500D02*
X20537500Y-5297500D01*
X20700000Y-5260000D02*
X20700000Y-5335000D01*
X20662500Y-5297500D02*
X20737500Y-5297500D01*
X21300000Y-5260000D02*
X21300000Y-5335000D01*
X21262500Y-5297500D02*
X21337500Y-5297500D01*
X21500000Y-5260000D02*
X21500000Y-5335000D01*
X21462500Y-5297500D02*
X21537500Y-5297500D01*
X22000000Y-5260000D02*
X22000000Y-5335000D01*
X21962500Y-5297500D02*
X22037500Y-5297500D01*
X22200000Y-5260000D02*
X22200000Y-5335000D01*
X22162500Y-5297500D02*
X22237500Y-5297500D01*
D15*
X5263285Y-6957034D02*
X5263285Y-6900465D01*
X5206716Y-6900465D01*
X5206716Y-6957034D01*
X5263285Y-6957034D01*
X5369535Y-7426296D02*
X5369535Y-7369727D01*
X5312966Y-7369727D01*
X5312966Y-7426296D01*
X5369535Y-7426296D01*
X5369535Y-7626296D02*
X5369535Y-7569727D01*
X5312966Y-7569727D01*
X5312966Y-7626296D01*
X5369535Y-7626296D01*
X5369535Y-7978284D02*
X5369535Y-7921715D01*
X5312966Y-7921715D01*
X5312966Y-7978284D01*
X5369535Y-7978284D01*
X5369535Y-8178284D02*
X5369535Y-8121715D01*
X5312966Y-8121715D01*
X5312966Y-8178284D01*
X5369535Y-8178284D01*
X5463285Y-6957034D02*
X5463285Y-6900465D01*
X5406716Y-6900465D01*
X5406716Y-6957034D01*
X5463285Y-6957034D01*
X6193284Y-6962034D02*
X6193284Y-6905465D01*
X6136715Y-6905465D01*
X6136715Y-6962034D01*
X6193284Y-6962034D01*
X6393284Y-6962034D02*
X6393284Y-6905465D01*
X6336715Y-6905465D01*
X6336715Y-6962034D01*
X6393284Y-6962034D01*
X6758284Y-6942034D02*
X6758284Y-6885465D01*
X6701715Y-6885465D01*
X6701715Y-6942034D01*
X6758284Y-6942034D01*
X6869534Y-7978284D02*
X6869534Y-7921715D01*
X6812965Y-7921715D01*
X6812965Y-7978284D01*
X6869534Y-7978284D01*
X6869534Y-8178284D02*
X6869534Y-8121715D01*
X6812965Y-8121715D01*
X6812965Y-8178284D01*
X6869534Y-8178284D01*
X6879534Y-7426296D02*
X6879534Y-7369727D01*
X6822965Y-7369727D01*
X6822965Y-7426296D01*
X6879534Y-7426296D01*
X6879534Y-7626296D02*
X6879534Y-7569727D01*
X6822965Y-7569727D01*
X6822965Y-7626296D01*
X6879534Y-7626296D01*
X6958284Y-6942034D02*
X6958284Y-6885465D01*
X6901715Y-6885465D01*
X6901715Y-6942034D01*
X6958284Y-6942034D01*
X7688284Y-6949534D02*
X7688284Y-6892965D01*
X7631715Y-6892965D01*
X7631715Y-6949534D01*
X7688284Y-6949534D01*
X7888284Y-6949534D02*
X7888284Y-6892965D01*
X7831715Y-6892965D01*
X7831715Y-6949534D01*
X7888284Y-6949534D01*
X8241296Y-6942034D02*
X8241296Y-6885465D01*
X8184727Y-6885465D01*
X8184727Y-6942034D01*
X8241296Y-6942034D01*
X8441296Y-6942034D02*
X8441296Y-6885465D01*
X8384727Y-6885465D01*
X8384727Y-6942034D01*
X8441296Y-6942034D01*
X8587035Y-7908796D02*
X8587035Y-7852227D01*
X8530466Y-7852227D01*
X8530466Y-7908796D01*
X8587035Y-7908796D01*
X8587035Y-8108796D02*
X8587035Y-8052227D01*
X8530466Y-8052227D01*
X8530466Y-8108796D01*
X8587035Y-8108796D01*
X8589535Y-7361296D02*
X8589535Y-7304727D01*
X8532966Y-7304727D01*
X8532966Y-7361296D01*
X8589535Y-7361296D01*
X8589535Y-7561296D02*
X8589535Y-7504727D01*
X8532966Y-7504727D01*
X8532966Y-7561296D01*
X8589535Y-7561296D01*
X9176296Y-6932034D02*
X9176296Y-6875465D01*
X9119727Y-6875465D01*
X9119727Y-6932034D01*
X9176296Y-6932034D01*
X9376296Y-6932034D02*
X9376296Y-6875465D01*
X9319727Y-6875465D01*
X9319727Y-6932034D01*
X9376296Y-6932034D01*
X9727285Y-6936034D02*
X9727285Y-6879465D01*
X9670716Y-6879465D01*
X9670716Y-6936034D01*
X9727285Y-6936034D01*
X9927285Y-6936034D02*
X9927285Y-6879465D01*
X9870716Y-6879465D01*
X9870716Y-6936034D01*
X9927285Y-6936034D01*
X10100785Y-7856296D02*
X10100785Y-7799727D01*
X10044216Y-7799727D01*
X10044216Y-7856296D01*
X10100785Y-7856296D01*
X10100785Y-8056296D02*
X10100785Y-7999727D01*
X10044216Y-7999727D01*
X10044216Y-8056296D01*
X10100785Y-8056296D01*
X10110785Y-7308796D02*
X10110785Y-7252227D01*
X10054216Y-7252227D01*
X10054216Y-7308796D01*
X10110785Y-7308796D01*
X10110785Y-7508796D02*
X10110785Y-7452227D01*
X10054216Y-7452227D01*
X10054216Y-7508796D01*
X10110785Y-7508796D01*
X10316296Y-8859535D02*
X10316296Y-8802966D01*
X10259727Y-8802966D01*
X10259727Y-8859535D01*
X10316296Y-8859535D01*
X10516296Y-8859535D02*
X10516296Y-8802966D01*
X10459727Y-8802966D01*
X10459727Y-8859535D01*
X10516296Y-8859535D01*
X10660785Y-6938284D02*
X10660785Y-6881715D01*
X10604216Y-6881715D01*
X10604216Y-6938284D01*
X10660785Y-6938284D01*
X10860785Y-6938284D02*
X10860785Y-6881715D01*
X10804216Y-6881715D01*
X10804216Y-6938284D01*
X10860785Y-6938284D01*
X11250784Y-8859535D02*
X11250784Y-8802966D01*
X11194215Y-8802966D01*
X11194215Y-8859535D01*
X11250784Y-8859535D01*
X11432034Y-6743284D02*
X11432034Y-6686715D01*
X11375465Y-6686715D01*
X11375465Y-6743284D01*
X11432034Y-6743284D01*
X11432034Y-6943284D02*
X11432034Y-6886715D01*
X11375465Y-6886715D01*
X11375465Y-6943284D01*
X11432034Y-6943284D01*
X11439534Y-7295784D02*
X11439534Y-7239215D01*
X11382965Y-7239215D01*
X11382965Y-7295784D01*
X11439534Y-7295784D01*
X11439534Y-7495784D02*
X11439534Y-7439215D01*
X11382965Y-7439215D01*
X11382965Y-7495784D01*
X11439534Y-7495784D01*
X11450784Y-8859535D02*
X11450784Y-8802966D01*
X11394215Y-8802966D01*
X11394215Y-8859535D01*
X11450784Y-8859535D01*
X12413284Y-7878284D02*
X12413284Y-7821715D01*
X12356715Y-7821715D01*
X12356715Y-7878284D01*
X12413284Y-7878284D01*
X12413284Y-8078284D02*
X12413284Y-8021715D01*
X12356715Y-8021715D01*
X12356715Y-8078284D01*
X12413284Y-8078284D01*
X12415784Y-8425273D02*
X12415784Y-8368704D01*
X12359215Y-8368704D01*
X12359215Y-8425273D01*
X12415784Y-8425273D01*
X12415784Y-8625273D02*
X12415784Y-8568704D01*
X12359215Y-8568704D01*
X12359215Y-8625273D01*
X12415784Y-8625273D01*
X12878284Y-7438284D02*
X12878284Y-7381715D01*
X12821715Y-7381715D01*
X12821715Y-7438284D01*
X12878284Y-7438284D01*
X13078284Y-7438284D02*
X13078284Y-7381715D01*
X13021715Y-7381715D01*
X13021715Y-7438284D01*
X13078284Y-7438284D01*
X13813284Y-7437284D02*
X13813284Y-7380715D01*
X13756715Y-7380715D01*
X13756715Y-7437284D01*
X13813284Y-7437284D01*
X13930784Y-7885784D02*
X13930784Y-7829215D01*
X13874215Y-7829215D01*
X13874215Y-7885784D01*
X13930784Y-7885784D01*
X13930784Y-8085784D02*
X13930784Y-8029215D01*
X13874215Y-8029215D01*
X13874215Y-8085784D01*
X13930784Y-8085784D01*
X13935784Y-8432773D02*
X13935784Y-8376204D01*
X13879215Y-8376204D01*
X13879215Y-8432773D01*
X13935784Y-8432773D01*
X13935784Y-8632773D02*
X13935784Y-8576204D01*
X13879215Y-8576204D01*
X13879215Y-8632773D01*
X13935784Y-8632773D01*
X14013284Y-7437284D02*
X14013284Y-7380715D01*
X13956715Y-7380715D01*
X13956715Y-7437284D01*
X14013284Y-7437284D01*
X17587773Y-7452773D02*
X17587773Y-7396204D01*
X17531204Y-7396204D01*
X17531204Y-7452773D01*
X17587773Y-7452773D01*
X17637535Y-8760285D02*
X17637535Y-8703716D01*
X17580966Y-8703716D01*
X17580966Y-8760285D01*
X17637535Y-8760285D01*
X17787773Y-7452773D02*
X17787773Y-7396204D01*
X17731204Y-7396204D01*
X17731204Y-7452773D01*
X17787773Y-7452773D01*
X17837535Y-8760285D02*
X17837535Y-8703716D01*
X17780966Y-8703716D01*
X17780966Y-8760285D01*
X17837535Y-8760285D01*
X18138285Y-7455273D02*
X18138285Y-7398704D01*
X18081716Y-7398704D01*
X18081716Y-7455273D01*
X18138285Y-7455273D01*
X18338285Y-7455273D02*
X18338285Y-7398704D01*
X18281716Y-7398704D01*
X18281716Y-7455273D01*
X18338285Y-7455273D01*
X18528285Y-9743273D02*
X18528285Y-9686704D01*
X18471716Y-9686704D01*
X18471716Y-9743273D01*
X18528285Y-9743273D01*
X18528285Y-9943273D02*
X18528285Y-9886704D01*
X18471716Y-9886704D01*
X18471716Y-9943273D01*
X18528285Y-9943273D01*
X18727535Y-8762785D02*
X18727535Y-8706216D01*
X18670966Y-8706216D01*
X18670966Y-8762785D01*
X18727535Y-8762785D01*
X18845273Y-7674145D02*
X18845273Y-7617576D01*
X18788704Y-7617576D01*
X18788704Y-7674145D01*
X18845273Y-7674145D01*
X18927535Y-8762785D02*
X18927535Y-8706216D01*
X18870966Y-8706216D01*
X18870966Y-8762785D01*
X18927535Y-8762785D01*
X19045273Y-7674145D02*
X19045273Y-7617576D01*
X18988704Y-7617576D01*
X18988704Y-7674145D01*
X19045273Y-7674145D01*
X19395273Y-7676645D02*
X19395273Y-7620076D01*
X19338704Y-7620076D01*
X19338704Y-7676645D01*
X19395273Y-7676645D01*
X19595273Y-7676645D02*
X19595273Y-7620076D01*
X19538704Y-7620076D01*
X19538704Y-7676645D01*
X19595273Y-7676645D01*
X20163546Y-7462784D02*
X20163546Y-7406215D01*
X20106977Y-7406215D01*
X20106977Y-7462784D01*
X20163546Y-7462784D01*
X20200785Y-9508273D02*
X20200785Y-9451704D01*
X20144216Y-9451704D01*
X20144216Y-9508273D01*
X20200785Y-9508273D01*
X20200785Y-9708273D02*
X20200785Y-9651704D01*
X20144216Y-9651704D01*
X20144216Y-9708273D01*
X20200785Y-9708273D01*
X20354096Y-8570835D02*
X20354096Y-8514266D01*
X20297527Y-8514266D01*
X20297527Y-8570835D01*
X20354096Y-8570835D01*
X20363546Y-7462784D02*
X20363546Y-7406215D01*
X20306977Y-7406215D01*
X20306977Y-7462784D01*
X20363546Y-7462784D01*
X20554096Y-8570835D02*
X20554096Y-8514266D01*
X20497527Y-8514266D01*
X20497527Y-8570835D01*
X20554096Y-8570835D01*
X20588685Y-12360163D02*
X20588685Y-12303594D01*
X20532116Y-12303594D01*
X20532116Y-12360163D01*
X20588685Y-12360163D01*
X20588685Y-12560163D02*
X20588685Y-12503594D01*
X20532116Y-12503594D01*
X20532116Y-12560163D01*
X20588685Y-12560163D01*
X20716910Y-7465034D02*
X20716910Y-7408465D01*
X20660341Y-7408465D01*
X20660341Y-7465034D01*
X20716910Y-7465034D01*
X20916910Y-7465034D02*
X20916910Y-7408465D01*
X20860341Y-7408465D01*
X20860341Y-7465034D01*
X20916910Y-7465034D01*
X20999535Y-10791285D02*
X20999535Y-10734716D01*
X20942966Y-10734716D01*
X20942966Y-10791285D01*
X20999535Y-10791285D01*
X20999535Y-10991285D02*
X20999535Y-10934716D01*
X20942966Y-10934716D01*
X20942966Y-10991285D01*
X20999535Y-10991285D01*
X21114535Y-9660796D02*
X21114535Y-9604227D01*
X21057966Y-9604227D01*
X21057966Y-9660796D01*
X21114535Y-9660796D01*
X21314535Y-9660796D02*
X21314535Y-9604227D01*
X21257966Y-9604227D01*
X21257966Y-9660796D01*
X21314535Y-9660796D01*
X21544096Y-8588335D02*
X21544096Y-8531766D01*
X21487527Y-8531766D01*
X21487527Y-8588335D01*
X21544096Y-8588335D01*
X21544096Y-8788335D02*
X21544096Y-8731766D01*
X21487527Y-8731766D01*
X21487527Y-8788335D01*
X21544096Y-8788335D01*
X21665046Y-9660796D02*
X21665046Y-9604227D01*
X21608477Y-9604227D01*
X21608477Y-9660796D01*
X21665046Y-9660796D01*
X21865046Y-9660796D02*
X21865046Y-9604227D01*
X21808477Y-9604227D01*
X21808477Y-9660796D01*
X21865046Y-9660796D01*
X22015785Y-7395273D02*
X22015785Y-7338704D01*
X21959216Y-7338704D01*
X21959216Y-7395273D01*
X22015785Y-7395273D01*
X22015785Y-7595273D02*
X22015785Y-7538704D01*
X21959216Y-7538704D01*
X21959216Y-7595273D01*
X22015785Y-7595273D01*
X22269535Y-10787762D02*
X22269535Y-10731193D01*
X22212966Y-10731193D01*
X22212966Y-10787762D01*
X22269535Y-10787762D01*
X22269535Y-10987762D02*
X22269535Y-10931193D01*
X22212966Y-10931193D01*
X22212966Y-10987762D01*
X22269535Y-10987762D01*
X22283685Y-11900174D02*
X22283685Y-11843605D01*
X22227116Y-11843605D01*
X22227116Y-11900174D01*
X22283685Y-11900174D01*
X22283685Y-12100174D02*
X22283685Y-12043605D01*
X22227116Y-12043605D01*
X22227116Y-12100174D01*
X22283685Y-12100174D01*
X22368285Y-8924296D02*
X22368285Y-8867727D01*
X22311716Y-8867727D01*
X22311716Y-8924296D01*
X22368285Y-8924296D01*
X22490784Y-9911796D02*
X22490784Y-9855227D01*
X22434215Y-9855227D01*
X22434215Y-9911796D01*
X22490784Y-9911796D01*
X22490784Y-10111796D02*
X22490784Y-10055227D01*
X22434215Y-10055227D01*
X22434215Y-10111796D01*
X22490784Y-10111796D01*
X22495784Y-6633284D02*
X22495784Y-6576715D01*
X22439215Y-6576715D01*
X22439215Y-6633284D01*
X22495784Y-6633284D01*
X22495784Y-6887284D02*
X22495784Y-6830715D01*
X22439215Y-6830715D01*
X22439215Y-6887284D01*
X22495784Y-6887284D01*
X22495784Y-7141284D02*
X22495784Y-7084715D01*
X22439215Y-7084715D01*
X22439215Y-7141284D01*
X22495784Y-7141284D01*
X22495784Y-7395284D02*
X22495784Y-7338715D01*
X22439215Y-7338715D01*
X22439215Y-7395284D01*
X22495784Y-7395284D01*
X22495784Y-7649284D02*
X22495784Y-7592715D01*
X22439215Y-7592715D01*
X22439215Y-7649284D01*
X22495784Y-7649284D01*
X22495784Y-7903284D02*
X22495784Y-7846715D01*
X22439215Y-7846715D01*
X22439215Y-7903284D01*
X22495784Y-7903284D01*
X22495784Y-8157284D02*
X22495784Y-8100715D01*
X22439215Y-8100715D01*
X22439215Y-8157284D01*
X22495784Y-8157284D01*
X22495784Y-8411285D02*
X22495784Y-8354715D01*
X22439215Y-8354715D01*
X22439215Y-8411285D01*
X22495784Y-8411285D01*
X22568284Y-8924296D02*
X22568284Y-8867727D01*
X22511715Y-8867727D01*
X22511715Y-8924296D01*
X22568284Y-8924296D01*
X22918284Y-8924296D02*
X22918284Y-8867727D01*
X22861715Y-8867727D01*
X22861715Y-8924296D01*
X22918284Y-8924296D01*
X23118284Y-8924296D02*
X23118284Y-8867727D01*
X23061715Y-8867727D01*
X23061715Y-8924296D01*
X23118284Y-8924296D01*
X23257784Y-6633284D02*
X23257784Y-6576715D01*
X23201215Y-6576715D01*
X23201215Y-6633284D01*
X23257784Y-6633284D01*
X23257784Y-6887284D02*
X23257784Y-6830715D01*
X23201215Y-6830715D01*
X23201215Y-6887284D01*
X23257784Y-6887284D01*
X23257784Y-7141284D02*
X23257784Y-7084715D01*
X23201215Y-7084715D01*
X23201215Y-7141284D01*
X23257784Y-7141284D01*
X23257784Y-7395284D02*
X23257784Y-7338715D01*
X23201215Y-7338715D01*
X23201215Y-7395284D01*
X23257784Y-7395284D01*
X23257784Y-7649284D02*
X23257784Y-7592715D01*
X23201215Y-7592715D01*
X23201215Y-7649284D01*
X23257784Y-7649284D01*
X23257784Y-7903284D02*
X23257784Y-7846715D01*
X23201215Y-7846715D01*
X23201215Y-7903284D01*
X23257784Y-7903284D01*
X23257784Y-8157284D02*
X23257784Y-8100715D01*
X23201215Y-8100715D01*
X23201215Y-8157284D01*
X23257784Y-8157284D01*
X23257784Y-8411285D02*
X23257784Y-8354715D01*
X23201215Y-8354715D01*
X23201215Y-8411285D01*
X23257784Y-8411285D01*
X23718273Y-7752296D02*
X23718273Y-7695727D01*
X23661704Y-7695727D01*
X23661704Y-7752296D01*
X23718273Y-7752296D01*
X23718273Y-7952296D02*
X23718273Y-7895727D01*
X23661704Y-7895727D01*
X23661704Y-7952296D01*
X23718273Y-7952296D01*
X23733273Y-7198796D02*
X23733273Y-7142227D01*
X23676704Y-7142227D01*
X23676704Y-7198796D01*
X23733273Y-7198796D01*
X23733273Y-7398796D02*
X23733273Y-7342227D01*
X23676704Y-7342227D01*
X23676704Y-7398796D01*
X23733273Y-7398796D01*
X23763284Y-9914285D02*
X23763284Y-9857716D01*
X23706715Y-9857716D01*
X23706715Y-9914285D01*
X23763284Y-9914285D01*
X23763284Y-10114285D02*
X23763284Y-10057716D01*
X23706715Y-10057716D01*
X23706715Y-10114285D01*
X23763284Y-10114285D01*
D16*
X7900000Y-17247500D02*
X7947500Y-17200000D01*
X7900000Y-17152500D01*
X7852500Y-17200000D01*
X7900000Y-17247500D01*
X7900000Y-17497500D02*
X7947500Y-17450000D01*
X7900000Y-17402500D01*
X7852500Y-17450000D01*
X7900000Y-17497500D01*
X7900000Y-17747500D02*
X7947500Y-17700000D01*
X7900000Y-17652500D01*
X7852500Y-17700000D01*
X7900000Y-17747500D01*
X7900000Y-17997500D02*
X7947500Y-17950000D01*
X7900000Y-17902500D01*
X7852500Y-17950000D01*
X7900000Y-17997500D01*
X7900000Y-18247500D02*
X7947500Y-18200000D01*
X7900000Y-18152500D01*
X7852500Y-18200000D01*
X7900000Y-18247500D01*
X10200000Y-17247500D02*
X10247500Y-17200000D01*
X10200000Y-17152500D01*
X10152500Y-17200000D01*
X10200000Y-17247500D01*
X10200000Y-17497500D02*
X10247500Y-17450000D01*
X10200000Y-17402500D01*
X10152500Y-17450000D01*
X10200000Y-17497500D01*
X10200000Y-17747500D02*
X10247500Y-17700000D01*
X10200000Y-17652500D01*
X10152500Y-17700000D01*
X10200000Y-17747500D01*
X10200000Y-17997500D02*
X10247500Y-17950000D01*
X10200000Y-17902500D01*
X10152500Y-17950000D01*
X10200000Y-17997500D01*
X10200000Y-18247500D02*
X10247500Y-18200000D01*
X10200000Y-18152500D01*
X10152500Y-18200000D01*
X10200000Y-18247500D01*
X10980000Y-17247500D02*
X11027500Y-17200000D01*
X10980000Y-17152500D01*
X10932500Y-17200000D01*
X10980000Y-17247500D01*
X10980000Y-17497500D02*
X11027500Y-17450000D01*
X10980000Y-17402500D01*
X10932500Y-17450000D01*
X10980000Y-17497500D01*
X10980000Y-17747500D02*
X11027500Y-17700000D01*
X10980000Y-17652500D01*
X10932500Y-17700000D01*
X10980000Y-17747500D01*
X10980000Y-17997500D02*
X11027500Y-17950000D01*
X10980000Y-17902500D01*
X10932500Y-17950000D01*
X10980000Y-17997500D01*
X10980000Y-18247500D02*
X11027500Y-18200000D01*
X10980000Y-18152500D01*
X10932500Y-18200000D01*
X10980000Y-18247500D01*
X11760000Y-17247500D02*
X11807500Y-17200000D01*
X11760000Y-17152500D01*
X11712500Y-17200000D01*
X11760000Y-17247500D01*
X11760000Y-17497500D02*
X11807500Y-17450000D01*
X11760000Y-17402500D01*
X11712500Y-17450000D01*
X11760000Y-17497500D01*
X11760000Y-17747500D02*
X11807500Y-17700000D01*
X11760000Y-17652500D01*
X11712500Y-17700000D01*
X11760000Y-17747500D01*
X11760000Y-17997500D02*
X11807500Y-17950000D01*
X11760000Y-17902500D01*
X11712500Y-17950000D01*
X11760000Y-17997500D01*
X11760000Y-18247500D02*
X11807500Y-18200000D01*
X11760000Y-18152500D01*
X11712500Y-18200000D01*
X11760000Y-18247500D01*
X12540000Y-17247500D02*
X12587500Y-17200000D01*
X12540000Y-17152500D01*
X12492500Y-17200000D01*
X12540000Y-17247500D01*
X12540000Y-17497500D02*
X12587500Y-17450000D01*
X12540000Y-17402500D01*
X12492500Y-17450000D01*
X12540000Y-17497500D01*
X12540000Y-17747500D02*
X12587500Y-17700000D01*
X12540000Y-17652500D01*
X12492500Y-17700000D01*
X12540000Y-17747500D01*
X12540000Y-17997500D02*
X12587500Y-17950000D01*
X12540000Y-17902500D01*
X12492500Y-17950000D01*
X12540000Y-17997500D01*
X12540000Y-18247500D02*
X12587500Y-18200000D01*
X12540000Y-18152500D01*
X12492500Y-18200000D01*
X12540000Y-18247500D01*
D10*
X5864000Y-10924000D02*
X5964000Y-11024000D01*
X5964000Y-10924000D02*
X5864000Y-11024000D01*
X5964000Y-10974000D02*
G75*
G03*
X5964000Y-10974000I-50000J0D01*
G01*
X5864000Y-11178000D02*
X5964000Y-11278000D01*
X5964000Y-11178000D02*
X5864000Y-11278000D01*
X5964000Y-11228000D02*
G75*
G03*
X5964000Y-11228000I-50000J0D01*
G01*
X5864000Y-11432000D02*
X5964000Y-11532000D01*
X5964000Y-11432000D02*
X5864000Y-11532000D01*
X5964000Y-11482000D02*
G75*
G03*
X5964000Y-11482000I-50000J0D01*
G01*
X5864000Y-11686000D02*
X5964000Y-11786000D01*
X5964000Y-11686000D02*
X5864000Y-11786000D01*
X5964000Y-11736000D02*
G75*
G03*
X5964000Y-11736000I-50000J0D01*
G01*
X5864000Y-11940000D02*
X5964000Y-12040000D01*
X5964000Y-11940000D02*
X5864000Y-12040000D01*
X5964000Y-11990000D02*
G75*
G03*
X5964000Y-11990000I-50000J0D01*
G01*
X5864000Y-12194000D02*
X5964000Y-12294000D01*
X5964000Y-12194000D02*
X5864000Y-12294000D01*
X5964000Y-12244000D02*
G75*
G03*
X5964000Y-12244000I-50000J0D01*
G01*
X5864000Y-12448000D02*
X5964000Y-12548000D01*
X5964000Y-12448000D02*
X5864000Y-12548000D01*
X5964000Y-12498000D02*
G75*
G03*
X5964000Y-12498000I-50000J0D01*
G01*
X5864000Y-12702000D02*
X5964000Y-12802000D01*
X5964000Y-12702000D02*
X5864000Y-12802000D01*
X5964000Y-12752000D02*
G75*
G03*
X5964000Y-12752000I-50000J0D01*
G01*
X5864000Y-12956000D02*
X5964000Y-13056000D01*
X5964000Y-12956000D02*
X5864000Y-13056000D01*
X5964000Y-13006000D02*
G75*
G03*
X5964000Y-13006000I-50000J0D01*
G01*
X5864000Y-13210000D02*
X5964000Y-13310000D01*
X5964000Y-13210000D02*
X5864000Y-13310000D01*
X5964000Y-13260000D02*
G75*
G03*
X5964000Y-13260000I-50000J0D01*
G01*
X5864000Y-13464000D02*
X5964000Y-13564000D01*
X5964000Y-13464000D02*
X5864000Y-13564000D01*
X5964000Y-13514000D02*
G75*
G03*
X5964000Y-13514000I-50000J0D01*
G01*
X5864000Y-13718000D02*
X5964000Y-13818000D01*
X5964000Y-13718000D02*
X5864000Y-13818000D01*
X5964000Y-13768000D02*
G75*
G03*
X5964000Y-13768000I-50000J0D01*
G01*
X5864000Y-13972000D02*
X5964000Y-14072000D01*
X5964000Y-13972000D02*
X5864000Y-14072000D01*
X5964000Y-14022000D02*
G75*
G03*
X5964000Y-14022000I-50000J0D01*
G01*
X5864000Y-14226000D02*
X5964000Y-14326000D01*
X5964000Y-14226000D02*
X5864000Y-14326000D01*
X5964000Y-14276000D02*
G75*
G03*
X5964000Y-14276000I-50000J0D01*
G01*
X5864000Y-14480000D02*
X5964000Y-14580000D01*
X5964000Y-14480000D02*
X5864000Y-14580000D01*
X5964000Y-14530000D02*
G75*
G03*
X5964000Y-14530000I-50000J0D01*
G01*
X5864000Y-14734000D02*
X5964000Y-14834000D01*
X5964000Y-14734000D02*
X5864000Y-14834000D01*
X5964000Y-14784000D02*
G75*
G03*
X5964000Y-14784000I-50000J0D01*
G01*
X5864000Y-14988000D02*
X5964000Y-15088000D01*
X5964000Y-14988000D02*
X5864000Y-15088000D01*
X5964000Y-15038000D02*
G75*
G03*
X5964000Y-15038000I-50000J0D01*
G01*
X5864000Y-15242000D02*
X5964000Y-15342000D01*
X5964000Y-15242000D02*
X5864000Y-15342000D01*
X5964000Y-15292000D02*
G75*
G03*
X5964000Y-15292000I-50000J0D01*
G01*
X5864000Y-15496000D02*
X5964000Y-15596000D01*
X5964000Y-15496000D02*
X5864000Y-15596000D01*
X5964000Y-15546000D02*
G75*
G03*
X5964000Y-15546000I-50000J0D01*
G01*
X5864000Y-15750000D02*
X5964000Y-15850000D01*
X5964000Y-15750000D02*
X5864000Y-15850000D01*
X5964000Y-15800000D02*
G75*
G03*
X5964000Y-15800000I-50000J0D01*
G01*
X6118000Y-10924000D02*
X6218000Y-11024000D01*
X6218000Y-10924000D02*
X6118000Y-11024000D01*
X6218000Y-10974000D02*
G75*
G03*
X6218000Y-10974000I-50000J0D01*
G01*
X6118000Y-11178000D02*
X6218000Y-11278000D01*
X6218000Y-11178000D02*
X6118000Y-11278000D01*
X6218000Y-11228000D02*
G75*
G03*
X6218000Y-11228000I-50000J0D01*
G01*
X6118000Y-11432000D02*
X6218000Y-11532000D01*
X6218000Y-11432000D02*
X6118000Y-11532000D01*
X6218000Y-11482000D02*
G75*
G03*
X6218000Y-11482000I-50000J0D01*
G01*
X6118000Y-11686000D02*
X6218000Y-11786000D01*
X6218000Y-11686000D02*
X6118000Y-11786000D01*
X6218000Y-11736000D02*
G75*
G03*
X6218000Y-11736000I-50000J0D01*
G01*
X6118000Y-11940000D02*
X6218000Y-12040000D01*
X6218000Y-11940000D02*
X6118000Y-12040000D01*
X6218000Y-11990000D02*
G75*
G03*
X6218000Y-11990000I-50000J0D01*
G01*
X6118000Y-12194000D02*
X6218000Y-12294000D01*
X6218000Y-12194000D02*
X6118000Y-12294000D01*
X6218000Y-12244000D02*
G75*
G03*
X6218000Y-12244000I-50000J0D01*
G01*
X6118000Y-12448000D02*
X6218000Y-12548000D01*
X6218000Y-12448000D02*
X6118000Y-12548000D01*
X6218000Y-12498000D02*
G75*
G03*
X6218000Y-12498000I-50000J0D01*
G01*
X6118000Y-12702000D02*
X6218000Y-12802000D01*
X6218000Y-12702000D02*
X6118000Y-12802000D01*
X6218000Y-12752000D02*
G75*
G03*
X6218000Y-12752000I-50000J0D01*
G01*
X6118000Y-12956000D02*
X6218000Y-13056000D01*
X6218000Y-12956000D02*
X6118000Y-13056000D01*
X6218000Y-13006000D02*
G75*
G03*
X6218000Y-13006000I-50000J0D01*
G01*
X6118000Y-13210000D02*
X6218000Y-13310000D01*
X6218000Y-13210000D02*
X6118000Y-13310000D01*
X6218000Y-13260000D02*
G75*
G03*
X6218000Y-13260000I-50000J0D01*
G01*
X6118000Y-13464000D02*
X6218000Y-13564000D01*
X6218000Y-13464000D02*
X6118000Y-13564000D01*
X6218000Y-13514000D02*
G75*
G03*
X6218000Y-13514000I-50000J0D01*
G01*
X6118000Y-13718000D02*
X6218000Y-13818000D01*
X6218000Y-13718000D02*
X6118000Y-13818000D01*
X6218000Y-13768000D02*
G75*
G03*
X6218000Y-13768000I-50000J0D01*
G01*
X6118000Y-13972000D02*
X6218000Y-14072000D01*
X6218000Y-13972000D02*
X6118000Y-14072000D01*
X6218000Y-14022000D02*
G75*
G03*
X6218000Y-14022000I-50000J0D01*
G01*
X6118000Y-14226000D02*
X6218000Y-14326000D01*
X6218000Y-14226000D02*
X6118000Y-14326000D01*
X6218000Y-14276000D02*
G75*
G03*
X6218000Y-14276000I-50000J0D01*
G01*
X6118000Y-14480000D02*
X6218000Y-14580000D01*
X6218000Y-14480000D02*
X6118000Y-14580000D01*
X6218000Y-14530000D02*
G75*
G03*
X6218000Y-14530000I-50000J0D01*
G01*
X6118000Y-14734000D02*
X6218000Y-14834000D01*
X6218000Y-14734000D02*
X6118000Y-14834000D01*
X6218000Y-14784000D02*
G75*
G03*
X6218000Y-14784000I-50000J0D01*
G01*
X6118000Y-14988000D02*
X6218000Y-15088000D01*
X6218000Y-14988000D02*
X6118000Y-15088000D01*
X6218000Y-15038000D02*
G75*
G03*
X6218000Y-15038000I-50000J0D01*
G01*
X6118000Y-15242000D02*
X6218000Y-15342000D01*
X6218000Y-15242000D02*
X6118000Y-15342000D01*
X6218000Y-15292000D02*
G75*
G03*
X6218000Y-15292000I-50000J0D01*
G01*
X6118000Y-15496000D02*
X6218000Y-15596000D01*
X6218000Y-15496000D02*
X6118000Y-15596000D01*
X6218000Y-15546000D02*
G75*
G03*
X6218000Y-15546000I-50000J0D01*
G01*
X6118000Y-15750000D02*
X6218000Y-15850000D01*
X6218000Y-15750000D02*
X6118000Y-15850000D01*
X6218000Y-15800000D02*
G75*
G03*
X6218000Y-15800000I-50000J0D01*
G01*
X7896000Y-10924000D02*
X7996000Y-11024000D01*
X7996000Y-10924000D02*
X7896000Y-11024000D01*
X7996000Y-10974000D02*
G75*
G03*
X7996000Y-10974000I-50000J0D01*
G01*
X7896000Y-11178000D02*
X7996000Y-11278000D01*
X7996000Y-11178000D02*
X7896000Y-11278000D01*
X7996000Y-11228000D02*
G75*
G03*
X7996000Y-11228000I-50000J0D01*
G01*
X7896000Y-11432000D02*
X7996000Y-11532000D01*
X7996000Y-11432000D02*
X7896000Y-11532000D01*
X7996000Y-11482000D02*
G75*
G03*
X7996000Y-11482000I-50000J0D01*
G01*
X7896000Y-11686000D02*
X7996000Y-11786000D01*
X7996000Y-11686000D02*
X7896000Y-11786000D01*
X7996000Y-11736000D02*
G75*
G03*
X7996000Y-11736000I-50000J0D01*
G01*
X7896000Y-11940000D02*
X7996000Y-12040000D01*
X7996000Y-11940000D02*
X7896000Y-12040000D01*
X7996000Y-11990000D02*
G75*
G03*
X7996000Y-11990000I-50000J0D01*
G01*
X7896000Y-12194000D02*
X7996000Y-12294000D01*
X7996000Y-12194000D02*
X7896000Y-12294000D01*
X7996000Y-12244000D02*
G75*
G03*
X7996000Y-12244000I-50000J0D01*
G01*
X7896000Y-12448000D02*
X7996000Y-12548000D01*
X7996000Y-12448000D02*
X7896000Y-12548000D01*
X7996000Y-12498000D02*
G75*
G03*
X7996000Y-12498000I-50000J0D01*
G01*
X7896000Y-12702000D02*
X7996000Y-12802000D01*
X7996000Y-12702000D02*
X7896000Y-12802000D01*
X7996000Y-12752000D02*
G75*
G03*
X7996000Y-12752000I-50000J0D01*
G01*
X7896000Y-12956000D02*
X7996000Y-13056000D01*
X7996000Y-12956000D02*
X7896000Y-13056000D01*
X7996000Y-13006000D02*
G75*
G03*
X7996000Y-13006000I-50000J0D01*
G01*
X7896000Y-13210000D02*
X7996000Y-13310000D01*
X7996000Y-13210000D02*
X7896000Y-13310000D01*
X7996000Y-13260000D02*
G75*
G03*
X7996000Y-13260000I-50000J0D01*
G01*
X7896000Y-13464000D02*
X7996000Y-13564000D01*
X7996000Y-13464000D02*
X7896000Y-13564000D01*
X7996000Y-13514000D02*
G75*
G03*
X7996000Y-13514000I-50000J0D01*
G01*
X7896000Y-13718000D02*
X7996000Y-13818000D01*
X7996000Y-13718000D02*
X7896000Y-13818000D01*
X7996000Y-13768000D02*
G75*
G03*
X7996000Y-13768000I-50000J0D01*
G01*
X7896000Y-13972000D02*
X7996000Y-14072000D01*
X7996000Y-13972000D02*
X7896000Y-14072000D01*
X7996000Y-14022000D02*
G75*
G03*
X7996000Y-14022000I-50000J0D01*
G01*
X7896000Y-14226000D02*
X7996000Y-14326000D01*
X7996000Y-14226000D02*
X7896000Y-14326000D01*
X7996000Y-14276000D02*
G75*
G03*
X7996000Y-14276000I-50000J0D01*
G01*
X7896000Y-14480000D02*
X7996000Y-14580000D01*
X7996000Y-14480000D02*
X7896000Y-14580000D01*
X7996000Y-14530000D02*
G75*
G03*
X7996000Y-14530000I-50000J0D01*
G01*
X7896000Y-14734000D02*
X7996000Y-14834000D01*
X7996000Y-14734000D02*
X7896000Y-14834000D01*
X7996000Y-14784000D02*
G75*
G03*
X7996000Y-14784000I-50000J0D01*
G01*
X7896000Y-14988000D02*
X7996000Y-15088000D01*
X7996000Y-14988000D02*
X7896000Y-15088000D01*
X7996000Y-15038000D02*
G75*
G03*
X7996000Y-15038000I-50000J0D01*
G01*
X7896000Y-15242000D02*
X7996000Y-15342000D01*
X7996000Y-15242000D02*
X7896000Y-15342000D01*
X7996000Y-15292000D02*
G75*
G03*
X7996000Y-15292000I-50000J0D01*
G01*
X7896000Y-15496000D02*
X7996000Y-15596000D01*
X7996000Y-15496000D02*
X7896000Y-15596000D01*
X7996000Y-15546000D02*
G75*
G03*
X7996000Y-15546000I-50000J0D01*
G01*
X7896000Y-15750000D02*
X7996000Y-15850000D01*
X7996000Y-15750000D02*
X7896000Y-15850000D01*
X7996000Y-15800000D02*
G75*
G03*
X7996000Y-15800000I-50000J0D01*
G01*
X8150000Y-10924000D02*
X8250000Y-11024000D01*
X8250000Y-10924000D02*
X8150000Y-11024000D01*
X8250000Y-10974000D02*
G75*
G03*
X8250000Y-10974000I-50000J0D01*
G01*
X8150000Y-11178000D02*
X8250000Y-11278000D01*
X8250000Y-11178000D02*
X8150000Y-11278000D01*
X8250000Y-11228000D02*
G75*
G03*
X8250000Y-11228000I-50000J0D01*
G01*
X8150000Y-11432000D02*
X8250000Y-11532000D01*
X8250000Y-11432000D02*
X8150000Y-11532000D01*
X8250000Y-11482000D02*
G75*
G03*
X8250000Y-11482000I-50000J0D01*
G01*
X8150000Y-11686000D02*
X8250000Y-11786000D01*
X8250000Y-11686000D02*
X8150000Y-11786000D01*
X8250000Y-11736000D02*
G75*
G03*
X8250000Y-11736000I-50000J0D01*
G01*
X8150000Y-11940000D02*
X8250000Y-12040000D01*
X8250000Y-11940000D02*
X8150000Y-12040000D01*
X8250000Y-11990000D02*
G75*
G03*
X8250000Y-11990000I-50000J0D01*
G01*
X8150000Y-12194000D02*
X8250000Y-12294000D01*
X8250000Y-12194000D02*
X8150000Y-12294000D01*
X8250000Y-12244000D02*
G75*
G03*
X8250000Y-12244000I-50000J0D01*
G01*
X8150000Y-12448000D02*
X8250000Y-12548000D01*
X8250000Y-12448000D02*
X8150000Y-12548000D01*
X8250000Y-12498000D02*
G75*
G03*
X8250000Y-12498000I-50000J0D01*
G01*
X8150000Y-12702000D02*
X8250000Y-12802000D01*
X8250000Y-12702000D02*
X8150000Y-12802000D01*
X8250000Y-12752000D02*
G75*
G03*
X8250000Y-12752000I-50000J0D01*
G01*
X8150000Y-12956000D02*
X8250000Y-13056000D01*
X8250000Y-12956000D02*
X8150000Y-13056000D01*
X8250000Y-13006000D02*
G75*
G03*
X8250000Y-13006000I-50000J0D01*
G01*
X8150000Y-13210000D02*
X8250000Y-13310000D01*
X8250000Y-13210000D02*
X8150000Y-13310000D01*
X8250000Y-13260000D02*
G75*
G03*
X8250000Y-13260000I-50000J0D01*
G01*
X8150000Y-13464000D02*
X8250000Y-13564000D01*
X8250000Y-13464000D02*
X8150000Y-13564000D01*
X8250000Y-13514000D02*
G75*
G03*
X8250000Y-13514000I-50000J0D01*
G01*
X8150000Y-13718000D02*
X8250000Y-13818000D01*
X8250000Y-13718000D02*
X8150000Y-13818000D01*
X8250000Y-13768000D02*
G75*
G03*
X8250000Y-13768000I-50000J0D01*
G01*
X8150000Y-13972000D02*
X8250000Y-14072000D01*
X8250000Y-13972000D02*
X8150000Y-14072000D01*
X8250000Y-14022000D02*
G75*
G03*
X8250000Y-14022000I-50000J0D01*
G01*
X8150000Y-14226000D02*
X8250000Y-14326000D01*
X8250000Y-14226000D02*
X8150000Y-14326000D01*
X8250000Y-14276000D02*
G75*
G03*
X8250000Y-14276000I-50000J0D01*
G01*
X8150000Y-14480000D02*
X8250000Y-14580000D01*
X8250000Y-14480000D02*
X8150000Y-14580000D01*
X8250000Y-14530000D02*
G75*
G03*
X8250000Y-14530000I-50000J0D01*
G01*
X8150000Y-14734000D02*
X8250000Y-14834000D01*
X8250000Y-14734000D02*
X8150000Y-14834000D01*
X8250000Y-14784000D02*
G75*
G03*
X8250000Y-14784000I-50000J0D01*
G01*
X8150000Y-14988000D02*
X8250000Y-15088000D01*
X8250000Y-14988000D02*
X8150000Y-15088000D01*
X8250000Y-15038000D02*
G75*
G03*
X8250000Y-15038000I-50000J0D01*
G01*
X8150000Y-15242000D02*
X8250000Y-15342000D01*
X8250000Y-15242000D02*
X8150000Y-15342000D01*
X8250000Y-15292000D02*
G75*
G03*
X8250000Y-15292000I-50000J0D01*
G01*
X8150000Y-15496000D02*
X8250000Y-15596000D01*
X8250000Y-15496000D02*
X8150000Y-15596000D01*
X8250000Y-15546000D02*
G75*
G03*
X8250000Y-15546000I-50000J0D01*
G01*
X8150000Y-15750000D02*
X8250000Y-15850000D01*
X8250000Y-15750000D02*
X8150000Y-15850000D01*
X8250000Y-15800000D02*
G75*
G03*
X8250000Y-15800000I-50000J0D01*
G01*
X15050000Y-7215000D02*
X15150000Y-7315000D01*
X15150000Y-7215000D02*
X15050000Y-7315000D01*
X15150000Y-7265000D02*
G75*
G03*
X15150000Y-7265000I-50000J0D01*
G01*
X15050000Y-7469000D02*
X15150000Y-7569000D01*
X15150000Y-7469000D02*
X15050000Y-7569000D01*
X15150000Y-7519000D02*
G75*
G03*
X15150000Y-7519000I-50000J0D01*
G01*
X15050000Y-7723000D02*
X15150000Y-7823000D01*
X15150000Y-7723000D02*
X15050000Y-7823000D01*
X15150000Y-7773000D02*
G75*
G03*
X15150000Y-7773000I-50000J0D01*
G01*
X15050000Y-7977000D02*
X15150000Y-8077000D01*
X15150000Y-7977000D02*
X15050000Y-8077000D01*
X15150000Y-8027000D02*
G75*
G03*
X15150000Y-8027000I-50000J0D01*
G01*
X15050000Y-8231000D02*
X15150000Y-8331000D01*
X15150000Y-8231000D02*
X15050000Y-8331000D01*
X15150000Y-8281000D02*
G75*
G03*
X15150000Y-8281000I-50000J0D01*
G01*
X15050000Y-8485000D02*
X15150000Y-8585000D01*
X15150000Y-8485000D02*
X15050000Y-8585000D01*
X15150000Y-8535000D02*
G75*
G03*
X15150000Y-8535000I-50000J0D01*
G01*
X15050000Y-11515000D02*
X15150000Y-11615000D01*
X15150000Y-11515000D02*
X15050000Y-11615000D01*
X15150000Y-11565000D02*
G75*
G03*
X15150000Y-11565000I-50000J0D01*
G01*
X15050000Y-11769000D02*
X15150000Y-11869000D01*
X15150000Y-11769000D02*
X15050000Y-11869000D01*
X15150000Y-11819000D02*
G75*
G03*
X15150000Y-11819000I-50000J0D01*
G01*
X15050000Y-12023000D02*
X15150000Y-12123000D01*
X15150000Y-12023000D02*
X15050000Y-12123000D01*
X15150000Y-12073000D02*
G75*
G03*
X15150000Y-12073000I-50000J0D01*
G01*
X15050000Y-12277000D02*
X15150000Y-12377000D01*
X15150000Y-12277000D02*
X15050000Y-12377000D01*
X15150000Y-12327000D02*
G75*
G03*
X15150000Y-12327000I-50000J0D01*
G01*
X15050000Y-12531000D02*
X15150000Y-12631000D01*
X15150000Y-12531000D02*
X15050000Y-12631000D01*
X15150000Y-12581000D02*
G75*
G03*
X15150000Y-12581000I-50000J0D01*
G01*
X15050000Y-12785000D02*
X15150000Y-12885000D01*
X15150000Y-12785000D02*
X15050000Y-12885000D01*
X15150000Y-12835000D02*
G75*
G03*
X15150000Y-12835000I-50000J0D01*
G01*
X16250000Y-7215000D02*
X16350000Y-7315000D01*
X16350000Y-7215000D02*
X16250000Y-7315000D01*
X16350000Y-7265000D02*
G75*
G03*
X16350000Y-7265000I-50000J0D01*
G01*
X16250000Y-7469000D02*
X16350000Y-7569000D01*
X16350000Y-7469000D02*
X16250000Y-7569000D01*
X16350000Y-7519000D02*
G75*
G03*
X16350000Y-7519000I-50000J0D01*
G01*
X16250000Y-7723000D02*
X16350000Y-7823000D01*
X16350000Y-7723000D02*
X16250000Y-7823000D01*
X16350000Y-7773000D02*
G75*
G03*
X16350000Y-7773000I-50000J0D01*
G01*
X16250000Y-7977000D02*
X16350000Y-8077000D01*
X16350000Y-7977000D02*
X16250000Y-8077000D01*
X16350000Y-8027000D02*
G75*
G03*
X16350000Y-8027000I-50000J0D01*
G01*
X16250000Y-8231000D02*
X16350000Y-8331000D01*
X16350000Y-8231000D02*
X16250000Y-8331000D01*
X16350000Y-8281000D02*
G75*
G03*
X16350000Y-8281000I-50000J0D01*
G01*
X16250000Y-8485000D02*
X16350000Y-8585000D01*
X16350000Y-8485000D02*
X16250000Y-8585000D01*
X16350000Y-8535000D02*
G75*
G03*
X16350000Y-8535000I-50000J0D01*
G01*
X16250000Y-11515000D02*
X16350000Y-11615000D01*
X16350000Y-11515000D02*
X16250000Y-11615000D01*
X16350000Y-11565000D02*
G75*
G03*
X16350000Y-11565000I-50000J0D01*
G01*
X16250000Y-11769000D02*
X16350000Y-11869000D01*
X16350000Y-11769000D02*
X16250000Y-11869000D01*
X16350000Y-11819000D02*
G75*
G03*
X16350000Y-11819000I-50000J0D01*
G01*
X16250000Y-12023000D02*
X16350000Y-12123000D01*
X16350000Y-12023000D02*
X16250000Y-12123000D01*
X16350000Y-12073000D02*
G75*
G03*
X16350000Y-12073000I-50000J0D01*
G01*
X16250000Y-12277000D02*
X16350000Y-12377000D01*
X16350000Y-12277000D02*
X16250000Y-12377000D01*
X16350000Y-12327000D02*
G75*
G03*
X16350000Y-12327000I-50000J0D01*
G01*
X16250000Y-12531000D02*
X16350000Y-12631000D01*
X16350000Y-12531000D02*
X16250000Y-12631000D01*
X16350000Y-12581000D02*
G75*
G03*
X16350000Y-12581000I-50000J0D01*
G01*
X16250000Y-12785000D02*
X16350000Y-12885000D01*
X16350000Y-12785000D02*
X16250000Y-12885000D01*
X16350000Y-12835000D02*
G75*
G03*
X16350000Y-12835000I-50000J0D01*
G01*
X16350000Y-16242000D02*
X16450000Y-16342000D01*
X16450000Y-16242000D02*
X16350000Y-16342000D01*
X16450000Y-16292000D02*
G75*
G03*
X16450000Y-16292000I-50000J0D01*
G01*
X16350000Y-16496000D02*
X16450000Y-16596000D01*
X16450000Y-16496000D02*
X16350000Y-16596000D01*
X16450000Y-16546000D02*
G75*
G03*
X16450000Y-16546000I-50000J0D01*
G01*
X16350000Y-16750000D02*
X16450000Y-16850000D01*
X16450000Y-16750000D02*
X16350000Y-16850000D01*
X16450000Y-16800000D02*
G75*
G03*
X16450000Y-16800000I-50000J0D01*
G01*
X16350000Y-17004000D02*
X16450000Y-17104000D01*
X16450000Y-17004000D02*
X16350000Y-17104000D01*
X16450000Y-17054000D02*
G75*
G03*
X16450000Y-17054000I-50000J0D01*
G01*
X16350000Y-17258000D02*
X16450000Y-17358000D01*
X16450000Y-17258000D02*
X16350000Y-17358000D01*
X16450000Y-17308000D02*
G75*
G03*
X16450000Y-17308000I-50000J0D01*
G01*
X17850000Y-16242000D02*
X17950000Y-16342000D01*
X17950000Y-16242000D02*
X17850000Y-16342000D01*
X17950000Y-16292000D02*
G75*
G03*
X17950000Y-16292000I-50000J0D01*
G01*
X17850000Y-16496000D02*
X17950000Y-16596000D01*
X17950000Y-16496000D02*
X17850000Y-16596000D01*
X17950000Y-16546000D02*
G75*
G03*
X17950000Y-16546000I-50000J0D01*
G01*
X17850000Y-16750000D02*
X17950000Y-16850000D01*
X17950000Y-16750000D02*
X17850000Y-16850000D01*
X17950000Y-16800000D02*
G75*
G03*
X17950000Y-16800000I-50000J0D01*
G01*
X17850000Y-17004000D02*
X17950000Y-17104000D01*
X17950000Y-17004000D02*
X17850000Y-17104000D01*
X17950000Y-17054000D02*
G75*
G03*
X17950000Y-17054000I-50000J0D01*
G01*
X17850000Y-17258000D02*
X17950000Y-17358000D01*
X17950000Y-17258000D02*
X17850000Y-17358000D01*
X17950000Y-17308000D02*
G75*
G03*
X17950000Y-17308000I-50000J0D01*
G01*
X18150000Y-13769000D02*
X18250000Y-13869000D01*
X18250000Y-13769000D02*
X18150000Y-13869000D01*
X18250000Y-13819000D02*
G75*
G03*
X18250000Y-13819000I-50000J0D01*
G01*
X18150000Y-14023000D02*
X18250000Y-14123000D01*
X18250000Y-14023000D02*
X18150000Y-14123000D01*
X18250000Y-14073000D02*
G75*
G03*
X18250000Y-14073000I-50000J0D01*
G01*
X18150000Y-14277000D02*
X18250000Y-14377000D01*
X18250000Y-14277000D02*
X18150000Y-14377000D01*
X18250000Y-14327000D02*
G75*
G03*
X18250000Y-14327000I-50000J0D01*
G01*
X18150000Y-14531000D02*
X18250000Y-14631000D01*
X18250000Y-14531000D02*
X18150000Y-14631000D01*
X18250000Y-14581000D02*
G75*
G03*
X18250000Y-14581000I-50000J0D01*
G01*
X19450000Y-16242000D02*
X19550000Y-16342000D01*
X19550000Y-16242000D02*
X19450000Y-16342000D01*
X19550000Y-16292000D02*
G75*
G03*
X19550000Y-16292000I-50000J0D01*
G01*
X19450000Y-16496000D02*
X19550000Y-16596000D01*
X19550000Y-16496000D02*
X19450000Y-16596000D01*
X19550000Y-16546000D02*
G75*
G03*
X19550000Y-16546000I-50000J0D01*
G01*
X19450000Y-16750000D02*
X19550000Y-16850000D01*
X19550000Y-16750000D02*
X19450000Y-16850000D01*
X19550000Y-16800000D02*
G75*
G03*
X19550000Y-16800000I-50000J0D01*
G01*
X19450000Y-17004000D02*
X19550000Y-17104000D01*
X19550000Y-17004000D02*
X19450000Y-17104000D01*
X19550000Y-17054000D02*
G75*
G03*
X19550000Y-17054000I-50000J0D01*
G01*
X19450000Y-17258000D02*
X19550000Y-17358000D01*
X19550000Y-17258000D02*
X19450000Y-17358000D01*
X19550000Y-17308000D02*
G75*
G03*
X19550000Y-17308000I-50000J0D01*
G01*
X19869000Y-5839500D02*
X19969000Y-5939500D01*
X19969000Y-5839500D02*
X19869000Y-5939500D01*
X19969000Y-5889500D02*
G75*
G03*
X19969000Y-5889500I-50000J0D01*
G01*
X19869000Y-6093500D02*
X19969000Y-6193500D01*
X19969000Y-6093500D02*
X19869000Y-6193500D01*
X19969000Y-6143500D02*
G75*
G03*
X19969000Y-6143500I-50000J0D01*
G01*
X19869000Y-6347500D02*
X19969000Y-6447500D01*
X19969000Y-6347500D02*
X19869000Y-6447500D01*
X19969000Y-6397500D02*
G75*
G03*
X19969000Y-6397500I-50000J0D01*
G01*
X19869000Y-6601500D02*
X19969000Y-6701500D01*
X19969000Y-6601500D02*
X19869000Y-6701500D01*
X19969000Y-6651500D02*
G75*
G03*
X19969000Y-6651500I-50000J0D01*
G01*
X19869000Y-6855500D02*
X19969000Y-6955500D01*
X19969000Y-6855500D02*
X19869000Y-6955500D01*
X19969000Y-6905500D02*
G75*
G03*
X19969000Y-6905500I-50000J0D01*
G01*
X20631000Y-5839500D02*
X20731000Y-5939500D01*
X20731000Y-5839500D02*
X20631000Y-5939500D01*
X20731000Y-5889500D02*
G75*
G03*
X20731000Y-5889500I-50000J0D01*
G01*
X20631000Y-6093500D02*
X20731000Y-6193500D01*
X20731000Y-6093500D02*
X20631000Y-6193500D01*
X20731000Y-6143500D02*
G75*
G03*
X20731000Y-6143500I-50000J0D01*
G01*
X20631000Y-6347500D02*
X20731000Y-6447500D01*
X20731000Y-6347500D02*
X20631000Y-6447500D01*
X20731000Y-6397500D02*
G75*
G03*
X20731000Y-6397500I-50000J0D01*
G01*
X20631000Y-6601500D02*
X20731000Y-6701500D01*
X20731000Y-6601500D02*
X20631000Y-6701500D01*
X20731000Y-6651500D02*
G75*
G03*
X20731000Y-6651500I-50000J0D01*
G01*
X20631000Y-6855500D02*
X20731000Y-6955500D01*
X20731000Y-6855500D02*
X20631000Y-6955500D01*
X20731000Y-6905500D02*
G75*
G03*
X20731000Y-6905500I-50000J0D01*
G01*
X21050000Y-16242000D02*
X21150000Y-16342000D01*
X21150000Y-16242000D02*
X21050000Y-16342000D01*
X21150000Y-16292000D02*
G75*
G03*
X21150000Y-16292000I-50000J0D01*
G01*
X21050000Y-16496000D02*
X21150000Y-16596000D01*
X21150000Y-16496000D02*
X21050000Y-16596000D01*
X21150000Y-16546000D02*
G75*
G03*
X21150000Y-16546000I-50000J0D01*
G01*
X21050000Y-16750000D02*
X21150000Y-16850000D01*
X21150000Y-16750000D02*
X21050000Y-16850000D01*
X21150000Y-16800000D02*
G75*
G03*
X21150000Y-16800000I-50000J0D01*
G01*
X21050000Y-17004000D02*
X21150000Y-17104000D01*
X21150000Y-17004000D02*
X21050000Y-17104000D01*
X21150000Y-17054000D02*
G75*
G03*
X21150000Y-17054000I-50000J0D01*
G01*
X21050000Y-17258000D02*
X21150000Y-17358000D01*
X21150000Y-17258000D02*
X21050000Y-17358000D01*
X21150000Y-17308000D02*
G75*
G03*
X21150000Y-17308000I-50000J0D01*
G01*
X21319000Y-5839500D02*
X21419000Y-5939500D01*
X21419000Y-5839500D02*
X21319000Y-5939500D01*
X21419000Y-5889500D02*
G75*
G03*
X21419000Y-5889500I-50000J0D01*
G01*
X21319000Y-6093500D02*
X21419000Y-6193500D01*
X21419000Y-6093500D02*
X21319000Y-6193500D01*
X21419000Y-6143500D02*
G75*
G03*
X21419000Y-6143500I-50000J0D01*
G01*
X21319000Y-6347500D02*
X21419000Y-6447500D01*
X21419000Y-6347500D02*
X21319000Y-6447500D01*
X21419000Y-6397500D02*
G75*
G03*
X21419000Y-6397500I-50000J0D01*
G01*
X21319000Y-6601500D02*
X21419000Y-6701500D01*
X21419000Y-6601500D02*
X21319000Y-6701500D01*
X21419000Y-6651500D02*
G75*
G03*
X21419000Y-6651500I-50000J0D01*
G01*
X21319000Y-6855500D02*
X21419000Y-6955500D01*
X21419000Y-6855500D02*
X21319000Y-6955500D01*
X21419000Y-6905500D02*
G75*
G03*
X21419000Y-6905500I-50000J0D01*
G01*
X22081000Y-5839500D02*
X22181000Y-5939500D01*
X22181000Y-5839500D02*
X22081000Y-5939500D01*
X22181000Y-5889500D02*
G75*
G03*
X22181000Y-5889500I-50000J0D01*
G01*
X22081000Y-6093500D02*
X22181000Y-6193500D01*
X22181000Y-6093500D02*
X22081000Y-6193500D01*
X22181000Y-6143500D02*
G75*
G03*
X22181000Y-6143500I-50000J0D01*
G01*
X22081000Y-6347500D02*
X22181000Y-6447500D01*
X22181000Y-6347500D02*
X22081000Y-6447500D01*
X22181000Y-6397500D02*
G75*
G03*
X22181000Y-6397500I-50000J0D01*
G01*
X22081000Y-6601500D02*
X22181000Y-6701500D01*
X22181000Y-6601500D02*
X22081000Y-6701500D01*
X22181000Y-6651500D02*
G75*
G03*
X22181000Y-6651500I-50000J0D01*
G01*
X22081000Y-6855500D02*
X22181000Y-6955500D01*
X22181000Y-6855500D02*
X22081000Y-6955500D01*
X22181000Y-6905500D02*
G75*
G03*
X22181000Y-6905500I-50000J0D01*
G01*
X22650000Y-16242000D02*
X22750000Y-16342000D01*
X22750000Y-16242000D02*
X22650000Y-16342000D01*
X22750000Y-16292000D02*
G75*
G03*
X22750000Y-16292000I-50000J0D01*
G01*
X22650000Y-16496000D02*
X22750000Y-16596000D01*
X22750000Y-16496000D02*
X22650000Y-16596000D01*
X22750000Y-16546000D02*
G75*
G03*
X22750000Y-16546000I-50000J0D01*
G01*
X22650000Y-16750000D02*
X22750000Y-16850000D01*
X22750000Y-16750000D02*
X22650000Y-16850000D01*
X22750000Y-16800000D02*
G75*
G03*
X22750000Y-16800000I-50000J0D01*
G01*
X22650000Y-17004000D02*
X22750000Y-17104000D01*
X22750000Y-17004000D02*
X22650000Y-17104000D01*
X22750000Y-17054000D02*
G75*
G03*
X22750000Y-17054000I-50000J0D01*
G01*
X22650000Y-17258000D02*
X22750000Y-17358000D01*
X22750000Y-17258000D02*
X22650000Y-17358000D01*
X22750000Y-17308000D02*
G75*
G03*
X22750000Y-17308000I-50000J0D01*
G01*
D17*
X14775750Y-15951250D02*
X14895750Y-16071250D01*
X14895750Y-15951250D02*
X14775750Y-16071250D01*
X14835750Y-15951250D02*
X14835750Y-16071250D01*
X14775750Y-16011250D02*
X14895750Y-16011250D01*
X14775750Y-16332250D02*
X14895750Y-16452250D01*
X14895750Y-16332250D02*
X14775750Y-16452250D01*
X14835750Y-16332250D02*
X14835750Y-16452250D01*
X14775750Y-16392250D02*
X14895750Y-16392250D01*
X14775750Y-17551250D02*
X14895750Y-17671250D01*
X14895750Y-17551250D02*
X14775750Y-17671250D01*
X14835750Y-17551250D02*
X14835750Y-17671250D01*
X14775750Y-17611250D02*
X14895750Y-17611250D01*
X14775750Y-17932250D02*
X14895750Y-18052250D01*
X14895750Y-17932250D02*
X14775750Y-18052250D01*
X14835750Y-17932250D02*
X14835750Y-18052250D01*
X14775750Y-17992250D02*
X14895750Y-17992250D01*
D18*
X5325000Y-5325000D02*
X5675000Y-5675000D01*
X5675000Y-5325000D02*
X5325000Y-5675000D01*
X5623745Y-5623745D02*
X5623745Y-5376255D01*
X5376255Y-5376255D01*
X5376255Y-5623745D01*
X5623745Y-5623745D01*
X5325000Y-17825000D02*
X5675000Y-18175000D01*
X5675000Y-17825000D02*
X5325000Y-18175000D01*
X5623745Y-18123745D02*
X5623745Y-17876255D01*
X5376255Y-17876255D01*
X5376255Y-18123745D01*
X5623745Y-18123745D01*
X11325000Y-12325000D02*
X11675000Y-12675000D01*
X11675000Y-12325000D02*
X11325000Y-12675000D01*
X11623745Y-12623745D02*
X11623745Y-12376255D01*
X11376255Y-12376255D01*
X11376255Y-12623745D01*
X11623745Y-12623745D01*
X13325000Y-17825000D02*
X13675000Y-18175000D01*
X13675000Y-17825000D02*
X13325000Y-18175000D01*
X13623745Y-18123745D02*
X13623745Y-17876255D01*
X13376255Y-17876255D01*
X13376255Y-18123745D01*
X13623745Y-18123745D01*
X15525000Y-5225000D02*
X15875000Y-5575000D01*
X15875000Y-5225000D02*
X15525000Y-5575000D01*
X15823745Y-5523745D02*
X15823745Y-5276255D01*
X15576255Y-5276255D01*
X15576255Y-5523745D01*
X15823745Y-5523745D01*
X21325000Y-13825000D02*
X21675000Y-14175000D01*
X21675000Y-13825000D02*
X21325000Y-14175000D01*
X21623745Y-14123745D02*
X21623745Y-13876255D01*
X21376255Y-13876255D01*
X21376255Y-14123745D01*
X21623745Y-14123745D01*
X23325000Y-5325000D02*
X23675000Y-5675000D01*
X23675000Y-5325000D02*
X23325000Y-5675000D01*
X23623745Y-5623745D02*
X23623745Y-5376255D01*
X23376255Y-5376255D01*
X23376255Y-5623745D01*
X23623745Y-5623745D01*
X23325000Y-17825000D02*
X23675000Y-18175000D01*
X23675000Y-17825000D02*
X23325000Y-18175000D01*
X23623745Y-18123745D02*
X23623745Y-17876255D01*
X23376255Y-17876255D01*
X23376255Y-18123745D01*
X23623745Y-18123745D01*
D11*
X5242619Y-18817524D02*
X5242619Y-18617524D01*
X5242619Y-18617524D02*
X5290238Y-18617524D01*
X5290238Y-18617524D02*
X5318810Y-18627048D01*
X5318810Y-18627048D02*
X5337857Y-18646095D01*
X5337857Y-18646095D02*
X5347381Y-18665143D01*
X5347381Y-18665143D02*
X5356905Y-18703238D01*
X5356905Y-18703238D02*
X5356905Y-18731810D01*
X5356905Y-18731810D02*
X5347381Y-18769905D01*
X5347381Y-18769905D02*
X5337857Y-18788952D01*
X5337857Y-18788952D02*
X5318810Y-18808000D01*
X5318810Y-18808000D02*
X5290238Y-18817524D01*
X5290238Y-18817524D02*
X5242619Y-18817524D01*
X5442619Y-18817524D02*
X5442619Y-18684190D01*
X5442619Y-18722286D02*
X5452143Y-18703238D01*
X5452143Y-18703238D02*
X5461667Y-18693714D01*
X5461667Y-18693714D02*
X5480714Y-18684190D01*
X5480714Y-18684190D02*
X5499762Y-18684190D01*
X5566429Y-18817524D02*
X5566429Y-18684190D01*
X5566429Y-18617524D02*
X5556905Y-18627048D01*
X5556905Y-18627048D02*
X5566429Y-18636571D01*
X5566429Y-18636571D02*
X5575952Y-18627048D01*
X5575952Y-18627048D02*
X5566429Y-18617524D01*
X5566429Y-18617524D02*
X5566429Y-18636571D01*
X5690238Y-18817524D02*
X5671190Y-18808000D01*
X5671190Y-18808000D02*
X5661667Y-18788952D01*
X5661667Y-18788952D02*
X5661667Y-18617524D01*
X5795000Y-18817524D02*
X5775952Y-18808000D01*
X5775952Y-18808000D02*
X5766428Y-18788952D01*
X5766428Y-18788952D02*
X5766428Y-18617524D01*
X6023571Y-18817524D02*
X6023571Y-18617524D01*
X6023571Y-18617524D02*
X6090238Y-18760381D01*
X6090238Y-18760381D02*
X6156905Y-18617524D01*
X6156905Y-18617524D02*
X6156905Y-18817524D01*
X6337857Y-18817524D02*
X6337857Y-18712762D01*
X6337857Y-18712762D02*
X6328333Y-18693714D01*
X6328333Y-18693714D02*
X6309286Y-18684190D01*
X6309286Y-18684190D02*
X6271190Y-18684190D01*
X6271190Y-18684190D02*
X6252143Y-18693714D01*
X6337857Y-18808000D02*
X6318809Y-18817524D01*
X6318809Y-18817524D02*
X6271190Y-18817524D01*
X6271190Y-18817524D02*
X6252143Y-18808000D01*
X6252143Y-18808000D02*
X6242619Y-18788952D01*
X6242619Y-18788952D02*
X6242619Y-18769905D01*
X6242619Y-18769905D02*
X6252143Y-18750857D01*
X6252143Y-18750857D02*
X6271190Y-18741333D01*
X6271190Y-18741333D02*
X6318809Y-18741333D01*
X6318809Y-18741333D02*
X6337857Y-18731810D01*
X6433095Y-18684190D02*
X6433095Y-18884190D01*
X6433095Y-18693714D02*
X6452143Y-18684190D01*
X6452143Y-18684190D02*
X6490238Y-18684190D01*
X6490238Y-18684190D02*
X6509286Y-18693714D01*
X6509286Y-18693714D02*
X6518809Y-18703238D01*
X6518809Y-18703238D02*
X6528333Y-18722286D01*
X6528333Y-18722286D02*
X6528333Y-18779429D01*
X6528333Y-18779429D02*
X6518809Y-18798476D01*
X6518809Y-18798476D02*
X6509286Y-18808000D01*
X6509286Y-18808000D02*
X6490238Y-18817524D01*
X6490238Y-18817524D02*
X6452143Y-18817524D01*
X6452143Y-18817524D02*
X6433095Y-18808000D01*
X6614048Y-18798476D02*
X6623571Y-18808000D01*
X6623571Y-18808000D02*
X6614048Y-18817524D01*
X6614048Y-18817524D02*
X6604524Y-18808000D01*
X6604524Y-18808000D02*
X6614048Y-18798476D01*
X6614048Y-18798476D02*
X6614048Y-18817524D01*
X6614048Y-18693714D02*
X6623571Y-18703238D01*
X6623571Y-18703238D02*
X6614048Y-18712762D01*
X6614048Y-18712762D02*
X6604524Y-18703238D01*
X6604524Y-18703238D02*
X6614048Y-18693714D01*
X6614048Y-18693714D02*
X6614048Y-18712762D01*
D12*
X4970000Y-19132500D02*
X4995000Y-19157500D01*
X4995000Y-19132500D02*
X4970000Y-19157500D01*
D11*
X5280714Y-19037524D02*
X5299762Y-19037524D01*
X5299762Y-19037524D02*
X5318810Y-19047048D01*
X5318810Y-19047048D02*
X5328333Y-19056571D01*
X5328333Y-19056571D02*
X5337857Y-19075619D01*
X5337857Y-19075619D02*
X5347381Y-19113714D01*
X5347381Y-19113714D02*
X5347381Y-19161333D01*
X5347381Y-19161333D02*
X5337857Y-19199429D01*
X5337857Y-19199429D02*
X5328333Y-19218476D01*
X5328333Y-19218476D02*
X5318810Y-19228000D01*
X5318810Y-19228000D02*
X5299762Y-19237524D01*
X5299762Y-19237524D02*
X5280714Y-19237524D01*
X5280714Y-19237524D02*
X5261667Y-19228000D01*
X5261667Y-19228000D02*
X5252143Y-19218476D01*
X5252143Y-19218476D02*
X5242619Y-19199429D01*
X5242619Y-19199429D02*
X5233095Y-19161333D01*
X5233095Y-19161333D02*
X5233095Y-19113714D01*
X5233095Y-19113714D02*
X5242619Y-19075619D01*
X5242619Y-19075619D02*
X5252143Y-19056571D01*
X5252143Y-19056571D02*
X5261667Y-19047048D01*
X5261667Y-19047048D02*
X5280714Y-19037524D01*
X5433095Y-19218476D02*
X5442619Y-19228000D01*
X5442619Y-19228000D02*
X5433095Y-19237524D01*
X5433095Y-19237524D02*
X5423571Y-19228000D01*
X5423571Y-19228000D02*
X5433095Y-19218476D01*
X5433095Y-19218476D02*
X5433095Y-19237524D01*
X5518810Y-19056571D02*
X5528333Y-19047048D01*
X5528333Y-19047048D02*
X5547381Y-19037524D01*
X5547381Y-19037524D02*
X5595000Y-19037524D01*
X5595000Y-19037524D02*
X5614048Y-19047048D01*
X5614048Y-19047048D02*
X5623571Y-19056571D01*
X5623571Y-19056571D02*
X5633095Y-19075619D01*
X5633095Y-19075619D02*
X5633095Y-19094667D01*
X5633095Y-19094667D02*
X5623571Y-19123238D01*
X5623571Y-19123238D02*
X5509286Y-19237524D01*
X5509286Y-19237524D02*
X5633095Y-19237524D01*
X5814048Y-19037524D02*
X5718809Y-19037524D01*
X5718809Y-19037524D02*
X5709286Y-19132762D01*
X5709286Y-19132762D02*
X5718809Y-19123238D01*
X5718809Y-19123238D02*
X5737857Y-19113714D01*
X5737857Y-19113714D02*
X5785476Y-19113714D01*
X5785476Y-19113714D02*
X5804524Y-19123238D01*
X5804524Y-19123238D02*
X5814048Y-19132762D01*
X5814048Y-19132762D02*
X5823571Y-19151810D01*
X5823571Y-19151810D02*
X5823571Y-19199429D01*
X5823571Y-19199429D02*
X5814048Y-19218476D01*
X5814048Y-19218476D02*
X5804524Y-19228000D01*
X5804524Y-19228000D02*
X5785476Y-19237524D01*
X5785476Y-19237524D02*
X5737857Y-19237524D01*
X5737857Y-19237524D02*
X5718809Y-19228000D01*
X5718809Y-19228000D02*
X5709286Y-19218476D01*
X5947381Y-19037524D02*
X5966429Y-19037524D01*
X5966429Y-19037524D02*
X5985476Y-19047048D01*
X5985476Y-19047048D02*
X5995000Y-19056571D01*
X5995000Y-19056571D02*
X6004524Y-19075619D01*
X6004524Y-19075619D02*
X6014048Y-19113714D01*
X6014048Y-19113714D02*
X6014048Y-19161333D01*
X6014048Y-19161333D02*
X6004524Y-19199429D01*
X6004524Y-19199429D02*
X5995000Y-19218476D01*
X5995000Y-19218476D02*
X5985476Y-19228000D01*
X5985476Y-19228000D02*
X5966429Y-19237524D01*
X5966429Y-19237524D02*
X5947381Y-19237524D01*
X5947381Y-19237524D02*
X5928333Y-19228000D01*
X5928333Y-19228000D02*
X5918809Y-19218476D01*
X5918809Y-19218476D02*
X5909286Y-19199429D01*
X5909286Y-19199429D02*
X5899762Y-19161333D01*
X5899762Y-19161333D02*
X5899762Y-19113714D01*
X5899762Y-19113714D02*
X5909286Y-19075619D01*
X5909286Y-19075619D02*
X5918809Y-19056571D01*
X5918809Y-19056571D02*
X5928333Y-19047048D01*
X5928333Y-19047048D02*
X5947381Y-19037524D01*
X6099762Y-19237524D02*
X6099762Y-19104190D01*
X6099762Y-19123238D02*
X6109286Y-19113714D01*
X6109286Y-19113714D02*
X6128333Y-19104190D01*
X6128333Y-19104190D02*
X6156905Y-19104190D01*
X6156905Y-19104190D02*
X6175952Y-19113714D01*
X6175952Y-19113714D02*
X6185476Y-19132762D01*
X6185476Y-19132762D02*
X6185476Y-19237524D01*
X6185476Y-19132762D02*
X6195000Y-19113714D01*
X6195000Y-19113714D02*
X6214048Y-19104190D01*
X6214048Y-19104190D02*
X6242619Y-19104190D01*
X6242619Y-19104190D02*
X6261667Y-19113714D01*
X6261667Y-19113714D02*
X6271190Y-19132762D01*
X6271190Y-19132762D02*
X6271190Y-19237524D01*
X6366429Y-19237524D02*
X6366429Y-19104190D01*
X6366429Y-19123238D02*
X6375952Y-19113714D01*
X6375952Y-19113714D02*
X6395000Y-19104190D01*
X6395000Y-19104190D02*
X6423571Y-19104190D01*
X6423571Y-19104190D02*
X6442619Y-19113714D01*
X6442619Y-19113714D02*
X6452143Y-19132762D01*
X6452143Y-19132762D02*
X6452143Y-19237524D01*
X6452143Y-19132762D02*
X6461667Y-19113714D01*
X6461667Y-19113714D02*
X6480714Y-19104190D01*
X6480714Y-19104190D02*
X6509286Y-19104190D01*
X6509286Y-19104190D02*
X6528333Y-19113714D01*
X6528333Y-19113714D02*
X6537857Y-19132762D01*
X6537857Y-19132762D02*
X6537857Y-19237524D01*
X6928333Y-19028000D02*
X6756905Y-19285143D01*
X7185476Y-19037524D02*
X7204524Y-19037524D01*
X7204524Y-19037524D02*
X7223572Y-19047048D01*
X7223572Y-19047048D02*
X7233095Y-19056571D01*
X7233095Y-19056571D02*
X7242619Y-19075619D01*
X7242619Y-19075619D02*
X7252143Y-19113714D01*
X7252143Y-19113714D02*
X7252143Y-19161333D01*
X7252143Y-19161333D02*
X7242619Y-19199429D01*
X7242619Y-19199429D02*
X7233095Y-19218476D01*
X7233095Y-19218476D02*
X7223572Y-19228000D01*
X7223572Y-19228000D02*
X7204524Y-19237524D01*
X7204524Y-19237524D02*
X7185476Y-19237524D01*
X7185476Y-19237524D02*
X7166429Y-19228000D01*
X7166429Y-19228000D02*
X7156905Y-19218476D01*
X7156905Y-19218476D02*
X7147381Y-19199429D01*
X7147381Y-19199429D02*
X7137857Y-19161333D01*
X7137857Y-19161333D02*
X7137857Y-19113714D01*
X7137857Y-19113714D02*
X7147381Y-19075619D01*
X7147381Y-19075619D02*
X7156905Y-19056571D01*
X7156905Y-19056571D02*
X7166429Y-19047048D01*
X7166429Y-19047048D02*
X7185476Y-19037524D01*
X7337857Y-19218476D02*
X7347381Y-19228000D01*
X7347381Y-19228000D02*
X7337857Y-19237524D01*
X7337857Y-19237524D02*
X7328333Y-19228000D01*
X7328333Y-19228000D02*
X7337857Y-19218476D01*
X7337857Y-19218476D02*
X7337857Y-19237524D01*
X7471191Y-19037524D02*
X7490238Y-19037524D01*
X7490238Y-19037524D02*
X7509286Y-19047048D01*
X7509286Y-19047048D02*
X7518810Y-19056571D01*
X7518810Y-19056571D02*
X7528333Y-19075619D01*
X7528333Y-19075619D02*
X7537857Y-19113714D01*
X7537857Y-19113714D02*
X7537857Y-19161333D01*
X7537857Y-19161333D02*
X7528333Y-19199429D01*
X7528333Y-19199429D02*
X7518810Y-19218476D01*
X7518810Y-19218476D02*
X7509286Y-19228000D01*
X7509286Y-19228000D02*
X7490238Y-19237524D01*
X7490238Y-19237524D02*
X7471191Y-19237524D01*
X7471191Y-19237524D02*
X7452143Y-19228000D01*
X7452143Y-19228000D02*
X7442619Y-19218476D01*
X7442619Y-19218476D02*
X7433095Y-19199429D01*
X7433095Y-19199429D02*
X7423572Y-19161333D01*
X7423572Y-19161333D02*
X7423572Y-19113714D01*
X7423572Y-19113714D02*
X7433095Y-19075619D01*
X7433095Y-19075619D02*
X7442619Y-19056571D01*
X7442619Y-19056571D02*
X7452143Y-19047048D01*
X7452143Y-19047048D02*
X7471191Y-19037524D01*
X7661667Y-19037524D02*
X7680714Y-19037524D01*
X7680714Y-19037524D02*
X7699762Y-19047048D01*
X7699762Y-19047048D02*
X7709286Y-19056571D01*
X7709286Y-19056571D02*
X7718810Y-19075619D01*
X7718810Y-19075619D02*
X7728333Y-19113714D01*
X7728333Y-19113714D02*
X7728333Y-19161333D01*
X7728333Y-19161333D02*
X7718810Y-19199429D01*
X7718810Y-19199429D02*
X7709286Y-19218476D01*
X7709286Y-19218476D02*
X7699762Y-19228000D01*
X7699762Y-19228000D02*
X7680714Y-19237524D01*
X7680714Y-19237524D02*
X7661667Y-19237524D01*
X7661667Y-19237524D02*
X7642619Y-19228000D01*
X7642619Y-19228000D02*
X7633095Y-19218476D01*
X7633095Y-19218476D02*
X7623572Y-19199429D01*
X7623572Y-19199429D02*
X7614048Y-19161333D01*
X7614048Y-19161333D02*
X7614048Y-19113714D01*
X7614048Y-19113714D02*
X7623572Y-19075619D01*
X7623572Y-19075619D02*
X7633095Y-19056571D01*
X7633095Y-19056571D02*
X7642619Y-19047048D01*
X7642619Y-19047048D02*
X7661667Y-19037524D01*
X7823572Y-19237524D02*
X7861667Y-19237524D01*
X7861667Y-19237524D02*
X7880714Y-19228000D01*
X7880714Y-19228000D02*
X7890238Y-19218476D01*
X7890238Y-19218476D02*
X7909286Y-19189905D01*
X7909286Y-19189905D02*
X7918810Y-19151810D01*
X7918810Y-19151810D02*
X7918810Y-19075619D01*
X7918810Y-19075619D02*
X7909286Y-19056571D01*
X7909286Y-19056571D02*
X7899762Y-19047048D01*
X7899762Y-19047048D02*
X7880714Y-19037524D01*
X7880714Y-19037524D02*
X7842619Y-19037524D01*
X7842619Y-19037524D02*
X7823572Y-19047048D01*
X7823572Y-19047048D02*
X7814048Y-19056571D01*
X7814048Y-19056571D02*
X7804524Y-19075619D01*
X7804524Y-19075619D02*
X7804524Y-19123238D01*
X7804524Y-19123238D02*
X7814048Y-19142286D01*
X7814048Y-19142286D02*
X7823572Y-19151810D01*
X7823572Y-19151810D02*
X7842619Y-19161333D01*
X7842619Y-19161333D02*
X7880714Y-19161333D01*
X7880714Y-19161333D02*
X7899762Y-19151810D01*
X7899762Y-19151810D02*
X7909286Y-19142286D01*
X7909286Y-19142286D02*
X7918810Y-19123238D01*
X8033095Y-19123238D02*
X8014048Y-19113714D01*
X8014048Y-19113714D02*
X8004524Y-19104190D01*
X8004524Y-19104190D02*
X7995000Y-19085143D01*
X7995000Y-19085143D02*
X7995000Y-19075619D01*
X7995000Y-19075619D02*
X8004524Y-19056571D01*
X8004524Y-19056571D02*
X8014048Y-19047048D01*
X8014048Y-19047048D02*
X8033095Y-19037524D01*
X8033095Y-19037524D02*
X8071191Y-19037524D01*
X8071191Y-19037524D02*
X8090238Y-19047048D01*
X8090238Y-19047048D02*
X8099762Y-19056571D01*
X8099762Y-19056571D02*
X8109286Y-19075619D01*
X8109286Y-19075619D02*
X8109286Y-19085143D01*
X8109286Y-19085143D02*
X8099762Y-19104190D01*
X8099762Y-19104190D02*
X8090238Y-19113714D01*
X8090238Y-19113714D02*
X8071191Y-19123238D01*
X8071191Y-19123238D02*
X8033095Y-19123238D01*
X8033095Y-19123238D02*
X8014048Y-19132762D01*
X8014048Y-19132762D02*
X8004524Y-19142286D01*
X8004524Y-19142286D02*
X7995000Y-19161333D01*
X7995000Y-19161333D02*
X7995000Y-19199429D01*
X7995000Y-19199429D02*
X8004524Y-19218476D01*
X8004524Y-19218476D02*
X8014048Y-19228000D01*
X8014048Y-19228000D02*
X8033095Y-19237524D01*
X8033095Y-19237524D02*
X8071191Y-19237524D01*
X8071191Y-19237524D02*
X8090238Y-19228000D01*
X8090238Y-19228000D02*
X8099762Y-19218476D01*
X8099762Y-19218476D02*
X8109286Y-19199429D01*
X8109286Y-19199429D02*
X8109286Y-19161333D01*
X8109286Y-19161333D02*
X8099762Y-19142286D01*
X8099762Y-19142286D02*
X8090238Y-19132762D01*
X8090238Y-19132762D02*
X8071191Y-19123238D01*
X8185476Y-19037524D02*
X8185476Y-19075619D01*
X8261667Y-19037524D02*
X8261667Y-19075619D01*
X8556905Y-19313714D02*
X8547381Y-19304190D01*
X8547381Y-19304190D02*
X8528334Y-19275619D01*
X8528334Y-19275619D02*
X8518810Y-19256571D01*
X8518810Y-19256571D02*
X8509286Y-19228000D01*
X8509286Y-19228000D02*
X8499762Y-19180381D01*
X8499762Y-19180381D02*
X8499762Y-19142286D01*
X8499762Y-19142286D02*
X8509286Y-19094667D01*
X8509286Y-19094667D02*
X8518810Y-19066095D01*
X8518810Y-19066095D02*
X8528334Y-19047048D01*
X8528334Y-19047048D02*
X8547381Y-19018476D01*
X8547381Y-19018476D02*
X8556905Y-19008952D01*
X8614048Y-19037524D02*
X8737857Y-19037524D01*
X8737857Y-19037524D02*
X8671191Y-19113714D01*
X8671191Y-19113714D02*
X8699762Y-19113714D01*
X8699762Y-19113714D02*
X8718810Y-19123238D01*
X8718810Y-19123238D02*
X8728334Y-19132762D01*
X8728334Y-19132762D02*
X8737857Y-19151810D01*
X8737857Y-19151810D02*
X8737857Y-19199429D01*
X8737857Y-19199429D02*
X8728334Y-19218476D01*
X8728334Y-19218476D02*
X8718810Y-19228000D01*
X8718810Y-19228000D02*
X8699762Y-19237524D01*
X8699762Y-19237524D02*
X8642619Y-19237524D01*
X8642619Y-19237524D02*
X8623572Y-19228000D01*
X8623572Y-19228000D02*
X8614048Y-19218476D01*
X8833096Y-19237524D02*
X8871191Y-19237524D01*
X8871191Y-19237524D02*
X8890238Y-19228000D01*
X8890238Y-19228000D02*
X8899762Y-19218476D01*
X8899762Y-19218476D02*
X8918810Y-19189905D01*
X8918810Y-19189905D02*
X8928334Y-19151810D01*
X8928334Y-19151810D02*
X8928334Y-19075619D01*
X8928334Y-19075619D02*
X8918810Y-19056571D01*
X8918810Y-19056571D02*
X8909286Y-19047048D01*
X8909286Y-19047048D02*
X8890238Y-19037524D01*
X8890238Y-19037524D02*
X8852143Y-19037524D01*
X8852143Y-19037524D02*
X8833096Y-19047048D01*
X8833096Y-19047048D02*
X8823572Y-19056571D01*
X8823572Y-19056571D02*
X8814048Y-19075619D01*
X8814048Y-19075619D02*
X8814048Y-19123238D01*
X8814048Y-19123238D02*
X8823572Y-19142286D01*
X8823572Y-19142286D02*
X8833096Y-19151810D01*
X8833096Y-19151810D02*
X8852143Y-19161333D01*
X8852143Y-19161333D02*
X8890238Y-19161333D01*
X8890238Y-19161333D02*
X8909286Y-19151810D01*
X8909286Y-19151810D02*
X8918810Y-19142286D01*
X8918810Y-19142286D02*
X8928334Y-19123238D01*
X8995000Y-19037524D02*
X9118810Y-19037524D01*
X9118810Y-19037524D02*
X9052143Y-19113714D01*
X9052143Y-19113714D02*
X9080715Y-19113714D01*
X9080715Y-19113714D02*
X9099762Y-19123238D01*
X9099762Y-19123238D02*
X9109286Y-19132762D01*
X9109286Y-19132762D02*
X9118810Y-19151810D01*
X9118810Y-19151810D02*
X9118810Y-19199429D01*
X9118810Y-19199429D02*
X9109286Y-19218476D01*
X9109286Y-19218476D02*
X9099762Y-19228000D01*
X9099762Y-19228000D02*
X9080715Y-19237524D01*
X9080715Y-19237524D02*
X9023572Y-19237524D01*
X9023572Y-19237524D02*
X9004524Y-19228000D01*
X9004524Y-19228000D02*
X8995000Y-19218476D01*
X9356905Y-19237524D02*
X9356905Y-19037524D01*
X9442619Y-19237524D02*
X9442619Y-19132762D01*
X9442619Y-19132762D02*
X9433096Y-19113714D01*
X9433096Y-19113714D02*
X9414048Y-19104190D01*
X9414048Y-19104190D02*
X9385477Y-19104190D01*
X9385477Y-19104190D02*
X9366429Y-19113714D01*
X9366429Y-19113714D02*
X9356905Y-19123238D01*
X9566429Y-19237524D02*
X9547381Y-19228000D01*
X9547381Y-19228000D02*
X9537858Y-19218476D01*
X9537858Y-19218476D02*
X9528334Y-19199429D01*
X9528334Y-19199429D02*
X9528334Y-19142286D01*
X9528334Y-19142286D02*
X9537858Y-19123238D01*
X9537858Y-19123238D02*
X9547381Y-19113714D01*
X9547381Y-19113714D02*
X9566429Y-19104190D01*
X9566429Y-19104190D02*
X9595000Y-19104190D01*
X9595000Y-19104190D02*
X9614048Y-19113714D01*
X9614048Y-19113714D02*
X9623572Y-19123238D01*
X9623572Y-19123238D02*
X9633096Y-19142286D01*
X9633096Y-19142286D02*
X9633096Y-19199429D01*
X9633096Y-19199429D02*
X9623572Y-19218476D01*
X9623572Y-19218476D02*
X9614048Y-19228000D01*
X9614048Y-19228000D02*
X9595000Y-19237524D01*
X9595000Y-19237524D02*
X9566429Y-19237524D01*
X9747381Y-19237524D02*
X9728334Y-19228000D01*
X9728334Y-19228000D02*
X9718810Y-19208952D01*
X9718810Y-19208952D02*
X9718810Y-19037524D01*
X9899762Y-19228000D02*
X9880715Y-19237524D01*
X9880715Y-19237524D02*
X9842619Y-19237524D01*
X9842619Y-19237524D02*
X9823572Y-19228000D01*
X9823572Y-19228000D02*
X9814048Y-19208952D01*
X9814048Y-19208952D02*
X9814048Y-19132762D01*
X9814048Y-19132762D02*
X9823572Y-19113714D01*
X9823572Y-19113714D02*
X9842619Y-19104190D01*
X9842619Y-19104190D02*
X9880715Y-19104190D01*
X9880715Y-19104190D02*
X9899762Y-19113714D01*
X9899762Y-19113714D02*
X9909286Y-19132762D01*
X9909286Y-19132762D02*
X9909286Y-19151810D01*
X9909286Y-19151810D02*
X9814048Y-19170857D01*
X9985477Y-19228000D02*
X10004524Y-19237524D01*
X10004524Y-19237524D02*
X10042619Y-19237524D01*
X10042619Y-19237524D02*
X10061667Y-19228000D01*
X10061667Y-19228000D02*
X10071191Y-19208952D01*
X10071191Y-19208952D02*
X10071191Y-19199429D01*
X10071191Y-19199429D02*
X10061667Y-19180381D01*
X10061667Y-19180381D02*
X10042619Y-19170857D01*
X10042619Y-19170857D02*
X10014048Y-19170857D01*
X10014048Y-19170857D02*
X9995000Y-19161333D01*
X9995000Y-19161333D02*
X9985477Y-19142286D01*
X9985477Y-19142286D02*
X9985477Y-19132762D01*
X9985477Y-19132762D02*
X9995000Y-19113714D01*
X9995000Y-19113714D02*
X10014048Y-19104190D01*
X10014048Y-19104190D02*
X10042619Y-19104190D01*
X10042619Y-19104190D02*
X10061667Y-19113714D01*
X10137858Y-19313714D02*
X10147381Y-19304190D01*
X10147381Y-19304190D02*
X10166429Y-19275619D01*
X10166429Y-19275619D02*
X10175953Y-19256571D01*
X10175953Y-19256571D02*
X10185477Y-19228000D01*
X10185477Y-19228000D02*
X10195000Y-19180381D01*
X10195000Y-19180381D02*
X10195000Y-19142286D01*
X10195000Y-19142286D02*
X10185477Y-19094667D01*
X10185477Y-19094667D02*
X10175953Y-19066095D01*
X10175953Y-19066095D02*
X10166429Y-19047048D01*
X10166429Y-19047048D02*
X10147381Y-19018476D01*
X10147381Y-19018476D02*
X10137858Y-19008952D01*
D13*
X4995000Y-19409000D02*
G75*
G03*
X4995000Y-19409000I-25000J0D01*
G01*
D11*
X5280714Y-19301524D02*
X5299762Y-19301524D01*
X5299762Y-19301524D02*
X5318810Y-19311048D01*
X5318810Y-19311048D02*
X5328333Y-19320571D01*
X5328333Y-19320571D02*
X5337857Y-19339619D01*
X5337857Y-19339619D02*
X5347381Y-19377714D01*
X5347381Y-19377714D02*
X5347381Y-19425333D01*
X5347381Y-19425333D02*
X5337857Y-19463429D01*
X5337857Y-19463429D02*
X5328333Y-19482476D01*
X5328333Y-19482476D02*
X5318810Y-19492000D01*
X5318810Y-19492000D02*
X5299762Y-19501524D01*
X5299762Y-19501524D02*
X5280714Y-19501524D01*
X5280714Y-19501524D02*
X5261667Y-19492000D01*
X5261667Y-19492000D02*
X5252143Y-19482476D01*
X5252143Y-19482476D02*
X5242619Y-19463429D01*
X5242619Y-19463429D02*
X5233095Y-19425333D01*
X5233095Y-19425333D02*
X5233095Y-19377714D01*
X5233095Y-19377714D02*
X5242619Y-19339619D01*
X5242619Y-19339619D02*
X5252143Y-19320571D01*
X5252143Y-19320571D02*
X5261667Y-19311048D01*
X5261667Y-19311048D02*
X5280714Y-19301524D01*
X5433095Y-19482476D02*
X5442619Y-19492000D01*
X5442619Y-19492000D02*
X5433095Y-19501524D01*
X5433095Y-19501524D02*
X5423571Y-19492000D01*
X5423571Y-19492000D02*
X5433095Y-19482476D01*
X5433095Y-19482476D02*
X5433095Y-19501524D01*
X5623571Y-19301524D02*
X5528333Y-19301524D01*
X5528333Y-19301524D02*
X5518810Y-19396762D01*
X5518810Y-19396762D02*
X5528333Y-19387238D01*
X5528333Y-19387238D02*
X5547381Y-19377714D01*
X5547381Y-19377714D02*
X5595000Y-19377714D01*
X5595000Y-19377714D02*
X5614048Y-19387238D01*
X5614048Y-19387238D02*
X5623571Y-19396762D01*
X5623571Y-19396762D02*
X5633095Y-19415810D01*
X5633095Y-19415810D02*
X5633095Y-19463429D01*
X5633095Y-19463429D02*
X5623571Y-19482476D01*
X5623571Y-19482476D02*
X5614048Y-19492000D01*
X5614048Y-19492000D02*
X5595000Y-19501524D01*
X5595000Y-19501524D02*
X5547381Y-19501524D01*
X5547381Y-19501524D02*
X5528333Y-19492000D01*
X5528333Y-19492000D02*
X5518810Y-19482476D01*
X5756905Y-19301524D02*
X5775952Y-19301524D01*
X5775952Y-19301524D02*
X5795000Y-19311048D01*
X5795000Y-19311048D02*
X5804524Y-19320571D01*
X5804524Y-19320571D02*
X5814048Y-19339619D01*
X5814048Y-19339619D02*
X5823571Y-19377714D01*
X5823571Y-19377714D02*
X5823571Y-19425333D01*
X5823571Y-19425333D02*
X5814048Y-19463429D01*
X5814048Y-19463429D02*
X5804524Y-19482476D01*
X5804524Y-19482476D02*
X5795000Y-19492000D01*
X5795000Y-19492000D02*
X5775952Y-19501524D01*
X5775952Y-19501524D02*
X5756905Y-19501524D01*
X5756905Y-19501524D02*
X5737857Y-19492000D01*
X5737857Y-19492000D02*
X5728333Y-19482476D01*
X5728333Y-19482476D02*
X5718809Y-19463429D01*
X5718809Y-19463429D02*
X5709286Y-19425333D01*
X5709286Y-19425333D02*
X5709286Y-19377714D01*
X5709286Y-19377714D02*
X5718809Y-19339619D01*
X5718809Y-19339619D02*
X5728333Y-19320571D01*
X5728333Y-19320571D02*
X5737857Y-19311048D01*
X5737857Y-19311048D02*
X5756905Y-19301524D01*
X5947381Y-19301524D02*
X5966429Y-19301524D01*
X5966429Y-19301524D02*
X5985476Y-19311048D01*
X5985476Y-19311048D02*
X5995000Y-19320571D01*
X5995000Y-19320571D02*
X6004524Y-19339619D01*
X6004524Y-19339619D02*
X6014048Y-19377714D01*
X6014048Y-19377714D02*
X6014048Y-19425333D01*
X6014048Y-19425333D02*
X6004524Y-19463429D01*
X6004524Y-19463429D02*
X5995000Y-19482476D01*
X5995000Y-19482476D02*
X5985476Y-19492000D01*
X5985476Y-19492000D02*
X5966429Y-19501524D01*
X5966429Y-19501524D02*
X5947381Y-19501524D01*
X5947381Y-19501524D02*
X5928333Y-19492000D01*
X5928333Y-19492000D02*
X5918809Y-19482476D01*
X5918809Y-19482476D02*
X5909286Y-19463429D01*
X5909286Y-19463429D02*
X5899762Y-19425333D01*
X5899762Y-19425333D02*
X5899762Y-19377714D01*
X5899762Y-19377714D02*
X5909286Y-19339619D01*
X5909286Y-19339619D02*
X5918809Y-19320571D01*
X5918809Y-19320571D02*
X5928333Y-19311048D01*
X5928333Y-19311048D02*
X5947381Y-19301524D01*
X6099762Y-19501524D02*
X6099762Y-19368190D01*
X6099762Y-19387238D02*
X6109286Y-19377714D01*
X6109286Y-19377714D02*
X6128333Y-19368190D01*
X6128333Y-19368190D02*
X6156905Y-19368190D01*
X6156905Y-19368190D02*
X6175952Y-19377714D01*
X6175952Y-19377714D02*
X6185476Y-19396762D01*
X6185476Y-19396762D02*
X6185476Y-19501524D01*
X6185476Y-19396762D02*
X6195000Y-19377714D01*
X6195000Y-19377714D02*
X6214048Y-19368190D01*
X6214048Y-19368190D02*
X6242619Y-19368190D01*
X6242619Y-19368190D02*
X6261667Y-19377714D01*
X6261667Y-19377714D02*
X6271190Y-19396762D01*
X6271190Y-19396762D02*
X6271190Y-19501524D01*
X6366429Y-19501524D02*
X6366429Y-19368190D01*
X6366429Y-19387238D02*
X6375952Y-19377714D01*
X6375952Y-19377714D02*
X6395000Y-19368190D01*
X6395000Y-19368190D02*
X6423571Y-19368190D01*
X6423571Y-19368190D02*
X6442619Y-19377714D01*
X6442619Y-19377714D02*
X6452143Y-19396762D01*
X6452143Y-19396762D02*
X6452143Y-19501524D01*
X6452143Y-19396762D02*
X6461667Y-19377714D01*
X6461667Y-19377714D02*
X6480714Y-19368190D01*
X6480714Y-19368190D02*
X6509286Y-19368190D01*
X6509286Y-19368190D02*
X6528333Y-19377714D01*
X6528333Y-19377714D02*
X6537857Y-19396762D01*
X6537857Y-19396762D02*
X6537857Y-19501524D01*
X6928333Y-19292000D02*
X6756905Y-19549143D01*
X7185476Y-19301524D02*
X7204524Y-19301524D01*
X7204524Y-19301524D02*
X7223572Y-19311048D01*
X7223572Y-19311048D02*
X7233095Y-19320571D01*
X7233095Y-19320571D02*
X7242619Y-19339619D01*
X7242619Y-19339619D02*
X7252143Y-19377714D01*
X7252143Y-19377714D02*
X7252143Y-19425333D01*
X7252143Y-19425333D02*
X7242619Y-19463429D01*
X7242619Y-19463429D02*
X7233095Y-19482476D01*
X7233095Y-19482476D02*
X7223572Y-19492000D01*
X7223572Y-19492000D02*
X7204524Y-19501524D01*
X7204524Y-19501524D02*
X7185476Y-19501524D01*
X7185476Y-19501524D02*
X7166429Y-19492000D01*
X7166429Y-19492000D02*
X7156905Y-19482476D01*
X7156905Y-19482476D02*
X7147381Y-19463429D01*
X7147381Y-19463429D02*
X7137857Y-19425333D01*
X7137857Y-19425333D02*
X7137857Y-19377714D01*
X7137857Y-19377714D02*
X7147381Y-19339619D01*
X7147381Y-19339619D02*
X7156905Y-19320571D01*
X7156905Y-19320571D02*
X7166429Y-19311048D01*
X7166429Y-19311048D02*
X7185476Y-19301524D01*
X7337857Y-19482476D02*
X7347381Y-19492000D01*
X7347381Y-19492000D02*
X7337857Y-19501524D01*
X7337857Y-19501524D02*
X7328333Y-19492000D01*
X7328333Y-19492000D02*
X7337857Y-19482476D01*
X7337857Y-19482476D02*
X7337857Y-19501524D01*
X7471191Y-19301524D02*
X7490238Y-19301524D01*
X7490238Y-19301524D02*
X7509286Y-19311048D01*
X7509286Y-19311048D02*
X7518810Y-19320571D01*
X7518810Y-19320571D02*
X7528333Y-19339619D01*
X7528333Y-19339619D02*
X7537857Y-19377714D01*
X7537857Y-19377714D02*
X7537857Y-19425333D01*
X7537857Y-19425333D02*
X7528333Y-19463429D01*
X7528333Y-19463429D02*
X7518810Y-19482476D01*
X7518810Y-19482476D02*
X7509286Y-19492000D01*
X7509286Y-19492000D02*
X7490238Y-19501524D01*
X7490238Y-19501524D02*
X7471191Y-19501524D01*
X7471191Y-19501524D02*
X7452143Y-19492000D01*
X7452143Y-19492000D02*
X7442619Y-19482476D01*
X7442619Y-19482476D02*
X7433095Y-19463429D01*
X7433095Y-19463429D02*
X7423572Y-19425333D01*
X7423572Y-19425333D02*
X7423572Y-19377714D01*
X7423572Y-19377714D02*
X7433095Y-19339619D01*
X7433095Y-19339619D02*
X7442619Y-19320571D01*
X7442619Y-19320571D02*
X7452143Y-19311048D01*
X7452143Y-19311048D02*
X7471191Y-19301524D01*
X7728333Y-19501524D02*
X7614048Y-19501524D01*
X7671191Y-19501524D02*
X7671191Y-19301524D01*
X7671191Y-19301524D02*
X7652143Y-19330095D01*
X7652143Y-19330095D02*
X7633095Y-19349143D01*
X7633095Y-19349143D02*
X7614048Y-19358667D01*
X7823572Y-19501524D02*
X7861667Y-19501524D01*
X7861667Y-19501524D02*
X7880714Y-19492000D01*
X7880714Y-19492000D02*
X7890238Y-19482476D01*
X7890238Y-19482476D02*
X7909286Y-19453905D01*
X7909286Y-19453905D02*
X7918810Y-19415810D01*
X7918810Y-19415810D02*
X7918810Y-19339619D01*
X7918810Y-19339619D02*
X7909286Y-19320571D01*
X7909286Y-19320571D02*
X7899762Y-19311048D01*
X7899762Y-19311048D02*
X7880714Y-19301524D01*
X7880714Y-19301524D02*
X7842619Y-19301524D01*
X7842619Y-19301524D02*
X7823572Y-19311048D01*
X7823572Y-19311048D02*
X7814048Y-19320571D01*
X7814048Y-19320571D02*
X7804524Y-19339619D01*
X7804524Y-19339619D02*
X7804524Y-19387238D01*
X7804524Y-19387238D02*
X7814048Y-19406286D01*
X7814048Y-19406286D02*
X7823572Y-19415810D01*
X7823572Y-19415810D02*
X7842619Y-19425333D01*
X7842619Y-19425333D02*
X7880714Y-19425333D01*
X7880714Y-19425333D02*
X7899762Y-19415810D01*
X7899762Y-19415810D02*
X7909286Y-19406286D01*
X7909286Y-19406286D02*
X7918810Y-19387238D01*
X7985476Y-19301524D02*
X8118810Y-19301524D01*
X8118810Y-19301524D02*
X8033095Y-19501524D01*
X8185476Y-19301524D02*
X8185476Y-19339619D01*
X8261667Y-19301524D02*
X8261667Y-19339619D01*
X8556905Y-19577714D02*
X8547381Y-19568190D01*
X8547381Y-19568190D02*
X8528334Y-19539619D01*
X8528334Y-19539619D02*
X8518810Y-19520571D01*
X8518810Y-19520571D02*
X8509286Y-19492000D01*
X8509286Y-19492000D02*
X8499762Y-19444381D01*
X8499762Y-19444381D02*
X8499762Y-19406286D01*
X8499762Y-19406286D02*
X8509286Y-19358667D01*
X8509286Y-19358667D02*
X8518810Y-19330095D01*
X8518810Y-19330095D02*
X8528334Y-19311048D01*
X8528334Y-19311048D02*
X8547381Y-19282476D01*
X8547381Y-19282476D02*
X8556905Y-19272952D01*
X8718810Y-19301524D02*
X8680715Y-19301524D01*
X8680715Y-19301524D02*
X8661667Y-19311048D01*
X8661667Y-19311048D02*
X8652143Y-19320571D01*
X8652143Y-19320571D02*
X8633096Y-19349143D01*
X8633096Y-19349143D02*
X8623572Y-19387238D01*
X8623572Y-19387238D02*
X8623572Y-19463429D01*
X8623572Y-19463429D02*
X8633096Y-19482476D01*
X8633096Y-19482476D02*
X8642619Y-19492000D01*
X8642619Y-19492000D02*
X8661667Y-19501524D01*
X8661667Y-19501524D02*
X8699762Y-19501524D01*
X8699762Y-19501524D02*
X8718810Y-19492000D01*
X8718810Y-19492000D02*
X8728334Y-19482476D01*
X8728334Y-19482476D02*
X8737857Y-19463429D01*
X8737857Y-19463429D02*
X8737857Y-19415810D01*
X8737857Y-19415810D02*
X8728334Y-19396762D01*
X8728334Y-19396762D02*
X8718810Y-19387238D01*
X8718810Y-19387238D02*
X8699762Y-19377714D01*
X8699762Y-19377714D02*
X8661667Y-19377714D01*
X8661667Y-19377714D02*
X8642619Y-19387238D01*
X8642619Y-19387238D02*
X8633096Y-19396762D01*
X8633096Y-19396762D02*
X8623572Y-19415810D01*
X8909286Y-19368190D02*
X8909286Y-19501524D01*
X8861667Y-19292000D02*
X8814048Y-19434857D01*
X8814048Y-19434857D02*
X8937857Y-19434857D01*
X9166429Y-19501524D02*
X9166429Y-19301524D01*
X9252143Y-19501524D02*
X9252143Y-19396762D01*
X9252143Y-19396762D02*
X9242619Y-19377714D01*
X9242619Y-19377714D02*
X9223572Y-19368190D01*
X9223572Y-19368190D02*
X9195000Y-19368190D01*
X9195000Y-19368190D02*
X9175953Y-19377714D01*
X9175953Y-19377714D02*
X9166429Y-19387238D01*
X9375953Y-19501524D02*
X9356905Y-19492000D01*
X9356905Y-19492000D02*
X9347381Y-19482476D01*
X9347381Y-19482476D02*
X9337858Y-19463429D01*
X9337858Y-19463429D02*
X9337858Y-19406286D01*
X9337858Y-19406286D02*
X9347381Y-19387238D01*
X9347381Y-19387238D02*
X9356905Y-19377714D01*
X9356905Y-19377714D02*
X9375953Y-19368190D01*
X9375953Y-19368190D02*
X9404524Y-19368190D01*
X9404524Y-19368190D02*
X9423572Y-19377714D01*
X9423572Y-19377714D02*
X9433096Y-19387238D01*
X9433096Y-19387238D02*
X9442619Y-19406286D01*
X9442619Y-19406286D02*
X9442619Y-19463429D01*
X9442619Y-19463429D02*
X9433096Y-19482476D01*
X9433096Y-19482476D02*
X9423572Y-19492000D01*
X9423572Y-19492000D02*
X9404524Y-19501524D01*
X9404524Y-19501524D02*
X9375953Y-19501524D01*
X9556905Y-19501524D02*
X9537858Y-19492000D01*
X9537858Y-19492000D02*
X9528334Y-19472952D01*
X9528334Y-19472952D02*
X9528334Y-19301524D01*
X9709286Y-19492000D02*
X9690239Y-19501524D01*
X9690239Y-19501524D02*
X9652143Y-19501524D01*
X9652143Y-19501524D02*
X9633096Y-19492000D01*
X9633096Y-19492000D02*
X9623572Y-19472952D01*
X9623572Y-19472952D02*
X9623572Y-19396762D01*
X9623572Y-19396762D02*
X9633096Y-19377714D01*
X9633096Y-19377714D02*
X9652143Y-19368190D01*
X9652143Y-19368190D02*
X9690239Y-19368190D01*
X9690239Y-19368190D02*
X9709286Y-19377714D01*
X9709286Y-19377714D02*
X9718810Y-19396762D01*
X9718810Y-19396762D02*
X9718810Y-19415810D01*
X9718810Y-19415810D02*
X9623572Y-19434857D01*
X9795000Y-19492000D02*
X9814048Y-19501524D01*
X9814048Y-19501524D02*
X9852143Y-19501524D01*
X9852143Y-19501524D02*
X9871191Y-19492000D01*
X9871191Y-19492000D02*
X9880715Y-19472952D01*
X9880715Y-19472952D02*
X9880715Y-19463429D01*
X9880715Y-19463429D02*
X9871191Y-19444381D01*
X9871191Y-19444381D02*
X9852143Y-19434857D01*
X9852143Y-19434857D02*
X9823572Y-19434857D01*
X9823572Y-19434857D02*
X9804524Y-19425333D01*
X9804524Y-19425333D02*
X9795000Y-19406286D01*
X9795000Y-19406286D02*
X9795000Y-19396762D01*
X9795000Y-19396762D02*
X9804524Y-19377714D01*
X9804524Y-19377714D02*
X9823572Y-19368190D01*
X9823572Y-19368190D02*
X9852143Y-19368190D01*
X9852143Y-19368190D02*
X9871191Y-19377714D01*
X9947381Y-19577714D02*
X9956905Y-19568190D01*
X9956905Y-19568190D02*
X9975953Y-19539619D01*
X9975953Y-19539619D02*
X9985477Y-19520571D01*
X9985477Y-19520571D02*
X9995000Y-19492000D01*
X9995000Y-19492000D02*
X10004524Y-19444381D01*
X10004524Y-19444381D02*
X10004524Y-19406286D01*
X10004524Y-19406286D02*
X9995000Y-19358667D01*
X9995000Y-19358667D02*
X9985477Y-19330095D01*
X9985477Y-19330095D02*
X9975953Y-19311048D01*
X9975953Y-19311048D02*
X9956905Y-19282476D01*
X9956905Y-19282476D02*
X9947381Y-19272952D01*
D14*
X4957500Y-19635500D02*
X4957500Y-19710500D01*
X4920000Y-19673000D02*
X4995000Y-19673000D01*
D11*
X5280714Y-19565524D02*
X5299762Y-19565524D01*
X5299762Y-19565524D02*
X5318810Y-19575048D01*
X5318810Y-19575048D02*
X5328333Y-19584571D01*
X5328333Y-19584571D02*
X5337857Y-19603619D01*
X5337857Y-19603619D02*
X5347381Y-19641714D01*
X5347381Y-19641714D02*
X5347381Y-19689333D01*
X5347381Y-19689333D02*
X5337857Y-19727429D01*
X5337857Y-19727429D02*
X5328333Y-19746476D01*
X5328333Y-19746476D02*
X5318810Y-19756000D01*
X5318810Y-19756000D02*
X5299762Y-19765524D01*
X5299762Y-19765524D02*
X5280714Y-19765524D01*
X5280714Y-19765524D02*
X5261667Y-19756000D01*
X5261667Y-19756000D02*
X5252143Y-19746476D01*
X5252143Y-19746476D02*
X5242619Y-19727429D01*
X5242619Y-19727429D02*
X5233095Y-19689333D01*
X5233095Y-19689333D02*
X5233095Y-19641714D01*
X5233095Y-19641714D02*
X5242619Y-19603619D01*
X5242619Y-19603619D02*
X5252143Y-19584571D01*
X5252143Y-19584571D02*
X5261667Y-19575048D01*
X5261667Y-19575048D02*
X5280714Y-19565524D01*
X5433095Y-19746476D02*
X5442619Y-19756000D01*
X5442619Y-19756000D02*
X5433095Y-19765524D01*
X5433095Y-19765524D02*
X5423571Y-19756000D01*
X5423571Y-19756000D02*
X5433095Y-19746476D01*
X5433095Y-19746476D02*
X5433095Y-19765524D01*
X5509286Y-19565524D02*
X5642619Y-19565524D01*
X5642619Y-19565524D02*
X5556905Y-19765524D01*
X5814048Y-19565524D02*
X5718809Y-19565524D01*
X5718809Y-19565524D02*
X5709286Y-19660762D01*
X5709286Y-19660762D02*
X5718809Y-19651238D01*
X5718809Y-19651238D02*
X5737857Y-19641714D01*
X5737857Y-19641714D02*
X5785476Y-19641714D01*
X5785476Y-19641714D02*
X5804524Y-19651238D01*
X5804524Y-19651238D02*
X5814048Y-19660762D01*
X5814048Y-19660762D02*
X5823571Y-19679810D01*
X5823571Y-19679810D02*
X5823571Y-19727429D01*
X5823571Y-19727429D02*
X5814048Y-19746476D01*
X5814048Y-19746476D02*
X5804524Y-19756000D01*
X5804524Y-19756000D02*
X5785476Y-19765524D01*
X5785476Y-19765524D02*
X5737857Y-19765524D01*
X5737857Y-19765524D02*
X5718809Y-19756000D01*
X5718809Y-19756000D02*
X5709286Y-19746476D01*
X5947381Y-19565524D02*
X5966429Y-19565524D01*
X5966429Y-19565524D02*
X5985476Y-19575048D01*
X5985476Y-19575048D02*
X5995000Y-19584571D01*
X5995000Y-19584571D02*
X6004524Y-19603619D01*
X6004524Y-19603619D02*
X6014048Y-19641714D01*
X6014048Y-19641714D02*
X6014048Y-19689333D01*
X6014048Y-19689333D02*
X6004524Y-19727429D01*
X6004524Y-19727429D02*
X5995000Y-19746476D01*
X5995000Y-19746476D02*
X5985476Y-19756000D01*
X5985476Y-19756000D02*
X5966429Y-19765524D01*
X5966429Y-19765524D02*
X5947381Y-19765524D01*
X5947381Y-19765524D02*
X5928333Y-19756000D01*
X5928333Y-19756000D02*
X5918809Y-19746476D01*
X5918809Y-19746476D02*
X5909286Y-19727429D01*
X5909286Y-19727429D02*
X5899762Y-19689333D01*
X5899762Y-19689333D02*
X5899762Y-19641714D01*
X5899762Y-19641714D02*
X5909286Y-19603619D01*
X5909286Y-19603619D02*
X5918809Y-19584571D01*
X5918809Y-19584571D02*
X5928333Y-19575048D01*
X5928333Y-19575048D02*
X5947381Y-19565524D01*
X6099762Y-19765524D02*
X6099762Y-19632190D01*
X6099762Y-19651238D02*
X6109286Y-19641714D01*
X6109286Y-19641714D02*
X6128333Y-19632190D01*
X6128333Y-19632190D02*
X6156905Y-19632190D01*
X6156905Y-19632190D02*
X6175952Y-19641714D01*
X6175952Y-19641714D02*
X6185476Y-19660762D01*
X6185476Y-19660762D02*
X6185476Y-19765524D01*
X6185476Y-19660762D02*
X6195000Y-19641714D01*
X6195000Y-19641714D02*
X6214048Y-19632190D01*
X6214048Y-19632190D02*
X6242619Y-19632190D01*
X6242619Y-19632190D02*
X6261667Y-19641714D01*
X6261667Y-19641714D02*
X6271190Y-19660762D01*
X6271190Y-19660762D02*
X6271190Y-19765524D01*
X6366429Y-19765524D02*
X6366429Y-19632190D01*
X6366429Y-19651238D02*
X6375952Y-19641714D01*
X6375952Y-19641714D02*
X6395000Y-19632190D01*
X6395000Y-19632190D02*
X6423571Y-19632190D01*
X6423571Y-19632190D02*
X6442619Y-19641714D01*
X6442619Y-19641714D02*
X6452143Y-19660762D01*
X6452143Y-19660762D02*
X6452143Y-19765524D01*
X6452143Y-19660762D02*
X6461667Y-19641714D01*
X6461667Y-19641714D02*
X6480714Y-19632190D01*
X6480714Y-19632190D02*
X6509286Y-19632190D01*
X6509286Y-19632190D02*
X6528333Y-19641714D01*
X6528333Y-19641714D02*
X6537857Y-19660762D01*
X6537857Y-19660762D02*
X6537857Y-19765524D01*
X6928333Y-19556000D02*
X6756905Y-19813143D01*
X7185476Y-19565524D02*
X7204524Y-19565524D01*
X7204524Y-19565524D02*
X7223572Y-19575048D01*
X7223572Y-19575048D02*
X7233095Y-19584571D01*
X7233095Y-19584571D02*
X7242619Y-19603619D01*
X7242619Y-19603619D02*
X7252143Y-19641714D01*
X7252143Y-19641714D02*
X7252143Y-19689333D01*
X7252143Y-19689333D02*
X7242619Y-19727429D01*
X7242619Y-19727429D02*
X7233095Y-19746476D01*
X7233095Y-19746476D02*
X7223572Y-19756000D01*
X7223572Y-19756000D02*
X7204524Y-19765524D01*
X7204524Y-19765524D02*
X7185476Y-19765524D01*
X7185476Y-19765524D02*
X7166429Y-19756000D01*
X7166429Y-19756000D02*
X7156905Y-19746476D01*
X7156905Y-19746476D02*
X7147381Y-19727429D01*
X7147381Y-19727429D02*
X7137857Y-19689333D01*
X7137857Y-19689333D02*
X7137857Y-19641714D01*
X7137857Y-19641714D02*
X7147381Y-19603619D01*
X7147381Y-19603619D02*
X7156905Y-19584571D01*
X7156905Y-19584571D02*
X7166429Y-19575048D01*
X7166429Y-19575048D02*
X7185476Y-19565524D01*
X7337857Y-19746476D02*
X7347381Y-19756000D01*
X7347381Y-19756000D02*
X7337857Y-19765524D01*
X7337857Y-19765524D02*
X7328333Y-19756000D01*
X7328333Y-19756000D02*
X7337857Y-19746476D01*
X7337857Y-19746476D02*
X7337857Y-19765524D01*
X7471191Y-19565524D02*
X7490238Y-19565524D01*
X7490238Y-19565524D02*
X7509286Y-19575048D01*
X7509286Y-19575048D02*
X7518810Y-19584571D01*
X7518810Y-19584571D02*
X7528333Y-19603619D01*
X7528333Y-19603619D02*
X7537857Y-19641714D01*
X7537857Y-19641714D02*
X7537857Y-19689333D01*
X7537857Y-19689333D02*
X7528333Y-19727429D01*
X7528333Y-19727429D02*
X7518810Y-19746476D01*
X7518810Y-19746476D02*
X7509286Y-19756000D01*
X7509286Y-19756000D02*
X7490238Y-19765524D01*
X7490238Y-19765524D02*
X7471191Y-19765524D01*
X7471191Y-19765524D02*
X7452143Y-19756000D01*
X7452143Y-19756000D02*
X7442619Y-19746476D01*
X7442619Y-19746476D02*
X7433095Y-19727429D01*
X7433095Y-19727429D02*
X7423572Y-19689333D01*
X7423572Y-19689333D02*
X7423572Y-19641714D01*
X7423572Y-19641714D02*
X7433095Y-19603619D01*
X7433095Y-19603619D02*
X7442619Y-19584571D01*
X7442619Y-19584571D02*
X7452143Y-19575048D01*
X7452143Y-19575048D02*
X7471191Y-19565524D01*
X7614048Y-19584571D02*
X7623572Y-19575048D01*
X7623572Y-19575048D02*
X7642619Y-19565524D01*
X7642619Y-19565524D02*
X7690238Y-19565524D01*
X7690238Y-19565524D02*
X7709286Y-19575048D01*
X7709286Y-19575048D02*
X7718810Y-19584571D01*
X7718810Y-19584571D02*
X7728333Y-19603619D01*
X7728333Y-19603619D02*
X7728333Y-19622667D01*
X7728333Y-19622667D02*
X7718810Y-19651238D01*
X7718810Y-19651238D02*
X7604524Y-19765524D01*
X7604524Y-19765524D02*
X7728333Y-19765524D01*
X7823572Y-19765524D02*
X7861667Y-19765524D01*
X7861667Y-19765524D02*
X7880714Y-19756000D01*
X7880714Y-19756000D02*
X7890238Y-19746476D01*
X7890238Y-19746476D02*
X7909286Y-19717905D01*
X7909286Y-19717905D02*
X7918810Y-19679810D01*
X7918810Y-19679810D02*
X7918810Y-19603619D01*
X7918810Y-19603619D02*
X7909286Y-19584571D01*
X7909286Y-19584571D02*
X7899762Y-19575048D01*
X7899762Y-19575048D02*
X7880714Y-19565524D01*
X7880714Y-19565524D02*
X7842619Y-19565524D01*
X7842619Y-19565524D02*
X7823572Y-19575048D01*
X7823572Y-19575048D02*
X7814048Y-19584571D01*
X7814048Y-19584571D02*
X7804524Y-19603619D01*
X7804524Y-19603619D02*
X7804524Y-19651238D01*
X7804524Y-19651238D02*
X7814048Y-19670286D01*
X7814048Y-19670286D02*
X7823572Y-19679810D01*
X7823572Y-19679810D02*
X7842619Y-19689333D01*
X7842619Y-19689333D02*
X7880714Y-19689333D01*
X7880714Y-19689333D02*
X7899762Y-19679810D01*
X7899762Y-19679810D02*
X7909286Y-19670286D01*
X7909286Y-19670286D02*
X7918810Y-19651238D01*
X8099762Y-19565524D02*
X8004524Y-19565524D01*
X8004524Y-19565524D02*
X7995000Y-19660762D01*
X7995000Y-19660762D02*
X8004524Y-19651238D01*
X8004524Y-19651238D02*
X8023572Y-19641714D01*
X8023572Y-19641714D02*
X8071191Y-19641714D01*
X8071191Y-19641714D02*
X8090238Y-19651238D01*
X8090238Y-19651238D02*
X8099762Y-19660762D01*
X8099762Y-19660762D02*
X8109286Y-19679810D01*
X8109286Y-19679810D02*
X8109286Y-19727429D01*
X8109286Y-19727429D02*
X8099762Y-19746476D01*
X8099762Y-19746476D02*
X8090238Y-19756000D01*
X8090238Y-19756000D02*
X8071191Y-19765524D01*
X8071191Y-19765524D02*
X8023572Y-19765524D01*
X8023572Y-19765524D02*
X8004524Y-19756000D01*
X8004524Y-19756000D02*
X7995000Y-19746476D01*
X8185476Y-19565524D02*
X8185476Y-19603619D01*
X8261667Y-19565524D02*
X8261667Y-19603619D01*
X8556905Y-19841714D02*
X8547381Y-19832190D01*
X8547381Y-19832190D02*
X8528334Y-19803619D01*
X8528334Y-19803619D02*
X8518810Y-19784571D01*
X8518810Y-19784571D02*
X8509286Y-19756000D01*
X8509286Y-19756000D02*
X8499762Y-19708381D01*
X8499762Y-19708381D02*
X8499762Y-19670286D01*
X8499762Y-19670286D02*
X8509286Y-19622667D01*
X8509286Y-19622667D02*
X8518810Y-19594095D01*
X8518810Y-19594095D02*
X8528334Y-19575048D01*
X8528334Y-19575048D02*
X8547381Y-19546476D01*
X8547381Y-19546476D02*
X8556905Y-19536952D01*
X8718810Y-19632190D02*
X8718810Y-19765524D01*
X8671191Y-19556000D02*
X8623572Y-19698857D01*
X8623572Y-19698857D02*
X8747381Y-19698857D01*
X8814048Y-19584571D02*
X8823572Y-19575048D01*
X8823572Y-19575048D02*
X8842619Y-19565524D01*
X8842619Y-19565524D02*
X8890238Y-19565524D01*
X8890238Y-19565524D02*
X8909286Y-19575048D01*
X8909286Y-19575048D02*
X8918810Y-19584571D01*
X8918810Y-19584571D02*
X8928334Y-19603619D01*
X8928334Y-19603619D02*
X8928334Y-19622667D01*
X8928334Y-19622667D02*
X8918810Y-19651238D01*
X8918810Y-19651238D02*
X8804524Y-19765524D01*
X8804524Y-19765524D02*
X8928334Y-19765524D01*
X9166429Y-19765524D02*
X9166429Y-19565524D01*
X9252143Y-19765524D02*
X9252143Y-19660762D01*
X9252143Y-19660762D02*
X9242619Y-19641714D01*
X9242619Y-19641714D02*
X9223572Y-19632190D01*
X9223572Y-19632190D02*
X9195000Y-19632190D01*
X9195000Y-19632190D02*
X9175953Y-19641714D01*
X9175953Y-19641714D02*
X9166429Y-19651238D01*
X9375953Y-19765524D02*
X9356905Y-19756000D01*
X9356905Y-19756000D02*
X9347381Y-19746476D01*
X9347381Y-19746476D02*
X9337858Y-19727429D01*
X9337858Y-19727429D02*
X9337858Y-19670286D01*
X9337858Y-19670286D02*
X9347381Y-19651238D01*
X9347381Y-19651238D02*
X9356905Y-19641714D01*
X9356905Y-19641714D02*
X9375953Y-19632190D01*
X9375953Y-19632190D02*
X9404524Y-19632190D01*
X9404524Y-19632190D02*
X9423572Y-19641714D01*
X9423572Y-19641714D02*
X9433096Y-19651238D01*
X9433096Y-19651238D02*
X9442619Y-19670286D01*
X9442619Y-19670286D02*
X9442619Y-19727429D01*
X9442619Y-19727429D02*
X9433096Y-19746476D01*
X9433096Y-19746476D02*
X9423572Y-19756000D01*
X9423572Y-19756000D02*
X9404524Y-19765524D01*
X9404524Y-19765524D02*
X9375953Y-19765524D01*
X9556905Y-19765524D02*
X9537858Y-19756000D01*
X9537858Y-19756000D02*
X9528334Y-19736952D01*
X9528334Y-19736952D02*
X9528334Y-19565524D01*
X9709286Y-19756000D02*
X9690239Y-19765524D01*
X9690239Y-19765524D02*
X9652143Y-19765524D01*
X9652143Y-19765524D02*
X9633096Y-19756000D01*
X9633096Y-19756000D02*
X9623572Y-19736952D01*
X9623572Y-19736952D02*
X9623572Y-19660762D01*
X9623572Y-19660762D02*
X9633096Y-19641714D01*
X9633096Y-19641714D02*
X9652143Y-19632190D01*
X9652143Y-19632190D02*
X9690239Y-19632190D01*
X9690239Y-19632190D02*
X9709286Y-19641714D01*
X9709286Y-19641714D02*
X9718810Y-19660762D01*
X9718810Y-19660762D02*
X9718810Y-19679810D01*
X9718810Y-19679810D02*
X9623572Y-19698857D01*
X9795000Y-19756000D02*
X9814048Y-19765524D01*
X9814048Y-19765524D02*
X9852143Y-19765524D01*
X9852143Y-19765524D02*
X9871191Y-19756000D01*
X9871191Y-19756000D02*
X9880715Y-19736952D01*
X9880715Y-19736952D02*
X9880715Y-19727429D01*
X9880715Y-19727429D02*
X9871191Y-19708381D01*
X9871191Y-19708381D02*
X9852143Y-19698857D01*
X9852143Y-19698857D02*
X9823572Y-19698857D01*
X9823572Y-19698857D02*
X9804524Y-19689333D01*
X9804524Y-19689333D02*
X9795000Y-19670286D01*
X9795000Y-19670286D02*
X9795000Y-19660762D01*
X9795000Y-19660762D02*
X9804524Y-19641714D01*
X9804524Y-19641714D02*
X9823572Y-19632190D01*
X9823572Y-19632190D02*
X9852143Y-19632190D01*
X9852143Y-19632190D02*
X9871191Y-19641714D01*
X9947381Y-19841714D02*
X9956905Y-19832190D01*
X9956905Y-19832190D02*
X9975953Y-19803619D01*
X9975953Y-19803619D02*
X9985477Y-19784571D01*
X9985477Y-19784571D02*
X9995000Y-19756000D01*
X9995000Y-19756000D02*
X10004524Y-19708381D01*
X10004524Y-19708381D02*
X10004524Y-19670286D01*
X10004524Y-19670286D02*
X9995000Y-19622667D01*
X9995000Y-19622667D02*
X9985477Y-19594095D01*
X9985477Y-19594095D02*
X9975953Y-19575048D01*
X9975953Y-19575048D02*
X9956905Y-19546476D01*
X9956905Y-19546476D02*
X9947381Y-19536952D01*
D15*
X4983285Y-19965285D02*
X4983285Y-19908716D01*
X4926716Y-19908716D01*
X4926716Y-19965285D01*
X4983285Y-19965285D01*
D11*
X5280714Y-19829524D02*
X5299762Y-19829524D01*
X5299762Y-19829524D02*
X5318810Y-19839048D01*
X5318810Y-19839048D02*
X5328333Y-19848571D01*
X5328333Y-19848571D02*
X5337857Y-19867619D01*
X5337857Y-19867619D02*
X5347381Y-19905714D01*
X5347381Y-19905714D02*
X5347381Y-19953333D01*
X5347381Y-19953333D02*
X5337857Y-19991429D01*
X5337857Y-19991429D02*
X5328333Y-20010476D01*
X5328333Y-20010476D02*
X5318810Y-20020000D01*
X5318810Y-20020000D02*
X5299762Y-20029524D01*
X5299762Y-20029524D02*
X5280714Y-20029524D01*
X5280714Y-20029524D02*
X5261667Y-20020000D01*
X5261667Y-20020000D02*
X5252143Y-20010476D01*
X5252143Y-20010476D02*
X5242619Y-19991429D01*
X5242619Y-19991429D02*
X5233095Y-19953333D01*
X5233095Y-19953333D02*
X5233095Y-19905714D01*
X5233095Y-19905714D02*
X5242619Y-19867619D01*
X5242619Y-19867619D02*
X5252143Y-19848571D01*
X5252143Y-19848571D02*
X5261667Y-19839048D01*
X5261667Y-19839048D02*
X5280714Y-19829524D01*
X5433095Y-20010476D02*
X5442619Y-20020000D01*
X5442619Y-20020000D02*
X5433095Y-20029524D01*
X5433095Y-20029524D02*
X5423571Y-20020000D01*
X5423571Y-20020000D02*
X5433095Y-20010476D01*
X5433095Y-20010476D02*
X5433095Y-20029524D01*
X5556905Y-19915238D02*
X5537857Y-19905714D01*
X5537857Y-19905714D02*
X5528333Y-19896190D01*
X5528333Y-19896190D02*
X5518810Y-19877143D01*
X5518810Y-19877143D02*
X5518810Y-19867619D01*
X5518810Y-19867619D02*
X5528333Y-19848571D01*
X5528333Y-19848571D02*
X5537857Y-19839048D01*
X5537857Y-19839048D02*
X5556905Y-19829524D01*
X5556905Y-19829524D02*
X5595000Y-19829524D01*
X5595000Y-19829524D02*
X5614048Y-19839048D01*
X5614048Y-19839048D02*
X5623571Y-19848571D01*
X5623571Y-19848571D02*
X5633095Y-19867619D01*
X5633095Y-19867619D02*
X5633095Y-19877143D01*
X5633095Y-19877143D02*
X5623571Y-19896190D01*
X5623571Y-19896190D02*
X5614048Y-19905714D01*
X5614048Y-19905714D02*
X5595000Y-19915238D01*
X5595000Y-19915238D02*
X5556905Y-19915238D01*
X5556905Y-19915238D02*
X5537857Y-19924762D01*
X5537857Y-19924762D02*
X5528333Y-19934286D01*
X5528333Y-19934286D02*
X5518810Y-19953333D01*
X5518810Y-19953333D02*
X5518810Y-19991429D01*
X5518810Y-19991429D02*
X5528333Y-20010476D01*
X5528333Y-20010476D02*
X5537857Y-20020000D01*
X5537857Y-20020000D02*
X5556905Y-20029524D01*
X5556905Y-20029524D02*
X5595000Y-20029524D01*
X5595000Y-20029524D02*
X5614048Y-20020000D01*
X5614048Y-20020000D02*
X5623571Y-20010476D01*
X5623571Y-20010476D02*
X5633095Y-19991429D01*
X5633095Y-19991429D02*
X5633095Y-19953333D01*
X5633095Y-19953333D02*
X5623571Y-19934286D01*
X5623571Y-19934286D02*
X5614048Y-19924762D01*
X5614048Y-19924762D02*
X5595000Y-19915238D01*
X5756905Y-19829524D02*
X5775952Y-19829524D01*
X5775952Y-19829524D02*
X5795000Y-19839048D01*
X5795000Y-19839048D02*
X5804524Y-19848571D01*
X5804524Y-19848571D02*
X5814048Y-19867619D01*
X5814048Y-19867619D02*
X5823571Y-19905714D01*
X5823571Y-19905714D02*
X5823571Y-19953333D01*
X5823571Y-19953333D02*
X5814048Y-19991429D01*
X5814048Y-19991429D02*
X5804524Y-20010476D01*
X5804524Y-20010476D02*
X5795000Y-20020000D01*
X5795000Y-20020000D02*
X5775952Y-20029524D01*
X5775952Y-20029524D02*
X5756905Y-20029524D01*
X5756905Y-20029524D02*
X5737857Y-20020000D01*
X5737857Y-20020000D02*
X5728333Y-20010476D01*
X5728333Y-20010476D02*
X5718809Y-19991429D01*
X5718809Y-19991429D02*
X5709286Y-19953333D01*
X5709286Y-19953333D02*
X5709286Y-19905714D01*
X5709286Y-19905714D02*
X5718809Y-19867619D01*
X5718809Y-19867619D02*
X5728333Y-19848571D01*
X5728333Y-19848571D02*
X5737857Y-19839048D01*
X5737857Y-19839048D02*
X5756905Y-19829524D01*
X5947381Y-19829524D02*
X5966429Y-19829524D01*
X5966429Y-19829524D02*
X5985476Y-19839048D01*
X5985476Y-19839048D02*
X5995000Y-19848571D01*
X5995000Y-19848571D02*
X6004524Y-19867619D01*
X6004524Y-19867619D02*
X6014048Y-19905714D01*
X6014048Y-19905714D02*
X6014048Y-19953333D01*
X6014048Y-19953333D02*
X6004524Y-19991429D01*
X6004524Y-19991429D02*
X5995000Y-20010476D01*
X5995000Y-20010476D02*
X5985476Y-20020000D01*
X5985476Y-20020000D02*
X5966429Y-20029524D01*
X5966429Y-20029524D02*
X5947381Y-20029524D01*
X5947381Y-20029524D02*
X5928333Y-20020000D01*
X5928333Y-20020000D02*
X5918809Y-20010476D01*
X5918809Y-20010476D02*
X5909286Y-19991429D01*
X5909286Y-19991429D02*
X5899762Y-19953333D01*
X5899762Y-19953333D02*
X5899762Y-19905714D01*
X5899762Y-19905714D02*
X5909286Y-19867619D01*
X5909286Y-19867619D02*
X5918809Y-19848571D01*
X5918809Y-19848571D02*
X5928333Y-19839048D01*
X5928333Y-19839048D02*
X5947381Y-19829524D01*
X6099762Y-20029524D02*
X6099762Y-19896190D01*
X6099762Y-19915238D02*
X6109286Y-19905714D01*
X6109286Y-19905714D02*
X6128333Y-19896190D01*
X6128333Y-19896190D02*
X6156905Y-19896190D01*
X6156905Y-19896190D02*
X6175952Y-19905714D01*
X6175952Y-19905714D02*
X6185476Y-19924762D01*
X6185476Y-19924762D02*
X6185476Y-20029524D01*
X6185476Y-19924762D02*
X6195000Y-19905714D01*
X6195000Y-19905714D02*
X6214048Y-19896190D01*
X6214048Y-19896190D02*
X6242619Y-19896190D01*
X6242619Y-19896190D02*
X6261667Y-19905714D01*
X6261667Y-19905714D02*
X6271190Y-19924762D01*
X6271190Y-19924762D02*
X6271190Y-20029524D01*
X6366429Y-20029524D02*
X6366429Y-19896190D01*
X6366429Y-19915238D02*
X6375952Y-19905714D01*
X6375952Y-19905714D02*
X6395000Y-19896190D01*
X6395000Y-19896190D02*
X6423571Y-19896190D01*
X6423571Y-19896190D02*
X6442619Y-19905714D01*
X6442619Y-19905714D02*
X6452143Y-19924762D01*
X6452143Y-19924762D02*
X6452143Y-20029524D01*
X6452143Y-19924762D02*
X6461667Y-19905714D01*
X6461667Y-19905714D02*
X6480714Y-19896190D01*
X6480714Y-19896190D02*
X6509286Y-19896190D01*
X6509286Y-19896190D02*
X6528333Y-19905714D01*
X6528333Y-19905714D02*
X6537857Y-19924762D01*
X6537857Y-19924762D02*
X6537857Y-20029524D01*
X6928333Y-19820000D02*
X6756905Y-20077143D01*
X7185476Y-19829524D02*
X7204524Y-19829524D01*
X7204524Y-19829524D02*
X7223572Y-19839048D01*
X7223572Y-19839048D02*
X7233095Y-19848571D01*
X7233095Y-19848571D02*
X7242619Y-19867619D01*
X7242619Y-19867619D02*
X7252143Y-19905714D01*
X7252143Y-19905714D02*
X7252143Y-19953333D01*
X7252143Y-19953333D02*
X7242619Y-19991429D01*
X7242619Y-19991429D02*
X7233095Y-20010476D01*
X7233095Y-20010476D02*
X7223572Y-20020000D01*
X7223572Y-20020000D02*
X7204524Y-20029524D01*
X7204524Y-20029524D02*
X7185476Y-20029524D01*
X7185476Y-20029524D02*
X7166429Y-20020000D01*
X7166429Y-20020000D02*
X7156905Y-20010476D01*
X7156905Y-20010476D02*
X7147381Y-19991429D01*
X7147381Y-19991429D02*
X7137857Y-19953333D01*
X7137857Y-19953333D02*
X7137857Y-19905714D01*
X7137857Y-19905714D02*
X7147381Y-19867619D01*
X7147381Y-19867619D02*
X7156905Y-19848571D01*
X7156905Y-19848571D02*
X7166429Y-19839048D01*
X7166429Y-19839048D02*
X7185476Y-19829524D01*
X7337857Y-20010476D02*
X7347381Y-20020000D01*
X7347381Y-20020000D02*
X7337857Y-20029524D01*
X7337857Y-20029524D02*
X7328333Y-20020000D01*
X7328333Y-20020000D02*
X7337857Y-20010476D01*
X7337857Y-20010476D02*
X7337857Y-20029524D01*
X7471191Y-19829524D02*
X7490238Y-19829524D01*
X7490238Y-19829524D02*
X7509286Y-19839048D01*
X7509286Y-19839048D02*
X7518810Y-19848571D01*
X7518810Y-19848571D02*
X7528333Y-19867619D01*
X7528333Y-19867619D02*
X7537857Y-19905714D01*
X7537857Y-19905714D02*
X7537857Y-19953333D01*
X7537857Y-19953333D02*
X7528333Y-19991429D01*
X7528333Y-19991429D02*
X7518810Y-20010476D01*
X7518810Y-20010476D02*
X7509286Y-20020000D01*
X7509286Y-20020000D02*
X7490238Y-20029524D01*
X7490238Y-20029524D02*
X7471191Y-20029524D01*
X7471191Y-20029524D02*
X7452143Y-20020000D01*
X7452143Y-20020000D02*
X7442619Y-20010476D01*
X7442619Y-20010476D02*
X7433095Y-19991429D01*
X7433095Y-19991429D02*
X7423572Y-19953333D01*
X7423572Y-19953333D02*
X7423572Y-19905714D01*
X7423572Y-19905714D02*
X7433095Y-19867619D01*
X7433095Y-19867619D02*
X7442619Y-19848571D01*
X7442619Y-19848571D02*
X7452143Y-19839048D01*
X7452143Y-19839048D02*
X7471191Y-19829524D01*
X7604524Y-19829524D02*
X7728333Y-19829524D01*
X7728333Y-19829524D02*
X7661667Y-19905714D01*
X7661667Y-19905714D02*
X7690238Y-19905714D01*
X7690238Y-19905714D02*
X7709286Y-19915238D01*
X7709286Y-19915238D02*
X7718810Y-19924762D01*
X7718810Y-19924762D02*
X7728333Y-19943810D01*
X7728333Y-19943810D02*
X7728333Y-19991429D01*
X7728333Y-19991429D02*
X7718810Y-20010476D01*
X7718810Y-20010476D02*
X7709286Y-20020000D01*
X7709286Y-20020000D02*
X7690238Y-20029524D01*
X7690238Y-20029524D02*
X7633095Y-20029524D01*
X7633095Y-20029524D02*
X7614048Y-20020000D01*
X7614048Y-20020000D02*
X7604524Y-20010476D01*
X7918810Y-20029524D02*
X7804524Y-20029524D01*
X7861667Y-20029524D02*
X7861667Y-19829524D01*
X7861667Y-19829524D02*
X7842619Y-19858095D01*
X7842619Y-19858095D02*
X7823572Y-19877143D01*
X7823572Y-19877143D02*
X7804524Y-19886667D01*
X8099762Y-19829524D02*
X8004524Y-19829524D01*
X8004524Y-19829524D02*
X7995000Y-19924762D01*
X7995000Y-19924762D02*
X8004524Y-19915238D01*
X8004524Y-19915238D02*
X8023572Y-19905714D01*
X8023572Y-19905714D02*
X8071191Y-19905714D01*
X8071191Y-19905714D02*
X8090238Y-19915238D01*
X8090238Y-19915238D02*
X8099762Y-19924762D01*
X8099762Y-19924762D02*
X8109286Y-19943810D01*
X8109286Y-19943810D02*
X8109286Y-19991429D01*
X8109286Y-19991429D02*
X8099762Y-20010476D01*
X8099762Y-20010476D02*
X8090238Y-20020000D01*
X8090238Y-20020000D02*
X8071191Y-20029524D01*
X8071191Y-20029524D02*
X8023572Y-20029524D01*
X8023572Y-20029524D02*
X8004524Y-20020000D01*
X8004524Y-20020000D02*
X7995000Y-20010476D01*
X8185476Y-19829524D02*
X8185476Y-19867619D01*
X8261667Y-19829524D02*
X8261667Y-19867619D01*
X8556905Y-20105714D02*
X8547381Y-20096190D01*
X8547381Y-20096190D02*
X8528334Y-20067619D01*
X8528334Y-20067619D02*
X8518810Y-20048571D01*
X8518810Y-20048571D02*
X8509286Y-20020000D01*
X8509286Y-20020000D02*
X8499762Y-19972381D01*
X8499762Y-19972381D02*
X8499762Y-19934286D01*
X8499762Y-19934286D02*
X8509286Y-19886667D01*
X8509286Y-19886667D02*
X8518810Y-19858095D01*
X8518810Y-19858095D02*
X8528334Y-19839048D01*
X8528334Y-19839048D02*
X8547381Y-19810476D01*
X8547381Y-19810476D02*
X8556905Y-19800952D01*
X8737857Y-20029524D02*
X8623572Y-20029524D01*
X8680715Y-20029524D02*
X8680715Y-19829524D01*
X8680715Y-19829524D02*
X8661667Y-19858095D01*
X8661667Y-19858095D02*
X8642619Y-19877143D01*
X8642619Y-19877143D02*
X8623572Y-19886667D01*
X8928334Y-20029524D02*
X8814048Y-20029524D01*
X8871191Y-20029524D02*
X8871191Y-19829524D01*
X8871191Y-19829524D02*
X8852143Y-19858095D01*
X8852143Y-19858095D02*
X8833096Y-19877143D01*
X8833096Y-19877143D02*
X8814048Y-19886667D01*
X9042619Y-19915238D02*
X9023572Y-19905714D01*
X9023572Y-19905714D02*
X9014048Y-19896190D01*
X9014048Y-19896190D02*
X9004524Y-19877143D01*
X9004524Y-19877143D02*
X9004524Y-19867619D01*
X9004524Y-19867619D02*
X9014048Y-19848571D01*
X9014048Y-19848571D02*
X9023572Y-19839048D01*
X9023572Y-19839048D02*
X9042619Y-19829524D01*
X9042619Y-19829524D02*
X9080715Y-19829524D01*
X9080715Y-19829524D02*
X9099762Y-19839048D01*
X9099762Y-19839048D02*
X9109286Y-19848571D01*
X9109286Y-19848571D02*
X9118810Y-19867619D01*
X9118810Y-19867619D02*
X9118810Y-19877143D01*
X9118810Y-19877143D02*
X9109286Y-19896190D01*
X9109286Y-19896190D02*
X9099762Y-19905714D01*
X9099762Y-19905714D02*
X9080715Y-19915238D01*
X9080715Y-19915238D02*
X9042619Y-19915238D01*
X9042619Y-19915238D02*
X9023572Y-19924762D01*
X9023572Y-19924762D02*
X9014048Y-19934286D01*
X9014048Y-19934286D02*
X9004524Y-19953333D01*
X9004524Y-19953333D02*
X9004524Y-19991429D01*
X9004524Y-19991429D02*
X9014048Y-20010476D01*
X9014048Y-20010476D02*
X9023572Y-20020000D01*
X9023572Y-20020000D02*
X9042619Y-20029524D01*
X9042619Y-20029524D02*
X9080715Y-20029524D01*
X9080715Y-20029524D02*
X9099762Y-20020000D01*
X9099762Y-20020000D02*
X9109286Y-20010476D01*
X9109286Y-20010476D02*
X9118810Y-19991429D01*
X9118810Y-19991429D02*
X9118810Y-19953333D01*
X9118810Y-19953333D02*
X9109286Y-19934286D01*
X9109286Y-19934286D02*
X9099762Y-19924762D01*
X9099762Y-19924762D02*
X9080715Y-19915238D01*
X9356905Y-20029524D02*
X9356905Y-19829524D01*
X9442619Y-20029524D02*
X9442619Y-19924762D01*
X9442619Y-19924762D02*
X9433096Y-19905714D01*
X9433096Y-19905714D02*
X9414048Y-19896190D01*
X9414048Y-19896190D02*
X9385477Y-19896190D01*
X9385477Y-19896190D02*
X9366429Y-19905714D01*
X9366429Y-19905714D02*
X9356905Y-19915238D01*
X9566429Y-20029524D02*
X9547381Y-20020000D01*
X9547381Y-20020000D02*
X9537858Y-20010476D01*
X9537858Y-20010476D02*
X9528334Y-19991429D01*
X9528334Y-19991429D02*
X9528334Y-19934286D01*
X9528334Y-19934286D02*
X9537858Y-19915238D01*
X9537858Y-19915238D02*
X9547381Y-19905714D01*
X9547381Y-19905714D02*
X9566429Y-19896190D01*
X9566429Y-19896190D02*
X9595000Y-19896190D01*
X9595000Y-19896190D02*
X9614048Y-19905714D01*
X9614048Y-19905714D02*
X9623572Y-19915238D01*
X9623572Y-19915238D02*
X9633096Y-19934286D01*
X9633096Y-19934286D02*
X9633096Y-19991429D01*
X9633096Y-19991429D02*
X9623572Y-20010476D01*
X9623572Y-20010476D02*
X9614048Y-20020000D01*
X9614048Y-20020000D02*
X9595000Y-20029524D01*
X9595000Y-20029524D02*
X9566429Y-20029524D01*
X9747381Y-20029524D02*
X9728334Y-20020000D01*
X9728334Y-20020000D02*
X9718810Y-20000952D01*
X9718810Y-20000952D02*
X9718810Y-19829524D01*
X9899762Y-20020000D02*
X9880715Y-20029524D01*
X9880715Y-20029524D02*
X9842619Y-20029524D01*
X9842619Y-20029524D02*
X9823572Y-20020000D01*
X9823572Y-20020000D02*
X9814048Y-20000952D01*
X9814048Y-20000952D02*
X9814048Y-19924762D01*
X9814048Y-19924762D02*
X9823572Y-19905714D01*
X9823572Y-19905714D02*
X9842619Y-19896190D01*
X9842619Y-19896190D02*
X9880715Y-19896190D01*
X9880715Y-19896190D02*
X9899762Y-19905714D01*
X9899762Y-19905714D02*
X9909286Y-19924762D01*
X9909286Y-19924762D02*
X9909286Y-19943810D01*
X9909286Y-19943810D02*
X9814048Y-19962857D01*
X9985477Y-20020000D02*
X10004524Y-20029524D01*
X10004524Y-20029524D02*
X10042619Y-20029524D01*
X10042619Y-20029524D02*
X10061667Y-20020000D01*
X10061667Y-20020000D02*
X10071191Y-20000952D01*
X10071191Y-20000952D02*
X10071191Y-19991429D01*
X10071191Y-19991429D02*
X10061667Y-19972381D01*
X10061667Y-19972381D02*
X10042619Y-19962857D01*
X10042619Y-19962857D02*
X10014048Y-19962857D01*
X10014048Y-19962857D02*
X9995000Y-19953333D01*
X9995000Y-19953333D02*
X9985477Y-19934286D01*
X9985477Y-19934286D02*
X9985477Y-19924762D01*
X9985477Y-19924762D02*
X9995000Y-19905714D01*
X9995000Y-19905714D02*
X10014048Y-19896190D01*
X10014048Y-19896190D02*
X10042619Y-19896190D01*
X10042619Y-19896190D02*
X10061667Y-19905714D01*
X10137858Y-20105714D02*
X10147381Y-20096190D01*
X10147381Y-20096190D02*
X10166429Y-20067619D01*
X10166429Y-20067619D02*
X10175953Y-20048571D01*
X10175953Y-20048571D02*
X10185477Y-20020000D01*
X10185477Y-20020000D02*
X10195000Y-19972381D01*
X10195000Y-19972381D02*
X10195000Y-19934286D01*
X10195000Y-19934286D02*
X10185477Y-19886667D01*
X10185477Y-19886667D02*
X10175953Y-19858095D01*
X10175953Y-19858095D02*
X10166429Y-19839048D01*
X10166429Y-19839048D02*
X10147381Y-19810476D01*
X10147381Y-19810476D02*
X10137858Y-19800952D01*
D16*
X4947500Y-20248500D02*
X4995000Y-20201000D01*
X4947500Y-20153500D01*
X4900000Y-20201000D01*
X4947500Y-20248500D01*
D11*
X5280714Y-20093524D02*
X5299762Y-20093524D01*
X5299762Y-20093524D02*
X5318810Y-20103048D01*
X5318810Y-20103048D02*
X5328333Y-20112571D01*
X5328333Y-20112571D02*
X5337857Y-20131619D01*
X5337857Y-20131619D02*
X5347381Y-20169714D01*
X5347381Y-20169714D02*
X5347381Y-20217333D01*
X5347381Y-20217333D02*
X5337857Y-20255429D01*
X5337857Y-20255429D02*
X5328333Y-20274476D01*
X5328333Y-20274476D02*
X5318810Y-20284000D01*
X5318810Y-20284000D02*
X5299762Y-20293524D01*
X5299762Y-20293524D02*
X5280714Y-20293524D01*
X5280714Y-20293524D02*
X5261667Y-20284000D01*
X5261667Y-20284000D02*
X5252143Y-20274476D01*
X5252143Y-20274476D02*
X5242619Y-20255429D01*
X5242619Y-20255429D02*
X5233095Y-20217333D01*
X5233095Y-20217333D02*
X5233095Y-20169714D01*
X5233095Y-20169714D02*
X5242619Y-20131619D01*
X5242619Y-20131619D02*
X5252143Y-20112571D01*
X5252143Y-20112571D02*
X5261667Y-20103048D01*
X5261667Y-20103048D02*
X5280714Y-20093524D01*
X5433095Y-20274476D02*
X5442619Y-20284000D01*
X5442619Y-20284000D02*
X5433095Y-20293524D01*
X5433095Y-20293524D02*
X5423571Y-20284000D01*
X5423571Y-20284000D02*
X5433095Y-20274476D01*
X5433095Y-20274476D02*
X5433095Y-20293524D01*
X5537857Y-20293524D02*
X5575952Y-20293524D01*
X5575952Y-20293524D02*
X5595000Y-20284000D01*
X5595000Y-20284000D02*
X5604524Y-20274476D01*
X5604524Y-20274476D02*
X5623571Y-20245905D01*
X5623571Y-20245905D02*
X5633095Y-20207810D01*
X5633095Y-20207810D02*
X5633095Y-20131619D01*
X5633095Y-20131619D02*
X5623571Y-20112571D01*
X5623571Y-20112571D02*
X5614048Y-20103048D01*
X5614048Y-20103048D02*
X5595000Y-20093524D01*
X5595000Y-20093524D02*
X5556905Y-20093524D01*
X5556905Y-20093524D02*
X5537857Y-20103048D01*
X5537857Y-20103048D02*
X5528333Y-20112571D01*
X5528333Y-20112571D02*
X5518810Y-20131619D01*
X5518810Y-20131619D02*
X5518810Y-20179238D01*
X5518810Y-20179238D02*
X5528333Y-20198286D01*
X5528333Y-20198286D02*
X5537857Y-20207810D01*
X5537857Y-20207810D02*
X5556905Y-20217333D01*
X5556905Y-20217333D02*
X5595000Y-20217333D01*
X5595000Y-20217333D02*
X5614048Y-20207810D01*
X5614048Y-20207810D02*
X5623571Y-20198286D01*
X5623571Y-20198286D02*
X5633095Y-20179238D01*
X5814048Y-20093524D02*
X5718809Y-20093524D01*
X5718809Y-20093524D02*
X5709286Y-20188762D01*
X5709286Y-20188762D02*
X5718809Y-20179238D01*
X5718809Y-20179238D02*
X5737857Y-20169714D01*
X5737857Y-20169714D02*
X5785476Y-20169714D01*
X5785476Y-20169714D02*
X5804524Y-20179238D01*
X5804524Y-20179238D02*
X5814048Y-20188762D01*
X5814048Y-20188762D02*
X5823571Y-20207810D01*
X5823571Y-20207810D02*
X5823571Y-20255429D01*
X5823571Y-20255429D02*
X5814048Y-20274476D01*
X5814048Y-20274476D02*
X5804524Y-20284000D01*
X5804524Y-20284000D02*
X5785476Y-20293524D01*
X5785476Y-20293524D02*
X5737857Y-20293524D01*
X5737857Y-20293524D02*
X5718809Y-20284000D01*
X5718809Y-20284000D02*
X5709286Y-20274476D01*
X5947381Y-20093524D02*
X5966429Y-20093524D01*
X5966429Y-20093524D02*
X5985476Y-20103048D01*
X5985476Y-20103048D02*
X5995000Y-20112571D01*
X5995000Y-20112571D02*
X6004524Y-20131619D01*
X6004524Y-20131619D02*
X6014048Y-20169714D01*
X6014048Y-20169714D02*
X6014048Y-20217333D01*
X6014048Y-20217333D02*
X6004524Y-20255429D01*
X6004524Y-20255429D02*
X5995000Y-20274476D01*
X5995000Y-20274476D02*
X5985476Y-20284000D01*
X5985476Y-20284000D02*
X5966429Y-20293524D01*
X5966429Y-20293524D02*
X5947381Y-20293524D01*
X5947381Y-20293524D02*
X5928333Y-20284000D01*
X5928333Y-20284000D02*
X5918809Y-20274476D01*
X5918809Y-20274476D02*
X5909286Y-20255429D01*
X5909286Y-20255429D02*
X5899762Y-20217333D01*
X5899762Y-20217333D02*
X5899762Y-20169714D01*
X5899762Y-20169714D02*
X5909286Y-20131619D01*
X5909286Y-20131619D02*
X5918809Y-20112571D01*
X5918809Y-20112571D02*
X5928333Y-20103048D01*
X5928333Y-20103048D02*
X5947381Y-20093524D01*
X6099762Y-20293524D02*
X6099762Y-20160190D01*
X6099762Y-20179238D02*
X6109286Y-20169714D01*
X6109286Y-20169714D02*
X6128333Y-20160190D01*
X6128333Y-20160190D02*
X6156905Y-20160190D01*
X6156905Y-20160190D02*
X6175952Y-20169714D01*
X6175952Y-20169714D02*
X6185476Y-20188762D01*
X6185476Y-20188762D02*
X6185476Y-20293524D01*
X6185476Y-20188762D02*
X6195000Y-20169714D01*
X6195000Y-20169714D02*
X6214048Y-20160190D01*
X6214048Y-20160190D02*
X6242619Y-20160190D01*
X6242619Y-20160190D02*
X6261667Y-20169714D01*
X6261667Y-20169714D02*
X6271190Y-20188762D01*
X6271190Y-20188762D02*
X6271190Y-20293524D01*
X6366429Y-20293524D02*
X6366429Y-20160190D01*
X6366429Y-20179238D02*
X6375952Y-20169714D01*
X6375952Y-20169714D02*
X6395000Y-20160190D01*
X6395000Y-20160190D02*
X6423571Y-20160190D01*
X6423571Y-20160190D02*
X6442619Y-20169714D01*
X6442619Y-20169714D02*
X6452143Y-20188762D01*
X6452143Y-20188762D02*
X6452143Y-20293524D01*
X6452143Y-20188762D02*
X6461667Y-20169714D01*
X6461667Y-20169714D02*
X6480714Y-20160190D01*
X6480714Y-20160190D02*
X6509286Y-20160190D01*
X6509286Y-20160190D02*
X6528333Y-20169714D01*
X6528333Y-20169714D02*
X6537857Y-20188762D01*
X6537857Y-20188762D02*
X6537857Y-20293524D01*
X6928333Y-20084000D02*
X6756905Y-20341143D01*
X7185476Y-20093524D02*
X7204524Y-20093524D01*
X7204524Y-20093524D02*
X7223572Y-20103048D01*
X7223572Y-20103048D02*
X7233095Y-20112571D01*
X7233095Y-20112571D02*
X7242619Y-20131619D01*
X7242619Y-20131619D02*
X7252143Y-20169714D01*
X7252143Y-20169714D02*
X7252143Y-20217333D01*
X7252143Y-20217333D02*
X7242619Y-20255429D01*
X7242619Y-20255429D02*
X7233095Y-20274476D01*
X7233095Y-20274476D02*
X7223572Y-20284000D01*
X7223572Y-20284000D02*
X7204524Y-20293524D01*
X7204524Y-20293524D02*
X7185476Y-20293524D01*
X7185476Y-20293524D02*
X7166429Y-20284000D01*
X7166429Y-20284000D02*
X7156905Y-20274476D01*
X7156905Y-20274476D02*
X7147381Y-20255429D01*
X7147381Y-20255429D02*
X7137857Y-20217333D01*
X7137857Y-20217333D02*
X7137857Y-20169714D01*
X7137857Y-20169714D02*
X7147381Y-20131619D01*
X7147381Y-20131619D02*
X7156905Y-20112571D01*
X7156905Y-20112571D02*
X7166429Y-20103048D01*
X7166429Y-20103048D02*
X7185476Y-20093524D01*
X7337857Y-20274476D02*
X7347381Y-20284000D01*
X7347381Y-20284000D02*
X7337857Y-20293524D01*
X7337857Y-20293524D02*
X7328333Y-20284000D01*
X7328333Y-20284000D02*
X7337857Y-20274476D01*
X7337857Y-20274476D02*
X7337857Y-20293524D01*
X7471191Y-20093524D02*
X7490238Y-20093524D01*
X7490238Y-20093524D02*
X7509286Y-20103048D01*
X7509286Y-20103048D02*
X7518810Y-20112571D01*
X7518810Y-20112571D02*
X7528333Y-20131619D01*
X7528333Y-20131619D02*
X7537857Y-20169714D01*
X7537857Y-20169714D02*
X7537857Y-20217333D01*
X7537857Y-20217333D02*
X7528333Y-20255429D01*
X7528333Y-20255429D02*
X7518810Y-20274476D01*
X7518810Y-20274476D02*
X7509286Y-20284000D01*
X7509286Y-20284000D02*
X7490238Y-20293524D01*
X7490238Y-20293524D02*
X7471191Y-20293524D01*
X7471191Y-20293524D02*
X7452143Y-20284000D01*
X7452143Y-20284000D02*
X7442619Y-20274476D01*
X7442619Y-20274476D02*
X7433095Y-20255429D01*
X7433095Y-20255429D02*
X7423572Y-20217333D01*
X7423572Y-20217333D02*
X7423572Y-20169714D01*
X7423572Y-20169714D02*
X7433095Y-20131619D01*
X7433095Y-20131619D02*
X7442619Y-20112571D01*
X7442619Y-20112571D02*
X7452143Y-20103048D01*
X7452143Y-20103048D02*
X7471191Y-20093524D01*
X7604524Y-20093524D02*
X7728333Y-20093524D01*
X7728333Y-20093524D02*
X7661667Y-20169714D01*
X7661667Y-20169714D02*
X7690238Y-20169714D01*
X7690238Y-20169714D02*
X7709286Y-20179238D01*
X7709286Y-20179238D02*
X7718810Y-20188762D01*
X7718810Y-20188762D02*
X7728333Y-20207810D01*
X7728333Y-20207810D02*
X7728333Y-20255429D01*
X7728333Y-20255429D02*
X7718810Y-20274476D01*
X7718810Y-20274476D02*
X7709286Y-20284000D01*
X7709286Y-20284000D02*
X7690238Y-20293524D01*
X7690238Y-20293524D02*
X7633095Y-20293524D01*
X7633095Y-20293524D02*
X7614048Y-20284000D01*
X7614048Y-20284000D02*
X7604524Y-20274476D01*
X7795000Y-20093524D02*
X7928333Y-20093524D01*
X7928333Y-20093524D02*
X7842619Y-20293524D01*
X8090238Y-20160190D02*
X8090238Y-20293524D01*
X8042619Y-20084000D02*
X7995000Y-20226857D01*
X7995000Y-20226857D02*
X8118810Y-20226857D01*
X8185476Y-20093524D02*
X8185476Y-20131619D01*
X8261667Y-20093524D02*
X8261667Y-20131619D01*
X8556905Y-20369714D02*
X8547381Y-20360190D01*
X8547381Y-20360190D02*
X8528334Y-20331619D01*
X8528334Y-20331619D02*
X8518810Y-20312571D01*
X8518810Y-20312571D02*
X8509286Y-20284000D01*
X8509286Y-20284000D02*
X8499762Y-20236381D01*
X8499762Y-20236381D02*
X8499762Y-20198286D01*
X8499762Y-20198286D02*
X8509286Y-20150667D01*
X8509286Y-20150667D02*
X8518810Y-20122095D01*
X8518810Y-20122095D02*
X8528334Y-20103048D01*
X8528334Y-20103048D02*
X8547381Y-20074476D01*
X8547381Y-20074476D02*
X8556905Y-20064952D01*
X8623572Y-20112571D02*
X8633096Y-20103048D01*
X8633096Y-20103048D02*
X8652143Y-20093524D01*
X8652143Y-20093524D02*
X8699762Y-20093524D01*
X8699762Y-20093524D02*
X8718810Y-20103048D01*
X8718810Y-20103048D02*
X8728334Y-20112571D01*
X8728334Y-20112571D02*
X8737857Y-20131619D01*
X8737857Y-20131619D02*
X8737857Y-20150667D01*
X8737857Y-20150667D02*
X8728334Y-20179238D01*
X8728334Y-20179238D02*
X8614048Y-20293524D01*
X8614048Y-20293524D02*
X8737857Y-20293524D01*
X8918810Y-20093524D02*
X8823572Y-20093524D01*
X8823572Y-20093524D02*
X8814048Y-20188762D01*
X8814048Y-20188762D02*
X8823572Y-20179238D01*
X8823572Y-20179238D02*
X8842619Y-20169714D01*
X8842619Y-20169714D02*
X8890238Y-20169714D01*
X8890238Y-20169714D02*
X8909286Y-20179238D01*
X8909286Y-20179238D02*
X8918810Y-20188762D01*
X8918810Y-20188762D02*
X8928334Y-20207810D01*
X8928334Y-20207810D02*
X8928334Y-20255429D01*
X8928334Y-20255429D02*
X8918810Y-20274476D01*
X8918810Y-20274476D02*
X8909286Y-20284000D01*
X8909286Y-20284000D02*
X8890238Y-20293524D01*
X8890238Y-20293524D02*
X8842619Y-20293524D01*
X8842619Y-20293524D02*
X8823572Y-20284000D01*
X8823572Y-20284000D02*
X8814048Y-20274476D01*
X9166429Y-20293524D02*
X9166429Y-20093524D01*
X9252143Y-20293524D02*
X9252143Y-20188762D01*
X9252143Y-20188762D02*
X9242619Y-20169714D01*
X9242619Y-20169714D02*
X9223572Y-20160190D01*
X9223572Y-20160190D02*
X9195000Y-20160190D01*
X9195000Y-20160190D02*
X9175953Y-20169714D01*
X9175953Y-20169714D02*
X9166429Y-20179238D01*
X9375953Y-20293524D02*
X9356905Y-20284000D01*
X9356905Y-20284000D02*
X9347381Y-20274476D01*
X9347381Y-20274476D02*
X9337858Y-20255429D01*
X9337858Y-20255429D02*
X9337858Y-20198286D01*
X9337858Y-20198286D02*
X9347381Y-20179238D01*
X9347381Y-20179238D02*
X9356905Y-20169714D01*
X9356905Y-20169714D02*
X9375953Y-20160190D01*
X9375953Y-20160190D02*
X9404524Y-20160190D01*
X9404524Y-20160190D02*
X9423572Y-20169714D01*
X9423572Y-20169714D02*
X9433096Y-20179238D01*
X9433096Y-20179238D02*
X9442619Y-20198286D01*
X9442619Y-20198286D02*
X9442619Y-20255429D01*
X9442619Y-20255429D02*
X9433096Y-20274476D01*
X9433096Y-20274476D02*
X9423572Y-20284000D01*
X9423572Y-20284000D02*
X9404524Y-20293524D01*
X9404524Y-20293524D02*
X9375953Y-20293524D01*
X9556905Y-20293524D02*
X9537858Y-20284000D01*
X9537858Y-20284000D02*
X9528334Y-20264952D01*
X9528334Y-20264952D02*
X9528334Y-20093524D01*
X9709286Y-20284000D02*
X9690239Y-20293524D01*
X9690239Y-20293524D02*
X9652143Y-20293524D01*
X9652143Y-20293524D02*
X9633096Y-20284000D01*
X9633096Y-20284000D02*
X9623572Y-20264952D01*
X9623572Y-20264952D02*
X9623572Y-20188762D01*
X9623572Y-20188762D02*
X9633096Y-20169714D01*
X9633096Y-20169714D02*
X9652143Y-20160190D01*
X9652143Y-20160190D02*
X9690239Y-20160190D01*
X9690239Y-20160190D02*
X9709286Y-20169714D01*
X9709286Y-20169714D02*
X9718810Y-20188762D01*
X9718810Y-20188762D02*
X9718810Y-20207810D01*
X9718810Y-20207810D02*
X9623572Y-20226857D01*
X9795000Y-20284000D02*
X9814048Y-20293524D01*
X9814048Y-20293524D02*
X9852143Y-20293524D01*
X9852143Y-20293524D02*
X9871191Y-20284000D01*
X9871191Y-20284000D02*
X9880715Y-20264952D01*
X9880715Y-20264952D02*
X9880715Y-20255429D01*
X9880715Y-20255429D02*
X9871191Y-20236381D01*
X9871191Y-20236381D02*
X9852143Y-20226857D01*
X9852143Y-20226857D02*
X9823572Y-20226857D01*
X9823572Y-20226857D02*
X9804524Y-20217333D01*
X9804524Y-20217333D02*
X9795000Y-20198286D01*
X9795000Y-20198286D02*
X9795000Y-20188762D01*
X9795000Y-20188762D02*
X9804524Y-20169714D01*
X9804524Y-20169714D02*
X9823572Y-20160190D01*
X9823572Y-20160190D02*
X9852143Y-20160190D01*
X9852143Y-20160190D02*
X9871191Y-20169714D01*
X9947381Y-20369714D02*
X9956905Y-20360190D01*
X9956905Y-20360190D02*
X9975953Y-20331619D01*
X9975953Y-20331619D02*
X9985477Y-20312571D01*
X9985477Y-20312571D02*
X9995000Y-20284000D01*
X9995000Y-20284000D02*
X10004524Y-20236381D01*
X10004524Y-20236381D02*
X10004524Y-20198286D01*
X10004524Y-20198286D02*
X9995000Y-20150667D01*
X9995000Y-20150667D02*
X9985477Y-20122095D01*
X9985477Y-20122095D02*
X9975953Y-20103048D01*
X9975953Y-20103048D02*
X9956905Y-20074476D01*
X9956905Y-20074476D02*
X9947381Y-20064952D01*
D10*
X4895000Y-20415000D02*
X4995000Y-20515000D01*
X4995000Y-20415000D02*
X4895000Y-20515000D01*
X4995000Y-20465000D02*
G75*
G03*
X4995000Y-20465000I-50000J0D01*
G01*
D11*
X5347381Y-20557524D02*
X5233095Y-20557524D01*
X5290238Y-20557524D02*
X5290238Y-20357524D01*
X5290238Y-20357524D02*
X5271190Y-20386095D01*
X5271190Y-20386095D02*
X5252143Y-20405143D01*
X5252143Y-20405143D02*
X5233095Y-20414667D01*
X5433095Y-20538476D02*
X5442619Y-20548000D01*
X5442619Y-20548000D02*
X5433095Y-20557524D01*
X5433095Y-20557524D02*
X5423571Y-20548000D01*
X5423571Y-20548000D02*
X5433095Y-20538476D01*
X5433095Y-20538476D02*
X5433095Y-20557524D01*
X5566429Y-20357524D02*
X5585476Y-20357524D01*
X5585476Y-20357524D02*
X5604524Y-20367048D01*
X5604524Y-20367048D02*
X5614048Y-20376571D01*
X5614048Y-20376571D02*
X5623571Y-20395619D01*
X5623571Y-20395619D02*
X5633095Y-20433714D01*
X5633095Y-20433714D02*
X5633095Y-20481333D01*
X5633095Y-20481333D02*
X5623571Y-20519429D01*
X5623571Y-20519429D02*
X5614048Y-20538476D01*
X5614048Y-20538476D02*
X5604524Y-20548000D01*
X5604524Y-20548000D02*
X5585476Y-20557524D01*
X5585476Y-20557524D02*
X5566429Y-20557524D01*
X5566429Y-20557524D02*
X5547381Y-20548000D01*
X5547381Y-20548000D02*
X5537857Y-20538476D01*
X5537857Y-20538476D02*
X5528333Y-20519429D01*
X5528333Y-20519429D02*
X5518810Y-20481333D01*
X5518810Y-20481333D02*
X5518810Y-20433714D01*
X5518810Y-20433714D02*
X5528333Y-20395619D01*
X5528333Y-20395619D02*
X5537857Y-20376571D01*
X5537857Y-20376571D02*
X5547381Y-20367048D01*
X5547381Y-20367048D02*
X5566429Y-20357524D01*
X5756905Y-20357524D02*
X5775952Y-20357524D01*
X5775952Y-20357524D02*
X5795000Y-20367048D01*
X5795000Y-20367048D02*
X5804524Y-20376571D01*
X5804524Y-20376571D02*
X5814048Y-20395619D01*
X5814048Y-20395619D02*
X5823571Y-20433714D01*
X5823571Y-20433714D02*
X5823571Y-20481333D01*
X5823571Y-20481333D02*
X5814048Y-20519429D01*
X5814048Y-20519429D02*
X5804524Y-20538476D01*
X5804524Y-20538476D02*
X5795000Y-20548000D01*
X5795000Y-20548000D02*
X5775952Y-20557524D01*
X5775952Y-20557524D02*
X5756905Y-20557524D01*
X5756905Y-20557524D02*
X5737857Y-20548000D01*
X5737857Y-20548000D02*
X5728333Y-20538476D01*
X5728333Y-20538476D02*
X5718809Y-20519429D01*
X5718809Y-20519429D02*
X5709286Y-20481333D01*
X5709286Y-20481333D02*
X5709286Y-20433714D01*
X5709286Y-20433714D02*
X5718809Y-20395619D01*
X5718809Y-20395619D02*
X5728333Y-20376571D01*
X5728333Y-20376571D02*
X5737857Y-20367048D01*
X5737857Y-20367048D02*
X5756905Y-20357524D01*
X5947381Y-20357524D02*
X5966429Y-20357524D01*
X5966429Y-20357524D02*
X5985476Y-20367048D01*
X5985476Y-20367048D02*
X5995000Y-20376571D01*
X5995000Y-20376571D02*
X6004524Y-20395619D01*
X6004524Y-20395619D02*
X6014048Y-20433714D01*
X6014048Y-20433714D02*
X6014048Y-20481333D01*
X6014048Y-20481333D02*
X6004524Y-20519429D01*
X6004524Y-20519429D02*
X5995000Y-20538476D01*
X5995000Y-20538476D02*
X5985476Y-20548000D01*
X5985476Y-20548000D02*
X5966429Y-20557524D01*
X5966429Y-20557524D02*
X5947381Y-20557524D01*
X5947381Y-20557524D02*
X5928333Y-20548000D01*
X5928333Y-20548000D02*
X5918809Y-20538476D01*
X5918809Y-20538476D02*
X5909286Y-20519429D01*
X5909286Y-20519429D02*
X5899762Y-20481333D01*
X5899762Y-20481333D02*
X5899762Y-20433714D01*
X5899762Y-20433714D02*
X5909286Y-20395619D01*
X5909286Y-20395619D02*
X5918809Y-20376571D01*
X5918809Y-20376571D02*
X5928333Y-20367048D01*
X5928333Y-20367048D02*
X5947381Y-20357524D01*
X6099762Y-20557524D02*
X6099762Y-20424190D01*
X6099762Y-20443238D02*
X6109286Y-20433714D01*
X6109286Y-20433714D02*
X6128333Y-20424190D01*
X6128333Y-20424190D02*
X6156905Y-20424190D01*
X6156905Y-20424190D02*
X6175952Y-20433714D01*
X6175952Y-20433714D02*
X6185476Y-20452762D01*
X6185476Y-20452762D02*
X6185476Y-20557524D01*
X6185476Y-20452762D02*
X6195000Y-20433714D01*
X6195000Y-20433714D02*
X6214048Y-20424190D01*
X6214048Y-20424190D02*
X6242619Y-20424190D01*
X6242619Y-20424190D02*
X6261667Y-20433714D01*
X6261667Y-20433714D02*
X6271190Y-20452762D01*
X6271190Y-20452762D02*
X6271190Y-20557524D01*
X6366429Y-20557524D02*
X6366429Y-20424190D01*
X6366429Y-20443238D02*
X6375952Y-20433714D01*
X6375952Y-20433714D02*
X6395000Y-20424190D01*
X6395000Y-20424190D02*
X6423571Y-20424190D01*
X6423571Y-20424190D02*
X6442619Y-20433714D01*
X6442619Y-20433714D02*
X6452143Y-20452762D01*
X6452143Y-20452762D02*
X6452143Y-20557524D01*
X6452143Y-20452762D02*
X6461667Y-20433714D01*
X6461667Y-20433714D02*
X6480714Y-20424190D01*
X6480714Y-20424190D02*
X6509286Y-20424190D01*
X6509286Y-20424190D02*
X6528333Y-20433714D01*
X6528333Y-20433714D02*
X6537857Y-20452762D01*
X6537857Y-20452762D02*
X6537857Y-20557524D01*
X6928333Y-20348000D02*
X6756905Y-20605143D01*
X7185476Y-20357524D02*
X7204524Y-20357524D01*
X7204524Y-20357524D02*
X7223572Y-20367048D01*
X7223572Y-20367048D02*
X7233095Y-20376571D01*
X7233095Y-20376571D02*
X7242619Y-20395619D01*
X7242619Y-20395619D02*
X7252143Y-20433714D01*
X7252143Y-20433714D02*
X7252143Y-20481333D01*
X7252143Y-20481333D02*
X7242619Y-20519429D01*
X7242619Y-20519429D02*
X7233095Y-20538476D01*
X7233095Y-20538476D02*
X7223572Y-20548000D01*
X7223572Y-20548000D02*
X7204524Y-20557524D01*
X7204524Y-20557524D02*
X7185476Y-20557524D01*
X7185476Y-20557524D02*
X7166429Y-20548000D01*
X7166429Y-20548000D02*
X7156905Y-20538476D01*
X7156905Y-20538476D02*
X7147381Y-20519429D01*
X7147381Y-20519429D02*
X7137857Y-20481333D01*
X7137857Y-20481333D02*
X7137857Y-20433714D01*
X7137857Y-20433714D02*
X7147381Y-20395619D01*
X7147381Y-20395619D02*
X7156905Y-20376571D01*
X7156905Y-20376571D02*
X7166429Y-20367048D01*
X7166429Y-20367048D02*
X7185476Y-20357524D01*
X7337857Y-20538476D02*
X7347381Y-20548000D01*
X7347381Y-20548000D02*
X7337857Y-20557524D01*
X7337857Y-20557524D02*
X7328333Y-20548000D01*
X7328333Y-20548000D02*
X7337857Y-20538476D01*
X7337857Y-20538476D02*
X7337857Y-20557524D01*
X7471191Y-20357524D02*
X7490238Y-20357524D01*
X7490238Y-20357524D02*
X7509286Y-20367048D01*
X7509286Y-20367048D02*
X7518810Y-20376571D01*
X7518810Y-20376571D02*
X7528333Y-20395619D01*
X7528333Y-20395619D02*
X7537857Y-20433714D01*
X7537857Y-20433714D02*
X7537857Y-20481333D01*
X7537857Y-20481333D02*
X7528333Y-20519429D01*
X7528333Y-20519429D02*
X7518810Y-20538476D01*
X7518810Y-20538476D02*
X7509286Y-20548000D01*
X7509286Y-20548000D02*
X7490238Y-20557524D01*
X7490238Y-20557524D02*
X7471191Y-20557524D01*
X7471191Y-20557524D02*
X7452143Y-20548000D01*
X7452143Y-20548000D02*
X7442619Y-20538476D01*
X7442619Y-20538476D02*
X7433095Y-20519429D01*
X7433095Y-20519429D02*
X7423572Y-20481333D01*
X7423572Y-20481333D02*
X7423572Y-20433714D01*
X7423572Y-20433714D02*
X7433095Y-20395619D01*
X7433095Y-20395619D02*
X7442619Y-20376571D01*
X7442619Y-20376571D02*
X7452143Y-20367048D01*
X7452143Y-20367048D02*
X7471191Y-20357524D01*
X7604524Y-20357524D02*
X7728333Y-20357524D01*
X7728333Y-20357524D02*
X7661667Y-20433714D01*
X7661667Y-20433714D02*
X7690238Y-20433714D01*
X7690238Y-20433714D02*
X7709286Y-20443238D01*
X7709286Y-20443238D02*
X7718810Y-20452762D01*
X7718810Y-20452762D02*
X7728333Y-20471810D01*
X7728333Y-20471810D02*
X7728333Y-20519429D01*
X7728333Y-20519429D02*
X7718810Y-20538476D01*
X7718810Y-20538476D02*
X7709286Y-20548000D01*
X7709286Y-20548000D02*
X7690238Y-20557524D01*
X7690238Y-20557524D02*
X7633095Y-20557524D01*
X7633095Y-20557524D02*
X7614048Y-20548000D01*
X7614048Y-20548000D02*
X7604524Y-20538476D01*
X7823572Y-20557524D02*
X7861667Y-20557524D01*
X7861667Y-20557524D02*
X7880714Y-20548000D01*
X7880714Y-20548000D02*
X7890238Y-20538476D01*
X7890238Y-20538476D02*
X7909286Y-20509905D01*
X7909286Y-20509905D02*
X7918810Y-20471810D01*
X7918810Y-20471810D02*
X7918810Y-20395619D01*
X7918810Y-20395619D02*
X7909286Y-20376571D01*
X7909286Y-20376571D02*
X7899762Y-20367048D01*
X7899762Y-20367048D02*
X7880714Y-20357524D01*
X7880714Y-20357524D02*
X7842619Y-20357524D01*
X7842619Y-20357524D02*
X7823572Y-20367048D01*
X7823572Y-20367048D02*
X7814048Y-20376571D01*
X7814048Y-20376571D02*
X7804524Y-20395619D01*
X7804524Y-20395619D02*
X7804524Y-20443238D01*
X7804524Y-20443238D02*
X7814048Y-20462286D01*
X7814048Y-20462286D02*
X7823572Y-20471810D01*
X7823572Y-20471810D02*
X7842619Y-20481333D01*
X7842619Y-20481333D02*
X7880714Y-20481333D01*
X7880714Y-20481333D02*
X7899762Y-20471810D01*
X7899762Y-20471810D02*
X7909286Y-20462286D01*
X7909286Y-20462286D02*
X7918810Y-20443238D01*
X8090238Y-20424190D02*
X8090238Y-20557524D01*
X8042619Y-20348000D02*
X7995000Y-20490857D01*
X7995000Y-20490857D02*
X8118810Y-20490857D01*
X8185476Y-20357524D02*
X8185476Y-20395619D01*
X8261667Y-20357524D02*
X8261667Y-20395619D01*
X8556905Y-20633714D02*
X8547381Y-20624190D01*
X8547381Y-20624190D02*
X8528334Y-20595619D01*
X8528334Y-20595619D02*
X8518810Y-20576571D01*
X8518810Y-20576571D02*
X8509286Y-20548000D01*
X8509286Y-20548000D02*
X8499762Y-20500381D01*
X8499762Y-20500381D02*
X8499762Y-20462286D01*
X8499762Y-20462286D02*
X8509286Y-20414667D01*
X8509286Y-20414667D02*
X8518810Y-20386095D01*
X8518810Y-20386095D02*
X8528334Y-20367048D01*
X8528334Y-20367048D02*
X8547381Y-20338476D01*
X8547381Y-20338476D02*
X8556905Y-20328952D01*
X8737857Y-20557524D02*
X8623572Y-20557524D01*
X8680715Y-20557524D02*
X8680715Y-20357524D01*
X8680715Y-20357524D02*
X8661667Y-20386095D01*
X8661667Y-20386095D02*
X8642619Y-20405143D01*
X8642619Y-20405143D02*
X8623572Y-20414667D01*
X8918810Y-20357524D02*
X8823572Y-20357524D01*
X8823572Y-20357524D02*
X8814048Y-20452762D01*
X8814048Y-20452762D02*
X8823572Y-20443238D01*
X8823572Y-20443238D02*
X8842619Y-20433714D01*
X8842619Y-20433714D02*
X8890238Y-20433714D01*
X8890238Y-20433714D02*
X8909286Y-20443238D01*
X8909286Y-20443238D02*
X8918810Y-20452762D01*
X8918810Y-20452762D02*
X8928334Y-20471810D01*
X8928334Y-20471810D02*
X8928334Y-20519429D01*
X8928334Y-20519429D02*
X8918810Y-20538476D01*
X8918810Y-20538476D02*
X8909286Y-20548000D01*
X8909286Y-20548000D02*
X8890238Y-20557524D01*
X8890238Y-20557524D02*
X8842619Y-20557524D01*
X8842619Y-20557524D02*
X8823572Y-20548000D01*
X8823572Y-20548000D02*
X8814048Y-20538476D01*
X8995000Y-20357524D02*
X9118810Y-20357524D01*
X9118810Y-20357524D02*
X9052143Y-20433714D01*
X9052143Y-20433714D02*
X9080715Y-20433714D01*
X9080715Y-20433714D02*
X9099762Y-20443238D01*
X9099762Y-20443238D02*
X9109286Y-20452762D01*
X9109286Y-20452762D02*
X9118810Y-20471810D01*
X9118810Y-20471810D02*
X9118810Y-20519429D01*
X9118810Y-20519429D02*
X9109286Y-20538476D01*
X9109286Y-20538476D02*
X9099762Y-20548000D01*
X9099762Y-20548000D02*
X9080715Y-20557524D01*
X9080715Y-20557524D02*
X9023572Y-20557524D01*
X9023572Y-20557524D02*
X9004524Y-20548000D01*
X9004524Y-20548000D02*
X8995000Y-20538476D01*
X9356905Y-20557524D02*
X9356905Y-20357524D01*
X9442619Y-20557524D02*
X9442619Y-20452762D01*
X9442619Y-20452762D02*
X9433096Y-20433714D01*
X9433096Y-20433714D02*
X9414048Y-20424190D01*
X9414048Y-20424190D02*
X9385477Y-20424190D01*
X9385477Y-20424190D02*
X9366429Y-20433714D01*
X9366429Y-20433714D02*
X9356905Y-20443238D01*
X9566429Y-20557524D02*
X9547381Y-20548000D01*
X9547381Y-20548000D02*
X9537858Y-20538476D01*
X9537858Y-20538476D02*
X9528334Y-20519429D01*
X9528334Y-20519429D02*
X9528334Y-20462286D01*
X9528334Y-20462286D02*
X9537858Y-20443238D01*
X9537858Y-20443238D02*
X9547381Y-20433714D01*
X9547381Y-20433714D02*
X9566429Y-20424190D01*
X9566429Y-20424190D02*
X9595000Y-20424190D01*
X9595000Y-20424190D02*
X9614048Y-20433714D01*
X9614048Y-20433714D02*
X9623572Y-20443238D01*
X9623572Y-20443238D02*
X9633096Y-20462286D01*
X9633096Y-20462286D02*
X9633096Y-20519429D01*
X9633096Y-20519429D02*
X9623572Y-20538476D01*
X9623572Y-20538476D02*
X9614048Y-20548000D01*
X9614048Y-20548000D02*
X9595000Y-20557524D01*
X9595000Y-20557524D02*
X9566429Y-20557524D01*
X9747381Y-20557524D02*
X9728334Y-20548000D01*
X9728334Y-20548000D02*
X9718810Y-20528952D01*
X9718810Y-20528952D02*
X9718810Y-20357524D01*
X9899762Y-20548000D02*
X9880715Y-20557524D01*
X9880715Y-20557524D02*
X9842619Y-20557524D01*
X9842619Y-20557524D02*
X9823572Y-20548000D01*
X9823572Y-20548000D02*
X9814048Y-20528952D01*
X9814048Y-20528952D02*
X9814048Y-20452762D01*
X9814048Y-20452762D02*
X9823572Y-20433714D01*
X9823572Y-20433714D02*
X9842619Y-20424190D01*
X9842619Y-20424190D02*
X9880715Y-20424190D01*
X9880715Y-20424190D02*
X9899762Y-20433714D01*
X9899762Y-20433714D02*
X9909286Y-20452762D01*
X9909286Y-20452762D02*
X9909286Y-20471810D01*
X9909286Y-20471810D02*
X9814048Y-20490857D01*
X9985477Y-20548000D02*
X10004524Y-20557524D01*
X10004524Y-20557524D02*
X10042619Y-20557524D01*
X10042619Y-20557524D02*
X10061667Y-20548000D01*
X10061667Y-20548000D02*
X10071191Y-20528952D01*
X10071191Y-20528952D02*
X10071191Y-20519429D01*
X10071191Y-20519429D02*
X10061667Y-20500381D01*
X10061667Y-20500381D02*
X10042619Y-20490857D01*
X10042619Y-20490857D02*
X10014048Y-20490857D01*
X10014048Y-20490857D02*
X9995000Y-20481333D01*
X9995000Y-20481333D02*
X9985477Y-20462286D01*
X9985477Y-20462286D02*
X9985477Y-20452762D01*
X9985477Y-20452762D02*
X9995000Y-20433714D01*
X9995000Y-20433714D02*
X10014048Y-20424190D01*
X10014048Y-20424190D02*
X10042619Y-20424190D01*
X10042619Y-20424190D02*
X10061667Y-20433714D01*
X10137858Y-20633714D02*
X10147381Y-20624190D01*
X10147381Y-20624190D02*
X10166429Y-20595619D01*
X10166429Y-20595619D02*
X10175953Y-20576571D01*
X10175953Y-20576571D02*
X10185477Y-20548000D01*
X10185477Y-20548000D02*
X10195000Y-20500381D01*
X10195000Y-20500381D02*
X10195000Y-20462286D01*
X10195000Y-20462286D02*
X10185477Y-20414667D01*
X10185477Y-20414667D02*
X10175953Y-20386095D01*
X10175953Y-20386095D02*
X10166429Y-20367048D01*
X10166429Y-20367048D02*
X10147381Y-20338476D01*
X10147381Y-20338476D02*
X10137858Y-20328952D01*
D17*
X4875000Y-20669000D02*
X4995000Y-20789000D01*
X4995000Y-20669000D02*
X4875000Y-20789000D01*
X4935000Y-20669000D02*
X4935000Y-20789000D01*
X4875000Y-20729000D02*
X4995000Y-20729000D01*
D11*
X5347381Y-20821524D02*
X5233095Y-20821524D01*
X5290238Y-20821524D02*
X5290238Y-20621524D01*
X5290238Y-20621524D02*
X5271190Y-20650095D01*
X5271190Y-20650095D02*
X5252143Y-20669143D01*
X5252143Y-20669143D02*
X5233095Y-20678667D01*
X5433095Y-20802476D02*
X5442619Y-20812000D01*
X5442619Y-20812000D02*
X5433095Y-20821524D01*
X5433095Y-20821524D02*
X5423571Y-20812000D01*
X5423571Y-20812000D02*
X5433095Y-20802476D01*
X5433095Y-20802476D02*
X5433095Y-20821524D01*
X5518810Y-20640571D02*
X5528333Y-20631048D01*
X5528333Y-20631048D02*
X5547381Y-20621524D01*
X5547381Y-20621524D02*
X5595000Y-20621524D01*
X5595000Y-20621524D02*
X5614048Y-20631048D01*
X5614048Y-20631048D02*
X5623571Y-20640571D01*
X5623571Y-20640571D02*
X5633095Y-20659619D01*
X5633095Y-20659619D02*
X5633095Y-20678667D01*
X5633095Y-20678667D02*
X5623571Y-20707238D01*
X5623571Y-20707238D02*
X5509286Y-20821524D01*
X5509286Y-20821524D02*
X5633095Y-20821524D01*
X5756905Y-20621524D02*
X5775952Y-20621524D01*
X5775952Y-20621524D02*
X5795000Y-20631048D01*
X5795000Y-20631048D02*
X5804524Y-20640571D01*
X5804524Y-20640571D02*
X5814048Y-20659619D01*
X5814048Y-20659619D02*
X5823571Y-20697714D01*
X5823571Y-20697714D02*
X5823571Y-20745333D01*
X5823571Y-20745333D02*
X5814048Y-20783429D01*
X5814048Y-20783429D02*
X5804524Y-20802476D01*
X5804524Y-20802476D02*
X5795000Y-20812000D01*
X5795000Y-20812000D02*
X5775952Y-20821524D01*
X5775952Y-20821524D02*
X5756905Y-20821524D01*
X5756905Y-20821524D02*
X5737857Y-20812000D01*
X5737857Y-20812000D02*
X5728333Y-20802476D01*
X5728333Y-20802476D02*
X5718809Y-20783429D01*
X5718809Y-20783429D02*
X5709286Y-20745333D01*
X5709286Y-20745333D02*
X5709286Y-20697714D01*
X5709286Y-20697714D02*
X5718809Y-20659619D01*
X5718809Y-20659619D02*
X5728333Y-20640571D01*
X5728333Y-20640571D02*
X5737857Y-20631048D01*
X5737857Y-20631048D02*
X5756905Y-20621524D01*
X5947381Y-20621524D02*
X5966429Y-20621524D01*
X5966429Y-20621524D02*
X5985476Y-20631048D01*
X5985476Y-20631048D02*
X5995000Y-20640571D01*
X5995000Y-20640571D02*
X6004524Y-20659619D01*
X6004524Y-20659619D02*
X6014048Y-20697714D01*
X6014048Y-20697714D02*
X6014048Y-20745333D01*
X6014048Y-20745333D02*
X6004524Y-20783429D01*
X6004524Y-20783429D02*
X5995000Y-20802476D01*
X5995000Y-20802476D02*
X5985476Y-20812000D01*
X5985476Y-20812000D02*
X5966429Y-20821524D01*
X5966429Y-20821524D02*
X5947381Y-20821524D01*
X5947381Y-20821524D02*
X5928333Y-20812000D01*
X5928333Y-20812000D02*
X5918809Y-20802476D01*
X5918809Y-20802476D02*
X5909286Y-20783429D01*
X5909286Y-20783429D02*
X5899762Y-20745333D01*
X5899762Y-20745333D02*
X5899762Y-20697714D01*
X5899762Y-20697714D02*
X5909286Y-20659619D01*
X5909286Y-20659619D02*
X5918809Y-20640571D01*
X5918809Y-20640571D02*
X5928333Y-20631048D01*
X5928333Y-20631048D02*
X5947381Y-20621524D01*
X6099762Y-20821524D02*
X6099762Y-20688190D01*
X6099762Y-20707238D02*
X6109286Y-20697714D01*
X6109286Y-20697714D02*
X6128333Y-20688190D01*
X6128333Y-20688190D02*
X6156905Y-20688190D01*
X6156905Y-20688190D02*
X6175952Y-20697714D01*
X6175952Y-20697714D02*
X6185476Y-20716762D01*
X6185476Y-20716762D02*
X6185476Y-20821524D01*
X6185476Y-20716762D02*
X6195000Y-20697714D01*
X6195000Y-20697714D02*
X6214048Y-20688190D01*
X6214048Y-20688190D02*
X6242619Y-20688190D01*
X6242619Y-20688190D02*
X6261667Y-20697714D01*
X6261667Y-20697714D02*
X6271190Y-20716762D01*
X6271190Y-20716762D02*
X6271190Y-20821524D01*
X6366429Y-20821524D02*
X6366429Y-20688190D01*
X6366429Y-20707238D02*
X6375952Y-20697714D01*
X6375952Y-20697714D02*
X6395000Y-20688190D01*
X6395000Y-20688190D02*
X6423571Y-20688190D01*
X6423571Y-20688190D02*
X6442619Y-20697714D01*
X6442619Y-20697714D02*
X6452143Y-20716762D01*
X6452143Y-20716762D02*
X6452143Y-20821524D01*
X6452143Y-20716762D02*
X6461667Y-20697714D01*
X6461667Y-20697714D02*
X6480714Y-20688190D01*
X6480714Y-20688190D02*
X6509286Y-20688190D01*
X6509286Y-20688190D02*
X6528333Y-20697714D01*
X6528333Y-20697714D02*
X6537857Y-20716762D01*
X6537857Y-20716762D02*
X6537857Y-20821524D01*
X6928333Y-20612000D02*
X6756905Y-20869143D01*
X7185476Y-20621524D02*
X7204524Y-20621524D01*
X7204524Y-20621524D02*
X7223572Y-20631048D01*
X7223572Y-20631048D02*
X7233095Y-20640571D01*
X7233095Y-20640571D02*
X7242619Y-20659619D01*
X7242619Y-20659619D02*
X7252143Y-20697714D01*
X7252143Y-20697714D02*
X7252143Y-20745333D01*
X7252143Y-20745333D02*
X7242619Y-20783429D01*
X7242619Y-20783429D02*
X7233095Y-20802476D01*
X7233095Y-20802476D02*
X7223572Y-20812000D01*
X7223572Y-20812000D02*
X7204524Y-20821524D01*
X7204524Y-20821524D02*
X7185476Y-20821524D01*
X7185476Y-20821524D02*
X7166429Y-20812000D01*
X7166429Y-20812000D02*
X7156905Y-20802476D01*
X7156905Y-20802476D02*
X7147381Y-20783429D01*
X7147381Y-20783429D02*
X7137857Y-20745333D01*
X7137857Y-20745333D02*
X7137857Y-20697714D01*
X7137857Y-20697714D02*
X7147381Y-20659619D01*
X7147381Y-20659619D02*
X7156905Y-20640571D01*
X7156905Y-20640571D02*
X7166429Y-20631048D01*
X7166429Y-20631048D02*
X7185476Y-20621524D01*
X7337857Y-20802476D02*
X7347381Y-20812000D01*
X7347381Y-20812000D02*
X7337857Y-20821524D01*
X7337857Y-20821524D02*
X7328333Y-20812000D01*
X7328333Y-20812000D02*
X7337857Y-20802476D01*
X7337857Y-20802476D02*
X7337857Y-20821524D01*
X7471191Y-20621524D02*
X7490238Y-20621524D01*
X7490238Y-20621524D02*
X7509286Y-20631048D01*
X7509286Y-20631048D02*
X7518810Y-20640571D01*
X7518810Y-20640571D02*
X7528333Y-20659619D01*
X7528333Y-20659619D02*
X7537857Y-20697714D01*
X7537857Y-20697714D02*
X7537857Y-20745333D01*
X7537857Y-20745333D02*
X7528333Y-20783429D01*
X7528333Y-20783429D02*
X7518810Y-20802476D01*
X7518810Y-20802476D02*
X7509286Y-20812000D01*
X7509286Y-20812000D02*
X7490238Y-20821524D01*
X7490238Y-20821524D02*
X7471191Y-20821524D01*
X7471191Y-20821524D02*
X7452143Y-20812000D01*
X7452143Y-20812000D02*
X7442619Y-20802476D01*
X7442619Y-20802476D02*
X7433095Y-20783429D01*
X7433095Y-20783429D02*
X7423572Y-20745333D01*
X7423572Y-20745333D02*
X7423572Y-20697714D01*
X7423572Y-20697714D02*
X7433095Y-20659619D01*
X7433095Y-20659619D02*
X7442619Y-20640571D01*
X7442619Y-20640571D02*
X7452143Y-20631048D01*
X7452143Y-20631048D02*
X7471191Y-20621524D01*
X7709286Y-20688190D02*
X7709286Y-20821524D01*
X7661667Y-20612000D02*
X7614048Y-20754857D01*
X7614048Y-20754857D02*
X7737857Y-20754857D01*
X7795000Y-20621524D02*
X7928333Y-20621524D01*
X7928333Y-20621524D02*
X7842619Y-20821524D01*
X7995000Y-20640571D02*
X8004524Y-20631048D01*
X8004524Y-20631048D02*
X8023572Y-20621524D01*
X8023572Y-20621524D02*
X8071191Y-20621524D01*
X8071191Y-20621524D02*
X8090238Y-20631048D01*
X8090238Y-20631048D02*
X8099762Y-20640571D01*
X8099762Y-20640571D02*
X8109286Y-20659619D01*
X8109286Y-20659619D02*
X8109286Y-20678667D01*
X8109286Y-20678667D02*
X8099762Y-20707238D01*
X8099762Y-20707238D02*
X7985476Y-20821524D01*
X7985476Y-20821524D02*
X8109286Y-20821524D01*
X8185476Y-20621524D02*
X8185476Y-20659619D01*
X8261667Y-20621524D02*
X8261667Y-20659619D01*
X8556905Y-20897714D02*
X8547381Y-20888190D01*
X8547381Y-20888190D02*
X8528334Y-20859619D01*
X8528334Y-20859619D02*
X8518810Y-20840571D01*
X8518810Y-20840571D02*
X8509286Y-20812000D01*
X8509286Y-20812000D02*
X8499762Y-20764381D01*
X8499762Y-20764381D02*
X8499762Y-20726286D01*
X8499762Y-20726286D02*
X8509286Y-20678667D01*
X8509286Y-20678667D02*
X8518810Y-20650095D01*
X8518810Y-20650095D02*
X8528334Y-20631048D01*
X8528334Y-20631048D02*
X8547381Y-20602476D01*
X8547381Y-20602476D02*
X8556905Y-20592952D01*
X8718810Y-20688190D02*
X8718810Y-20821524D01*
X8671191Y-20612000D02*
X8623572Y-20754857D01*
X8623572Y-20754857D02*
X8747381Y-20754857D01*
X8975953Y-20821524D02*
X8975953Y-20621524D01*
X9061667Y-20821524D02*
X9061667Y-20716762D01*
X9061667Y-20716762D02*
X9052143Y-20697714D01*
X9052143Y-20697714D02*
X9033096Y-20688190D01*
X9033096Y-20688190D02*
X9004524Y-20688190D01*
X9004524Y-20688190D02*
X8985477Y-20697714D01*
X8985477Y-20697714D02*
X8975953Y-20707238D01*
X9185477Y-20821524D02*
X9166429Y-20812000D01*
X9166429Y-20812000D02*
X9156905Y-20802476D01*
X9156905Y-20802476D02*
X9147381Y-20783429D01*
X9147381Y-20783429D02*
X9147381Y-20726286D01*
X9147381Y-20726286D02*
X9156905Y-20707238D01*
X9156905Y-20707238D02*
X9166429Y-20697714D01*
X9166429Y-20697714D02*
X9185477Y-20688190D01*
X9185477Y-20688190D02*
X9214048Y-20688190D01*
X9214048Y-20688190D02*
X9233096Y-20697714D01*
X9233096Y-20697714D02*
X9242619Y-20707238D01*
X9242619Y-20707238D02*
X9252143Y-20726286D01*
X9252143Y-20726286D02*
X9252143Y-20783429D01*
X9252143Y-20783429D02*
X9242619Y-20802476D01*
X9242619Y-20802476D02*
X9233096Y-20812000D01*
X9233096Y-20812000D02*
X9214048Y-20821524D01*
X9214048Y-20821524D02*
X9185477Y-20821524D01*
X9366429Y-20821524D02*
X9347381Y-20812000D01*
X9347381Y-20812000D02*
X9337858Y-20792952D01*
X9337858Y-20792952D02*
X9337858Y-20621524D01*
X9518810Y-20812000D02*
X9499762Y-20821524D01*
X9499762Y-20821524D02*
X9461667Y-20821524D01*
X9461667Y-20821524D02*
X9442619Y-20812000D01*
X9442619Y-20812000D02*
X9433096Y-20792952D01*
X9433096Y-20792952D02*
X9433096Y-20716762D01*
X9433096Y-20716762D02*
X9442619Y-20697714D01*
X9442619Y-20697714D02*
X9461667Y-20688190D01*
X9461667Y-20688190D02*
X9499762Y-20688190D01*
X9499762Y-20688190D02*
X9518810Y-20697714D01*
X9518810Y-20697714D02*
X9528334Y-20716762D01*
X9528334Y-20716762D02*
X9528334Y-20735810D01*
X9528334Y-20735810D02*
X9433096Y-20754857D01*
X9604524Y-20812000D02*
X9623572Y-20821524D01*
X9623572Y-20821524D02*
X9661667Y-20821524D01*
X9661667Y-20821524D02*
X9680715Y-20812000D01*
X9680715Y-20812000D02*
X9690239Y-20792952D01*
X9690239Y-20792952D02*
X9690239Y-20783429D01*
X9690239Y-20783429D02*
X9680715Y-20764381D01*
X9680715Y-20764381D02*
X9661667Y-20754857D01*
X9661667Y-20754857D02*
X9633096Y-20754857D01*
X9633096Y-20754857D02*
X9614048Y-20745333D01*
X9614048Y-20745333D02*
X9604524Y-20726286D01*
X9604524Y-20726286D02*
X9604524Y-20716762D01*
X9604524Y-20716762D02*
X9614048Y-20697714D01*
X9614048Y-20697714D02*
X9633096Y-20688190D01*
X9633096Y-20688190D02*
X9661667Y-20688190D01*
X9661667Y-20688190D02*
X9680715Y-20697714D01*
X9756905Y-20897714D02*
X9766429Y-20888190D01*
X9766429Y-20888190D02*
X9785477Y-20859619D01*
X9785477Y-20859619D02*
X9795000Y-20840571D01*
X9795000Y-20840571D02*
X9804524Y-20812000D01*
X9804524Y-20812000D02*
X9814048Y-20764381D01*
X9814048Y-20764381D02*
X9814048Y-20726286D01*
X9814048Y-20726286D02*
X9804524Y-20678667D01*
X9804524Y-20678667D02*
X9795000Y-20650095D01*
X9795000Y-20650095D02*
X9785477Y-20631048D01*
X9785477Y-20631048D02*
X9766429Y-20602476D01*
X9766429Y-20602476D02*
X9756905Y-20592952D01*
X4795000Y-20893000D02*
X4995000Y-21093000D01*
X4995000Y-20893000D02*
X4795000Y-21093000D01*
X4965711Y-21063711D02*
X4965711Y-20922289D01*
X4824289Y-20922289D01*
X4824289Y-21063711D01*
X4965711Y-21063711D01*
X5223571Y-20885524D02*
X5347381Y-20885524D01*
X5347381Y-20885524D02*
X5280714Y-20961714D01*
X5280714Y-20961714D02*
X5309286Y-20961714D01*
X5309286Y-20961714D02*
X5328333Y-20971238D01*
X5328333Y-20971238D02*
X5337857Y-20980762D01*
X5337857Y-20980762D02*
X5347381Y-20999810D01*
X5347381Y-20999810D02*
X5347381Y-21047429D01*
X5347381Y-21047429D02*
X5337857Y-21066476D01*
X5337857Y-21066476D02*
X5328333Y-21076000D01*
X5328333Y-21076000D02*
X5309286Y-21085524D01*
X5309286Y-21085524D02*
X5252143Y-21085524D01*
X5252143Y-21085524D02*
X5233095Y-21076000D01*
X5233095Y-21076000D02*
X5223571Y-21066476D01*
X5433095Y-21066476D02*
X5442619Y-21076000D01*
X5442619Y-21076000D02*
X5433095Y-21085524D01*
X5433095Y-21085524D02*
X5423571Y-21076000D01*
X5423571Y-21076000D02*
X5433095Y-21066476D01*
X5433095Y-21066476D02*
X5433095Y-21085524D01*
X5623571Y-20885524D02*
X5528333Y-20885524D01*
X5528333Y-20885524D02*
X5518810Y-20980762D01*
X5518810Y-20980762D02*
X5528333Y-20971238D01*
X5528333Y-20971238D02*
X5547381Y-20961714D01*
X5547381Y-20961714D02*
X5595000Y-20961714D01*
X5595000Y-20961714D02*
X5614048Y-20971238D01*
X5614048Y-20971238D02*
X5623571Y-20980762D01*
X5623571Y-20980762D02*
X5633095Y-20999810D01*
X5633095Y-20999810D02*
X5633095Y-21047429D01*
X5633095Y-21047429D02*
X5623571Y-21066476D01*
X5623571Y-21066476D02*
X5614048Y-21076000D01*
X5614048Y-21076000D02*
X5595000Y-21085524D01*
X5595000Y-21085524D02*
X5547381Y-21085524D01*
X5547381Y-21085524D02*
X5528333Y-21076000D01*
X5528333Y-21076000D02*
X5518810Y-21066476D01*
X5756905Y-20885524D02*
X5775952Y-20885524D01*
X5775952Y-20885524D02*
X5795000Y-20895048D01*
X5795000Y-20895048D02*
X5804524Y-20904571D01*
X5804524Y-20904571D02*
X5814048Y-20923619D01*
X5814048Y-20923619D02*
X5823571Y-20961714D01*
X5823571Y-20961714D02*
X5823571Y-21009333D01*
X5823571Y-21009333D02*
X5814048Y-21047429D01*
X5814048Y-21047429D02*
X5804524Y-21066476D01*
X5804524Y-21066476D02*
X5795000Y-21076000D01*
X5795000Y-21076000D02*
X5775952Y-21085524D01*
X5775952Y-21085524D02*
X5756905Y-21085524D01*
X5756905Y-21085524D02*
X5737857Y-21076000D01*
X5737857Y-21076000D02*
X5728333Y-21066476D01*
X5728333Y-21066476D02*
X5718809Y-21047429D01*
X5718809Y-21047429D02*
X5709286Y-21009333D01*
X5709286Y-21009333D02*
X5709286Y-20961714D01*
X5709286Y-20961714D02*
X5718809Y-20923619D01*
X5718809Y-20923619D02*
X5728333Y-20904571D01*
X5728333Y-20904571D02*
X5737857Y-20895048D01*
X5737857Y-20895048D02*
X5756905Y-20885524D01*
X5947381Y-20885524D02*
X5966429Y-20885524D01*
X5966429Y-20885524D02*
X5985476Y-20895048D01*
X5985476Y-20895048D02*
X5995000Y-20904571D01*
X5995000Y-20904571D02*
X6004524Y-20923619D01*
X6004524Y-20923619D02*
X6014048Y-20961714D01*
X6014048Y-20961714D02*
X6014048Y-21009333D01*
X6014048Y-21009333D02*
X6004524Y-21047429D01*
X6004524Y-21047429D02*
X5995000Y-21066476D01*
X5995000Y-21066476D02*
X5985476Y-21076000D01*
X5985476Y-21076000D02*
X5966429Y-21085524D01*
X5966429Y-21085524D02*
X5947381Y-21085524D01*
X5947381Y-21085524D02*
X5928333Y-21076000D01*
X5928333Y-21076000D02*
X5918809Y-21066476D01*
X5918809Y-21066476D02*
X5909286Y-21047429D01*
X5909286Y-21047429D02*
X5899762Y-21009333D01*
X5899762Y-21009333D02*
X5899762Y-20961714D01*
X5899762Y-20961714D02*
X5909286Y-20923619D01*
X5909286Y-20923619D02*
X5918809Y-20904571D01*
X5918809Y-20904571D02*
X5928333Y-20895048D01*
X5928333Y-20895048D02*
X5947381Y-20885524D01*
X6099762Y-21085524D02*
X6099762Y-20952190D01*
X6099762Y-20971238D02*
X6109286Y-20961714D01*
X6109286Y-20961714D02*
X6128333Y-20952190D01*
X6128333Y-20952190D02*
X6156905Y-20952190D01*
X6156905Y-20952190D02*
X6175952Y-20961714D01*
X6175952Y-20961714D02*
X6185476Y-20980762D01*
X6185476Y-20980762D02*
X6185476Y-21085524D01*
X6185476Y-20980762D02*
X6195000Y-20961714D01*
X6195000Y-20961714D02*
X6214048Y-20952190D01*
X6214048Y-20952190D02*
X6242619Y-20952190D01*
X6242619Y-20952190D02*
X6261667Y-20961714D01*
X6261667Y-20961714D02*
X6271190Y-20980762D01*
X6271190Y-20980762D02*
X6271190Y-21085524D01*
X6366429Y-21085524D02*
X6366429Y-20952190D01*
X6366429Y-20971238D02*
X6375952Y-20961714D01*
X6375952Y-20961714D02*
X6395000Y-20952190D01*
X6395000Y-20952190D02*
X6423571Y-20952190D01*
X6423571Y-20952190D02*
X6442619Y-20961714D01*
X6442619Y-20961714D02*
X6452143Y-20980762D01*
X6452143Y-20980762D02*
X6452143Y-21085524D01*
X6452143Y-20980762D02*
X6461667Y-20961714D01*
X6461667Y-20961714D02*
X6480714Y-20952190D01*
X6480714Y-20952190D02*
X6509286Y-20952190D01*
X6509286Y-20952190D02*
X6528333Y-20961714D01*
X6528333Y-20961714D02*
X6537857Y-20980762D01*
X6537857Y-20980762D02*
X6537857Y-21085524D01*
X6928333Y-20876000D02*
X6756905Y-21133143D01*
X7185476Y-20885524D02*
X7204524Y-20885524D01*
X7204524Y-20885524D02*
X7223572Y-20895048D01*
X7223572Y-20895048D02*
X7233095Y-20904571D01*
X7233095Y-20904571D02*
X7242619Y-20923619D01*
X7242619Y-20923619D02*
X7252143Y-20961714D01*
X7252143Y-20961714D02*
X7252143Y-21009333D01*
X7252143Y-21009333D02*
X7242619Y-21047429D01*
X7242619Y-21047429D02*
X7233095Y-21066476D01*
X7233095Y-21066476D02*
X7223572Y-21076000D01*
X7223572Y-21076000D02*
X7204524Y-21085524D01*
X7204524Y-21085524D02*
X7185476Y-21085524D01*
X7185476Y-21085524D02*
X7166429Y-21076000D01*
X7166429Y-21076000D02*
X7156905Y-21066476D01*
X7156905Y-21066476D02*
X7147381Y-21047429D01*
X7147381Y-21047429D02*
X7137857Y-21009333D01*
X7137857Y-21009333D02*
X7137857Y-20961714D01*
X7137857Y-20961714D02*
X7147381Y-20923619D01*
X7147381Y-20923619D02*
X7156905Y-20904571D01*
X7156905Y-20904571D02*
X7166429Y-20895048D01*
X7166429Y-20895048D02*
X7185476Y-20885524D01*
X7337857Y-21066476D02*
X7347381Y-21076000D01*
X7347381Y-21076000D02*
X7337857Y-21085524D01*
X7337857Y-21085524D02*
X7328333Y-21076000D01*
X7328333Y-21076000D02*
X7337857Y-21066476D01*
X7337857Y-21066476D02*
X7337857Y-21085524D01*
X7537857Y-21085524D02*
X7423572Y-21085524D01*
X7480714Y-21085524D02*
X7480714Y-20885524D01*
X7480714Y-20885524D02*
X7461667Y-20914095D01*
X7461667Y-20914095D02*
X7442619Y-20933143D01*
X7442619Y-20933143D02*
X7423572Y-20942667D01*
X7604524Y-20885524D02*
X7728333Y-20885524D01*
X7728333Y-20885524D02*
X7661667Y-20961714D01*
X7661667Y-20961714D02*
X7690238Y-20961714D01*
X7690238Y-20961714D02*
X7709286Y-20971238D01*
X7709286Y-20971238D02*
X7718810Y-20980762D01*
X7718810Y-20980762D02*
X7728333Y-20999810D01*
X7728333Y-20999810D02*
X7728333Y-21047429D01*
X7728333Y-21047429D02*
X7718810Y-21066476D01*
X7718810Y-21066476D02*
X7709286Y-21076000D01*
X7709286Y-21076000D02*
X7690238Y-21085524D01*
X7690238Y-21085524D02*
X7633095Y-21085524D01*
X7633095Y-21085524D02*
X7614048Y-21076000D01*
X7614048Y-21076000D02*
X7604524Y-21066476D01*
X7795000Y-20885524D02*
X7928333Y-20885524D01*
X7928333Y-20885524D02*
X7842619Y-21085524D01*
X8033095Y-20971238D02*
X8014048Y-20961714D01*
X8014048Y-20961714D02*
X8004524Y-20952190D01*
X8004524Y-20952190D02*
X7995000Y-20933143D01*
X7995000Y-20933143D02*
X7995000Y-20923619D01*
X7995000Y-20923619D02*
X8004524Y-20904571D01*
X8004524Y-20904571D02*
X8014048Y-20895048D01*
X8014048Y-20895048D02*
X8033095Y-20885524D01*
X8033095Y-20885524D02*
X8071191Y-20885524D01*
X8071191Y-20885524D02*
X8090238Y-20895048D01*
X8090238Y-20895048D02*
X8099762Y-20904571D01*
X8099762Y-20904571D02*
X8109286Y-20923619D01*
X8109286Y-20923619D02*
X8109286Y-20933143D01*
X8109286Y-20933143D02*
X8099762Y-20952190D01*
X8099762Y-20952190D02*
X8090238Y-20961714D01*
X8090238Y-20961714D02*
X8071191Y-20971238D01*
X8071191Y-20971238D02*
X8033095Y-20971238D01*
X8033095Y-20971238D02*
X8014048Y-20980762D01*
X8014048Y-20980762D02*
X8004524Y-20990286D01*
X8004524Y-20990286D02*
X7995000Y-21009333D01*
X7995000Y-21009333D02*
X7995000Y-21047429D01*
X7995000Y-21047429D02*
X8004524Y-21066476D01*
X8004524Y-21066476D02*
X8014048Y-21076000D01*
X8014048Y-21076000D02*
X8033095Y-21085524D01*
X8033095Y-21085524D02*
X8071191Y-21085524D01*
X8071191Y-21085524D02*
X8090238Y-21076000D01*
X8090238Y-21076000D02*
X8099762Y-21066476D01*
X8099762Y-21066476D02*
X8109286Y-21047429D01*
X8109286Y-21047429D02*
X8109286Y-21009333D01*
X8109286Y-21009333D02*
X8099762Y-20990286D01*
X8099762Y-20990286D02*
X8090238Y-20980762D01*
X8090238Y-20980762D02*
X8071191Y-20971238D01*
X8185476Y-20885524D02*
X8185476Y-20923619D01*
X8261667Y-20885524D02*
X8261667Y-20923619D01*
X8556905Y-21161714D02*
X8547381Y-21152190D01*
X8547381Y-21152190D02*
X8528334Y-21123619D01*
X8528334Y-21123619D02*
X8518810Y-21104571D01*
X8518810Y-21104571D02*
X8509286Y-21076000D01*
X8509286Y-21076000D02*
X8499762Y-21028381D01*
X8499762Y-21028381D02*
X8499762Y-20990286D01*
X8499762Y-20990286D02*
X8509286Y-20942667D01*
X8509286Y-20942667D02*
X8518810Y-20914095D01*
X8518810Y-20914095D02*
X8528334Y-20895048D01*
X8528334Y-20895048D02*
X8547381Y-20866476D01*
X8547381Y-20866476D02*
X8556905Y-20856952D01*
X8661667Y-20971238D02*
X8642619Y-20961714D01*
X8642619Y-20961714D02*
X8633096Y-20952190D01*
X8633096Y-20952190D02*
X8623572Y-20933143D01*
X8623572Y-20933143D02*
X8623572Y-20923619D01*
X8623572Y-20923619D02*
X8633096Y-20904571D01*
X8633096Y-20904571D02*
X8642619Y-20895048D01*
X8642619Y-20895048D02*
X8661667Y-20885524D01*
X8661667Y-20885524D02*
X8699762Y-20885524D01*
X8699762Y-20885524D02*
X8718810Y-20895048D01*
X8718810Y-20895048D02*
X8728334Y-20904571D01*
X8728334Y-20904571D02*
X8737857Y-20923619D01*
X8737857Y-20923619D02*
X8737857Y-20933143D01*
X8737857Y-20933143D02*
X8728334Y-20952190D01*
X8728334Y-20952190D02*
X8718810Y-20961714D01*
X8718810Y-20961714D02*
X8699762Y-20971238D01*
X8699762Y-20971238D02*
X8661667Y-20971238D01*
X8661667Y-20971238D02*
X8642619Y-20980762D01*
X8642619Y-20980762D02*
X8633096Y-20990286D01*
X8633096Y-20990286D02*
X8623572Y-21009333D01*
X8623572Y-21009333D02*
X8623572Y-21047429D01*
X8623572Y-21047429D02*
X8633096Y-21066476D01*
X8633096Y-21066476D02*
X8642619Y-21076000D01*
X8642619Y-21076000D02*
X8661667Y-21085524D01*
X8661667Y-21085524D02*
X8699762Y-21085524D01*
X8699762Y-21085524D02*
X8718810Y-21076000D01*
X8718810Y-21076000D02*
X8728334Y-21066476D01*
X8728334Y-21066476D02*
X8737857Y-21047429D01*
X8737857Y-21047429D02*
X8737857Y-21009333D01*
X8737857Y-21009333D02*
X8728334Y-20990286D01*
X8728334Y-20990286D02*
X8718810Y-20980762D01*
X8718810Y-20980762D02*
X8699762Y-20971238D01*
X8975953Y-21085524D02*
X8975953Y-20885524D01*
X9061667Y-21085524D02*
X9061667Y-20980762D01*
X9061667Y-20980762D02*
X9052143Y-20961714D01*
X9052143Y-20961714D02*
X9033096Y-20952190D01*
X9033096Y-20952190D02*
X9004524Y-20952190D01*
X9004524Y-20952190D02*
X8985477Y-20961714D01*
X8985477Y-20961714D02*
X8975953Y-20971238D01*
X9185477Y-21085524D02*
X9166429Y-21076000D01*
X9166429Y-21076000D02*
X9156905Y-21066476D01*
X9156905Y-21066476D02*
X9147381Y-21047429D01*
X9147381Y-21047429D02*
X9147381Y-20990286D01*
X9147381Y-20990286D02*
X9156905Y-20971238D01*
X9156905Y-20971238D02*
X9166429Y-20961714D01*
X9166429Y-20961714D02*
X9185477Y-20952190D01*
X9185477Y-20952190D02*
X9214048Y-20952190D01*
X9214048Y-20952190D02*
X9233096Y-20961714D01*
X9233096Y-20961714D02*
X9242619Y-20971238D01*
X9242619Y-20971238D02*
X9252143Y-20990286D01*
X9252143Y-20990286D02*
X9252143Y-21047429D01*
X9252143Y-21047429D02*
X9242619Y-21066476D01*
X9242619Y-21066476D02*
X9233096Y-21076000D01*
X9233096Y-21076000D02*
X9214048Y-21085524D01*
X9214048Y-21085524D02*
X9185477Y-21085524D01*
X9366429Y-21085524D02*
X9347381Y-21076000D01*
X9347381Y-21076000D02*
X9337858Y-21056952D01*
X9337858Y-21056952D02*
X9337858Y-20885524D01*
X9518810Y-21076000D02*
X9499762Y-21085524D01*
X9499762Y-21085524D02*
X9461667Y-21085524D01*
X9461667Y-21085524D02*
X9442619Y-21076000D01*
X9442619Y-21076000D02*
X9433096Y-21056952D01*
X9433096Y-21056952D02*
X9433096Y-20980762D01*
X9433096Y-20980762D02*
X9442619Y-20961714D01*
X9442619Y-20961714D02*
X9461667Y-20952190D01*
X9461667Y-20952190D02*
X9499762Y-20952190D01*
X9499762Y-20952190D02*
X9518810Y-20961714D01*
X9518810Y-20961714D02*
X9528334Y-20980762D01*
X9528334Y-20980762D02*
X9528334Y-20999810D01*
X9528334Y-20999810D02*
X9433096Y-21018857D01*
X9604524Y-21076000D02*
X9623572Y-21085524D01*
X9623572Y-21085524D02*
X9661667Y-21085524D01*
X9661667Y-21085524D02*
X9680715Y-21076000D01*
X9680715Y-21076000D02*
X9690239Y-21056952D01*
X9690239Y-21056952D02*
X9690239Y-21047429D01*
X9690239Y-21047429D02*
X9680715Y-21028381D01*
X9680715Y-21028381D02*
X9661667Y-21018857D01*
X9661667Y-21018857D02*
X9633096Y-21018857D01*
X9633096Y-21018857D02*
X9614048Y-21009333D01*
X9614048Y-21009333D02*
X9604524Y-20990286D01*
X9604524Y-20990286D02*
X9604524Y-20980762D01*
X9604524Y-20980762D02*
X9614048Y-20961714D01*
X9614048Y-20961714D02*
X9633096Y-20952190D01*
X9633096Y-20952190D02*
X9661667Y-20952190D01*
X9661667Y-20952190D02*
X9680715Y-20961714D01*
X9756905Y-21161714D02*
X9766429Y-21152190D01*
X9766429Y-21152190D02*
X9785477Y-21123619D01*
X9785477Y-21123619D02*
X9795000Y-21104571D01*
X9795000Y-21104571D02*
X9804524Y-21076000D01*
X9804524Y-21076000D02*
X9814048Y-21028381D01*
X9814048Y-21028381D02*
X9814048Y-20990286D01*
X9814048Y-20990286D02*
X9804524Y-20942667D01*
X9804524Y-20942667D02*
X9795000Y-20914095D01*
X9795000Y-20914095D02*
X9785477Y-20895048D01*
X9785477Y-20895048D02*
X9766429Y-20866476D01*
X9766429Y-20866476D02*
X9756905Y-20856952D01*
M02*
