%TF.GenerationSoftware,KiCad,Pcbnew,7.0.1*%
%TF.CreationDate,2023-06-27T00:24:21+02:00*%
%TF.ProjectId,Main board,4d61696e-2062-46f6-9172-642e6b696361,rev?*%
%TF.SameCoordinates,Original*%
%TF.FileFunction,Paste,Top*%
%TF.FilePolarity,Positive*%
%FSLAX46Y46*%
G04 Gerber Fmt 4.6, Leading zero omitted, Abs format (unit mm)*
G04 Created by KiCad (PCBNEW 7.0.1) date 2023-06-27 00:24:21*
%MOMM*%
%LPD*%
G01*
G04 APERTURE LIST*
G04 Aperture macros list*
%AMRoundRect*
0 Rectangle with rounded corners*
0 $1 Rounding radius*
0 $2 $3 $4 $5 $6 $7 $8 $9 X,Y pos of 4 corners*
0 Add a 4 corners polygon primitive as box body*
4,1,4,$2,$3,$4,$5,$6,$7,$8,$9,$2,$3,0*
0 Add four circle primitives for the rounded corners*
1,1,$1+$1,$2,$3*
1,1,$1+$1,$4,$5*
1,1,$1+$1,$6,$7*
1,1,$1+$1,$8,$9*
0 Add four rect primitives between the rounded corners*
20,1,$1+$1,$2,$3,$4,$5,0*
20,1,$1+$1,$4,$5,$6,$7,0*
20,1,$1+$1,$6,$7,$8,$9,0*
20,1,$1+$1,$8,$9,$2,$3,0*%
G04 Aperture macros list end*
%ADD10RoundRect,0.140000X0.140000X0.170000X-0.140000X0.170000X-0.140000X-0.170000X0.140000X-0.170000X0*%
%ADD11RoundRect,0.250000X0.450000X-0.262500X0.450000X0.262500X-0.450000X0.262500X-0.450000X-0.262500X0*%
%ADD12RoundRect,0.135000X-0.226274X-0.035355X-0.035355X-0.226274X0.226274X0.035355X0.035355X0.226274X0*%
%ADD13RoundRect,0.150000X-0.825000X-0.150000X0.825000X-0.150000X0.825000X0.150000X-0.825000X0.150000X0*%
%ADD14RoundRect,0.250000X-0.262500X-0.450000X0.262500X-0.450000X0.262500X0.450000X-0.262500X0.450000X0*%
%ADD15RoundRect,0.250000X0.262500X0.450000X-0.262500X0.450000X-0.262500X-0.450000X0.262500X-0.450000X0*%
%ADD16RoundRect,0.250000X-0.475000X0.250000X-0.475000X-0.250000X0.475000X-0.250000X0.475000X0.250000X0*%
%ADD17RoundRect,0.250000X-0.250000X-0.475000X0.250000X-0.475000X0.250000X0.475000X-0.250000X0.475000X0*%
%ADD18RoundRect,0.140000X0.170000X-0.140000X0.170000X0.140000X-0.170000X0.140000X-0.170000X-0.140000X0*%
%ADD19RoundRect,0.112500X0.112500X-0.187500X0.112500X0.187500X-0.112500X0.187500X-0.112500X-0.187500X0*%
%ADD20RoundRect,0.112500X-0.112500X0.187500X-0.112500X-0.187500X0.112500X-0.187500X0.112500X0.187500X0*%
%ADD21RoundRect,0.250000X-0.450000X0.262500X-0.450000X-0.262500X0.450000X-0.262500X0.450000X0.262500X0*%
%ADD22RoundRect,0.250000X0.475000X-0.250000X0.475000X0.250000X-0.475000X0.250000X-0.475000X-0.250000X0*%
%ADD23R,1.450000X0.450000*%
%ADD24R,1.500000X1.800000*%
%ADD25RoundRect,0.140000X-0.170000X0.140000X-0.170000X-0.140000X0.170000X-0.140000X0.170000X0.140000X0*%
%ADD26RoundRect,0.100000X0.637500X0.100000X-0.637500X0.100000X-0.637500X-0.100000X0.637500X-0.100000X0*%
%ADD27RoundRect,0.150000X0.825000X0.150000X-0.825000X0.150000X-0.825000X-0.150000X0.825000X-0.150000X0*%
%ADD28RoundRect,0.140000X-0.140000X-0.170000X0.140000X-0.170000X0.140000X0.170000X-0.140000X0.170000X0*%
%ADD29R,0.400000X0.500000*%
%ADD30R,0.300000X0.500000*%
%ADD31RoundRect,0.135000X-0.185000X0.135000X-0.185000X-0.135000X0.185000X-0.135000X0.185000X0.135000X0*%
%ADD32RoundRect,0.135000X-0.135000X-0.185000X0.135000X-0.185000X0.135000X0.185000X-0.135000X0.185000X0*%
%ADD33RoundRect,0.250000X0.503814X0.132583X0.132583X0.503814X-0.503814X-0.132583X-0.132583X-0.503814X0*%
%ADD34RoundRect,0.135000X0.185000X-0.135000X0.185000X0.135000X-0.185000X0.135000X-0.185000X-0.135000X0*%
%ADD35R,1.750000X0.450000*%
%ADD36RoundRect,0.150000X-0.150000X0.825000X-0.150000X-0.825000X0.150000X-0.825000X0.150000X0.825000X0*%
%ADD37R,0.500000X0.400000*%
%ADD38R,0.500000X0.300000*%
%ADD39RoundRect,0.112500X-0.187500X-0.112500X0.187500X-0.112500X0.187500X0.112500X-0.187500X0.112500X0*%
%ADD40RoundRect,0.150000X-0.587500X-0.150000X0.587500X-0.150000X0.587500X0.150000X-0.587500X0.150000X0*%
%ADD41RoundRect,0.135000X0.135000X0.185000X-0.135000X0.185000X-0.135000X-0.185000X0.135000X-0.185000X0*%
%ADD42RoundRect,0.250000X0.325000X1.100000X-0.325000X1.100000X-0.325000X-1.100000X0.325000X-1.100000X0*%
%ADD43R,1.500000X2.000000*%
%ADD44R,3.800000X2.000000*%
%ADD45RoundRect,0.250000X0.250000X0.475000X-0.250000X0.475000X-0.250000X-0.475000X0.250000X-0.475000X0*%
%ADD46RoundRect,0.150000X0.150000X-0.587500X0.150000X0.587500X-0.150000X0.587500X-0.150000X-0.587500X0*%
%ADD47RoundRect,0.150000X-0.150000X0.587500X-0.150000X-0.587500X0.150000X-0.587500X0.150000X0.587500X0*%
%ADD48R,0.250000X0.750000*%
G04 APERTURE END LIST*
D10*
X195605000Y-123975000D03*
X194645000Y-123975000D03*
D11*
X107975000Y-165287500D03*
X107975000Y-163462500D03*
D12*
X202278249Y-99796751D03*
X202999497Y-100517999D03*
D13*
X228575000Y-111425000D03*
X228575000Y-112695000D03*
X228575000Y-113965000D03*
X228575000Y-115235000D03*
X233525000Y-115235000D03*
X233525000Y-113965000D03*
X233525000Y-112695000D03*
X233525000Y-111425000D03*
D14*
X191706250Y-70675000D03*
X193531250Y-70675000D03*
D15*
X179787500Y-112475000D03*
X177962500Y-112475000D03*
D16*
X175367500Y-91020000D03*
X175367500Y-92920000D03*
D17*
X123887500Y-71775000D03*
X125787500Y-71775000D03*
D11*
X103887500Y-62115000D03*
X103887500Y-60290000D03*
D18*
X199425000Y-92854888D03*
X199425000Y-91894888D03*
D15*
X120062500Y-156175000D03*
X118237500Y-156175000D03*
D14*
X204275000Y-112150000D03*
X206100000Y-112150000D03*
X172837500Y-57225000D03*
X174662500Y-57225000D03*
D16*
X224612500Y-103352501D03*
X224612500Y-105252501D03*
D19*
X176225000Y-112350000D03*
X176225000Y-110250000D03*
D20*
X230475000Y-123169888D03*
X230475000Y-125269888D03*
D11*
X57575000Y-62337500D03*
X57575000Y-60512500D03*
D21*
X192806250Y-58987500D03*
X192806250Y-60812500D03*
D11*
X116962500Y-90737500D03*
X116962500Y-88912500D03*
D10*
X95630000Y-90850000D03*
X94670000Y-90850000D03*
D17*
X119237500Y-66600000D03*
X121137500Y-66600000D03*
D22*
X53125000Y-65787500D03*
X53125000Y-63887500D03*
D11*
X76450000Y-62212500D03*
X76450000Y-60387500D03*
D18*
X202825000Y-113110000D03*
X202825000Y-112150000D03*
D11*
X119712500Y-81562500D03*
X119712500Y-79737500D03*
D20*
X176225000Y-107025000D03*
X176225000Y-109125000D03*
D19*
X230475000Y-128494888D03*
X230475000Y-126394888D03*
D23*
X75600000Y-65722500D03*
X75600000Y-65072500D03*
X75600000Y-64422500D03*
X75600000Y-63772500D03*
X71200000Y-63772500D03*
X71200000Y-64422500D03*
X71200000Y-65072500D03*
X71200000Y-65722500D03*
D24*
X73400000Y-64737500D03*
D15*
X195393750Y-57250000D03*
X193568750Y-57250000D03*
D11*
X103612500Y-69052500D03*
X103612500Y-67227500D03*
D17*
X190175000Y-62575000D03*
X192075000Y-62575000D03*
D21*
X214800000Y-115462500D03*
X214800000Y-117287500D03*
X194706250Y-58987500D03*
X194706250Y-60812500D03*
D10*
X189010000Y-100774888D03*
X188050000Y-100774888D03*
D25*
X88962500Y-75570000D03*
X88962500Y-76530000D03*
D26*
X95950000Y-161875000D03*
X95950000Y-161225000D03*
X95950000Y-160575000D03*
X95950000Y-159925000D03*
X95950000Y-159275000D03*
X95950000Y-158625000D03*
X95950000Y-157975000D03*
X90225000Y-157975000D03*
X90225000Y-158625000D03*
X90225000Y-159275000D03*
X90225000Y-159925000D03*
X90225000Y-160575000D03*
X90225000Y-161225000D03*
X90225000Y-161875000D03*
D15*
X209625000Y-83475000D03*
X207800000Y-83475000D03*
D14*
X207825000Y-85375000D03*
X209650000Y-85375000D03*
D27*
X186975000Y-69055000D03*
X186975000Y-67785000D03*
X186975000Y-66515000D03*
X186975000Y-65245000D03*
X182025000Y-65245000D03*
X182025000Y-66515000D03*
X182025000Y-67785000D03*
X182025000Y-69055000D03*
D11*
X123775000Y-158512500D03*
X123775000Y-156687500D03*
D15*
X118925000Y-85200000D03*
X117100000Y-85200000D03*
D21*
X123887500Y-73525000D03*
X123887500Y-75350000D03*
D11*
X55650000Y-62362500D03*
X55650000Y-60537500D03*
D15*
X191625000Y-112256250D03*
X189800000Y-112256250D03*
D11*
X118300000Y-58912500D03*
X118300000Y-57087500D03*
D17*
X217037500Y-106199888D03*
X218937500Y-106199888D03*
D11*
X101987500Y-62115000D03*
X101987500Y-60290000D03*
D28*
X219274008Y-127968784D03*
X220234008Y-127968784D03*
D29*
X71500000Y-101250000D03*
D30*
X72000000Y-101250000D03*
X72500000Y-101250000D03*
D29*
X73000000Y-101250000D03*
X73000000Y-100250000D03*
D30*
X72500000Y-100250000D03*
X72000000Y-100250000D03*
D29*
X71500000Y-100250000D03*
X57825000Y-103625000D03*
D30*
X58325000Y-103625000D03*
X58825000Y-103625000D03*
D29*
X59325000Y-103625000D03*
X59325000Y-102625000D03*
D30*
X58825000Y-102625000D03*
X58325000Y-102625000D03*
D29*
X57825000Y-102625000D03*
D25*
X65300000Y-75670000D03*
X65300000Y-76630000D03*
D22*
X139100000Y-70600000D03*
X139100000Y-68700000D03*
D15*
X204550000Y-102475000D03*
X202725000Y-102475000D03*
D31*
X220925000Y-123615000D03*
X220925000Y-124635000D03*
D21*
X200850000Y-77852500D03*
X200850000Y-79677500D03*
X206500000Y-92537500D03*
X206500000Y-94362500D03*
D22*
X83125000Y-65637500D03*
X83125000Y-63737500D03*
D11*
X108325000Y-81275000D03*
X108325000Y-79450000D03*
X91100000Y-62275000D03*
X91100000Y-60450000D03*
D14*
X231975000Y-101330001D03*
X233800000Y-101330001D03*
D28*
X199395000Y-100874888D03*
X200355000Y-100874888D03*
D32*
X72030000Y-103650000D03*
X73050000Y-103650000D03*
D11*
X113975000Y-165262500D03*
X113975000Y-163437500D03*
D27*
X194825000Y-83838604D03*
X194825000Y-82568604D03*
X194825000Y-81298604D03*
X194825000Y-80028604D03*
X189875000Y-80028604D03*
X189875000Y-81298604D03*
X189875000Y-82568604D03*
X189875000Y-83838604D03*
D11*
X96100000Y-165287500D03*
X96100000Y-163462500D03*
D17*
X118012500Y-77975000D03*
X119912500Y-77975000D03*
D21*
X181217500Y-94357500D03*
X181217500Y-96182500D03*
D26*
X134337500Y-84725000D03*
X134337500Y-84075000D03*
X134337500Y-83425000D03*
X134337500Y-82775000D03*
X134337500Y-82125000D03*
X134337500Y-81475000D03*
X134337500Y-80825000D03*
X134337500Y-80175000D03*
X134337500Y-79525000D03*
X134337500Y-78875000D03*
X134337500Y-78225000D03*
X134337500Y-77575000D03*
X128612500Y-77575000D03*
X128612500Y-78225000D03*
X128612500Y-78875000D03*
X128612500Y-79525000D03*
X128612500Y-80175000D03*
X128612500Y-80825000D03*
X128612500Y-81475000D03*
X128612500Y-82125000D03*
X128612500Y-82775000D03*
X128612500Y-83425000D03*
X128612500Y-84075000D03*
X128612500Y-84725000D03*
D11*
X131300000Y-67152500D03*
X131300000Y-65327500D03*
D33*
X235195235Y-91620235D03*
X233904765Y-90329765D03*
D17*
X72225000Y-58637500D03*
X74125000Y-58637500D03*
D11*
X109525000Y-88162500D03*
X109525000Y-86337500D03*
D23*
X136400000Y-70650000D03*
X136400000Y-70000000D03*
X136400000Y-69350000D03*
X136400000Y-68700000D03*
X132000000Y-68700000D03*
X132000000Y-69350000D03*
X132000000Y-70000000D03*
X132000000Y-70650000D03*
D24*
X134200000Y-69665000D03*
D11*
X86850000Y-69175000D03*
X86850000Y-67350000D03*
D23*
X212087500Y-111939888D03*
X212087500Y-112589888D03*
X212087500Y-113239888D03*
X212087500Y-113889888D03*
X216487500Y-113889888D03*
X216487500Y-113239888D03*
X216487500Y-112589888D03*
X216487500Y-111939888D03*
D24*
X214287500Y-112924888D03*
D34*
X233850000Y-81710000D03*
X233850000Y-80690000D03*
D26*
X96137500Y-79500000D03*
X96137500Y-78850000D03*
X96137500Y-78200000D03*
X96137500Y-77550000D03*
X96137500Y-76900000D03*
X96137500Y-76250000D03*
X96137500Y-75600000D03*
X96137500Y-74950000D03*
X96137500Y-74300000D03*
X96137500Y-73650000D03*
X96137500Y-73000000D03*
X96137500Y-72350000D03*
X90412500Y-72350000D03*
X90412500Y-73000000D03*
X90412500Y-73650000D03*
X90412500Y-74300000D03*
X90412500Y-74950000D03*
X90412500Y-75600000D03*
X90412500Y-76250000D03*
X90412500Y-76900000D03*
X90412500Y-77550000D03*
X90412500Y-78200000D03*
X90412500Y-78850000D03*
X90412500Y-79500000D03*
D21*
X98162500Y-160075000D03*
X98162500Y-161900000D03*
D11*
X135150000Y-74027500D03*
X135150000Y-72202500D03*
X80075000Y-64937500D03*
X80075000Y-63112500D03*
D10*
X189010000Y-99474888D03*
X188050000Y-99474888D03*
D14*
X181362500Y-110575000D03*
X183187500Y-110575000D03*
D17*
X102075000Y-58525000D03*
X103975000Y-58525000D03*
D11*
X111900000Y-161862500D03*
X111900000Y-160037500D03*
X117812500Y-81562500D03*
X117812500Y-79737500D03*
D35*
X217679008Y-127968784D03*
X217679008Y-127318784D03*
X217679008Y-126668784D03*
X217679008Y-126018784D03*
X217679008Y-125368784D03*
X217679008Y-124718784D03*
X217679008Y-124068784D03*
X217679008Y-123418784D03*
X217679008Y-122768784D03*
X217679008Y-122118784D03*
X217679008Y-121468784D03*
X217679008Y-120818784D03*
X217679008Y-120168784D03*
X217679008Y-119518784D03*
X210479008Y-119518784D03*
X210479008Y-120168784D03*
X210479008Y-120818784D03*
X210479008Y-121468784D03*
X210479008Y-122118784D03*
X210479008Y-122768784D03*
X210479008Y-123418784D03*
X210479008Y-124068784D03*
X210479008Y-124718784D03*
X210479008Y-125368784D03*
X210479008Y-126018784D03*
X210479008Y-126668784D03*
X210479008Y-127318784D03*
X210479008Y-127968784D03*
D21*
X215312500Y-107962388D03*
X215312500Y-109787388D03*
D27*
X181975000Y-81620000D03*
X181975000Y-80350000D03*
X181975000Y-79080000D03*
X181975000Y-77810000D03*
X177025000Y-77810000D03*
X177025000Y-79080000D03*
X177025000Y-80350000D03*
X177025000Y-81620000D03*
D18*
X208854008Y-124873784D03*
X208854008Y-123913784D03*
X176700000Y-106005000D03*
X176700000Y-105045000D03*
D36*
X121467500Y-68825000D03*
X120197500Y-68825000D03*
X118927500Y-68825000D03*
X117657500Y-68825000D03*
X117657500Y-73775000D03*
X118927500Y-73775000D03*
X120197500Y-73775000D03*
X121467500Y-73775000D03*
D22*
X103675000Y-84812500D03*
X103675000Y-82912500D03*
D29*
X61525000Y-103625000D03*
D30*
X62025000Y-103625000D03*
X62525000Y-103625000D03*
D29*
X63025000Y-103625000D03*
X63025000Y-102625000D03*
D30*
X62525000Y-102625000D03*
X62025000Y-102625000D03*
D29*
X61525000Y-102625000D03*
D11*
X101712500Y-69027500D03*
X101712500Y-67202500D03*
D26*
X63837500Y-79800000D03*
X63837500Y-79150000D03*
X63837500Y-78500000D03*
X63837500Y-77850000D03*
X63837500Y-77200000D03*
X63837500Y-76550000D03*
X63837500Y-75900000D03*
X63837500Y-75250000D03*
X63837500Y-74600000D03*
X63837500Y-73950000D03*
X63837500Y-73300000D03*
X63837500Y-72650000D03*
X58112500Y-72650000D03*
X58112500Y-73300000D03*
X58112500Y-73950000D03*
X58112500Y-74600000D03*
X58112500Y-75250000D03*
X58112500Y-75900000D03*
X58112500Y-76550000D03*
X58112500Y-77200000D03*
X58112500Y-77850000D03*
X58112500Y-78500000D03*
X58112500Y-79150000D03*
X58112500Y-79800000D03*
D10*
X198105000Y-123975000D03*
X197145000Y-123975000D03*
D11*
X123775000Y-161887500D03*
X123775000Y-160062500D03*
D17*
X119237500Y-64625000D03*
X121137500Y-64625000D03*
D11*
X127875000Y-165287500D03*
X127875000Y-163462500D03*
D19*
X226371815Y-118824888D03*
X226371815Y-116724888D03*
D27*
X217025000Y-103680000D03*
X217025000Y-102410000D03*
X217025000Y-101140000D03*
X217025000Y-99870000D03*
X212075000Y-99870000D03*
X212075000Y-101140000D03*
X212075000Y-102410000D03*
X212075000Y-103680000D03*
D10*
X208884008Y-126793784D03*
X207924008Y-126793784D03*
D11*
X88287500Y-158550000D03*
X88287500Y-156725000D03*
D31*
X221875000Y-123615000D03*
X221875000Y-124635000D03*
D21*
X121800000Y-156962500D03*
X121800000Y-158787500D03*
D18*
X201900000Y-113105000D03*
X201900000Y-112145000D03*
D11*
X102275000Y-165287500D03*
X102275000Y-163462500D03*
D26*
X131487500Y-161875000D03*
X131487500Y-161225000D03*
X131487500Y-160575000D03*
X131487500Y-159925000D03*
X131487500Y-159275000D03*
X131487500Y-158625000D03*
X131487500Y-157975000D03*
X125762500Y-157975000D03*
X125762500Y-158625000D03*
X125762500Y-159275000D03*
X125762500Y-159925000D03*
X125762500Y-160575000D03*
X125762500Y-161225000D03*
X125762500Y-161875000D03*
D11*
X90375000Y-165287500D03*
X90375000Y-163462500D03*
D10*
X93330000Y-90850000D03*
X92370000Y-90850000D03*
D21*
X199775000Y-104700000D03*
X199775000Y-106525000D03*
D15*
X175987500Y-68675000D03*
X174162500Y-68675000D03*
D21*
X109987500Y-159412500D03*
X109987500Y-161237500D03*
D11*
X106075000Y-165287500D03*
X106075000Y-163462500D03*
D37*
X87200000Y-123550000D03*
D38*
X87200000Y-123050000D03*
X87200000Y-122550000D03*
D37*
X87200000Y-122050000D03*
X86200000Y-122050000D03*
D38*
X86200000Y-122550000D03*
X86200000Y-123050000D03*
D37*
X86200000Y-123550000D03*
D39*
X228350000Y-63550000D03*
X230450000Y-63550000D03*
D15*
X233296815Y-116999888D03*
X231471815Y-116999888D03*
D21*
X133700000Y-156687500D03*
X133700000Y-158512500D03*
D17*
X231950000Y-97485113D03*
X233850000Y-97485113D03*
D15*
X195000000Y-110356250D03*
X193175000Y-110356250D03*
D40*
X193737500Y-64325000D03*
X193737500Y-66225000D03*
X195612500Y-65275000D03*
D21*
X175425000Y-58962500D03*
X175425000Y-60787500D03*
D14*
X231987500Y-99430001D03*
X233812500Y-99430001D03*
D18*
X223100000Y-75225000D03*
X223100000Y-74265000D03*
D31*
X222825000Y-123615000D03*
X222825000Y-124635000D03*
D21*
X98187500Y-156712500D03*
X98187500Y-158537500D03*
D32*
X72030000Y-102700000D03*
X73050000Y-102700000D03*
D11*
X57050000Y-69262500D03*
X57050000Y-67437500D03*
D41*
X124610000Y-56850000D03*
X123590000Y-56850000D03*
D17*
X118012500Y-76000000D03*
X119912500Y-76000000D03*
D11*
X72000000Y-69100000D03*
X72000000Y-67275000D03*
D22*
X62975000Y-65812500D03*
X62975000Y-63912500D03*
D14*
X192218750Y-68775000D03*
X194043750Y-68775000D03*
X123937500Y-69825000D03*
X125762500Y-69825000D03*
D21*
X228450000Y-106680001D03*
X228450000Y-108505001D03*
D11*
X133200000Y-74027500D03*
X133200000Y-72202500D03*
D21*
X212900000Y-115462500D03*
X212900000Y-117287500D03*
X189150000Y-64462500D03*
X189150000Y-66287500D03*
D11*
X198936250Y-79667500D03*
X198936250Y-77842500D03*
D22*
X98112500Y-65577500D03*
X98112500Y-63677500D03*
D11*
X110225000Y-81275000D03*
X110225000Y-79450000D03*
D42*
X93012500Y-155575000D03*
X90062500Y-155575000D03*
D11*
X117775000Y-165262500D03*
X117775000Y-163437500D03*
D21*
X208400000Y-92537500D03*
X208400000Y-94362500D03*
X205100000Y-104750000D03*
X205100000Y-106575000D03*
D14*
X180655000Y-87190112D03*
X182480000Y-87190112D03*
D17*
X58375000Y-58750000D03*
X60275000Y-58750000D03*
D11*
X107600000Y-88175000D03*
X107600000Y-86350000D03*
D18*
X219304008Y-120048784D03*
X219304008Y-119088784D03*
D17*
X133350000Y-63531250D03*
X135250000Y-63531250D03*
D43*
X91700000Y-89125000D03*
X94000000Y-89125000D03*
X96300000Y-89125000D03*
D44*
X94000000Y-82825000D03*
D11*
X100087500Y-62115000D03*
X100087500Y-60290000D03*
X119675000Y-165262500D03*
X119675000Y-163437500D03*
D10*
X208884008Y-127968784D03*
X207924008Y-127968784D03*
D21*
X179811396Y-63862500D03*
X179811396Y-65687500D03*
D23*
X90000000Y-65787500D03*
X90000000Y-65137500D03*
X90000000Y-64487500D03*
X90000000Y-63837500D03*
X85600000Y-63837500D03*
X85600000Y-64487500D03*
X85600000Y-65137500D03*
X85600000Y-65787500D03*
D24*
X87800000Y-64802500D03*
D11*
X115875000Y-165262500D03*
X115875000Y-163437500D03*
D23*
X177867500Y-90855055D03*
X177867500Y-91505055D03*
X177867500Y-92155055D03*
X177867500Y-92805055D03*
X182267500Y-92805055D03*
X182267500Y-92155055D03*
X182267500Y-91505055D03*
X182267500Y-90855055D03*
D24*
X180067500Y-91840055D03*
D22*
X68300000Y-65637500D03*
X68300000Y-63737500D03*
D28*
X209437613Y-99875112D03*
X210397613Y-99875112D03*
D11*
X104425000Y-79287500D03*
X104425000Y-77462500D03*
X85400000Y-62275000D03*
X85400000Y-60450000D03*
D21*
X133700000Y-160062500D03*
X133700000Y-161887500D03*
D26*
X119562500Y-161850000D03*
X119562500Y-161200000D03*
X119562500Y-160550000D03*
X119562500Y-159900000D03*
X119562500Y-159250000D03*
X119562500Y-158600000D03*
X119562500Y-157950000D03*
X113837500Y-157950000D03*
X113837500Y-158600000D03*
X113837500Y-159250000D03*
X113837500Y-159900000D03*
X113837500Y-160550000D03*
X113837500Y-161200000D03*
X113837500Y-161850000D03*
D22*
X184242500Y-89320000D03*
X184242500Y-87420000D03*
D11*
X125062500Y-66175000D03*
X125062500Y-64350000D03*
D15*
X229934315Y-116999888D03*
X228109315Y-116999888D03*
D21*
X213412500Y-107962388D03*
X213412500Y-109787388D03*
D40*
X174912500Y-64350000D03*
X174912500Y-66250000D03*
X176787500Y-65300000D03*
D42*
X116625000Y-155550000D03*
X113675000Y-155550000D03*
D21*
X230250000Y-99192501D03*
X230250000Y-101017501D03*
D11*
X94200000Y-165287500D03*
X94200000Y-163462500D03*
D23*
X110775000Y-84787500D03*
X110775000Y-84137500D03*
X110775000Y-83487500D03*
X110775000Y-82837500D03*
X106375000Y-82837500D03*
X106375000Y-83487500D03*
X106375000Y-84137500D03*
X106375000Y-84787500D03*
D24*
X108575000Y-83802500D03*
D18*
X230950000Y-122175000D03*
X230950000Y-121215000D03*
D16*
X185042500Y-90970000D03*
X185042500Y-92870000D03*
D22*
X107925000Y-65600000D03*
X107925000Y-63700000D03*
D31*
X233849888Y-68040000D03*
X233849888Y-69060000D03*
D14*
X217050000Y-108149888D03*
X218875000Y-108149888D03*
D23*
X105187500Y-65637500D03*
X105187500Y-64987500D03*
X105187500Y-64337500D03*
X105187500Y-63687500D03*
X100787500Y-63687500D03*
X100787500Y-64337500D03*
X100787500Y-64987500D03*
X100787500Y-65637500D03*
D24*
X102987500Y-64652500D03*
D22*
X78000000Y-65712500D03*
X78000000Y-63812500D03*
D21*
X190906250Y-58987500D03*
X190906250Y-60812500D03*
D14*
X117700000Y-83300000D03*
X119525000Y-83300000D03*
D23*
X227035000Y-103172501D03*
X227035000Y-103822501D03*
X227035000Y-104472501D03*
X227035000Y-105122501D03*
X231435000Y-105122501D03*
X231435000Y-104472501D03*
X231435000Y-103822501D03*
X231435000Y-103172501D03*
D24*
X229235000Y-104157501D03*
D11*
X73900000Y-69100000D03*
X73900000Y-67275000D03*
X135106250Y-67143750D03*
X135106250Y-65318750D03*
D18*
X88962500Y-74710000D03*
X88962500Y-73750000D03*
D15*
X182455000Y-85290112D03*
X180630000Y-85290112D03*
D11*
X92275000Y-165275000D03*
X92275000Y-163450000D03*
D10*
X197449887Y-83083604D03*
X196489887Y-83083604D03*
D16*
X212075000Y-89125000D03*
X212075000Y-91025000D03*
D14*
X228575000Y-59650000D03*
X230400000Y-59650000D03*
D11*
X59475000Y-62362500D03*
X59475000Y-60537500D03*
D13*
X190237500Y-104801250D03*
X190237500Y-106071250D03*
X190237500Y-107341250D03*
X190237500Y-108611250D03*
X195187500Y-108611250D03*
X195187500Y-107341250D03*
X195187500Y-106071250D03*
X195187500Y-104801250D03*
D21*
X212125000Y-72812500D03*
X212125000Y-74637500D03*
D28*
X222395000Y-92410113D03*
X223355000Y-92410113D03*
D11*
X88287500Y-161912500D03*
X88287500Y-160087500D03*
D45*
X215750000Y-74700000D03*
X213850000Y-74700000D03*
D15*
X234037500Y-126719888D03*
X232212500Y-126719888D03*
D12*
X202950000Y-99125000D03*
X203671248Y-99846248D03*
D11*
X125787500Y-75350000D03*
X125787500Y-73525000D03*
X123112500Y-66200000D03*
X123112500Y-64375000D03*
D17*
X108325000Y-77687500D03*
X110225000Y-77687500D03*
D46*
X204250000Y-110200000D03*
X206150000Y-110200000D03*
X205200000Y-108325000D03*
D11*
X209892613Y-103712612D03*
X209892613Y-101887612D03*
X222819887Y-96355113D03*
X222819887Y-94530113D03*
D18*
X97600000Y-74580000D03*
X97600000Y-73620000D03*
D11*
X131700000Y-165287500D03*
X131700000Y-163462500D03*
D15*
X221075000Y-90900000D03*
X219250000Y-90900000D03*
D11*
X61400000Y-62375000D03*
X61400000Y-60550000D03*
D18*
X188975000Y-97655000D03*
X188975000Y-96695000D03*
D13*
X232650000Y-121145000D03*
X232650000Y-122415000D03*
X232650000Y-123685000D03*
X232650000Y-124955000D03*
X237600000Y-124955000D03*
X237600000Y-123685000D03*
X237600000Y-122415000D03*
X237600000Y-121145000D03*
D22*
X211408113Y-87400500D03*
X211408113Y-85500500D03*
D17*
X87425000Y-58687500D03*
X89325000Y-58687500D03*
D12*
X203621751Y-98453249D03*
X204342999Y-99174497D03*
D11*
X133200000Y-67127500D03*
X133200000Y-65302500D03*
D16*
X219287500Y-112049888D03*
X219287500Y-113949888D03*
D15*
X192018750Y-57250000D03*
X190193750Y-57250000D03*
D21*
X210150000Y-79327500D03*
X210150000Y-81152500D03*
D14*
X213862500Y-72750000D03*
X215687500Y-72750000D03*
D21*
X177325000Y-58962500D03*
X177325000Y-60787500D03*
D11*
X126000000Y-58962500D03*
X126000000Y-57137500D03*
D15*
X229934315Y-118899888D03*
X228109315Y-118899888D03*
D21*
X228325000Y-99192501D03*
X228325000Y-101017501D03*
D25*
X135787500Y-80375000D03*
X135787500Y-81335000D03*
D15*
X125225000Y-67925000D03*
X123400000Y-67925000D03*
D16*
X209525000Y-112125000D03*
X209525000Y-114025000D03*
D21*
X179317500Y-94357500D03*
X179317500Y-96182500D03*
D29*
X68525000Y-103550000D03*
D30*
X69025000Y-103550000D03*
X69525000Y-103550000D03*
D29*
X70025000Y-103550000D03*
X70025000Y-102550000D03*
D30*
X69525000Y-102550000D03*
X69025000Y-102550000D03*
D29*
X68525000Y-102550000D03*
D39*
X213650000Y-76650000D03*
X215750000Y-76650000D03*
D28*
X219274008Y-126668784D03*
X220234008Y-126668784D03*
D47*
X203400000Y-104475000D03*
X201500000Y-104475000D03*
X202450000Y-106350000D03*
D18*
X233850000Y-74450000D03*
X233850000Y-73490000D03*
D20*
X188062500Y-106756250D03*
X188062500Y-108856250D03*
D42*
X104837500Y-155550000D03*
X101887500Y-155550000D03*
D11*
X179775000Y-69087500D03*
X179775000Y-67262500D03*
D14*
X180667500Y-89115112D03*
X182492500Y-89115112D03*
D13*
X178400000Y-104995000D03*
X178400000Y-106265000D03*
X178400000Y-107535000D03*
X178400000Y-108805000D03*
X183350000Y-108805000D03*
X183350000Y-107535000D03*
X183350000Y-106265000D03*
X183350000Y-104995000D03*
D21*
X174850000Y-77802500D03*
X174850000Y-79627500D03*
D11*
X100087500Y-158525000D03*
X100087500Y-156700000D03*
D18*
X56662500Y-74585000D03*
X56662500Y-73625000D03*
D27*
X229975000Y-96310113D03*
X229975000Y-95040113D03*
X229975000Y-93770113D03*
X229975000Y-92500113D03*
X225025000Y-92500113D03*
X225025000Y-93770113D03*
X225025000Y-95040113D03*
X225025000Y-96310113D03*
D45*
X178050000Y-62550000D03*
X176150000Y-62550000D03*
X230450000Y-61600000D03*
X228550000Y-61600000D03*
D28*
X199395000Y-99499888D03*
X200355000Y-99499888D03*
D35*
X197800000Y-100774888D03*
X197800000Y-100124888D03*
X197800000Y-99474888D03*
X197800000Y-98824888D03*
X197800000Y-98174888D03*
X197800000Y-97524888D03*
X197800000Y-96874888D03*
X197800000Y-96224888D03*
X197800000Y-95574888D03*
X197800000Y-94924888D03*
X197800000Y-94274888D03*
X197800000Y-93624888D03*
X197800000Y-92974888D03*
X197800000Y-92324888D03*
X190600000Y-92324888D03*
X190600000Y-92974888D03*
X190600000Y-93624888D03*
X190600000Y-94274888D03*
X190600000Y-94924888D03*
X190600000Y-95574888D03*
X190600000Y-96224888D03*
X190600000Y-96874888D03*
X190600000Y-97524888D03*
X190600000Y-98174888D03*
X190600000Y-98824888D03*
X190600000Y-99474888D03*
X190600000Y-100124888D03*
X190600000Y-100774888D03*
D29*
X68250000Y-165150000D03*
D30*
X68750000Y-165150000D03*
X69250000Y-165150000D03*
D29*
X69750000Y-165150000D03*
X69750000Y-164150000D03*
D30*
X69250000Y-164150000D03*
X68750000Y-164150000D03*
D29*
X68250000Y-164150000D03*
D18*
X127162500Y-79775000D03*
X127162500Y-78815000D03*
D11*
X125975000Y-165287500D03*
X125975000Y-163462500D03*
D21*
X121800000Y-160337500D03*
X121800000Y-162162500D03*
X173525000Y-58987500D03*
X173525000Y-60812500D03*
D18*
X226875000Y-112530000D03*
X226875000Y-111570000D03*
D25*
X127162500Y-80640000D03*
X127162500Y-81600000D03*
X97587500Y-75440000D03*
X97587500Y-76400000D03*
D15*
X96450000Y-156225000D03*
X94625000Y-156225000D03*
D21*
X174847500Y-81192388D03*
X174847500Y-83017388D03*
D28*
X187245000Y-79973547D03*
X188205000Y-79973547D03*
D15*
X234037500Y-128619888D03*
X232212500Y-128619888D03*
D14*
X217050000Y-110049888D03*
X218875000Y-110049888D03*
D48*
X201450000Y-111075000D03*
X201950000Y-111075000D03*
X202450000Y-111075000D03*
X202950000Y-111075000D03*
X202950000Y-107975000D03*
X202450000Y-107975000D03*
X201950000Y-107975000D03*
X201450000Y-107975000D03*
D11*
X105787500Y-62102500D03*
X105787500Y-60277500D03*
D15*
X108262500Y-156225000D03*
X106437500Y-156225000D03*
D21*
X118862500Y-88912500D03*
X118862500Y-90737500D03*
D18*
X65300000Y-74810000D03*
X65300000Y-73850000D03*
D27*
X207975000Y-81720000D03*
X207975000Y-80450000D03*
X207975000Y-79180000D03*
X207975000Y-77910000D03*
X203025000Y-77910000D03*
X203025000Y-79180000D03*
X203025000Y-80450000D03*
X203025000Y-81720000D03*
D21*
X187625000Y-82012500D03*
X187625000Y-83837500D03*
D18*
X188537500Y-105761250D03*
X188537500Y-104801250D03*
D21*
X230350000Y-106680001D03*
X230350000Y-108505001D03*
D22*
X93050000Y-65550000D03*
X93050000Y-63650000D03*
D45*
X174650000Y-62575000D03*
X172750000Y-62575000D03*
D15*
X131937500Y-156225000D03*
X130112500Y-156225000D03*
D11*
X106425000Y-81287500D03*
X106425000Y-79462500D03*
X72300000Y-62212500D03*
X72300000Y-60387500D03*
D45*
X118962500Y-87150000D03*
X117062500Y-87150000D03*
D21*
X184150000Y-79937500D03*
X184150000Y-81762500D03*
D15*
X191625000Y-110356250D03*
X189800000Y-110356250D03*
D25*
X56662500Y-75450000D03*
X56662500Y-76410000D03*
D26*
X107762500Y-161875000D03*
X107762500Y-161225000D03*
X107762500Y-160575000D03*
X107762500Y-159925000D03*
X107762500Y-159275000D03*
X107762500Y-158625000D03*
X107762500Y-157975000D03*
X102037500Y-157975000D03*
X102037500Y-158625000D03*
X102037500Y-159275000D03*
X102037500Y-159925000D03*
X102037500Y-160575000D03*
X102037500Y-161225000D03*
X102037500Y-161875000D03*
D22*
X129300000Y-70575000D03*
X129300000Y-68675000D03*
D15*
X237412500Y-126719888D03*
X235587500Y-126719888D03*
D11*
X129775000Y-165312500D03*
X129775000Y-163487500D03*
X172950000Y-79644888D03*
X172950000Y-77819888D03*
D43*
X194225000Y-122250000D03*
X196525000Y-122250000D03*
X198825000Y-122250000D03*
D44*
X196525000Y-115950000D03*
D22*
X113675000Y-84812500D03*
X113675000Y-82912500D03*
D11*
X100087500Y-161900000D03*
X100087500Y-160075000D03*
D21*
X200825000Y-81227500D03*
X200825000Y-83052500D03*
D14*
X176212500Y-57225000D03*
X178037500Y-57225000D03*
D15*
X179787500Y-110575000D03*
X177962500Y-110575000D03*
D11*
X104175000Y-165287500D03*
X104175000Y-163462500D03*
X112125000Y-81287500D03*
X112125000Y-79462500D03*
D18*
X135800000Y-79505000D03*
X135800000Y-78545000D03*
D11*
X111900000Y-158487500D03*
X111900000Y-156662500D03*
D21*
X226850000Y-59687500D03*
X226850000Y-61512500D03*
D20*
X226371815Y-113524888D03*
X226371815Y-115624888D03*
D16*
X234237500Y-103302501D03*
X234237500Y-105202501D03*
D25*
X233849888Y-75885000D03*
X233849888Y-76845000D03*
D23*
X205025000Y-89040000D03*
X205025000Y-89690000D03*
X205025000Y-90340000D03*
X205025000Y-90990000D03*
X209425000Y-90990000D03*
X209425000Y-90340000D03*
X209425000Y-89690000D03*
X209425000Y-89040000D03*
D24*
X207225000Y-90025000D03*
D11*
X70075000Y-62212500D03*
X70075000Y-60387500D03*
X58950000Y-69250000D03*
X58950000Y-67425000D03*
X137006250Y-67143750D03*
X137006250Y-65318750D03*
X197019887Y-81833604D03*
X197019887Y-80008604D03*
X88750000Y-69175000D03*
X88750000Y-67350000D03*
D19*
X188062500Y-112056250D03*
X188062500Y-109956250D03*
D17*
X193575000Y-62575000D03*
X195475000Y-62575000D03*
D32*
X119690000Y-56800000D03*
X120710000Y-56800000D03*
D11*
X87300000Y-62275000D03*
X87300000Y-60450000D03*
D14*
X207825000Y-87275000D03*
X209650000Y-87275000D03*
D15*
X174687500Y-70575000D03*
X172862500Y-70575000D03*
D21*
X109987500Y-156037500D03*
X109987500Y-157862500D03*
D11*
X189175000Y-69675000D03*
X189175000Y-67850000D03*
D23*
X60425000Y-65872500D03*
X60425000Y-65222500D03*
X60425000Y-64572500D03*
X60425000Y-63922500D03*
X56025000Y-63922500D03*
X56025000Y-64572500D03*
X56025000Y-65222500D03*
X56025000Y-65872500D03*
D24*
X58225000Y-64887500D03*
D11*
X74200000Y-62225000D03*
X74200000Y-60400000D03*
D42*
X128500000Y-155575000D03*
X125550000Y-155575000D03*
D16*
X202525000Y-89175000D03*
X202525000Y-91075000D03*
D11*
X89200000Y-62275000D03*
X89200000Y-60450000D03*
M02*
