%TF.GenerationSoftware,KiCad,Pcbnew,7.0.1*%
%TF.CreationDate,2023-06-27T00:24:21+02:00*%
%TF.ProjectId,Main board,4d61696e-2062-46f6-9172-642e6b696361,rev?*%
%TF.SameCoordinates,Original*%
%TF.FileFunction,Soldermask,Top*%
%TF.FilePolarity,Negative*%
%FSLAX46Y46*%
G04 Gerber Fmt 4.6, Leading zero omitted, Abs format (unit mm)*
G04 Created by KiCad (PCBNEW 7.0.1) date 2023-06-27 00:24:21*
%MOMM*%
%LPD*%
G01*
G04 APERTURE LIST*
G04 Aperture macros list*
%AMRoundRect*
0 Rectangle with rounded corners*
0 $1 Rounding radius*
0 $2 $3 $4 $5 $6 $7 $8 $9 X,Y pos of 4 corners*
0 Add a 4 corners polygon primitive as box body*
4,1,4,$2,$3,$4,$5,$6,$7,$8,$9,$2,$3,0*
0 Add four circle primitives for the rounded corners*
1,1,$1+$1,$2,$3*
1,1,$1+$1,$4,$5*
1,1,$1+$1,$6,$7*
1,1,$1+$1,$8,$9*
0 Add four rect primitives between the rounded corners*
20,1,$1+$1,$2,$3,$4,$5,0*
20,1,$1+$1,$4,$5,$6,$7,0*
20,1,$1+$1,$6,$7,$8,$9,0*
20,1,$1+$1,$8,$9,$2,$3,0*%
G04 Aperture macros list end*
%ADD10C,0.300000*%
%ADD11RoundRect,0.250000X-0.350000X-0.625000X0.350000X-0.625000X0.350000X0.625000X-0.350000X0.625000X0*%
%ADD12O,1.200000X1.750000*%
%ADD13RoundRect,0.140000X0.140000X0.170000X-0.140000X0.170000X-0.140000X-0.170000X0.140000X-0.170000X0*%
%ADD14RoundRect,0.250000X0.450000X-0.262500X0.450000X0.262500X-0.450000X0.262500X-0.450000X-0.262500X0*%
%ADD15RoundRect,0.135000X-0.226274X-0.035355X-0.035355X-0.226274X0.226274X0.035355X0.035355X0.226274X0*%
%ADD16RoundRect,0.150000X-0.825000X-0.150000X0.825000X-0.150000X0.825000X0.150000X-0.825000X0.150000X0*%
%ADD17RoundRect,0.250000X-0.262500X-0.450000X0.262500X-0.450000X0.262500X0.450000X-0.262500X0.450000X0*%
%ADD18RoundRect,0.250000X0.262500X0.450000X-0.262500X0.450000X-0.262500X-0.450000X0.262500X-0.450000X0*%
%ADD19RoundRect,0.250000X-0.475000X0.250000X-0.475000X-0.250000X0.475000X-0.250000X0.475000X0.250000X0*%
%ADD20RoundRect,0.250000X-0.250000X-0.475000X0.250000X-0.475000X0.250000X0.475000X-0.250000X0.475000X0*%
%ADD21RoundRect,0.140000X0.170000X-0.140000X0.170000X0.140000X-0.170000X0.140000X-0.170000X-0.140000X0*%
%ADD22R,1.600000X1.600000*%
%ADD23C,1.600000*%
%ADD24RoundRect,0.112500X0.112500X-0.187500X0.112500X0.187500X-0.112500X0.187500X-0.112500X-0.187500X0*%
%ADD25RoundRect,0.112500X-0.112500X0.187500X-0.112500X-0.187500X0.112500X-0.187500X0.112500X0.187500X0*%
%ADD26RoundRect,0.250000X-0.450000X0.262500X-0.450000X-0.262500X0.450000X-0.262500X0.450000X0.262500X0*%
%ADD27RoundRect,0.250000X0.475000X-0.250000X0.475000X0.250000X-0.475000X0.250000X-0.475000X-0.250000X0*%
%ADD28RoundRect,0.250000X0.725000X-0.600000X0.725000X0.600000X-0.725000X0.600000X-0.725000X-0.600000X0*%
%ADD29O,1.950000X1.700000*%
%ADD30R,1.450000X0.450000*%
%ADD31R,1.500000X1.800000*%
%ADD32C,2.000000*%
%ADD33RoundRect,0.140000X-0.170000X0.140000X-0.170000X-0.140000X0.170000X-0.140000X0.170000X0.140000X0*%
%ADD34RoundRect,0.100000X0.637500X0.100000X-0.637500X0.100000X-0.637500X-0.100000X0.637500X-0.100000X0*%
%ADD35RoundRect,0.150000X0.825000X0.150000X-0.825000X0.150000X-0.825000X-0.150000X0.825000X-0.150000X0*%
%ADD36C,0.800000*%
%ADD37C,7.000000*%
%ADD38R,1.700000X1.700000*%
%ADD39O,1.700000X1.700000*%
%ADD40RoundRect,0.140000X-0.140000X-0.170000X0.140000X-0.170000X0.140000X0.170000X-0.140000X0.170000X0*%
%ADD41R,0.400000X0.500000*%
%ADD42R,0.300000X0.500000*%
%ADD43RoundRect,0.135000X-0.185000X0.135000X-0.185000X-0.135000X0.185000X-0.135000X0.185000X0.135000X0*%
%ADD44RoundRect,0.135000X-0.135000X-0.185000X0.135000X-0.185000X0.135000X0.185000X-0.135000X0.185000X0*%
%ADD45RoundRect,0.250000X-1.550000X0.650000X-1.550000X-0.650000X1.550000X-0.650000X1.550000X0.650000X0*%
%ADD46O,3.600000X1.800000*%
%ADD47RoundRect,0.250000X0.503814X0.132583X0.132583X0.503814X-0.503814X-0.132583X-0.132583X-0.503814X0*%
%ADD48RoundRect,0.135000X0.185000X-0.135000X0.185000X0.135000X-0.185000X0.135000X-0.185000X-0.135000X0*%
%ADD49O,1.600000X1.600000*%
%ADD50R,1.750000X0.450000*%
%ADD51RoundRect,0.150000X-0.150000X0.825000X-0.150000X-0.825000X0.150000X-0.825000X0.150000X0.825000X0*%
%ADD52R,0.500000X0.400000*%
%ADD53R,0.500000X0.300000*%
%ADD54RoundRect,0.112500X-0.187500X-0.112500X0.187500X-0.112500X0.187500X0.112500X-0.187500X0.112500X0*%
%ADD55RoundRect,0.150000X-0.587500X-0.150000X0.587500X-0.150000X0.587500X0.150000X-0.587500X0.150000X0*%
%ADD56RoundRect,0.135000X0.135000X0.185000X-0.135000X0.185000X-0.135000X-0.185000X0.135000X-0.185000X0*%
%ADD57RoundRect,0.250000X0.325000X1.100000X-0.325000X1.100000X-0.325000X-1.100000X0.325000X-1.100000X0*%
%ADD58R,1.500000X2.000000*%
%ADD59R,3.800000X2.000000*%
%ADD60RoundRect,0.250000X0.625000X-0.350000X0.625000X0.350000X-0.625000X0.350000X-0.625000X-0.350000X0*%
%ADD61O,1.750000X1.200000*%
%ADD62RoundRect,0.250000X0.250000X0.475000X-0.250000X0.475000X-0.250000X-0.475000X0.250000X-0.475000X0*%
%ADD63O,2.300000X1.600000*%
%ADD64RoundRect,0.150000X0.150000X-0.587500X0.150000X0.587500X-0.150000X0.587500X-0.150000X-0.587500X0*%
%ADD65RoundRect,0.150000X-0.150000X0.587500X-0.150000X-0.587500X0.150000X-0.587500X0.150000X0.587500X0*%
%ADD66R,0.250000X0.750000*%
%ADD67C,1.700000*%
G04 APERTURE END LIST*
D10*
X135141428Y-172632142D02*
X136641428Y-172132142D01*
X136641428Y-172132142D02*
X135141428Y-171632142D01*
X135141428Y-171132143D02*
X136355714Y-171132143D01*
X136355714Y-171132143D02*
X136498571Y-171060714D01*
X136498571Y-171060714D02*
X136570000Y-170989286D01*
X136570000Y-170989286D02*
X136641428Y-170846428D01*
X136641428Y-170846428D02*
X136641428Y-170560714D01*
X136641428Y-170560714D02*
X136570000Y-170417857D01*
X136570000Y-170417857D02*
X136498571Y-170346428D01*
X136498571Y-170346428D02*
X136355714Y-170275000D01*
X136355714Y-170275000D02*
X135141428Y-170275000D01*
X136784285Y-169917857D02*
X136784285Y-168774999D01*
X135284285Y-168489285D02*
X135212857Y-168417857D01*
X135212857Y-168417857D02*
X135141428Y-168275000D01*
X135141428Y-168275000D02*
X135141428Y-167917857D01*
X135141428Y-167917857D02*
X135212857Y-167775000D01*
X135212857Y-167775000D02*
X135284285Y-167703571D01*
X135284285Y-167703571D02*
X135427142Y-167632142D01*
X135427142Y-167632142D02*
X135570000Y-167632142D01*
X135570000Y-167632142D02*
X135784285Y-167703571D01*
X135784285Y-167703571D02*
X136641428Y-168560714D01*
X136641428Y-168560714D02*
X136641428Y-167632142D01*
X176357142Y-179785000D02*
X177500000Y-179785000D01*
X176928571Y-180356428D02*
X176928571Y-179213571D01*
X178928571Y-178856428D02*
X178214285Y-178856428D01*
X178214285Y-178856428D02*
X178142857Y-179570714D01*
X178142857Y-179570714D02*
X178214285Y-179499285D01*
X178214285Y-179499285D02*
X178357143Y-179427857D01*
X178357143Y-179427857D02*
X178714285Y-179427857D01*
X178714285Y-179427857D02*
X178857143Y-179499285D01*
X178857143Y-179499285D02*
X178928571Y-179570714D01*
X178928571Y-179570714D02*
X179000000Y-179713571D01*
X179000000Y-179713571D02*
X179000000Y-180070714D01*
X179000000Y-180070714D02*
X178928571Y-180213571D01*
X178928571Y-180213571D02*
X178857143Y-180285000D01*
X178857143Y-180285000D02*
X178714285Y-180356428D01*
X178714285Y-180356428D02*
X178357143Y-180356428D01*
X178357143Y-180356428D02*
X178214285Y-180285000D01*
X178214285Y-180285000D02*
X178142857Y-180213571D01*
X179428571Y-178856428D02*
X179928571Y-180356428D01*
X179928571Y-180356428D02*
X180428571Y-178856428D01*
X180928570Y-180356428D02*
X180928570Y-178856428D01*
X180928570Y-178856428D02*
X181285713Y-178856428D01*
X181285713Y-178856428D02*
X181499999Y-178927857D01*
X181499999Y-178927857D02*
X181642856Y-179070714D01*
X181642856Y-179070714D02*
X181714285Y-179213571D01*
X181714285Y-179213571D02*
X181785713Y-179499285D01*
X181785713Y-179499285D02*
X181785713Y-179713571D01*
X181785713Y-179713571D02*
X181714285Y-179999285D01*
X181714285Y-179999285D02*
X181642856Y-180142142D01*
X181642856Y-180142142D02*
X181499999Y-180285000D01*
X181499999Y-180285000D02*
X181285713Y-180356428D01*
X181285713Y-180356428D02*
X180928570Y-180356428D01*
X183214285Y-180356428D02*
X182357142Y-180356428D01*
X182785713Y-180356428D02*
X182785713Y-178856428D01*
X182785713Y-178856428D02*
X182642856Y-179070714D01*
X182642856Y-179070714D02*
X182499999Y-179213571D01*
X182499999Y-179213571D02*
X182357142Y-179285000D01*
X132416428Y-172782142D02*
X133916428Y-172282142D01*
X133916428Y-172282142D02*
X132416428Y-171782142D01*
X132416428Y-171282143D02*
X133630714Y-171282143D01*
X133630714Y-171282143D02*
X133773571Y-171210714D01*
X133773571Y-171210714D02*
X133845000Y-171139286D01*
X133845000Y-171139286D02*
X133916428Y-170996428D01*
X133916428Y-170996428D02*
X133916428Y-170710714D01*
X133916428Y-170710714D02*
X133845000Y-170567857D01*
X133845000Y-170567857D02*
X133773571Y-170496428D01*
X133773571Y-170496428D02*
X133630714Y-170425000D01*
X133630714Y-170425000D02*
X132416428Y-170425000D01*
X134059285Y-170067857D02*
X134059285Y-168924999D01*
X133916428Y-167782142D02*
X133916428Y-168639285D01*
X133916428Y-168210714D02*
X132416428Y-168210714D01*
X132416428Y-168210714D02*
X132630714Y-168353571D01*
X132630714Y-168353571D02*
X132773571Y-168496428D01*
X132773571Y-168496428D02*
X132845000Y-168639285D01*
X222357142Y-179245000D02*
X223500000Y-179245000D01*
X222928571Y-179816428D02*
X222928571Y-178673571D01*
X225000000Y-179816428D02*
X224142857Y-179816428D01*
X224571428Y-179816428D02*
X224571428Y-178316428D01*
X224571428Y-178316428D02*
X224428571Y-178530714D01*
X224428571Y-178530714D02*
X224285714Y-178673571D01*
X224285714Y-178673571D02*
X224142857Y-178745000D01*
X226357142Y-178316428D02*
X225642856Y-178316428D01*
X225642856Y-178316428D02*
X225571428Y-179030714D01*
X225571428Y-179030714D02*
X225642856Y-178959285D01*
X225642856Y-178959285D02*
X225785714Y-178887857D01*
X225785714Y-178887857D02*
X226142856Y-178887857D01*
X226142856Y-178887857D02*
X226285714Y-178959285D01*
X226285714Y-178959285D02*
X226357142Y-179030714D01*
X226357142Y-179030714D02*
X226428571Y-179173571D01*
X226428571Y-179173571D02*
X226428571Y-179530714D01*
X226428571Y-179530714D02*
X226357142Y-179673571D01*
X226357142Y-179673571D02*
X226285714Y-179745000D01*
X226285714Y-179745000D02*
X226142856Y-179816428D01*
X226142856Y-179816428D02*
X225785714Y-179816428D01*
X225785714Y-179816428D02*
X225642856Y-179745000D01*
X225642856Y-179745000D02*
X225571428Y-179673571D01*
X226857142Y-178316428D02*
X227357142Y-179816428D01*
X227357142Y-179816428D02*
X227857142Y-178316428D01*
X228357141Y-179816428D02*
X228357141Y-178316428D01*
X228357141Y-178316428D02*
X228714284Y-178316428D01*
X228714284Y-178316428D02*
X228928570Y-178387857D01*
X228928570Y-178387857D02*
X229071427Y-178530714D01*
X229071427Y-178530714D02*
X229142856Y-178673571D01*
X229142856Y-178673571D02*
X229214284Y-178959285D01*
X229214284Y-178959285D02*
X229214284Y-179173571D01*
X229214284Y-179173571D02*
X229142856Y-179459285D01*
X229142856Y-179459285D02*
X229071427Y-179602142D01*
X229071427Y-179602142D02*
X228928570Y-179745000D01*
X228928570Y-179745000D02*
X228714284Y-179816428D01*
X228714284Y-179816428D02*
X228357141Y-179816428D01*
X230642856Y-179816428D02*
X229785713Y-179816428D01*
X230214284Y-179816428D02*
X230214284Y-178316428D01*
X230214284Y-178316428D02*
X230071427Y-178530714D01*
X230071427Y-178530714D02*
X229928570Y-178673571D01*
X229928570Y-178673571D02*
X229785713Y-178745000D01*
X59182142Y-182666428D02*
X59182142Y-183880714D01*
X59182142Y-183880714D02*
X59253571Y-184023571D01*
X59253571Y-184023571D02*
X59325000Y-184095000D01*
X59325000Y-184095000D02*
X59467857Y-184166428D01*
X59467857Y-184166428D02*
X59753571Y-184166428D01*
X59753571Y-184166428D02*
X59896428Y-184095000D01*
X59896428Y-184095000D02*
X59967857Y-184023571D01*
X59967857Y-184023571D02*
X60039285Y-183880714D01*
X60039285Y-183880714D02*
X60039285Y-182666428D01*
X60753571Y-184166428D02*
X60753571Y-182666428D01*
X176357142Y-128245000D02*
X177500000Y-128245000D01*
X179000000Y-128816428D02*
X178142857Y-128816428D01*
X178571428Y-128816428D02*
X178571428Y-127316428D01*
X178571428Y-127316428D02*
X178428571Y-127530714D01*
X178428571Y-127530714D02*
X178285714Y-127673571D01*
X178285714Y-127673571D02*
X178142857Y-127745000D01*
X180357142Y-127316428D02*
X179642856Y-127316428D01*
X179642856Y-127316428D02*
X179571428Y-128030714D01*
X179571428Y-128030714D02*
X179642856Y-127959285D01*
X179642856Y-127959285D02*
X179785714Y-127887857D01*
X179785714Y-127887857D02*
X180142856Y-127887857D01*
X180142856Y-127887857D02*
X180285714Y-127959285D01*
X180285714Y-127959285D02*
X180357142Y-128030714D01*
X180357142Y-128030714D02*
X180428571Y-128173571D01*
X180428571Y-128173571D02*
X180428571Y-128530714D01*
X180428571Y-128530714D02*
X180357142Y-128673571D01*
X180357142Y-128673571D02*
X180285714Y-128745000D01*
X180285714Y-128745000D02*
X180142856Y-128816428D01*
X180142856Y-128816428D02*
X179785714Y-128816428D01*
X179785714Y-128816428D02*
X179642856Y-128745000D01*
X179642856Y-128745000D02*
X179571428Y-128673571D01*
X180857142Y-127316428D02*
X181357142Y-128816428D01*
X181357142Y-128816428D02*
X181857142Y-127316428D01*
X182357141Y-128816428D02*
X182357141Y-127316428D01*
X182357141Y-127316428D02*
X182714284Y-127316428D01*
X182714284Y-127316428D02*
X182928570Y-127387857D01*
X182928570Y-127387857D02*
X183071427Y-127530714D01*
X183071427Y-127530714D02*
X183142856Y-127673571D01*
X183142856Y-127673571D02*
X183214284Y-127959285D01*
X183214284Y-127959285D02*
X183214284Y-128173571D01*
X183214284Y-128173571D02*
X183142856Y-128459285D01*
X183142856Y-128459285D02*
X183071427Y-128602142D01*
X183071427Y-128602142D02*
X182928570Y-128745000D01*
X182928570Y-128745000D02*
X182714284Y-128816428D01*
X182714284Y-128816428D02*
X182357141Y-128816428D01*
X145207142Y-169390000D02*
X146350000Y-169390000D01*
X145778571Y-169961428D02*
X145778571Y-168818571D01*
X147850000Y-169961428D02*
X146992857Y-169961428D01*
X147421428Y-169961428D02*
X147421428Y-168461428D01*
X147421428Y-168461428D02*
X147278571Y-168675714D01*
X147278571Y-168675714D02*
X147135714Y-168818571D01*
X147135714Y-168818571D02*
X146992857Y-168890000D01*
X148421428Y-168604285D02*
X148492856Y-168532857D01*
X148492856Y-168532857D02*
X148635714Y-168461428D01*
X148635714Y-168461428D02*
X148992856Y-168461428D01*
X148992856Y-168461428D02*
X149135714Y-168532857D01*
X149135714Y-168532857D02*
X149207142Y-168604285D01*
X149207142Y-168604285D02*
X149278571Y-168747142D01*
X149278571Y-168747142D02*
X149278571Y-168890000D01*
X149278571Y-168890000D02*
X149207142Y-169104285D01*
X149207142Y-169104285D02*
X148349999Y-169961428D01*
X148349999Y-169961428D02*
X149278571Y-169961428D01*
X149707142Y-168461428D02*
X150207142Y-169961428D01*
X150207142Y-169961428D02*
X150707142Y-168461428D01*
X151207141Y-169961428D02*
X151207141Y-168461428D01*
X151207141Y-168461428D02*
X151564284Y-168461428D01*
X151564284Y-168461428D02*
X151778570Y-168532857D01*
X151778570Y-168532857D02*
X151921427Y-168675714D01*
X151921427Y-168675714D02*
X151992856Y-168818571D01*
X151992856Y-168818571D02*
X152064284Y-169104285D01*
X152064284Y-169104285D02*
X152064284Y-169318571D01*
X152064284Y-169318571D02*
X151992856Y-169604285D01*
X151992856Y-169604285D02*
X151921427Y-169747142D01*
X151921427Y-169747142D02*
X151778570Y-169890000D01*
X151778570Y-169890000D02*
X151564284Y-169961428D01*
X151564284Y-169961428D02*
X151207141Y-169961428D01*
X153492856Y-169961428D02*
X152635713Y-169961428D01*
X153064284Y-169961428D02*
X153064284Y-168461428D01*
X153064284Y-168461428D02*
X152921427Y-168675714D01*
X152921427Y-168675714D02*
X152778570Y-168818571D01*
X152778570Y-168818571D02*
X152635713Y-168890000D01*
X155207141Y-168390000D02*
X153921427Y-170318571D01*
X146278571Y-170820000D02*
X144992857Y-172748571D01*
X147278571Y-171605714D02*
X146778571Y-171605714D01*
X146778571Y-172391428D02*
X146778571Y-170891428D01*
X146778571Y-170891428D02*
X147492857Y-170891428D01*
X148064285Y-172391428D02*
X148064285Y-170891428D01*
X148064285Y-170891428D02*
X148635714Y-170891428D01*
X148635714Y-170891428D02*
X148778571Y-170962857D01*
X148778571Y-170962857D02*
X148850000Y-171034285D01*
X148850000Y-171034285D02*
X148921428Y-171177142D01*
X148921428Y-171177142D02*
X148921428Y-171391428D01*
X148921428Y-171391428D02*
X148850000Y-171534285D01*
X148850000Y-171534285D02*
X148778571Y-171605714D01*
X148778571Y-171605714D02*
X148635714Y-171677142D01*
X148635714Y-171677142D02*
X148064285Y-171677142D01*
X150350000Y-170962857D02*
X150207143Y-170891428D01*
X150207143Y-170891428D02*
X149992857Y-170891428D01*
X149992857Y-170891428D02*
X149778571Y-170962857D01*
X149778571Y-170962857D02*
X149635714Y-171105714D01*
X149635714Y-171105714D02*
X149564285Y-171248571D01*
X149564285Y-171248571D02*
X149492857Y-171534285D01*
X149492857Y-171534285D02*
X149492857Y-171748571D01*
X149492857Y-171748571D02*
X149564285Y-172034285D01*
X149564285Y-172034285D02*
X149635714Y-172177142D01*
X149635714Y-172177142D02*
X149778571Y-172320000D01*
X149778571Y-172320000D02*
X149992857Y-172391428D01*
X149992857Y-172391428D02*
X150135714Y-172391428D01*
X150135714Y-172391428D02*
X150350000Y-172320000D01*
X150350000Y-172320000D02*
X150421428Y-172248571D01*
X150421428Y-172248571D02*
X150421428Y-171748571D01*
X150421428Y-171748571D02*
X150135714Y-171748571D01*
X150992857Y-171962857D02*
X151707143Y-171962857D01*
X150850000Y-172391428D02*
X151350000Y-170891428D01*
X151350000Y-170891428D02*
X151850000Y-172391428D01*
X192357142Y-179785000D02*
X193500000Y-179785000D01*
X192928571Y-180356428D02*
X192928571Y-179213571D01*
X194428571Y-179499285D02*
X194285714Y-179427857D01*
X194285714Y-179427857D02*
X194214285Y-179356428D01*
X194214285Y-179356428D02*
X194142857Y-179213571D01*
X194142857Y-179213571D02*
X194142857Y-179142142D01*
X194142857Y-179142142D02*
X194214285Y-178999285D01*
X194214285Y-178999285D02*
X194285714Y-178927857D01*
X194285714Y-178927857D02*
X194428571Y-178856428D01*
X194428571Y-178856428D02*
X194714285Y-178856428D01*
X194714285Y-178856428D02*
X194857143Y-178927857D01*
X194857143Y-178927857D02*
X194928571Y-178999285D01*
X194928571Y-178999285D02*
X195000000Y-179142142D01*
X195000000Y-179142142D02*
X195000000Y-179213571D01*
X195000000Y-179213571D02*
X194928571Y-179356428D01*
X194928571Y-179356428D02*
X194857143Y-179427857D01*
X194857143Y-179427857D02*
X194714285Y-179499285D01*
X194714285Y-179499285D02*
X194428571Y-179499285D01*
X194428571Y-179499285D02*
X194285714Y-179570714D01*
X194285714Y-179570714D02*
X194214285Y-179642142D01*
X194214285Y-179642142D02*
X194142857Y-179785000D01*
X194142857Y-179785000D02*
X194142857Y-180070714D01*
X194142857Y-180070714D02*
X194214285Y-180213571D01*
X194214285Y-180213571D02*
X194285714Y-180285000D01*
X194285714Y-180285000D02*
X194428571Y-180356428D01*
X194428571Y-180356428D02*
X194714285Y-180356428D01*
X194714285Y-180356428D02*
X194857143Y-180285000D01*
X194857143Y-180285000D02*
X194928571Y-180213571D01*
X194928571Y-180213571D02*
X195000000Y-180070714D01*
X195000000Y-180070714D02*
X195000000Y-179785000D01*
X195000000Y-179785000D02*
X194928571Y-179642142D01*
X194928571Y-179642142D02*
X194857143Y-179570714D01*
X194857143Y-179570714D02*
X194714285Y-179499285D01*
X195428571Y-178856428D02*
X195928571Y-180356428D01*
X195928571Y-180356428D02*
X196428571Y-178856428D01*
X140566428Y-172857142D02*
X142066428Y-172357142D01*
X142066428Y-172357142D02*
X140566428Y-171857142D01*
X140566428Y-171357143D02*
X141780714Y-171357143D01*
X141780714Y-171357143D02*
X141923571Y-171285714D01*
X141923571Y-171285714D02*
X141995000Y-171214286D01*
X141995000Y-171214286D02*
X142066428Y-171071428D01*
X142066428Y-171071428D02*
X142066428Y-170785714D01*
X142066428Y-170785714D02*
X141995000Y-170642857D01*
X141995000Y-170642857D02*
X141923571Y-170571428D01*
X141923571Y-170571428D02*
X141780714Y-170500000D01*
X141780714Y-170500000D02*
X140566428Y-170500000D01*
X142209285Y-170142857D02*
X142209285Y-168999999D01*
X141066428Y-168000000D02*
X142066428Y-168000000D01*
X140495000Y-168357142D02*
X141566428Y-168714285D01*
X141566428Y-168714285D02*
X141566428Y-167785714D01*
X76357142Y-167030714D02*
X76857142Y-167030714D01*
X77071428Y-167816428D02*
X76357142Y-167816428D01*
X76357142Y-167816428D02*
X76357142Y-166316428D01*
X76357142Y-166316428D02*
X77071428Y-166316428D01*
X77714285Y-167816428D02*
X77714285Y-166316428D01*
X77714285Y-166316428D02*
X78571428Y-167816428D01*
X78571428Y-167816428D02*
X78571428Y-166316428D01*
X80142857Y-167673571D02*
X80071429Y-167745000D01*
X80071429Y-167745000D02*
X79857143Y-167816428D01*
X79857143Y-167816428D02*
X79714286Y-167816428D01*
X79714286Y-167816428D02*
X79500000Y-167745000D01*
X79500000Y-167745000D02*
X79357143Y-167602142D01*
X79357143Y-167602142D02*
X79285714Y-167459285D01*
X79285714Y-167459285D02*
X79214286Y-167173571D01*
X79214286Y-167173571D02*
X79214286Y-166959285D01*
X79214286Y-166959285D02*
X79285714Y-166673571D01*
X79285714Y-166673571D02*
X79357143Y-166530714D01*
X79357143Y-166530714D02*
X79500000Y-166387857D01*
X79500000Y-166387857D02*
X79714286Y-166316428D01*
X79714286Y-166316428D02*
X79857143Y-166316428D01*
X79857143Y-166316428D02*
X80071429Y-166387857D01*
X80071429Y-166387857D02*
X80142857Y-166459285D01*
X81071429Y-166316428D02*
X81357143Y-166316428D01*
X81357143Y-166316428D02*
X81500000Y-166387857D01*
X81500000Y-166387857D02*
X81642857Y-166530714D01*
X81642857Y-166530714D02*
X81714286Y-166816428D01*
X81714286Y-166816428D02*
X81714286Y-167316428D01*
X81714286Y-167316428D02*
X81642857Y-167602142D01*
X81642857Y-167602142D02*
X81500000Y-167745000D01*
X81500000Y-167745000D02*
X81357143Y-167816428D01*
X81357143Y-167816428D02*
X81071429Y-167816428D01*
X81071429Y-167816428D02*
X80928572Y-167745000D01*
X80928572Y-167745000D02*
X80785714Y-167602142D01*
X80785714Y-167602142D02*
X80714286Y-167316428D01*
X80714286Y-167316428D02*
X80714286Y-166816428D01*
X80714286Y-166816428D02*
X80785714Y-166530714D01*
X80785714Y-166530714D02*
X80928572Y-166387857D01*
X80928572Y-166387857D02*
X81071429Y-166316428D01*
X82357143Y-167816428D02*
X82357143Y-166316428D01*
X82357143Y-166316428D02*
X82714286Y-166316428D01*
X82714286Y-166316428D02*
X82928572Y-166387857D01*
X82928572Y-166387857D02*
X83071429Y-166530714D01*
X83071429Y-166530714D02*
X83142858Y-166673571D01*
X83142858Y-166673571D02*
X83214286Y-166959285D01*
X83214286Y-166959285D02*
X83214286Y-167173571D01*
X83214286Y-167173571D02*
X83142858Y-167459285D01*
X83142858Y-167459285D02*
X83071429Y-167602142D01*
X83071429Y-167602142D02*
X82928572Y-167745000D01*
X82928572Y-167745000D02*
X82714286Y-167816428D01*
X82714286Y-167816428D02*
X82357143Y-167816428D01*
X83857143Y-167030714D02*
X84357143Y-167030714D01*
X84571429Y-167816428D02*
X83857143Y-167816428D01*
X83857143Y-167816428D02*
X83857143Y-166316428D01*
X83857143Y-166316428D02*
X84571429Y-166316428D01*
X86071429Y-167816428D02*
X85571429Y-167102142D01*
X85214286Y-167816428D02*
X85214286Y-166316428D01*
X85214286Y-166316428D02*
X85785715Y-166316428D01*
X85785715Y-166316428D02*
X85928572Y-166387857D01*
X85928572Y-166387857D02*
X86000001Y-166459285D01*
X86000001Y-166459285D02*
X86071429Y-166602142D01*
X86071429Y-166602142D02*
X86071429Y-166816428D01*
X86071429Y-166816428D02*
X86000001Y-166959285D01*
X86000001Y-166959285D02*
X85928572Y-167030714D01*
X85928572Y-167030714D02*
X85785715Y-167102142D01*
X85785715Y-167102142D02*
X85214286Y-167102142D01*
X144357142Y-155090000D02*
X145500000Y-155090000D01*
X144928571Y-155661428D02*
X144928571Y-154518571D01*
X146214285Y-155661428D02*
X146214285Y-154161428D01*
X146214285Y-154161428D02*
X146571428Y-154161428D01*
X146571428Y-154161428D02*
X146785714Y-154232857D01*
X146785714Y-154232857D02*
X146928571Y-154375714D01*
X146928571Y-154375714D02*
X147000000Y-154518571D01*
X147000000Y-154518571D02*
X147071428Y-154804285D01*
X147071428Y-154804285D02*
X147071428Y-155018571D01*
X147071428Y-155018571D02*
X147000000Y-155304285D01*
X147000000Y-155304285D02*
X146928571Y-155447142D01*
X146928571Y-155447142D02*
X146785714Y-155590000D01*
X146785714Y-155590000D02*
X146571428Y-155661428D01*
X146571428Y-155661428D02*
X146214285Y-155661428D01*
X148571428Y-155518571D02*
X148500000Y-155590000D01*
X148500000Y-155590000D02*
X148285714Y-155661428D01*
X148285714Y-155661428D02*
X148142857Y-155661428D01*
X148142857Y-155661428D02*
X147928571Y-155590000D01*
X147928571Y-155590000D02*
X147785714Y-155447142D01*
X147785714Y-155447142D02*
X147714285Y-155304285D01*
X147714285Y-155304285D02*
X147642857Y-155018571D01*
X147642857Y-155018571D02*
X147642857Y-154804285D01*
X147642857Y-154804285D02*
X147714285Y-154518571D01*
X147714285Y-154518571D02*
X147785714Y-154375714D01*
X147785714Y-154375714D02*
X147928571Y-154232857D01*
X147928571Y-154232857D02*
X148142857Y-154161428D01*
X148142857Y-154161428D02*
X148285714Y-154161428D01*
X148285714Y-154161428D02*
X148500000Y-154232857D01*
X148500000Y-154232857D02*
X148571428Y-154304285D01*
X148857143Y-155804285D02*
X150000000Y-155804285D01*
X150357142Y-155661428D02*
X150357142Y-154161428D01*
X150357142Y-154161428D02*
X150928571Y-154161428D01*
X150928571Y-154161428D02*
X151071428Y-154232857D01*
X151071428Y-154232857D02*
X151142857Y-154304285D01*
X151142857Y-154304285D02*
X151214285Y-154447142D01*
X151214285Y-154447142D02*
X151214285Y-154661428D01*
X151214285Y-154661428D02*
X151142857Y-154804285D01*
X151142857Y-154804285D02*
X151071428Y-154875714D01*
X151071428Y-154875714D02*
X150928571Y-154947142D01*
X150928571Y-154947142D02*
X150357142Y-154947142D01*
X152142857Y-154161428D02*
X152428571Y-154161428D01*
X152428571Y-154161428D02*
X152571428Y-154232857D01*
X152571428Y-154232857D02*
X152714285Y-154375714D01*
X152714285Y-154375714D02*
X152785714Y-154661428D01*
X152785714Y-154661428D02*
X152785714Y-155161428D01*
X152785714Y-155161428D02*
X152714285Y-155447142D01*
X152714285Y-155447142D02*
X152571428Y-155590000D01*
X152571428Y-155590000D02*
X152428571Y-155661428D01*
X152428571Y-155661428D02*
X152142857Y-155661428D01*
X152142857Y-155661428D02*
X152000000Y-155590000D01*
X152000000Y-155590000D02*
X151857142Y-155447142D01*
X151857142Y-155447142D02*
X151785714Y-155161428D01*
X151785714Y-155161428D02*
X151785714Y-154661428D01*
X151785714Y-154661428D02*
X151857142Y-154375714D01*
X151857142Y-154375714D02*
X152000000Y-154232857D01*
X152000000Y-154232857D02*
X152142857Y-154161428D01*
X153285714Y-154161428D02*
X153642857Y-155661428D01*
X153642857Y-155661428D02*
X153928571Y-154590000D01*
X153928571Y-154590000D02*
X154214286Y-155661428D01*
X154214286Y-155661428D02*
X154571429Y-154161428D01*
X155142857Y-154875714D02*
X155642857Y-154875714D01*
X155857143Y-155661428D02*
X155142857Y-155661428D01*
X155142857Y-155661428D02*
X155142857Y-154161428D01*
X155142857Y-154161428D02*
X155857143Y-154161428D01*
X157357143Y-155661428D02*
X156857143Y-154947142D01*
X156500000Y-155661428D02*
X156500000Y-154161428D01*
X156500000Y-154161428D02*
X157071429Y-154161428D01*
X157071429Y-154161428D02*
X157214286Y-154232857D01*
X157214286Y-154232857D02*
X157285715Y-154304285D01*
X157285715Y-154304285D02*
X157357143Y-154447142D01*
X157357143Y-154447142D02*
X157357143Y-154661428D01*
X157357143Y-154661428D02*
X157285715Y-154804285D01*
X157285715Y-154804285D02*
X157214286Y-154875714D01*
X157214286Y-154875714D02*
X157071429Y-154947142D01*
X157071429Y-154947142D02*
X156500000Y-154947142D01*
X157642858Y-155804285D02*
X158785715Y-155804285D01*
X159142857Y-155661428D02*
X159142857Y-154161428D01*
X159857143Y-155661428D02*
X159857143Y-154161428D01*
X159857143Y-154161428D02*
X160714286Y-155661428D01*
X160714286Y-155661428D02*
X160714286Y-154161428D01*
X137841428Y-172782142D02*
X139341428Y-172282142D01*
X139341428Y-172282142D02*
X137841428Y-171782142D01*
X137841428Y-171282143D02*
X139055714Y-171282143D01*
X139055714Y-171282143D02*
X139198571Y-171210714D01*
X139198571Y-171210714D02*
X139270000Y-171139286D01*
X139270000Y-171139286D02*
X139341428Y-170996428D01*
X139341428Y-170996428D02*
X139341428Y-170710714D01*
X139341428Y-170710714D02*
X139270000Y-170567857D01*
X139270000Y-170567857D02*
X139198571Y-170496428D01*
X139198571Y-170496428D02*
X139055714Y-170425000D01*
X139055714Y-170425000D02*
X137841428Y-170425000D01*
X139484285Y-170067857D02*
X139484285Y-168924999D01*
X137841428Y-168710714D02*
X137841428Y-167782142D01*
X137841428Y-167782142D02*
X138412857Y-168282142D01*
X138412857Y-168282142D02*
X138412857Y-168067857D01*
X138412857Y-168067857D02*
X138484285Y-167925000D01*
X138484285Y-167925000D02*
X138555714Y-167853571D01*
X138555714Y-167853571D02*
X138698571Y-167782142D01*
X138698571Y-167782142D02*
X139055714Y-167782142D01*
X139055714Y-167782142D02*
X139198571Y-167853571D01*
X139198571Y-167853571D02*
X139270000Y-167925000D01*
X139270000Y-167925000D02*
X139341428Y-168067857D01*
X139341428Y-168067857D02*
X139341428Y-168496428D01*
X139341428Y-168496428D02*
X139270000Y-168639285D01*
X139270000Y-168639285D02*
X139198571Y-168710714D01*
X208357142Y-179785000D02*
X209500000Y-179785000D01*
X208928571Y-180356428D02*
X208928571Y-179213571D01*
X211000000Y-180356428D02*
X210142857Y-180356428D01*
X210571428Y-180356428D02*
X210571428Y-178856428D01*
X210571428Y-178856428D02*
X210428571Y-179070714D01*
X210428571Y-179070714D02*
X210285714Y-179213571D01*
X210285714Y-179213571D02*
X210142857Y-179285000D01*
X211571428Y-178999285D02*
X211642856Y-178927857D01*
X211642856Y-178927857D02*
X211785714Y-178856428D01*
X211785714Y-178856428D02*
X212142856Y-178856428D01*
X212142856Y-178856428D02*
X212285714Y-178927857D01*
X212285714Y-178927857D02*
X212357142Y-178999285D01*
X212357142Y-178999285D02*
X212428571Y-179142142D01*
X212428571Y-179142142D02*
X212428571Y-179285000D01*
X212428571Y-179285000D02*
X212357142Y-179499285D01*
X212357142Y-179499285D02*
X211499999Y-180356428D01*
X211499999Y-180356428D02*
X212428571Y-180356428D01*
X212857142Y-178856428D02*
X213357142Y-180356428D01*
X213357142Y-180356428D02*
X213857142Y-178856428D01*
X159357142Y-179705000D02*
X160500000Y-179705000D01*
X159928571Y-180276428D02*
X159928571Y-179133571D01*
X162000000Y-180276428D02*
X161142857Y-180276428D01*
X161571428Y-180276428D02*
X161571428Y-178776428D01*
X161571428Y-178776428D02*
X161428571Y-178990714D01*
X161428571Y-178990714D02*
X161285714Y-179133571D01*
X161285714Y-179133571D02*
X161142857Y-179205000D01*
X162571428Y-178919285D02*
X162642856Y-178847857D01*
X162642856Y-178847857D02*
X162785714Y-178776428D01*
X162785714Y-178776428D02*
X163142856Y-178776428D01*
X163142856Y-178776428D02*
X163285714Y-178847857D01*
X163285714Y-178847857D02*
X163357142Y-178919285D01*
X163357142Y-178919285D02*
X163428571Y-179062142D01*
X163428571Y-179062142D02*
X163428571Y-179205000D01*
X163428571Y-179205000D02*
X163357142Y-179419285D01*
X163357142Y-179419285D02*
X162499999Y-180276428D01*
X162499999Y-180276428D02*
X163428571Y-180276428D01*
X163857142Y-178776428D02*
X164357142Y-180276428D01*
X164357142Y-180276428D02*
X164857142Y-178776428D01*
X165357141Y-180276428D02*
X165357141Y-178776428D01*
X165357141Y-178776428D02*
X165714284Y-178776428D01*
X165714284Y-178776428D02*
X165928570Y-178847857D01*
X165928570Y-178847857D02*
X166071427Y-178990714D01*
X166071427Y-178990714D02*
X166142856Y-179133571D01*
X166142856Y-179133571D02*
X166214284Y-179419285D01*
X166214284Y-179419285D02*
X166214284Y-179633571D01*
X166214284Y-179633571D02*
X166142856Y-179919285D01*
X166142856Y-179919285D02*
X166071427Y-180062142D01*
X166071427Y-180062142D02*
X165928570Y-180205000D01*
X165928570Y-180205000D02*
X165714284Y-180276428D01*
X165714284Y-180276428D02*
X165357141Y-180276428D01*
X167642856Y-180276428D02*
X166785713Y-180276428D01*
X167214284Y-180276428D02*
X167214284Y-178776428D01*
X167214284Y-178776428D02*
X167071427Y-178990714D01*
X167071427Y-178990714D02*
X166928570Y-179133571D01*
X166928570Y-179133571D02*
X166785713Y-179205000D01*
X79817857Y-164162857D02*
X79675000Y-164091428D01*
X79675000Y-164091428D02*
X79460714Y-164091428D01*
X79460714Y-164091428D02*
X79246428Y-164162857D01*
X79246428Y-164162857D02*
X79103571Y-164305714D01*
X79103571Y-164305714D02*
X79032142Y-164448571D01*
X79032142Y-164448571D02*
X78960714Y-164734285D01*
X78960714Y-164734285D02*
X78960714Y-164948571D01*
X78960714Y-164948571D02*
X79032142Y-165234285D01*
X79032142Y-165234285D02*
X79103571Y-165377142D01*
X79103571Y-165377142D02*
X79246428Y-165520000D01*
X79246428Y-165520000D02*
X79460714Y-165591428D01*
X79460714Y-165591428D02*
X79603571Y-165591428D01*
X79603571Y-165591428D02*
X79817857Y-165520000D01*
X79817857Y-165520000D02*
X79889285Y-165448571D01*
X79889285Y-165448571D02*
X79889285Y-164948571D01*
X79889285Y-164948571D02*
X79603571Y-164948571D01*
X80532142Y-165591428D02*
X80532142Y-164091428D01*
X80532142Y-164091428D02*
X81103571Y-164091428D01*
X81103571Y-164091428D02*
X81246428Y-164162857D01*
X81246428Y-164162857D02*
X81317857Y-164234285D01*
X81317857Y-164234285D02*
X81389285Y-164377142D01*
X81389285Y-164377142D02*
X81389285Y-164591428D01*
X81389285Y-164591428D02*
X81317857Y-164734285D01*
X81317857Y-164734285D02*
X81246428Y-164805714D01*
X81246428Y-164805714D02*
X81103571Y-164877142D01*
X81103571Y-164877142D02*
X80532142Y-164877142D01*
X82032142Y-165591428D02*
X82032142Y-164091428D01*
X83032143Y-164091428D02*
X83317857Y-164091428D01*
X83317857Y-164091428D02*
X83460714Y-164162857D01*
X83460714Y-164162857D02*
X83603571Y-164305714D01*
X83603571Y-164305714D02*
X83675000Y-164591428D01*
X83675000Y-164591428D02*
X83675000Y-165091428D01*
X83675000Y-165091428D02*
X83603571Y-165377142D01*
X83603571Y-165377142D02*
X83460714Y-165520000D01*
X83460714Y-165520000D02*
X83317857Y-165591428D01*
X83317857Y-165591428D02*
X83032143Y-165591428D01*
X83032143Y-165591428D02*
X82889286Y-165520000D01*
X82889286Y-165520000D02*
X82746428Y-165377142D01*
X82746428Y-165377142D02*
X82675000Y-165091428D01*
X82675000Y-165091428D02*
X82675000Y-164591428D01*
X82675000Y-164591428D02*
X82746428Y-164305714D01*
X82746428Y-164305714D02*
X82889286Y-164162857D01*
X82889286Y-164162857D02*
X83032143Y-164091428D01*
X85746429Y-164091428D02*
X85889286Y-164091428D01*
X85889286Y-164091428D02*
X86032143Y-164162857D01*
X86032143Y-164162857D02*
X86103572Y-164234285D01*
X86103572Y-164234285D02*
X86175000Y-164377142D01*
X86175000Y-164377142D02*
X86246429Y-164662857D01*
X86246429Y-164662857D02*
X86246429Y-165020000D01*
X86246429Y-165020000D02*
X86175000Y-165305714D01*
X86175000Y-165305714D02*
X86103572Y-165448571D01*
X86103572Y-165448571D02*
X86032143Y-165520000D01*
X86032143Y-165520000D02*
X85889286Y-165591428D01*
X85889286Y-165591428D02*
X85746429Y-165591428D01*
X85746429Y-165591428D02*
X85603572Y-165520000D01*
X85603572Y-165520000D02*
X85532143Y-165448571D01*
X85532143Y-165448571D02*
X85460714Y-165305714D01*
X85460714Y-165305714D02*
X85389286Y-165020000D01*
X85389286Y-165020000D02*
X85389286Y-164662857D01*
X85389286Y-164662857D02*
X85460714Y-164377142D01*
X85460714Y-164377142D02*
X85532143Y-164234285D01*
X85532143Y-164234285D02*
X85603572Y-164162857D01*
X85603572Y-164162857D02*
X85746429Y-164091428D01*
X55067857Y-167562857D02*
X54925000Y-167491428D01*
X54925000Y-167491428D02*
X54710714Y-167491428D01*
X54710714Y-167491428D02*
X54496428Y-167562857D01*
X54496428Y-167562857D02*
X54353571Y-167705714D01*
X54353571Y-167705714D02*
X54282142Y-167848571D01*
X54282142Y-167848571D02*
X54210714Y-168134285D01*
X54210714Y-168134285D02*
X54210714Y-168348571D01*
X54210714Y-168348571D02*
X54282142Y-168634285D01*
X54282142Y-168634285D02*
X54353571Y-168777142D01*
X54353571Y-168777142D02*
X54496428Y-168920000D01*
X54496428Y-168920000D02*
X54710714Y-168991428D01*
X54710714Y-168991428D02*
X54853571Y-168991428D01*
X54853571Y-168991428D02*
X55067857Y-168920000D01*
X55067857Y-168920000D02*
X55139285Y-168848571D01*
X55139285Y-168848571D02*
X55139285Y-168348571D01*
X55139285Y-168348571D02*
X54853571Y-168348571D01*
X55782142Y-168991428D02*
X55782142Y-167491428D01*
X55782142Y-167491428D02*
X56353571Y-167491428D01*
X56353571Y-167491428D02*
X56496428Y-167562857D01*
X56496428Y-167562857D02*
X56567857Y-167634285D01*
X56567857Y-167634285D02*
X56639285Y-167777142D01*
X56639285Y-167777142D02*
X56639285Y-167991428D01*
X56639285Y-167991428D02*
X56567857Y-168134285D01*
X56567857Y-168134285D02*
X56496428Y-168205714D01*
X56496428Y-168205714D02*
X56353571Y-168277142D01*
X56353571Y-168277142D02*
X55782142Y-168277142D01*
X57282142Y-168991428D02*
X57282142Y-167491428D01*
X58282143Y-167491428D02*
X58567857Y-167491428D01*
X58567857Y-167491428D02*
X58710714Y-167562857D01*
X58710714Y-167562857D02*
X58853571Y-167705714D01*
X58853571Y-167705714D02*
X58925000Y-167991428D01*
X58925000Y-167991428D02*
X58925000Y-168491428D01*
X58925000Y-168491428D02*
X58853571Y-168777142D01*
X58853571Y-168777142D02*
X58710714Y-168920000D01*
X58710714Y-168920000D02*
X58567857Y-168991428D01*
X58567857Y-168991428D02*
X58282143Y-168991428D01*
X58282143Y-168991428D02*
X58139286Y-168920000D01*
X58139286Y-168920000D02*
X57996428Y-168777142D01*
X57996428Y-168777142D02*
X57925000Y-168491428D01*
X57925000Y-168491428D02*
X57925000Y-167991428D01*
X57925000Y-167991428D02*
X57996428Y-167705714D01*
X57996428Y-167705714D02*
X58139286Y-167562857D01*
X58139286Y-167562857D02*
X58282143Y-167491428D01*
X61496429Y-168991428D02*
X60639286Y-168991428D01*
X61067857Y-168991428D02*
X61067857Y-167491428D01*
X61067857Y-167491428D02*
X60925000Y-167705714D01*
X60925000Y-167705714D02*
X60782143Y-167848571D01*
X60782143Y-167848571D02*
X60639286Y-167920000D01*
X75522857Y-90826428D02*
X74665714Y-90826428D01*
X75094285Y-90826428D02*
X75094285Y-89326428D01*
X75094285Y-89326428D02*
X74951428Y-89540714D01*
X74951428Y-89540714D02*
X74808571Y-89683571D01*
X74808571Y-89683571D02*
X74665714Y-89755000D01*
X55717857Y-108841428D02*
X54860714Y-108841428D01*
X55289285Y-108841428D02*
X55289285Y-107341428D01*
X55289285Y-107341428D02*
X55146428Y-107555714D01*
X55146428Y-107555714D02*
X55003571Y-107698571D01*
X55003571Y-107698571D02*
X54860714Y-107770000D01*
D11*
X117000000Y-53000000D03*
D12*
X119000000Y-53000000D03*
X121000000Y-53000000D03*
D13*
X195605000Y-123975000D03*
X194645000Y-123975000D03*
D14*
X107975000Y-165287500D03*
X107975000Y-163462500D03*
D15*
X202278249Y-99796751D03*
X202999497Y-100517999D03*
D16*
X228575000Y-111425000D03*
X228575000Y-112695000D03*
X228575000Y-113965000D03*
X228575000Y-115235000D03*
X233525000Y-115235000D03*
X233525000Y-113965000D03*
X233525000Y-112695000D03*
X233525000Y-111425000D03*
D17*
X191706250Y-70675000D03*
X193531250Y-70675000D03*
D18*
X179787500Y-112475000D03*
X177962500Y-112475000D03*
D19*
X175367500Y-91020000D03*
X175367500Y-92920000D03*
D20*
X123887500Y-71775000D03*
X125787500Y-71775000D03*
D14*
X103887500Y-62115000D03*
X103887500Y-60290000D03*
D21*
X199425000Y-92854888D03*
X199425000Y-91894888D03*
D18*
X120062500Y-156175000D03*
X118237500Y-156175000D03*
D17*
X204275000Y-112150000D03*
X206100000Y-112150000D03*
X172837500Y-57225000D03*
X174662500Y-57225000D03*
D22*
X114112500Y-72675000D03*
D23*
X114112500Y-74675000D03*
D19*
X224612500Y-103352501D03*
X224612500Y-105252501D03*
D24*
X176225000Y-112350000D03*
X176225000Y-110250000D03*
D22*
X139850000Y-74090000D03*
D23*
X137850000Y-74090000D03*
D25*
X230475000Y-123169888D03*
X230475000Y-125269888D03*
D14*
X57575000Y-62337500D03*
X57575000Y-60512500D03*
D26*
X192806250Y-58987500D03*
X192806250Y-60812500D03*
D22*
X176092500Y-87320000D03*
D23*
X178092500Y-87320000D03*
D14*
X116962500Y-90737500D03*
X116962500Y-88912500D03*
D22*
X68512500Y-75980113D03*
D23*
X68512500Y-73980113D03*
D13*
X95630000Y-90850000D03*
X94670000Y-90850000D03*
D20*
X119237500Y-66600000D03*
X121137500Y-66600000D03*
D27*
X53125000Y-65787500D03*
X53125000Y-63887500D03*
D14*
X76450000Y-62212500D03*
X76450000Y-60387500D03*
D21*
X202825000Y-113110000D03*
X202825000Y-112150000D03*
D14*
X119712500Y-81562500D03*
X119712500Y-79737500D03*
D22*
X114225000Y-88312500D03*
D23*
X112225000Y-88312500D03*
D25*
X176225000Y-107025000D03*
X176225000Y-109125000D03*
D24*
X230475000Y-128494888D03*
X230475000Y-126394888D03*
D28*
X109800000Y-182000000D03*
D29*
X109800000Y-179500000D03*
X109800000Y-177000000D03*
X109800000Y-174500000D03*
X109800000Y-172000000D03*
D30*
X75600000Y-65722500D03*
X75600000Y-65072500D03*
X75600000Y-64422500D03*
X75600000Y-63772500D03*
X71200000Y-63772500D03*
X71200000Y-64422500D03*
X71200000Y-65072500D03*
X71200000Y-65722500D03*
D31*
X73400000Y-64737500D03*
D22*
X185000000Y-97149888D03*
D23*
X185000000Y-99149888D03*
D11*
X175000000Y-52975000D03*
D12*
X177000000Y-52975000D03*
X179000000Y-52975000D03*
D32*
X207750000Y-146750000D03*
D18*
X195393750Y-57250000D03*
X193568750Y-57250000D03*
D14*
X103612500Y-69052500D03*
X103612500Y-67227500D03*
D20*
X190175000Y-62575000D03*
X192075000Y-62575000D03*
D26*
X214800000Y-115462500D03*
X214800000Y-117287500D03*
X194706250Y-58987500D03*
X194706250Y-60812500D03*
D32*
X156000000Y-180500000D03*
D13*
X189010000Y-100774888D03*
X188050000Y-100774888D03*
D11*
X198000000Y-52975000D03*
D12*
X200000000Y-52975000D03*
D33*
X88962500Y-75570000D03*
X88962500Y-76530000D03*
D34*
X95950000Y-161875000D03*
X95950000Y-161225000D03*
X95950000Y-160575000D03*
X95950000Y-159925000D03*
X95950000Y-159275000D03*
X95950000Y-158625000D03*
X95950000Y-157975000D03*
X90225000Y-157975000D03*
X90225000Y-158625000D03*
X90225000Y-159275000D03*
X90225000Y-159925000D03*
X90225000Y-160575000D03*
X90225000Y-161225000D03*
X90225000Y-161875000D03*
D18*
X209625000Y-83475000D03*
X207800000Y-83475000D03*
D11*
X205000000Y-52975000D03*
D12*
X207000000Y-52975000D03*
D17*
X207825000Y-85375000D03*
X209650000Y-85375000D03*
D22*
X54350000Y-69287500D03*
D23*
X52350000Y-69287500D03*
D35*
X186975000Y-69055000D03*
X186975000Y-67785000D03*
X186975000Y-66515000D03*
X186975000Y-65245000D03*
X182025000Y-65245000D03*
X182025000Y-66515000D03*
X182025000Y-67785000D03*
X182025000Y-69055000D03*
D14*
X123775000Y-158512500D03*
X123775000Y-156687500D03*
D11*
X110000000Y-53000000D03*
D12*
X112000000Y-53000000D03*
D18*
X118925000Y-85200000D03*
X117100000Y-85200000D03*
D36*
X52375000Y-180000000D03*
X53143845Y-178143845D03*
X53143845Y-181856155D03*
X55000000Y-177375000D03*
D37*
X55000000Y-180000000D03*
D36*
X55000000Y-182625000D03*
X56856155Y-178143845D03*
X56856155Y-181856155D03*
X57625000Y-180000000D03*
D26*
X123887500Y-73525000D03*
X123887500Y-75350000D03*
D22*
X114037500Y-67150000D03*
D23*
X114037500Y-69150000D03*
D14*
X55650000Y-62362500D03*
X55650000Y-60537500D03*
D38*
X163000000Y-72650000D03*
D39*
X163000000Y-75190000D03*
X163000000Y-77730000D03*
X163000000Y-80270000D03*
X163000000Y-82810000D03*
X163000000Y-85350000D03*
D18*
X191625000Y-112256250D03*
X189800000Y-112256250D03*
D14*
X118300000Y-58912500D03*
X118300000Y-57087500D03*
D20*
X217037500Y-106199888D03*
X218937500Y-106199888D03*
D14*
X101987500Y-62115000D03*
X101987500Y-60290000D03*
D40*
X219274008Y-127968784D03*
X220234008Y-127968784D03*
D41*
X71500000Y-101250000D03*
D42*
X72000000Y-101250000D03*
X72500000Y-101250000D03*
D41*
X73000000Y-101250000D03*
X73000000Y-100250000D03*
D42*
X72500000Y-100250000D03*
X72000000Y-100250000D03*
D41*
X71500000Y-100250000D03*
X57825000Y-103625000D03*
D42*
X58325000Y-103625000D03*
X58825000Y-103625000D03*
D41*
X59325000Y-103625000D03*
X59325000Y-102625000D03*
D42*
X58825000Y-102625000D03*
X58325000Y-102625000D03*
D41*
X57825000Y-102625000D03*
D32*
X135625000Y-98975000D03*
D11*
X83000000Y-53000000D03*
D12*
X85000000Y-53000000D03*
X87000000Y-53000000D03*
D33*
X65300000Y-75670000D03*
X65300000Y-76630000D03*
D27*
X139100000Y-70600000D03*
X139100000Y-68700000D03*
D18*
X204550000Y-102475000D03*
X202725000Y-102475000D03*
D43*
X220925000Y-123615000D03*
X220925000Y-124635000D03*
D26*
X200850000Y-77852500D03*
X200850000Y-79677500D03*
X206500000Y-92537500D03*
X206500000Y-94362500D03*
D27*
X83125000Y-65637500D03*
X83125000Y-63737500D03*
D14*
X108325000Y-81275000D03*
X108325000Y-79450000D03*
X91100000Y-62275000D03*
X91100000Y-60450000D03*
D17*
X231975000Y-101330001D03*
X233800000Y-101330001D03*
D40*
X199395000Y-100874888D03*
X200355000Y-100874888D03*
D44*
X72030000Y-103650000D03*
X73050000Y-103650000D03*
D14*
X113975000Y-165262500D03*
X113975000Y-163437500D03*
D35*
X194825000Y-83838604D03*
X194825000Y-82568604D03*
X194825000Y-81298604D03*
X194825000Y-80028604D03*
X189875000Y-80028604D03*
X189875000Y-81298604D03*
X189875000Y-82568604D03*
X189875000Y-83838604D03*
D14*
X96100000Y-165287500D03*
X96100000Y-163462500D03*
D20*
X118012500Y-77975000D03*
X119912500Y-77975000D03*
D45*
X148357500Y-176112500D03*
D46*
X148357500Y-179922500D03*
D26*
X181217500Y-94357500D03*
X181217500Y-96182500D03*
D22*
X215158113Y-85600500D03*
D23*
X215158113Y-87600500D03*
D34*
X134337500Y-84725000D03*
X134337500Y-84075000D03*
X134337500Y-83425000D03*
X134337500Y-82775000D03*
X134337500Y-82125000D03*
X134337500Y-81475000D03*
X134337500Y-80825000D03*
X134337500Y-80175000D03*
X134337500Y-79525000D03*
X134337500Y-78875000D03*
X134337500Y-78225000D03*
X134337500Y-77575000D03*
X128612500Y-77575000D03*
X128612500Y-78225000D03*
X128612500Y-78875000D03*
X128612500Y-79525000D03*
X128612500Y-80175000D03*
X128612500Y-80825000D03*
X128612500Y-81475000D03*
X128612500Y-82125000D03*
X128612500Y-82775000D03*
X128612500Y-83425000D03*
X128612500Y-84075000D03*
X128612500Y-84725000D03*
D28*
X117600000Y-182000000D03*
D29*
X117600000Y-179500000D03*
X117600000Y-177000000D03*
X117600000Y-174500000D03*
X117600000Y-172000000D03*
D14*
X131300000Y-67152500D03*
X131300000Y-65327500D03*
D47*
X235195235Y-91620235D03*
X233904765Y-90329765D03*
D11*
X101000000Y-53000000D03*
D12*
X103000000Y-53000000D03*
X105000000Y-53000000D03*
D20*
X72225000Y-58637500D03*
X74125000Y-58637500D03*
D14*
X109525000Y-88162500D03*
X109525000Y-86337500D03*
D30*
X136400000Y-70650000D03*
X136400000Y-70000000D03*
X136400000Y-69350000D03*
X136400000Y-68700000D03*
X132000000Y-68700000D03*
X132000000Y-69350000D03*
X132000000Y-70000000D03*
X132000000Y-70650000D03*
D31*
X134200000Y-69665000D03*
D14*
X86850000Y-69175000D03*
X86850000Y-67350000D03*
D30*
X212087500Y-111939888D03*
X212087500Y-112589888D03*
X212087500Y-113239888D03*
X212087500Y-113889888D03*
X216487500Y-113889888D03*
X216487500Y-113239888D03*
X216487500Y-112589888D03*
X216487500Y-111939888D03*
D31*
X214287500Y-112924888D03*
D48*
X233850000Y-81710000D03*
X233850000Y-80690000D03*
D22*
X224675000Y-66050000D03*
D49*
X224675000Y-68590000D03*
X224675000Y-71130000D03*
X224675000Y-73670000D03*
X224675000Y-76210000D03*
X224675000Y-78750000D03*
X224675000Y-81290000D03*
X224675000Y-83830000D03*
X232295000Y-83830000D03*
X232295000Y-81290000D03*
X232295000Y-78750000D03*
X232295000Y-76210000D03*
X232295000Y-73670000D03*
X232295000Y-71130000D03*
X232295000Y-68590000D03*
X232295000Y-66050000D03*
D34*
X96137500Y-79500000D03*
X96137500Y-78850000D03*
X96137500Y-78200000D03*
X96137500Y-77550000D03*
X96137500Y-76900000D03*
X96137500Y-76250000D03*
X96137500Y-75600000D03*
X96137500Y-74950000D03*
X96137500Y-74300000D03*
X96137500Y-73650000D03*
X96137500Y-73000000D03*
X96137500Y-72350000D03*
X90412500Y-72350000D03*
X90412500Y-73000000D03*
X90412500Y-73650000D03*
X90412500Y-74300000D03*
X90412500Y-74950000D03*
X90412500Y-75600000D03*
X90412500Y-76250000D03*
X90412500Y-76900000D03*
X90412500Y-77550000D03*
X90412500Y-78200000D03*
X90412500Y-78850000D03*
X90412500Y-79500000D03*
D26*
X98162500Y-160075000D03*
X98162500Y-161900000D03*
D32*
X174750000Y-182500000D03*
D14*
X135150000Y-74027500D03*
X135150000Y-72202500D03*
X80075000Y-64937500D03*
X80075000Y-63112500D03*
D13*
X189010000Y-99474888D03*
X188050000Y-99474888D03*
D17*
X181362500Y-110575000D03*
X183187500Y-110575000D03*
D20*
X102075000Y-58525000D03*
X103975000Y-58525000D03*
D14*
X111900000Y-161862500D03*
X111900000Y-160037500D03*
D45*
X148357500Y-160112500D03*
D46*
X148357500Y-163922500D03*
D14*
X117812500Y-81562500D03*
X117812500Y-79737500D03*
D50*
X217679008Y-127968784D03*
X217679008Y-127318784D03*
X217679008Y-126668784D03*
X217679008Y-126018784D03*
X217679008Y-125368784D03*
X217679008Y-124718784D03*
X217679008Y-124068784D03*
X217679008Y-123418784D03*
X217679008Y-122768784D03*
X217679008Y-122118784D03*
X217679008Y-121468784D03*
X217679008Y-120818784D03*
X217679008Y-120168784D03*
X217679008Y-119518784D03*
X210479008Y-119518784D03*
X210479008Y-120168784D03*
X210479008Y-120818784D03*
X210479008Y-121468784D03*
X210479008Y-122118784D03*
X210479008Y-122768784D03*
X210479008Y-123418784D03*
X210479008Y-124068784D03*
X210479008Y-124718784D03*
X210479008Y-125368784D03*
X210479008Y-126018784D03*
X210479008Y-126668784D03*
X210479008Y-127318784D03*
X210479008Y-127968784D03*
D22*
X205604008Y-123318784D03*
D23*
X205604008Y-125318784D03*
D26*
X215312500Y-107962388D03*
X215312500Y-109787388D03*
D35*
X181975000Y-81620000D03*
X181975000Y-80350000D03*
X181975000Y-79080000D03*
X181975000Y-77810000D03*
X177025000Y-77810000D03*
X177025000Y-79080000D03*
X177025000Y-80350000D03*
X177025000Y-81620000D03*
D38*
X227000000Y-173080000D03*
D39*
X227000000Y-170540000D03*
X227000000Y-168000000D03*
X227000000Y-165460000D03*
X227000000Y-162920000D03*
D21*
X208854008Y-124873784D03*
X208854008Y-123913784D03*
X176700000Y-106005000D03*
X176700000Y-105045000D03*
D32*
X172750000Y-179500000D03*
D11*
X220000000Y-52975000D03*
D12*
X222000000Y-52975000D03*
D51*
X121467500Y-68825000D03*
X120197500Y-68825000D03*
X118927500Y-68825000D03*
X117657500Y-68825000D03*
X117657500Y-73775000D03*
X118927500Y-73775000D03*
X120197500Y-73775000D03*
X121467500Y-73775000D03*
D22*
X222412500Y-107594776D03*
D23*
X222412500Y-109594776D03*
D32*
X140000000Y-62500000D03*
D27*
X103675000Y-84812500D03*
X103675000Y-82912500D03*
D41*
X61525000Y-103625000D03*
D42*
X62025000Y-103625000D03*
X62525000Y-103625000D03*
D41*
X63025000Y-103625000D03*
X63025000Y-102625000D03*
D42*
X62525000Y-102625000D03*
X62025000Y-102625000D03*
D41*
X61525000Y-102625000D03*
D14*
X101712500Y-69027500D03*
X101712500Y-67202500D03*
D34*
X63837500Y-79800000D03*
X63837500Y-79150000D03*
X63837500Y-78500000D03*
X63837500Y-77850000D03*
X63837500Y-77200000D03*
X63837500Y-76550000D03*
X63837500Y-75900000D03*
X63837500Y-75250000D03*
X63837500Y-74600000D03*
X63837500Y-73950000D03*
X63837500Y-73300000D03*
X63837500Y-72650000D03*
X58112500Y-72650000D03*
X58112500Y-73300000D03*
X58112500Y-73950000D03*
X58112500Y-74600000D03*
X58112500Y-75250000D03*
X58112500Y-75900000D03*
X58112500Y-76550000D03*
X58112500Y-77200000D03*
X58112500Y-77850000D03*
X58112500Y-78500000D03*
X58112500Y-79150000D03*
X58112500Y-79800000D03*
D13*
X198105000Y-123975000D03*
X197145000Y-123975000D03*
D32*
X200750000Y-151250000D03*
D14*
X123775000Y-161887500D03*
X123775000Y-160062500D03*
D20*
X119237500Y-64625000D03*
X121137500Y-64625000D03*
D14*
X127875000Y-165287500D03*
X127875000Y-163462500D03*
D24*
X226371815Y-118824888D03*
X226371815Y-116724888D03*
D32*
X199075000Y-128150000D03*
D22*
X193669887Y-76483604D03*
D23*
X195669887Y-76483604D03*
D22*
X223400000Y-88960113D03*
D23*
X225400000Y-88960113D03*
D35*
X217025000Y-103680000D03*
X217025000Y-102410000D03*
X217025000Y-101140000D03*
X217025000Y-99870000D03*
X212075000Y-99870000D03*
X212075000Y-101140000D03*
X212075000Y-102410000D03*
X212075000Y-103680000D03*
D13*
X208884008Y-126793784D03*
X207924008Y-126793784D03*
D14*
X88287500Y-158550000D03*
X88287500Y-156725000D03*
D43*
X221875000Y-123615000D03*
X221875000Y-124635000D03*
D26*
X121800000Y-156962500D03*
X121800000Y-158787500D03*
D21*
X201900000Y-113105000D03*
X201900000Y-112145000D03*
D14*
X102275000Y-165287500D03*
X102275000Y-163462500D03*
D34*
X131487500Y-161875000D03*
X131487500Y-161225000D03*
X131487500Y-160575000D03*
X131487500Y-159925000D03*
X131487500Y-159275000D03*
X131487500Y-158625000D03*
X131487500Y-157975000D03*
X125762500Y-157975000D03*
X125762500Y-158625000D03*
X125762500Y-159275000D03*
X125762500Y-159925000D03*
X125762500Y-160575000D03*
X125762500Y-161225000D03*
X125762500Y-161875000D03*
D22*
X201725000Y-94799888D03*
D23*
X201725000Y-96799888D03*
D32*
X101750000Y-92800000D03*
D14*
X90375000Y-165287500D03*
X90375000Y-163462500D03*
D13*
X93330000Y-90850000D03*
X92370000Y-90850000D03*
D26*
X199775000Y-104700000D03*
X199775000Y-106525000D03*
D18*
X175987500Y-68675000D03*
X174162500Y-68675000D03*
D28*
X125400000Y-182000000D03*
D29*
X125400000Y-179500000D03*
X125400000Y-177000000D03*
X125400000Y-174500000D03*
X125400000Y-172000000D03*
D26*
X109987500Y-159412500D03*
X109987500Y-161237500D03*
D22*
X100725000Y-78280113D03*
D23*
X100725000Y-80280113D03*
D22*
X206886250Y-74367500D03*
D23*
X208886250Y-74367500D03*
D14*
X106075000Y-165287500D03*
X106075000Y-163462500D03*
D52*
X87200000Y-123550000D03*
D53*
X87200000Y-123050000D03*
X87200000Y-122550000D03*
D52*
X87200000Y-122050000D03*
X86200000Y-122050000D03*
D53*
X86200000Y-122550000D03*
X86200000Y-123050000D03*
D52*
X86200000Y-123550000D03*
D54*
X228350000Y-63550000D03*
X230450000Y-63550000D03*
D18*
X233296815Y-116999888D03*
X231471815Y-116999888D03*
D26*
X133700000Y-156687500D03*
X133700000Y-158512500D03*
D32*
X137500000Y-130000000D03*
D20*
X231950000Y-97485113D03*
X233850000Y-97485113D03*
D18*
X195000000Y-110356250D03*
X193175000Y-110356250D03*
D55*
X193737500Y-64325000D03*
X193737500Y-66225000D03*
X195612500Y-65275000D03*
D26*
X175425000Y-58962500D03*
X175425000Y-60787500D03*
D17*
X231987500Y-99430001D03*
X233812500Y-99430001D03*
D32*
X169750000Y-147750000D03*
D22*
X85612500Y-75330113D03*
D23*
X85612500Y-73330113D03*
D21*
X223100000Y-75225000D03*
X223100000Y-74265000D03*
D43*
X222825000Y-123615000D03*
X222825000Y-124635000D03*
D26*
X98187500Y-156712500D03*
X98187500Y-158537500D03*
D44*
X72030000Y-102700000D03*
X73050000Y-102700000D03*
D36*
X112375000Y-125000000D03*
X113143845Y-123143845D03*
X113143845Y-126856155D03*
X115000000Y-122375000D03*
D37*
X115000000Y-125000000D03*
D36*
X115000000Y-127625000D03*
X116856155Y-123143845D03*
X116856155Y-126856155D03*
X117625000Y-125000000D03*
D14*
X57050000Y-69262500D03*
X57050000Y-67437500D03*
D38*
X182000000Y-145810000D03*
D39*
X182000000Y-143270000D03*
X182000000Y-140730000D03*
X182000000Y-138190000D03*
D22*
X209712500Y-109630000D03*
D23*
X209712500Y-107630000D03*
D32*
X176375000Y-96375000D03*
D56*
X124610000Y-56850000D03*
X123590000Y-56850000D03*
D32*
X142500000Y-55000000D03*
D20*
X118012500Y-76000000D03*
X119912500Y-76000000D03*
D36*
X212375000Y-140000000D03*
X213143845Y-138143845D03*
X213143845Y-141856155D03*
X215000000Y-137375000D03*
D37*
X215000000Y-140000000D03*
D36*
X215000000Y-142625000D03*
X216856155Y-138143845D03*
X216856155Y-141856155D03*
X217625000Y-140000000D03*
D38*
X151000000Y-85350000D03*
D39*
X151000000Y-82810000D03*
X151000000Y-80270000D03*
X151000000Y-77730000D03*
X151000000Y-75190000D03*
X151000000Y-72650000D03*
D22*
X203258113Y-85425500D03*
D23*
X205258113Y-85425500D03*
D14*
X72000000Y-69100000D03*
X72000000Y-67275000D03*
D27*
X62975000Y-65812500D03*
X62975000Y-63912500D03*
D22*
X108325000Y-69100000D03*
D23*
X106325000Y-69100000D03*
D17*
X192218750Y-68775000D03*
X194043750Y-68775000D03*
X123937500Y-69825000D03*
X125762500Y-69825000D03*
D26*
X228450000Y-106680001D03*
X228450000Y-108505001D03*
D14*
X133200000Y-74027500D03*
X133200000Y-72202500D03*
D26*
X212900000Y-115462500D03*
X212900000Y-117287500D03*
D22*
X68412500Y-79500000D03*
D23*
X68412500Y-81500000D03*
D26*
X189150000Y-64462500D03*
X189150000Y-66287500D03*
D14*
X198936250Y-79667500D03*
X198936250Y-77842500D03*
D27*
X98112500Y-65577500D03*
X98112500Y-63677500D03*
D14*
X110225000Y-81275000D03*
X110225000Y-79450000D03*
D57*
X93012500Y-155575000D03*
X90062500Y-155575000D03*
D22*
X237350000Y-98860001D03*
D23*
X237350000Y-100860001D03*
D14*
X117775000Y-165262500D03*
X117775000Y-163437500D03*
D26*
X208400000Y-92537500D03*
X208400000Y-94362500D03*
X205100000Y-104750000D03*
X205100000Y-106575000D03*
D17*
X180655000Y-87190112D03*
X182480000Y-87190112D03*
D20*
X58375000Y-58750000D03*
X60275000Y-58750000D03*
D32*
X139500000Y-97000000D03*
D22*
X53412500Y-79500000D03*
D23*
X53412500Y-81500000D03*
D14*
X107600000Y-88175000D03*
X107600000Y-86350000D03*
D21*
X219304008Y-120048784D03*
X219304008Y-119088784D03*
D20*
X133350000Y-63531250D03*
X135250000Y-63531250D03*
D58*
X91700000Y-89125000D03*
X94000000Y-89125000D03*
X96300000Y-89125000D03*
D59*
X94000000Y-82825000D03*
D38*
X179000000Y-173080000D03*
D39*
X179000000Y-170540000D03*
X179000000Y-168000000D03*
X179000000Y-165460000D03*
X179000000Y-162920000D03*
D14*
X100087500Y-62115000D03*
X100087500Y-60290000D03*
D36*
X154375000Y-54000000D03*
X155143845Y-52143845D03*
X155143845Y-55856155D03*
X157000000Y-51375000D03*
D37*
X157000000Y-54000000D03*
D36*
X157000000Y-56625000D03*
X158856155Y-52143845D03*
X158856155Y-55856155D03*
X159625000Y-54000000D03*
D14*
X119675000Y-165262500D03*
X119675000Y-163437500D03*
D22*
X181100000Y-74269888D03*
D23*
X183100000Y-74269888D03*
D22*
X201352612Y-74345000D03*
D23*
X203352612Y-74345000D03*
D36*
X232375000Y-180000000D03*
X233143845Y-178143845D03*
X233143845Y-181856155D03*
X235000000Y-177375000D03*
D37*
X235000000Y-180000000D03*
D36*
X235000000Y-182625000D03*
X236856155Y-178143845D03*
X236856155Y-181856155D03*
X237625000Y-180000000D03*
D13*
X208884008Y-127968784D03*
X207924008Y-127968784D03*
D32*
X193925000Y-129550000D03*
D26*
X179811396Y-63862500D03*
X179811396Y-65687500D03*
D32*
X175500000Y-120500000D03*
D30*
X90000000Y-65787500D03*
X90000000Y-65137500D03*
X90000000Y-64487500D03*
X90000000Y-63837500D03*
X85600000Y-63837500D03*
X85600000Y-64487500D03*
X85600000Y-65137500D03*
X85600000Y-65787500D03*
D31*
X87800000Y-64802500D03*
D14*
X115875000Y-165262500D03*
X115875000Y-163437500D03*
D30*
X177867500Y-90855055D03*
X177867500Y-91505055D03*
X177867500Y-92155055D03*
X177867500Y-92805055D03*
X182267500Y-92805055D03*
X182267500Y-92155055D03*
X182267500Y-91505055D03*
X182267500Y-90855055D03*
D31*
X180067500Y-91840055D03*
D36*
X132375000Y-180000000D03*
X133143845Y-178143845D03*
X133143845Y-181856155D03*
X135000000Y-177375000D03*
D37*
X135000000Y-180000000D03*
D36*
X135000000Y-182625000D03*
X136856155Y-178143845D03*
X136856155Y-181856155D03*
X137625000Y-180000000D03*
D27*
X68300000Y-65637500D03*
X68300000Y-63737500D03*
D22*
X123875000Y-83969888D03*
D23*
X123875000Y-85969888D03*
D40*
X209437613Y-99875112D03*
X210397613Y-99875112D03*
D14*
X104425000Y-79287500D03*
X104425000Y-77462500D03*
X85400000Y-62275000D03*
X85400000Y-60450000D03*
D22*
X104880112Y-88312500D03*
D23*
X102880112Y-88312500D03*
D32*
X235000000Y-160000000D03*
D26*
X133700000Y-160062500D03*
X133700000Y-161887500D03*
D22*
X85587500Y-78805113D03*
D23*
X85587500Y-80805113D03*
D34*
X119562500Y-161850000D03*
X119562500Y-161200000D03*
X119562500Y-160550000D03*
X119562500Y-159900000D03*
X119562500Y-159250000D03*
X119562500Y-158600000D03*
X119562500Y-157950000D03*
X113837500Y-157950000D03*
X113837500Y-158600000D03*
X113837500Y-159250000D03*
X113837500Y-159900000D03*
X113837500Y-160550000D03*
X113837500Y-161200000D03*
X113837500Y-161850000D03*
D32*
X176475000Y-99650000D03*
D27*
X184242500Y-89320000D03*
X184242500Y-87420000D03*
D14*
X125062500Y-66175000D03*
X125062500Y-64350000D03*
D18*
X229934315Y-116999888D03*
X228109315Y-116999888D03*
D22*
X98990000Y-69077500D03*
D23*
X96990000Y-69077500D03*
D26*
X213412500Y-107962388D03*
X213412500Y-109787388D03*
D55*
X174912500Y-64350000D03*
X174912500Y-66250000D03*
X176787500Y-65300000D03*
D57*
X116625000Y-155550000D03*
X113675000Y-155550000D03*
D26*
X230250000Y-99192501D03*
X230250000Y-101017501D03*
D14*
X94200000Y-165287500D03*
X94200000Y-163462500D03*
D30*
X110775000Y-84787500D03*
X110775000Y-84137500D03*
X110775000Y-83487500D03*
X110775000Y-82837500D03*
X106375000Y-82837500D03*
X106375000Y-83487500D03*
X106375000Y-84137500D03*
X106375000Y-84787500D03*
D31*
X108575000Y-83802500D03*
D21*
X230950000Y-122175000D03*
X230950000Y-121215000D03*
D19*
X185042500Y-90970000D03*
X185042500Y-92870000D03*
D27*
X107925000Y-65600000D03*
X107925000Y-63700000D03*
D43*
X233849888Y-68040000D03*
X233849888Y-69060000D03*
D17*
X217050000Y-108149888D03*
X218875000Y-108149888D03*
D30*
X105187500Y-65637500D03*
X105187500Y-64987500D03*
X105187500Y-64337500D03*
X105187500Y-63687500D03*
X100787500Y-63687500D03*
X100787500Y-64337500D03*
X100787500Y-64987500D03*
X100787500Y-65637500D03*
D31*
X102987500Y-64652500D03*
D32*
X166250000Y-150750000D03*
D27*
X78000000Y-65712500D03*
X78000000Y-63812500D03*
D26*
X190906250Y-58987500D03*
X190906250Y-60812500D03*
D17*
X117700000Y-83300000D03*
X119525000Y-83300000D03*
D30*
X227035000Y-103172501D03*
X227035000Y-103822501D03*
X227035000Y-104472501D03*
X227035000Y-105122501D03*
X231435000Y-105122501D03*
X231435000Y-104472501D03*
X231435000Y-103822501D03*
X231435000Y-103172501D03*
D31*
X229235000Y-104157501D03*
D14*
X73900000Y-69100000D03*
X73900000Y-67275000D03*
D22*
X186992500Y-87345000D03*
D23*
X188992500Y-87345000D03*
D22*
X130500000Y-74100000D03*
D23*
X128500000Y-74100000D03*
D14*
X135106250Y-67143750D03*
X135106250Y-65318750D03*
D21*
X88962500Y-74710000D03*
X88962500Y-73750000D03*
D18*
X182455000Y-85290112D03*
X180630000Y-85290112D03*
D32*
X149425000Y-56100000D03*
D14*
X92275000Y-165275000D03*
X92275000Y-163450000D03*
D13*
X197449887Y-83083604D03*
X196489887Y-83083604D03*
D19*
X212075000Y-89125000D03*
X212075000Y-91025000D03*
D17*
X228575000Y-59650000D03*
X230400000Y-59650000D03*
D60*
X64450000Y-182000000D03*
D61*
X64450000Y-180000000D03*
X64450000Y-178000000D03*
X64450000Y-176000000D03*
X64450000Y-174000000D03*
X64450000Y-172000000D03*
D22*
X93480112Y-69037500D03*
D23*
X91480112Y-69037500D03*
D14*
X59475000Y-62362500D03*
X59475000Y-60537500D03*
D16*
X190237500Y-104801250D03*
X190237500Y-106071250D03*
X190237500Y-107341250D03*
X190237500Y-108611250D03*
X195187500Y-108611250D03*
X195187500Y-107341250D03*
X195187500Y-106071250D03*
X195187500Y-104801250D03*
D26*
X212125000Y-72812500D03*
X212125000Y-74637500D03*
D40*
X222395000Y-92410113D03*
X223355000Y-92410113D03*
D14*
X88287500Y-161912500D03*
X88287500Y-160087500D03*
D62*
X215750000Y-74700000D03*
X213850000Y-74700000D03*
D18*
X234037500Y-126719888D03*
X232212500Y-126719888D03*
D63*
X206810000Y-69055000D03*
X206810000Y-66515000D03*
X206810000Y-63975000D03*
X206810000Y-61435000D03*
X206810000Y-58895000D03*
X199190000Y-58895000D03*
X199190000Y-61435000D03*
X199190000Y-63975000D03*
X199190000Y-66515000D03*
X199190000Y-69055000D03*
D15*
X202950000Y-99125000D03*
X203671248Y-99846248D03*
D14*
X125787500Y-75350000D03*
X125787500Y-73525000D03*
X123112500Y-66200000D03*
X123112500Y-64375000D03*
D20*
X108325000Y-77687500D03*
X110225000Y-77687500D03*
D32*
X237250000Y-156500000D03*
D64*
X204250000Y-110200000D03*
X206150000Y-110200000D03*
X205200000Y-108325000D03*
D14*
X209892613Y-103712612D03*
X209892613Y-101887612D03*
X222819887Y-96355113D03*
X222819887Y-94530113D03*
D21*
X97600000Y-74580000D03*
X97600000Y-73620000D03*
D14*
X131700000Y-165287500D03*
X131700000Y-163462500D03*
D18*
X221075000Y-90900000D03*
X219250000Y-90900000D03*
D14*
X61400000Y-62375000D03*
X61400000Y-60550000D03*
D21*
X188975000Y-97655000D03*
X188975000Y-96695000D03*
D11*
X74000000Y-53000000D03*
D12*
X76000000Y-53000000D03*
X78000000Y-53000000D03*
D16*
X232650000Y-121145000D03*
X232650000Y-122415000D03*
X232650000Y-123685000D03*
X232650000Y-124955000D03*
X237600000Y-124955000D03*
X237600000Y-123685000D03*
X237600000Y-122415000D03*
X237600000Y-121145000D03*
D22*
X123850000Y-80500000D03*
D23*
X123850000Y-78500000D03*
D32*
X180000000Y-120000000D03*
D27*
X211408113Y-87400500D03*
X211408113Y-85500500D03*
D20*
X87425000Y-58687500D03*
X89325000Y-58687500D03*
D15*
X203621751Y-98453249D03*
X204342999Y-99174497D03*
D14*
X133200000Y-67127500D03*
X133200000Y-65302500D03*
D19*
X219287500Y-112049888D03*
X219287500Y-113949888D03*
D18*
X192018750Y-57250000D03*
X190193750Y-57250000D03*
D32*
X208475000Y-155975000D03*
D26*
X210150000Y-79327500D03*
X210150000Y-81152500D03*
D17*
X213862500Y-72750000D03*
X215687500Y-72750000D03*
D26*
X177325000Y-58962500D03*
X177325000Y-60787500D03*
D22*
X222554008Y-118718896D03*
D23*
X222554008Y-120718896D03*
D32*
X105250000Y-92875000D03*
D14*
X126000000Y-58962500D03*
X126000000Y-57137500D03*
D18*
X229934315Y-118899888D03*
X228109315Y-118899888D03*
D11*
X189075000Y-52975000D03*
D12*
X191075000Y-52975000D03*
X193075000Y-52975000D03*
D26*
X228325000Y-99192501D03*
X228325000Y-101017501D03*
D11*
X92000000Y-53000000D03*
D12*
X94000000Y-53000000D03*
X96000000Y-53000000D03*
D33*
X135787500Y-80375000D03*
X135787500Y-81335000D03*
D22*
X236899888Y-79240112D03*
D23*
X236899888Y-77240112D03*
D11*
X133000000Y-53000000D03*
D12*
X135000000Y-53000000D03*
X137000000Y-53000000D03*
D18*
X125225000Y-67925000D03*
X123400000Y-67925000D03*
D19*
X209525000Y-112125000D03*
X209525000Y-114025000D03*
D26*
X179317500Y-94357500D03*
X179317500Y-96182500D03*
D22*
X69300000Y-69137500D03*
D23*
X67300000Y-69137500D03*
D41*
X68525000Y-103550000D03*
D42*
X69025000Y-103550000D03*
X69525000Y-103550000D03*
D41*
X70025000Y-103550000D03*
X70025000Y-102550000D03*
D42*
X69525000Y-102550000D03*
X69025000Y-102550000D03*
D41*
X68525000Y-102550000D03*
D54*
X213650000Y-76650000D03*
X215750000Y-76650000D03*
D32*
X192750000Y-154750000D03*
D63*
X221310000Y-69055000D03*
X221310000Y-66515000D03*
X221310000Y-63975000D03*
X221310000Y-61435000D03*
X221310000Y-58895000D03*
X213690000Y-58895000D03*
X213690000Y-61435000D03*
X213690000Y-63975000D03*
X213690000Y-66515000D03*
X213690000Y-69055000D03*
D40*
X219274008Y-126668784D03*
X220234008Y-126668784D03*
D65*
X203400000Y-104475000D03*
X201500000Y-104475000D03*
X202450000Y-106350000D03*
D21*
X233850000Y-74450000D03*
X233850000Y-73490000D03*
D25*
X188062500Y-106756250D03*
X188062500Y-108856250D03*
D57*
X104837500Y-155550000D03*
X101887500Y-155550000D03*
D14*
X179775000Y-69087500D03*
X179775000Y-67262500D03*
D32*
X137500000Y-135000000D03*
D17*
X180667500Y-89115112D03*
X182492500Y-89115112D03*
D16*
X178400000Y-104995000D03*
X178400000Y-106265000D03*
X178400000Y-107535000D03*
X178400000Y-108805000D03*
X183350000Y-108805000D03*
X183350000Y-107535000D03*
X183350000Y-106265000D03*
X183350000Y-104995000D03*
D26*
X174850000Y-77802500D03*
X174850000Y-79627500D03*
D14*
X100087500Y-158525000D03*
X100087500Y-156700000D03*
D22*
X100825000Y-74805113D03*
D23*
X100825000Y-72805113D03*
D21*
X56662500Y-74585000D03*
X56662500Y-73625000D03*
D22*
X78600000Y-69212500D03*
D23*
X76600000Y-69212500D03*
D35*
X229975000Y-96310113D03*
X229975000Y-95040113D03*
X229975000Y-93770113D03*
X229975000Y-92500113D03*
X225025000Y-92500113D03*
X225025000Y-93770113D03*
X225025000Y-95040113D03*
X225025000Y-96310113D03*
D62*
X178050000Y-62550000D03*
X176150000Y-62550000D03*
X230450000Y-61600000D03*
X228550000Y-61600000D03*
D40*
X199395000Y-99499888D03*
X200355000Y-99499888D03*
D50*
X197800000Y-100774888D03*
X197800000Y-100124888D03*
X197800000Y-99474888D03*
X197800000Y-98824888D03*
X197800000Y-98174888D03*
X197800000Y-97524888D03*
X197800000Y-96874888D03*
X197800000Y-96224888D03*
X197800000Y-95574888D03*
X197800000Y-94924888D03*
X197800000Y-94274888D03*
X197800000Y-93624888D03*
X197800000Y-92974888D03*
X197800000Y-92324888D03*
X190600000Y-92324888D03*
X190600000Y-92974888D03*
X190600000Y-93624888D03*
X190600000Y-94274888D03*
X190600000Y-94924888D03*
X190600000Y-95574888D03*
X190600000Y-96224888D03*
X190600000Y-96874888D03*
X190600000Y-97524888D03*
X190600000Y-98174888D03*
X190600000Y-98824888D03*
X190600000Y-99474888D03*
X190600000Y-100124888D03*
X190600000Y-100774888D03*
D22*
X84130112Y-69137500D03*
D23*
X82130112Y-69137500D03*
D41*
X68250000Y-165150000D03*
D42*
X68750000Y-165150000D03*
X69250000Y-165150000D03*
D41*
X69750000Y-165150000D03*
X69750000Y-164150000D03*
D42*
X69250000Y-164150000D03*
X68750000Y-164150000D03*
D41*
X68250000Y-164150000D03*
D21*
X127162500Y-79775000D03*
X127162500Y-78815000D03*
D22*
X188169887Y-76458604D03*
D23*
X190169887Y-76458604D03*
D14*
X125975000Y-165287500D03*
X125975000Y-163462500D03*
D32*
X175000000Y-125000000D03*
D26*
X121800000Y-160337500D03*
X121800000Y-162162500D03*
D32*
X155850000Y-176150000D03*
D26*
X173525000Y-58987500D03*
X173525000Y-60812500D03*
D21*
X226875000Y-112530000D03*
X226875000Y-111570000D03*
D22*
X224625000Y-100835113D03*
D23*
X224625000Y-98835113D03*
D33*
X127162500Y-80640000D03*
X127162500Y-81600000D03*
X97587500Y-75440000D03*
X97587500Y-76400000D03*
D18*
X96450000Y-156225000D03*
X94625000Y-156225000D03*
D26*
X174847500Y-81192388D03*
X174847500Y-83017388D03*
D40*
X187245000Y-79973547D03*
X188205000Y-79973547D03*
D18*
X234037500Y-128619888D03*
X232212500Y-128619888D03*
D17*
X217050000Y-110049888D03*
X218875000Y-110049888D03*
D11*
X213000000Y-52975000D03*
D12*
X215000000Y-52975000D03*
D66*
X201450000Y-111075000D03*
X201950000Y-111075000D03*
X202450000Y-111075000D03*
X202950000Y-111075000D03*
X202950000Y-107975000D03*
X202450000Y-107975000D03*
X201950000Y-107975000D03*
X201450000Y-107975000D03*
D14*
X105787500Y-62102500D03*
X105787500Y-60277500D03*
D18*
X108262500Y-156225000D03*
X106437500Y-156225000D03*
D26*
X118862500Y-88912500D03*
X118862500Y-90737500D03*
D21*
X65300000Y-74810000D03*
X65300000Y-73850000D03*
D35*
X207975000Y-81720000D03*
X207975000Y-80450000D03*
X207975000Y-79180000D03*
X207975000Y-77910000D03*
X203025000Y-77910000D03*
X203025000Y-79180000D03*
X203025000Y-80450000D03*
X203025000Y-81720000D03*
D26*
X187625000Y-82012500D03*
X187625000Y-83837500D03*
D22*
X139025000Y-80575000D03*
D23*
X139025000Y-78575000D03*
D21*
X188537500Y-105761250D03*
X188537500Y-104801250D03*
D26*
X230350000Y-106680001D03*
X230350000Y-108505001D03*
D27*
X93050000Y-65550000D03*
X93050000Y-63650000D03*
D62*
X174650000Y-62575000D03*
X172750000Y-62575000D03*
D18*
X131937500Y-156225000D03*
X130112500Y-156225000D03*
D14*
X106425000Y-81287500D03*
X106425000Y-79462500D03*
D38*
X211000000Y-173080000D03*
D39*
X211000000Y-170540000D03*
X211000000Y-168000000D03*
X211000000Y-165460000D03*
X211000000Y-162920000D03*
D14*
X72300000Y-62212500D03*
X72300000Y-60387500D03*
D62*
X118962500Y-87150000D03*
X117062500Y-87150000D03*
D38*
X164000000Y-173080000D03*
D39*
X164000000Y-170540000D03*
X164000000Y-168000000D03*
X164000000Y-165460000D03*
X164000000Y-162920000D03*
D26*
X184150000Y-79937500D03*
X184150000Y-81762500D03*
D22*
X63650000Y-69337500D03*
D23*
X61650000Y-69337500D03*
D18*
X191625000Y-110356250D03*
X189800000Y-110356250D03*
D33*
X56662500Y-75450000D03*
X56662500Y-76410000D03*
D34*
X107762500Y-161875000D03*
X107762500Y-161225000D03*
X107762500Y-160575000D03*
X107762500Y-159925000D03*
X107762500Y-159275000D03*
X107762500Y-158625000D03*
X107762500Y-157975000D03*
X102037500Y-157975000D03*
X102037500Y-158625000D03*
X102037500Y-159275000D03*
X102037500Y-159925000D03*
X102037500Y-160575000D03*
X102037500Y-161225000D03*
X102037500Y-161875000D03*
D27*
X129300000Y-70575000D03*
X129300000Y-68675000D03*
D18*
X237412500Y-126719888D03*
X235587500Y-126719888D03*
D14*
X129775000Y-165312500D03*
X129775000Y-163487500D03*
X172950000Y-79644888D03*
X172950000Y-77819888D03*
D22*
X175594887Y-74244888D03*
D23*
X177594887Y-74244888D03*
D58*
X194225000Y-122250000D03*
X196525000Y-122250000D03*
X198825000Y-122250000D03*
D59*
X196525000Y-115950000D03*
D27*
X113675000Y-84812500D03*
X113675000Y-82912500D03*
D22*
X228900000Y-88960113D03*
D23*
X230900000Y-88960113D03*
D14*
X100087500Y-161900000D03*
X100087500Y-160075000D03*
D26*
X200825000Y-81227500D03*
X200825000Y-83052500D03*
D17*
X176212500Y-57225000D03*
X178037500Y-57225000D03*
D22*
X219875000Y-73669888D03*
D23*
X219875000Y-75669888D03*
D18*
X179787500Y-110575000D03*
X177962500Y-110575000D03*
D38*
X195000000Y-173080000D03*
D39*
X195000000Y-170540000D03*
X195000000Y-168000000D03*
X195000000Y-165460000D03*
X195000000Y-162920000D03*
D22*
X210862501Y-96325112D03*
D23*
X212862501Y-96325112D03*
D38*
X151000000Y-128350000D03*
D39*
X151000000Y-125810000D03*
X151000000Y-123270000D03*
X151000000Y-120730000D03*
X151000000Y-118190000D03*
X151000000Y-115650000D03*
D28*
X102000000Y-182000000D03*
D29*
X102000000Y-179500000D03*
X102000000Y-177000000D03*
X102000000Y-174500000D03*
X102000000Y-172000000D03*
D14*
X104175000Y-165287500D03*
X104175000Y-163462500D03*
D32*
X135000000Y-132250000D03*
D14*
X112125000Y-81287500D03*
X112125000Y-79462500D03*
D21*
X135800000Y-79505000D03*
X135800000Y-78545000D03*
D38*
X163000000Y-115650000D03*
D39*
X163000000Y-118190000D03*
X163000000Y-120730000D03*
X163000000Y-123270000D03*
X163000000Y-125810000D03*
X163000000Y-128350000D03*
D14*
X111900000Y-158487500D03*
X111900000Y-156662500D03*
D28*
X79000000Y-182000000D03*
D29*
X79000000Y-179500000D03*
X79000000Y-177000000D03*
X79000000Y-174500000D03*
X79000000Y-172000000D03*
D26*
X226850000Y-59687500D03*
X226850000Y-61512500D03*
D25*
X226371815Y-113524888D03*
X226371815Y-115624888D03*
D22*
X237049888Y-73705112D03*
D23*
X237049888Y-71705112D03*
D19*
X234237500Y-103302501D03*
X234237500Y-105202501D03*
D33*
X233849888Y-75885000D03*
X233849888Y-76845000D03*
D30*
X205025000Y-89040000D03*
X205025000Y-89690000D03*
X205025000Y-90340000D03*
X205025000Y-90990000D03*
X209425000Y-90990000D03*
X209425000Y-90340000D03*
X209425000Y-89690000D03*
X209425000Y-89040000D03*
D31*
X207225000Y-90025000D03*
D22*
X139075000Y-84044888D03*
D23*
X139075000Y-86044888D03*
D14*
X70075000Y-62212500D03*
X70075000Y-60387500D03*
X58950000Y-69250000D03*
X58950000Y-67425000D03*
X137006250Y-67143750D03*
X137006250Y-65318750D03*
D67*
X79460000Y-109740000D03*
X59140000Y-109740000D03*
X82000000Y-109740000D03*
X61680000Y-109740000D03*
X79460000Y-112280000D03*
X59140000Y-112280000D03*
X82000000Y-112280000D03*
X61680000Y-112280000D03*
X79460000Y-114820000D03*
X59140000Y-114820000D03*
X82000000Y-114820000D03*
X61680000Y-114820000D03*
X79460000Y-117360000D03*
X59140000Y-117360000D03*
X82000000Y-117360000D03*
X61680000Y-117360000D03*
X79460000Y-119900000D03*
X59140000Y-119900000D03*
X82000000Y-119900000D03*
X61680000Y-119900000D03*
X79460000Y-122440000D03*
X59140000Y-122440000D03*
X82000000Y-122440000D03*
X61680000Y-122440000D03*
X79460000Y-124980000D03*
X59140000Y-124980000D03*
X82000000Y-124980000D03*
X61680000Y-124980000D03*
X79460000Y-127520000D03*
X59140000Y-127520000D03*
X82000000Y-127520000D03*
X61680000Y-127520000D03*
X79460000Y-130060000D03*
X59140000Y-130060000D03*
X82000000Y-130060000D03*
X61680000Y-130060000D03*
X79460000Y-132600000D03*
X59140000Y-132600000D03*
X82000000Y-132600000D03*
X61680000Y-132600000D03*
X79460000Y-135140000D03*
X59140000Y-135140000D03*
X82000000Y-135140000D03*
X61680000Y-135140000D03*
X79460000Y-137680000D03*
X59140000Y-137680000D03*
X82000000Y-137680000D03*
X61680000Y-137680000D03*
X79460000Y-140220000D03*
X59140000Y-140220000D03*
X82000000Y-140220000D03*
X61680000Y-140220000D03*
X79460000Y-142760000D03*
X59140000Y-142760000D03*
X82000000Y-142760000D03*
X61680000Y-142760000D03*
X79460000Y-145300000D03*
X59140000Y-145300000D03*
X82000000Y-145300000D03*
X61680000Y-145300000D03*
X79460000Y-147840000D03*
X59140000Y-147840000D03*
X82000000Y-147840000D03*
X61680000Y-147840000D03*
X79460000Y-150380000D03*
X59140000Y-150380000D03*
X82000000Y-150380000D03*
X61680000Y-150380000D03*
X79460000Y-152920000D03*
X59140000Y-152920000D03*
X82000000Y-152920000D03*
X61680000Y-152920000D03*
X79460000Y-155460000D03*
X59140000Y-155460000D03*
X82000000Y-155460000D03*
X61680000Y-155460000D03*
X79460000Y-158000000D03*
X59140000Y-158000000D03*
X82000000Y-158000000D03*
X61680000Y-158000000D03*
D14*
X197019887Y-81833604D03*
X197019887Y-80008604D03*
X88750000Y-69175000D03*
X88750000Y-67350000D03*
D24*
X188062500Y-112056250D03*
X188062500Y-109956250D03*
D20*
X193575000Y-62575000D03*
X195475000Y-62575000D03*
D44*
X119690000Y-56800000D03*
X120710000Y-56800000D03*
D14*
X87300000Y-62275000D03*
X87300000Y-60450000D03*
D17*
X207825000Y-87275000D03*
X209650000Y-87275000D03*
D36*
X232375000Y-55000000D03*
X233143845Y-53143845D03*
X233143845Y-56856155D03*
X235000000Y-52375000D03*
D37*
X235000000Y-55000000D03*
D36*
X235000000Y-57625000D03*
X236856155Y-53143845D03*
X236856155Y-56856155D03*
X237625000Y-55000000D03*
D18*
X174687500Y-70575000D03*
X172862500Y-70575000D03*
D22*
X53412500Y-75980113D03*
D23*
X53412500Y-73980113D03*
D26*
X109987500Y-156037500D03*
X109987500Y-157862500D03*
D14*
X189175000Y-69675000D03*
X189175000Y-67850000D03*
D30*
X60425000Y-65872500D03*
X60425000Y-65222500D03*
X60425000Y-64572500D03*
X60425000Y-63922500D03*
X56025000Y-63922500D03*
X56025000Y-64572500D03*
X56025000Y-65222500D03*
X56025000Y-65872500D03*
D31*
X58225000Y-64887500D03*
D36*
X52375000Y-55000000D03*
X53143845Y-53143845D03*
X53143845Y-56856155D03*
X55000000Y-52375000D03*
D37*
X55000000Y-55000000D03*
D36*
X55000000Y-57625000D03*
X56856155Y-53143845D03*
X56856155Y-56856155D03*
X57625000Y-55000000D03*
D14*
X74200000Y-62225000D03*
X74200000Y-60400000D03*
D11*
X126000000Y-53000000D03*
D12*
X128000000Y-53000000D03*
D57*
X128500000Y-155575000D03*
X125550000Y-155575000D03*
D22*
X216367613Y-96325112D03*
D23*
X218367613Y-96325112D03*
D19*
X202525000Y-89175000D03*
X202525000Y-91075000D03*
D14*
X89200000Y-62275000D03*
X89200000Y-60450000D03*
M02*
