%TF.GenerationSoftware,KiCad,Pcbnew,7.0.1*%
%TF.CreationDate,2023-06-27T00:24:21+02:00*%
%TF.ProjectId,Main board,4d61696e-2062-46f6-9172-642e6b696361,rev?*%
%TF.SameCoordinates,Original*%
%TF.FileFunction,Paste,Bot*%
%TF.FilePolarity,Positive*%
%FSLAX46Y46*%
G04 Gerber Fmt 4.6, Leading zero omitted, Abs format (unit mm)*
G04 Created by KiCad (PCBNEW 7.0.1) date 2023-06-27 00:24:21*
%MOMM*%
%LPD*%
G01*
G04 APERTURE LIST*
G04 Aperture macros list*
%AMRoundRect*
0 Rectangle with rounded corners*
0 $1 Rounding radius*
0 $2 $3 $4 $5 $6 $7 $8 $9 X,Y pos of 4 corners*
0 Add a 4 corners polygon primitive as box body*
4,1,4,$2,$3,$4,$5,$6,$7,$8,$9,$2,$3,0*
0 Add four circle primitives for the rounded corners*
1,1,$1+$1,$2,$3*
1,1,$1+$1,$4,$5*
1,1,$1+$1,$6,$7*
1,1,$1+$1,$8,$9*
0 Add four rect primitives between the rounded corners*
20,1,$1+$1,$2,$3,$4,$5,0*
20,1,$1+$1,$4,$5,$6,$7,0*
20,1,$1+$1,$6,$7,$8,$9,0*
20,1,$1+$1,$8,$9,$2,$3,0*%
G04 Aperture macros list end*
%ADD10RoundRect,0.140000X-0.140000X-0.170000X0.140000X-0.170000X0.140000X0.170000X-0.140000X0.170000X0*%
%ADD11RoundRect,0.250000X0.262500X0.450000X-0.262500X0.450000X-0.262500X-0.450000X0.262500X-0.450000X0*%
%ADD12RoundRect,0.250000X0.450000X-0.262500X0.450000X0.262500X-0.450000X0.262500X-0.450000X-0.262500X0*%
%ADD13RoundRect,0.140000X0.170000X-0.140000X0.170000X0.140000X-0.170000X0.140000X-0.170000X-0.140000X0*%
%ADD14RoundRect,0.150000X-0.150000X0.587500X-0.150000X-0.587500X0.150000X-0.587500X0.150000X0.587500X0*%
%ADD15RoundRect,0.250000X-0.503814X-0.132583X-0.132583X-0.503814X0.503814X0.132583X0.132583X0.503814X0*%
%ADD16R,0.400000X0.500000*%
%ADD17R,0.300000X0.500000*%
%ADD18RoundRect,0.140000X0.140000X0.170000X-0.140000X0.170000X-0.140000X-0.170000X0.140000X-0.170000X0*%
%ADD19RoundRect,0.250000X-0.262500X-0.450000X0.262500X-0.450000X0.262500X0.450000X-0.262500X0.450000X0*%
%ADD20RoundRect,0.250000X-0.450000X0.262500X-0.450000X-0.262500X0.450000X-0.262500X0.450000X0.262500X0*%
%ADD21RoundRect,0.140000X-0.170000X0.140000X-0.170000X-0.140000X0.170000X-0.140000X0.170000X0.140000X0*%
%ADD22RoundRect,0.112500X0.187500X0.112500X-0.187500X0.112500X-0.187500X-0.112500X0.187500X-0.112500X0*%
%ADD23R,0.500000X0.400000*%
%ADD24R,0.500000X0.300000*%
G04 APERTURE END LIST*
D10*
X80245000Y-149075000D03*
X81205000Y-149075000D03*
D11*
X82712500Y-182075000D03*
X80887500Y-182075000D03*
D10*
X215407500Y-113224888D03*
X216367500Y-113224888D03*
D11*
X226937500Y-91100000D03*
X225112500Y-91100000D03*
D10*
X227512500Y-104477501D03*
X228472500Y-104477501D03*
D12*
X72125000Y-81187500D03*
X72125000Y-79362500D03*
D13*
X179472500Y-78779888D03*
X179472500Y-77819888D03*
D14*
X201875000Y-66837500D03*
X203775000Y-66837500D03*
X202825000Y-68712500D03*
D15*
X185529765Y-90454765D03*
X186820235Y-91745235D03*
D16*
X74950000Y-117775000D03*
D17*
X74450000Y-117775000D03*
X73950000Y-117775000D03*
D16*
X73450000Y-117775000D03*
X73450000Y-116775000D03*
D17*
X73950000Y-116775000D03*
X74450000Y-116775000D03*
D16*
X74950000Y-116775000D03*
D10*
X208295000Y-90355000D03*
X209255000Y-90355000D03*
D18*
X136330000Y-69365000D03*
X135370000Y-69365000D03*
D19*
X113650000Y-65050000D03*
X115475000Y-65050000D03*
D12*
X220000000Y-109912500D03*
X220000000Y-108087500D03*
D18*
X89730000Y-64487500D03*
X88770000Y-64487500D03*
X105135000Y-64325000D03*
X104175000Y-64325000D03*
D20*
X119586250Y-158062500D03*
X119586250Y-159887500D03*
D18*
X133630000Y-69340000D03*
X132670000Y-69340000D03*
D20*
X81050000Y-175212500D03*
X81050000Y-177037500D03*
D21*
X192725000Y-107620000D03*
X192725000Y-108580000D03*
D19*
X75325000Y-182025000D03*
X77150000Y-182025000D03*
D13*
X205500000Y-78870000D03*
X205500000Y-77910000D03*
D20*
X126625000Y-74087500D03*
X126625000Y-75912500D03*
D11*
X194112500Y-85625000D03*
X192287500Y-85625000D03*
D19*
X211712500Y-105225000D03*
X213537500Y-105225000D03*
X61812500Y-71325000D03*
X63637500Y-71325000D03*
D11*
X226462500Y-102825000D03*
X224637500Y-102825000D03*
D20*
X51075000Y-66062500D03*
X51075000Y-67887500D03*
D12*
X130525000Y-81050000D03*
X130525000Y-79225000D03*
X132450000Y-81050000D03*
X132450000Y-79225000D03*
D10*
X178415000Y-92155000D03*
X179375000Y-92155000D03*
D20*
X115300000Y-84725000D03*
X115300000Y-86550000D03*
D18*
X105775685Y-160600112D03*
X104815685Y-160600112D03*
D11*
X207475000Y-121525000D03*
X205650000Y-121525000D03*
D12*
X95700000Y-65912500D03*
X95700000Y-64087500D03*
D19*
X194762500Y-78650000D03*
X196587500Y-78650000D03*
D18*
X118817500Y-71400000D03*
X117857500Y-71400000D03*
X72505000Y-64412500D03*
X71545000Y-64412500D03*
D19*
X216775000Y-98425000D03*
X218600000Y-98425000D03*
X201450000Y-87750000D03*
X203275000Y-87750000D03*
D12*
X230100000Y-78037500D03*
X230100000Y-76212500D03*
D13*
X184500000Y-68875000D03*
X184500000Y-67915000D03*
D20*
X82075000Y-70762500D03*
X82075000Y-72587500D03*
D13*
X205500000Y-81720000D03*
X205500000Y-80760000D03*
D18*
X59850000Y-64587500D03*
X58890000Y-64587500D03*
D21*
X192725000Y-104765000D03*
X192725000Y-105725000D03*
D15*
X235704765Y-102779765D03*
X236995235Y-104070235D03*
D19*
X205512500Y-76325000D03*
X207337500Y-76325000D03*
D22*
X218750000Y-70650000D03*
X216650000Y-70650000D03*
D20*
X107762500Y-158700000D03*
X107762500Y-160525000D03*
D12*
X65475000Y-69200000D03*
X65475000Y-67375000D03*
D18*
X102530000Y-64325000D03*
X101570000Y-64325000D03*
D10*
X80250000Y-154150000D03*
X81210000Y-154150000D03*
X212607500Y-113224888D03*
X213567500Y-113224888D03*
D23*
X87200000Y-115450000D03*
D24*
X87200000Y-115950000D03*
X87200000Y-116450000D03*
D23*
X87200000Y-116950000D03*
X86200000Y-116950000D03*
D24*
X86200000Y-116450000D03*
X86200000Y-115950000D03*
D23*
X86200000Y-115450000D03*
D13*
X192294887Y-81038604D03*
X192294887Y-80078604D03*
D11*
X86412500Y-109325000D03*
X84587500Y-109325000D03*
D18*
X75000000Y-64412500D03*
X74040000Y-64412500D03*
X87005000Y-64487500D03*
X86045000Y-64487500D03*
D12*
X51575000Y-81237500D03*
X51575000Y-79412500D03*
D18*
X93997500Y-160575112D03*
X93037500Y-160575112D03*
X57125000Y-64587500D03*
X56165000Y-64587500D03*
D21*
X180875000Y-107845000D03*
X180875000Y-108805000D03*
D20*
X101000000Y-88437500D03*
X101000000Y-90262500D03*
D19*
X229800000Y-91100000D03*
X231625000Y-91100000D03*
D10*
X205545000Y-90350000D03*
X206505000Y-90350000D03*
D21*
X235200000Y-123965000D03*
X235200000Y-124925000D03*
D12*
X110325000Y-66487500D03*
X110325000Y-64662500D03*
D18*
X121302500Y-71400000D03*
X120342500Y-71400000D03*
D14*
X216750000Y-66712500D03*
X218650000Y-66712500D03*
X217700000Y-68587500D03*
D18*
X129045000Y-160225000D03*
X128085000Y-160225000D03*
D11*
X181287500Y-83375000D03*
X179462500Y-83375000D03*
D15*
X213584530Y-89009530D03*
X214875000Y-90300000D03*
D13*
X184500000Y-66180000D03*
X184500000Y-65220000D03*
D21*
X180900000Y-104995000D03*
X180900000Y-105955000D03*
D13*
X214542613Y-103630112D03*
X214542613Y-102670112D03*
D12*
X177000000Y-94012500D03*
X177000000Y-92187500D03*
D20*
X76975000Y-177687500D03*
X76975000Y-179512500D03*
X212000000Y-107087500D03*
X212000000Y-108912500D03*
D22*
X203850000Y-70650000D03*
X201750000Y-70650000D03*
D19*
X203687500Y-83225000D03*
X205512500Y-83225000D03*
D11*
X183300000Y-76625000D03*
X181475000Y-76625000D03*
D10*
X230287500Y-104477501D03*
X231247500Y-104477501D03*
D18*
X107825000Y-83512500D03*
X106865000Y-83512500D03*
D13*
X192294887Y-83888604D03*
X192294887Y-82928604D03*
D21*
X231125000Y-111425000D03*
X231125000Y-112385000D03*
D12*
X186850000Y-97675000D03*
X186850000Y-95850000D03*
D13*
X214542613Y-100805112D03*
X214542613Y-99845112D03*
D12*
X82100000Y-76962500D03*
X82100000Y-75137500D03*
D11*
X86437500Y-111525000D03*
X84612500Y-111525000D03*
D19*
X138112500Y-76200000D03*
X139937500Y-76200000D03*
D18*
X110500000Y-83512500D03*
X109540000Y-83512500D03*
D11*
X95775000Y-70975000D03*
X93950000Y-70975000D03*
D13*
X227469887Y-93510113D03*
X227469887Y-92550113D03*
D20*
X114075000Y-77087500D03*
X114075000Y-78912500D03*
X96137500Y-158475000D03*
X96137500Y-160300000D03*
D10*
X181085000Y-92155000D03*
X182045000Y-92155000D03*
D11*
X84612500Y-177000000D03*
X82787500Y-177000000D03*
D18*
X117271250Y-159925000D03*
X116311250Y-159925000D03*
D20*
X230100000Y-71862500D03*
X230100000Y-73687500D03*
X131465000Y-158337500D03*
X131465000Y-160162500D03*
D13*
X179472500Y-81629888D03*
X179472500Y-80669888D03*
D21*
X235200000Y-121140000D03*
X235200000Y-122100000D03*
X231125000Y-114275000D03*
X231125000Y-115235000D03*
D11*
X82637500Y-179475000D03*
X80812500Y-179475000D03*
D10*
X80250000Y-151575000D03*
X81210000Y-151575000D03*
D13*
X227444887Y-96285113D03*
X227444887Y-95325113D03*
M02*
